<svg width="23" height="26" viewBox="0 0 23 26" fill="none" xmlns="http://www.w3.org/2000/svg">
<path d="M1.76923 24.1429H5.75V19.9643H1.76923V24.1429ZM6.63462 24.1429H11.0577V19.9643H6.63462V24.1429ZM1.76923 19.0357H5.75V14.3929H1.76923V19.0357ZM6.63462 19.0357H11.0577V14.3929H6.63462V19.0357ZM1.76923 13.4643H5.75V9.28571H1.76923V13.4643ZM11.9423 24.1429H16.3654V19.9643H11.9423V24.1429ZM6.63462 13.4643H11.0577V9.28571H6.63462V13.4643ZM17.25 24.1429H21.2308V19.9643H17.25V24.1429ZM11.9423 19.0357H16.3654V14.3929H11.9423V19.0357ZM7.07692 6.5V2.32143C7.07692 2.19568 7.03315 2.08687 6.94561 1.99498C6.85807 1.90309 6.75441 1.85714 6.63462 1.85714H5.75C5.63021 1.85714 5.52654 1.90309 5.439 1.99498C5.35146 2.08687 5.30769 2.19568 5.30769 2.32143V6.5C5.30769 6.62574 5.35146 6.73456 5.439 6.82645C5.52654 6.91834 5.63021 6.96429 5.75 6.96429H6.63462C6.75441 6.96429 6.85807 6.91834 6.94561 6.82645C7.03315 6.73456 7.07692 6.62574 7.07692 6.5ZM17.25 19.0357H21.2308V14.3929H17.25V19.0357ZM11.9423 13.4643H16.3654V9.28571H11.9423V13.4643ZM17.25 13.4643H21.2308V9.28571H17.25V13.4643ZM17.6923 6.5V2.32143C17.6923 2.19568 17.6485 2.08687 17.561 1.99498C17.4735 1.90309 17.3698 1.85714 17.25 1.85714H16.3654C16.2456 1.85714 16.1419 1.90309 16.0544 1.99498C15.9668 2.08687 15.9231 2.19568 15.9231 2.32143V6.5C15.9231 6.62574 15.9668 6.73456 16.0544 6.82645C16.1419 6.91834 16.2456 6.96429 16.3654 6.96429H17.25C17.3698 6.96429 17.4735 6.91834 17.561 6.82645C17.6485 6.73456 17.6923 6.62574 17.6923 6.5ZM23 5.57143V24.1429C23 24.6458 22.8249 25.0811 22.4748 25.4487C22.1246 25.8162 21.7099 26 21.2308 26H1.76923C1.29006 26 0.875401 25.8162 0.52524 25.4487C0.17508 25.0811 0 24.6458 0 24.1429V5.57143C0 5.06845 0.17508 4.63318 0.52524 4.26562C0.875401 3.89807 1.29006 3.71429 1.76923 3.71429H3.53846V2.32143C3.53846 1.68304 3.75501 1.13653 4.1881 0.68192C4.62119 0.227307 5.14183 0 5.75 0H6.63462C7.24279 0 7.76342 0.227307 8.19651 0.68192C8.62961 1.13653 8.84615 1.68304 8.84615 2.32143V3.71429H14.1538V2.32143C14.1538 1.68304 14.3704 1.13653 14.8035 0.68192C15.2366 0.227307 15.7572 0 16.3654 0H17.25C17.8582 0 18.3788 0.227307 18.8119 0.68192C19.245 1.13653 19.4615 1.68304 19.4615 2.32143V3.71429H21.2308C21.7099 3.71429 22.1246 3.89807 22.4748 4.26562C22.8249 4.63318 23 5.06845 23 5.57143Z" fill="#0E6016"/>
</svg>
