<svg width="300" height="250" viewBox="0 0 300 250" fill="none" xmlns="http://www.w3.org/2000/svg">
<path d="M213.519 249.619H81.2218L75.4121 242.461L167.484 56.3516L295.313 46.5101L299.783 56.3516L213.521 249.619H213.519Z" fill="#D4D5D6"/>
<path d="M207.707 242.461H75.4102L163.012 46.5084H295.309L207.707 242.461Z" fill="#F5F6F6"/>
<path d="M92.3535 218.75L163.356 59.9297H282.966L211.964 218.75H92.3535V218.75Z" fill="#1CAB04"/>
<path d="M98.1615 218.75H92.3535L163.356 59.9297H282.966L280.666 65.0745H166.864L98.1615 218.75V218.75Z" fill="#0E6016"/>
<path d="M168.823 230.829C164.124 239.451 159.418 239.329 147.816 239.329C136.214 239.329 123.532 237.838 126.809 230.829C130.819 222.25 136.214 222.328 147.816 222.328C159.418 222.328 172.398 224.267 168.823 230.829Z" fill="#D4D5D6"/>
<path d="M214.509 53.1147C213.424 54.5987 211.106 55.8086 209.331 55.8138C207.557 55.8189 206.998 54.6194 208.083 53.1371C209.167 51.6514 211.487 50.4432 213.26 50.438C215.036 50.4311 215.593 51.6307 214.509 53.1147Z" fill="#D4D5D6"/>
<path d="M240.433 53.0303C239.348 54.516 237.03 55.7242 235.255 55.7294L217.874 55.7862C216.099 55.7931 215.541 54.5918 216.626 53.1096C217.711 51.6239 220.028 50.4156 221.804 50.4105L239.185 50.3536C240.96 50.3484 241.519 51.5463 240.433 53.032V53.0303Z" fill="#D4D5D6"/>
<path d="M274.525 109.813L263.761 133.524L260.297 128.827L271.684 103.236L274.525 109.814V109.813Z" fill="#B0B1B3"/>
<path d="M290.082 74.9177L279.318 98.6286L275.854 93.9302L287.24 68.3389L290.082 74.9177V74.9177Z" fill="#B0B1B3"/>
<path d="M254.186 109.047H152.663L169.427 71.9962H271.605L254.186 109.047V109.047Z" fill="white"/>
<path d="M203.519 90.0918C199.361 98.5148 187.728 105.302 177.534 105.252C167.344 105.2 162.452 98.3338 166.614 89.9091C170.772 81.4878 182.405 74.7005 192.597 74.7488C202.789 74.8005 207.68 81.6705 203.519 90.0935V90.0918Z" fill="#0E6016"/>
<path d="M261.935 83.8147L213.689 83.5734L217.986 74.8746L266.231 75.1159L261.937 83.8164L261.935 83.8147Z" fill="#0B4B7F"/>
<path d="M259.328 89.0956L211.08 88.856L212.563 85.8519L260.809 86.0932L259.326 89.0956H259.328Z" fill="#C4C5C7"/>
<path d="M239.293 94.0888L208.571 93.9354L210.054 90.9329L240.778 91.0846L239.293 94.0888Z" fill="#C4C5C7"/>
<path d="M253.858 100.173C252.937 102.038 250.362 103.542 248.107 103.53L237.601 103.477C235.342 103.467 234.261 101.945 235.182 100.08C236.102 98.2149 238.678 96.712 240.937 96.7223L251.442 96.774C253.698 96.7878 254.779 98.308 253.86 100.171L253.858 100.173Z" fill="#0B4B7F"/>
<path fill-rule="evenodd" clip-rule="evenodd" d="M242.128 101.188L242.141 100.817L241.139 100.811L240.788 101.181L239.87 101.176L242.401 98.4924L243.169 98.4941L243.045 101.191L242.128 101.186V101.188ZM242.305 99.4766L241.692 100.187L242.208 100.188L242.305 99.4766Z" fill="white"/>
<path fill-rule="evenodd" clip-rule="evenodd" d="M244.777 101.202L243.322 101.193L244.652 98.5027L246.107 98.5131C246.332 98.5131 246.527 98.551 246.692 98.6217C246.856 98.6923 246.98 98.7906 247.069 98.9112C247.155 99.0336 247.203 99.1767 247.207 99.3421C247.21 99.5076 247.167 99.6817 247.076 99.8661C246.985 100.052 246.856 100.226 246.689 100.39C246.525 100.552 246.336 100.693 246.127 100.816C245.919 100.936 245.698 101.029 245.464 101.098C245.232 101.171 245.003 101.204 244.776 101.202H244.777ZM245.681 99.168L245.182 99.1663L244.498 100.547L244.999 100.549C245.116 100.549 245.235 100.531 245.356 100.495C245.475 100.461 245.588 100.411 245.695 100.349C245.8 100.287 245.897 100.214 245.983 100.13C246.065 100.047 246.132 99.9574 246.179 99.8626C246.227 99.7678 246.246 99.6782 246.248 99.5938C246.244 99.511 246.222 99.4335 246.177 99.3731C246.132 99.3094 246.069 99.2611 245.984 99.2249C245.898 99.1887 245.798 99.1698 245.681 99.1698V99.168Z" fill="white"/>
<path fill-rule="evenodd" clip-rule="evenodd" d="M248.233 101.219L246.778 101.212L248.106 98.5234L249.563 98.5286C249.788 98.5303 249.981 98.5665 250.146 98.6372C250.31 98.7079 250.436 98.8061 250.523 98.9267C250.611 99.0491 250.658 99.1922 250.663 99.3576C250.666 99.5196 250.623 99.6955 250.53 99.8816C250.441 100.066 250.312 100.242 250.145 100.404C249.979 100.569 249.79 100.709 249.585 100.831C249.375 100.95 249.156 101.047 248.922 101.114C248.69 101.185 248.461 101.217 248.233 101.217V101.219ZM249.137 99.1853L248.638 99.1836L247.956 100.561L248.457 100.564C248.574 100.568 248.693 100.547 248.812 100.512C248.934 100.478 249.046 100.43 249.151 100.366C249.258 100.304 249.354 100.231 249.437 100.147C249.525 100.063 249.59 99.9729 249.637 99.8781C249.687 99.7851 249.707 99.6937 249.706 99.6075C249.704 99.5265 249.681 99.4507 249.635 99.3887C249.592 99.3249 249.528 99.2749 249.444 99.237C249.359 99.2025 249.258 99.1853 249.141 99.1836L249.137 99.1853Z" fill="white"/>
<path d="M193.261 86.0398C192.035 88.52 188.255 90.521 184.816 90.5055C181.38 90.4865 179.585 88.4614 180.81 85.9777L182.773 82.0015C184 79.5196 187.78 77.5203 191.217 77.5375C194.655 77.5547 196.448 79.5799 195.222 82.0618L193.261 86.0398Z" fill="white"/>
<path d="M179.564 101.578C174.926 101.553 171.855 100.95 170.357 99.7679L171.85 96.7482C174.072 92.248 179.172 90.8812 184.616 90.9088C190.059 90.9364 193.791 92.3445 191.568 96.8447L190.075 99.8661C187.704 101.03 184.201 101.598 179.564 101.578Z" fill="white"/>
<path d="M185.731 93.0322L181.416 93.0098L183.501 88.7888L187.816 88.8078L185.731 93.0322Z" fill="white"/>
<path d="M194.631 85.0108C194.474 85.3349 194.023 85.5951 193.634 85.5934C193.239 85.5917 193.052 85.328 193.213 85.0022L193.838 83.7354C193.999 83.4114 194.443 83.1511 194.837 83.1528C195.23 83.1546 195.419 83.4166 195.257 83.7423L194.631 85.0091V85.0108Z" fill="white"/>
<path d="M182.032 84.947C181.87 85.2711 181.422 85.5348 181.032 85.5313C180.639 85.5279 180.453 85.2625 180.613 84.9401L181.236 83.6716C181.398 83.3459 181.844 83.089 182.237 83.0908C182.626 83.0925 182.817 83.3562 182.657 83.6785L182.032 84.9453V84.947Z" fill="white"/>
<path d="M234.853 152.307H132.749L150.445 115.242H251.691L234.853 152.307Z" fill="white"/>
<path d="M183.607 133.338C179.449 141.761 167.816 148.548 157.622 148.498C147.432 148.446 142.54 141.58 146.7 133.155C150.858 124.734 162.491 117.946 172.685 117.994C182.875 118.046 187.767 124.916 183.607 133.339V133.338Z" fill="#F77563"/>
<path d="M242.023 127.059L193.777 126.817L198.072 118.119L246.318 118.358L242.023 127.059V127.059Z" fill="#0B4B7F"/>
<path d="M239.416 132.341L191.168 132.102L192.652 129.098L240.898 129.339L239.416 132.341Z" fill="#C4C5C7"/>
<path d="M219.381 137.334L188.659 137.179L190.142 134.177L220.866 134.329L219.381 137.334Z" fill="#C4C5C7"/>
<path d="M233.946 143.419C233.024 145.283 230.45 146.788 228.193 146.776L217.687 146.724C215.428 146.712 214.347 145.19 215.268 143.327C216.188 141.462 218.764 139.959 221.023 139.97L231.528 140.021C233.784 140.035 234.865 141.557 233.946 143.419Z" fill="#0B4B7F"/>
<path fill-rule="evenodd" clip-rule="evenodd" d="M222.217 144.434L222.231 144.063L221.229 144.058L220.876 144.429L219.958 144.423L222.491 141.74L223.259 141.742L223.135 144.439L222.217 144.434V144.434ZM222.395 142.722L221.782 143.432L222.298 143.434L222.395 142.722V142.722Z" fill="white"/>
<path fill-rule="evenodd" clip-rule="evenodd" d="M224.865 144.448L223.408 144.439L224.737 141.75L226.193 141.759C226.418 141.759 226.613 141.797 226.778 141.867C226.943 141.938 227.066 142.036 227.155 142.157C227.241 142.279 227.289 142.422 227.295 142.586C227.298 142.752 227.255 142.926 227.164 143.11C227.072 143.296 226.943 143.47 226.776 143.634C226.613 143.796 226.423 143.937 226.215 144.06C226.007 144.18 225.786 144.273 225.552 144.342C225.319 144.415 225.09 144.448 224.863 144.446L224.865 144.448ZM225.767 142.414L225.27 142.41L224.586 143.791L225.085 143.793C225.204 143.793 225.321 143.775 225.443 143.739C225.562 143.705 225.676 143.655 225.783 143.593C225.888 143.531 225.984 143.458 226.07 143.374C226.153 143.289 226.22 143.201 226.267 143.107C226.315 143.012 226.334 142.922 226.335 142.838C226.332 142.755 226.308 142.677 226.265 142.617C226.22 142.553 226.156 142.505 226.072 142.469C225.986 142.433 225.886 142.414 225.767 142.414V142.414Z" fill="white"/>
<path fill-rule="evenodd" clip-rule="evenodd" d="M228.321 144.465L226.866 144.458L228.194 141.769L229.651 141.774C229.876 141.776 230.071 141.812 230.236 141.883C230.4 141.955 230.524 142.052 230.613 142.172C230.701 142.295 230.747 142.438 230.753 142.603C230.756 142.767 230.713 142.941 230.62 143.127C230.53 143.312 230.4 143.487 230.234 143.649C230.069 143.815 229.881 143.955 229.675 144.077C229.465 144.196 229.246 144.292 229.012 144.36C228.778 144.43 228.55 144.463 228.323 144.463L228.321 144.465ZM229.225 142.431L228.726 142.429L228.044 143.806L228.543 143.808C228.662 143.811 228.779 143.793 228.898 143.756C229.02 143.722 229.134 143.674 229.237 143.61C229.344 143.548 229.44 143.475 229.523 143.391C229.611 143.306 229.676 143.217 229.723 143.122C229.773 143.029 229.793 142.938 229.792 142.851C229.79 142.77 229.766 142.695 229.721 142.633C229.678 142.569 229.614 142.519 229.53 142.481C229.446 142.446 229.342 142.429 229.227 142.427L229.225 142.431Z" fill="white"/>
<path d="M173.347 129.285C172.121 131.766 168.342 133.767 164.903 133.751C161.464 133.732 159.67 131.707 160.895 129.223L162.857 125.247C164.085 122.765 167.863 120.766 171.302 120.783C174.74 120.8 176.535 122.824 175.307 125.307L173.346 129.284L173.347 129.285Z" fill="white"/>
<path d="M159.653 144.823C155.013 144.799 151.944 144.196 150.446 143.014L151.939 139.994C154.16 135.494 159.261 134.129 164.705 134.154C170.148 134.182 173.878 135.59 171.657 140.09L170.165 143.112C167.794 144.275 164.292 144.844 159.655 144.823H159.653Z" fill="white"/>
<path d="M165.816 136.278L161.501 136.255L163.586 132.035L167.901 132.055L165.816 136.28V136.278Z" fill="white"/>
<path d="M174.72 128.257C174.564 128.581 174.113 128.841 173.723 128.839C173.329 128.837 173.141 128.574 173.303 128.248L173.928 126.981C174.088 126.657 174.533 126.397 174.927 126.399C175.32 126.4 175.507 126.662 175.347 126.988L174.72 128.255V128.257Z" fill="white"/>
<path d="M162.12 128.191C161.959 128.515 161.51 128.779 161.119 128.775C160.727 128.774 160.539 128.506 160.701 128.184L161.324 126.916C161.486 126.592 161.932 126.333 162.325 126.335C162.715 126.336 162.905 126.6 162.746 126.922L162.121 128.189L162.12 128.191Z" fill="white"/>
<path d="M215.062 197.221H112.838L130.536 160.158H231.78L215.062 197.221Z" fill="white"/>
<path d="M163.694 178.25C159.534 186.675 147.902 193.464 137.709 193.41C127.519 193.36 122.627 186.492 126.787 178.067C130.947 169.646 142.578 162.857 152.772 162.907C162.964 162.958 167.854 169.829 163.696 178.25H163.694Z" fill="#0E6016"/>
<path d="M222.11 171.973L173.862 171.731L178.158 163.031L226.404 163.272L222.11 171.973Z" fill="#0B4B7F"/>
<path d="M219.503 177.254L171.255 177.016L172.737 174.01L220.983 174.251L219.501 177.254H219.503Z" fill="#C4C5C7"/>
<path d="M199.469 182.249L168.745 182.095L170.229 179.091L200.953 179.244L199.469 182.249Z" fill="#C4C5C7"/>
<path d="M214.034 188.333C213.113 190.198 210.537 191.702 208.282 191.69L197.776 191.637C195.517 191.626 194.436 190.104 195.357 188.24C196.276 186.373 198.852 184.872 201.11 184.882L211.615 184.936C213.871 184.948 214.952 186.469 214.033 188.333H214.034Z" fill="#0B4B7F"/>
<path fill-rule="evenodd" clip-rule="evenodd" d="M202.304 189.348L202.318 188.979L201.316 188.972L200.963 189.343L200.045 189.337L202.578 186.656L203.344 186.657L203.222 189.353L202.304 189.348V189.348ZM202.48 187.636L201.868 188.346L202.383 188.348L202.48 187.636V187.636Z" fill="white"/>
<path fill-rule="evenodd" clip-rule="evenodd" d="M204.952 189.362L203.497 189.353L204.826 186.664L206.281 186.673C206.507 186.673 206.702 186.711 206.867 186.781C207.03 186.854 207.154 186.952 207.244 187.071C207.33 187.193 207.378 187.336 207.382 187.5C207.387 187.666 207.342 187.841 207.251 188.024C207.16 188.21 207.03 188.384 206.863 188.55C206.698 188.71 206.51 188.853 206.302 188.975C206.094 189.096 205.873 189.189 205.639 189.258C205.407 189.329 205.178 189.363 204.95 189.362H204.952ZM205.856 187.328L205.357 187.324L204.675 188.703L205.174 188.705C205.293 188.705 205.412 188.689 205.532 188.653C205.653 188.617 205.765 188.569 205.873 188.507C205.977 188.445 206.075 188.372 206.161 188.288C206.244 188.203 206.311 188.114 206.357 188.021C206.405 187.926 206.424 187.836 206.426 187.752C206.423 187.669 206.398 187.591 206.355 187.531C206.311 187.469 206.247 187.417 206.163 187.381C206.076 187.347 205.975 187.328 205.858 187.328H205.856Z" fill="white"/>
<path fill-rule="evenodd" clip-rule="evenodd" d="M208.408 189.379L206.953 189.372L208.281 186.683L209.736 186.688C209.961 186.69 210.156 186.726 210.321 186.797C210.485 186.869 210.61 186.968 210.698 187.087C210.788 187.211 210.834 187.352 210.838 187.517C210.843 187.681 210.798 187.857 210.705 188.043C210.616 188.228 210.486 188.402 210.319 188.565C210.154 188.729 209.966 188.87 209.76 188.993C209.551 189.112 209.331 189.208 209.097 189.275C208.863 189.344 208.635 189.379 208.408 189.379V189.379ZM209.312 187.345L208.813 187.343L208.131 188.72L208.63 188.724C208.749 188.726 208.868 188.707 208.985 188.67C209.107 188.636 209.221 188.589 209.324 188.524C209.429 188.462 209.527 188.39 209.61 188.305C209.698 188.221 209.763 188.131 209.81 188.038C209.86 187.945 209.88 187.854 209.879 187.767C209.877 187.685 209.855 187.609 209.808 187.548C209.765 187.483 209.701 187.435 209.615 187.395C209.533 187.361 209.427 187.345 209.312 187.343V187.345Z" fill="white"/>
<path d="M153.436 174.198C152.21 176.68 148.429 178.679 144.992 178.664C141.555 178.645 139.761 176.619 140.983 174.138L142.948 170.161C144.174 167.679 147.954 165.68 151.392 165.697C154.831 165.716 156.623 167.741 155.397 170.222L153.436 174.198Z" fill="white"/>
<path d="M139.74 189.737C135.1 189.713 132.031 189.11 130.533 187.928L132.026 184.908C134.247 180.406 139.346 179.041 144.791 179.069C150.233 179.096 153.963 180.504 151.742 185.006L150.251 188.028C147.881 189.191 144.377 189.762 139.74 189.739V189.737Z" fill="white"/>
<path d="M145.905 181.192L141.59 181.17L143.675 176.947L147.99 176.968L145.905 181.192V181.192Z" fill="white"/>
<path d="M154.807 173.171C154.651 173.495 154.199 173.755 153.809 173.753C153.414 173.751 153.228 173.488 153.388 173.162L154.014 171.895C154.172 171.571 154.618 171.313 155.012 171.314C155.405 171.316 155.592 171.578 155.432 171.904L154.807 173.171V173.171Z" fill="white"/>
<path d="M142.204 173.105C142.044 173.429 141.594 173.693 141.205 173.691C140.812 173.688 140.625 173.422 140.787 173.1L141.41 171.833C141.572 171.509 142.016 171.249 142.409 171.251C142.8 171.252 142.991 171.516 142.831 171.84L142.206 173.107L142.204 173.105Z" fill="white"/>
<path d="M76.5316 201.22C76.5316 222.374 59.3987 239.522 38.2675 239.522C17.1329 239.522 0 222.374 0 201.22C0 180.066 17.1329 162.917 38.2675 162.917C59.3987 162.917 76.5316 180.066 76.5316 201.22Z" fill="#FF473E"/>
<path d="M11.0232 240.255C11.6879 236.607 12.3594 233.55 12.6642 233.069C13.4545 231.818 18.3654 225.925 19.9685 225.311C20.9603 224.93 21.5354 233.605 21.8299 240.255H11.0215H11.0232Z" fill="#2559A6"/>
<path d="M20.7918 240.255L19.9688 225.311L34.3535 219.818L49.3082 219.958L63.3331 225.525L61.9917 240.255H20.7918V240.255Z" fill="#3468AD"/>
<path d="M57.9453 240.254C58.4085 232.555 61.8971 224.974 63.3349 225.525C64.9362 226.14 69.2461 231.819 70.0417 233.069C70.3068 233.493 70.8923 236.485 71.5483 240.254H57.9453Z" fill="#2559A6"/>
<path d="M32.28 226.549C30.5254 226.004 27.6671 223.988 27.2331 222.538C26.8027 221.089 29.9572 219.437 32.3145 217.945C34.6046 216.502 38.639 215.859 41.3682 215.59C46.0156 215.13 49.0926 215.056 52.8825 217.398C56.8102 219.82 58.0603 222.031 57.3698 223.159C56.6862 224.288 49.5851 225.792 47.2278 226.661C42.9558 228.238 41.5025 231.221 40.2025 231.221C38.9042 231.221 35.4552 227.53 32.2783 226.549H32.28Z" fill="#2559A6"/>
<path d="M31.8684 222.266C31.5395 221.147 32.7776 220.31 34.6045 219.16C36.3712 218.043 39.4912 217.548 41.5971 217.34C45.1873 216.983 45.616 216.7 48.8446 217.885C51.1502 218.733 52.4675 220.454 51.9354 221.323C51.4068 222.195 40.7069 225.499 36.5124 224.858C35.5205 224.708 32.2042 223.388 31.8684 222.266V222.266Z" fill="#193969"/>
<path d="M29.0632 196.654C29.0632 198.839 28.4812 199.73 26.3168 200.361C22.9247 201.352 20.9893 197.267 20.9893 194.937C20.9893 191.666 23.1812 188.07 26.8902 194.062C29.2199 194.062 29.0632 194.468 29.0632 196.654Z" fill="#E69A7E"/>
<path d="M56.798 190.956C57.3249 209.625 43.0021 212.536 39.0727 212.536C35.1451 212.536 23.7719 206.871 23.7719 193.114C23.1452 178.882 25.9191 172.31 36.5123 169.744C40.7017 168.727 49.9586 168.844 50.4493 173.105C55.4807 172.855 56.6223 180.969 56.798 190.959V190.956Z" fill="#1B262A"/>
<path d="M38.5603 223.367C35.5142 223.367 34.1126 222.185 34.3537 219.822L34.4312 218.965L35.2301 209.075L43.4436 206.637L51.6037 204.212C49.162 210.537 48.3975 215.787 49.3084 219.96C49.9455 220.21 44.1203 223.365 38.5603 223.365V223.367Z" fill="#FFBA9E"/>
<g style="mix-blend-mode:multiply">
<path d="M45.9767 212.011C43.2596 216.282 39.9174 218.638 35.9484 219.079C35.4559 219.134 34.9428 219.093 34.4297 218.967L35.2287 209.077L43.4421 206.638L45.975 212.011H45.9767Z" fill="#ECD1D0"/>
</g>
<path d="M52.7624 191.207C52.9553 193.775 52.4215 200.108 52.0478 202.452C51.0371 208.831 43.2179 215.916 37.0243 215.916C29.5288 215.916 26.6274 208.6 25.3549 203.882C24.6369 201.226 24.3184 195.483 24.3184 192.367C24.3184 179.389 30.9838 174.399 38.8391 174.399C46.6979 174.399 51.6346 175.902 52.7641 191.206L52.7624 191.207Z" fill="#FFBA9E"/>
<path d="M51.0229 193.653C54.7336 187.66 56.9239 191.257 56.9239 194.527C56.9239 196.857 54.9884 200.942 51.598 199.951C49.4319 199.318 48.8499 198.429 48.8499 196.244C48.8499 194.058 48.6932 193.653 51.0229 193.653Z" fill="#FFBA9E"/>
<path d="M52.883 185.899C53.286 188.9 52.8469 193.053 51.5692 198.362L49.9351 199.194C50.989 194.56 51.1697 191.368 50.4793 189.617C49.2688 186.535 45.6338 184.33 45.67 179.458C44.9451 180.792 36.401 182.416 20.0343 184.327L22.9771 181.507L18.9375 180.478L23.3301 178.357L19.566 176.55C23.5729 174.203 27.6228 172.266 31.7174 170.737C44.9864 165.788 52.0565 179.722 52.8848 185.897L52.883 185.899Z" fill="#1B262A"/>
<g style="mix-blend-mode:multiply">
<path d="M41.9316 190.671C39.9135 191.449 38.846 192.145 38.7254 192.762C38.3518 194.706 38.7013 197.257 39.7741 200.413L37.0225 200.403C37.0603 195.561 37.3617 192.772 37.9265 192.035C38.6221 191.125 39.9566 190.671 41.9316 190.671V190.671Z" fill="#ECD1D0"/>
</g>
<path d="M49.0771 191.078C48.8516 191.407 47.2829 190.297 46.0242 190.301C43.5636 190.311 40.0165 191.073 39.8167 190.763C39.5757 190.39 39.2726 188.436 40.2507 188.308C43.4069 187.9 46.465 188.095 47.4947 188.677C48.0578 188.996 49.3044 190.752 49.0771 191.076V191.078Z" fill="#1B262A"/>
<path d="M44.9843 194.243C44.9843 195.035 44.2938 195.677 43.4432 195.677C42.5891 195.677 41.9004 195.034 41.9004 194.243C41.9004 193.45 42.5891 192.809 43.4432 192.809C44.2938 192.809 44.9843 193.451 44.9843 194.243Z" fill="#1B262A"/>
<path d="M43.4605 193.622C43.4605 193.9 43.2349 194.127 42.956 194.127C42.6719 194.127 42.4463 193.9 42.4463 193.622C42.4463 193.339 42.6719 193.114 42.956 193.114C43.2332 193.114 43.4605 193.339 43.4605 193.622Z" fill="white"/>
<path d="M43.6797 194.162C43.6797 194.306 43.566 194.418 43.4179 194.418C43.2767 194.418 43.1631 194.306 43.1631 194.162C43.1631 194.017 43.2767 193.903 43.4179 193.903C43.5643 193.903 43.6797 194.017 43.6797 194.162Z" fill="white"/>
<path d="M26.2814 188.679C27.3111 188.096 30.3675 187.902 33.5203 188.31C34.5 188.436 34.1987 190.392 33.9611 190.764C33.7579 191.075 30.2125 190.313 27.7536 190.303C26.488 190.299 24.9246 191.407 24.699 191.08C24.4683 190.756 25.7184 188.998 26.2797 188.681L26.2814 188.679Z" fill="#1B262A"/>
<path d="M30.326 192.809C31.1783 192.809 31.8688 193.451 31.8688 194.243C31.8688 195.035 31.1783 195.677 30.326 195.677C29.4805 195.677 28.79 195.034 28.79 194.243C28.79 193.45 29.4805 192.809 30.326 192.809Z" fill="#1B262A"/>
<path d="M30.8199 193.112C31.0989 193.112 31.3245 193.338 31.3245 193.62C31.3245 193.898 31.0989 194.125 30.8199 194.125C30.5427 194.125 30.3154 193.898 30.3154 193.62C30.3154 193.338 30.541 193.112 30.8199 193.112Z" fill="white"/>
<path d="M30.3505 193.903C30.4952 193.903 30.6123 194.017 30.6123 194.162C30.6123 194.306 30.4969 194.418 30.3505 194.418C30.2128 194.418 30.0957 194.306 30.0957 194.162C30.0957 194.017 30.2111 193.903 30.3505 193.903Z" fill="white"/>
<path d="M40.7018 204.668C40.8137 207.605 39.4173 209.074 36.5124 209.074C33.8263 209.074 32.4281 207.605 32.3145 204.668H40.7018Z" fill="white"/>
<path d="M40.4812 231.011C40.4829 231.071 40.4812 231.149 40.4726 231.245C40.4726 231.387 40.4072 231.597 40.402 231.807C40.3968 231.913 40.3934 232.021 40.3745 232.125C40.3503 232.221 40.3693 232.359 40.3452 232.471C40.3056 232.704 40.3125 232.962 40.266 233.205C40.2591 233.459 40.204 233.708 40.1833 233.958C40.1799 234.081 40.1351 234.203 40.1282 234.322C40.1196 234.439 40.0955 234.555 40.0714 234.663C40.0249 234.879 39.9939 235.068 39.9509 235.208C39.925 235.301 39.8992 235.375 39.8768 235.432C39.8321 235.396 39.7752 235.342 39.7081 235.27C39.6134 235.161 39.4636 235.005 39.3603 234.791C39.2449 234.579 39.1278 234.319 39.0779 234.02C39.0538 233.872 39.0021 233.721 39.0107 233.56C39.0038 233.4 39.0107 233.238 39.0159 233.074C39.0434 232.912 39.0744 232.748 39.1157 232.593C39.1433 232.435 39.2294 232.29 39.2897 232.149C39.3568 232.006 39.4154 231.88 39.5152 231.757C39.6013 231.635 39.6995 231.53 39.7873 231.439C39.9543 231.249 40.142 231.185 40.2677 231.109C40.3538 231.066 40.4261 231.033 40.4812 231.013V231.011Z" fill="#193969"/>
<path d="M40.6903 230.801C40.649 230.856 40.5922 230.927 40.5147 231.013C40.4131 231.146 40.203 231.296 40.0463 231.499C39.9654 231.599 39.8827 231.702 39.788 231.794C39.6933 231.876 39.6158 232.026 39.5125 232.126C39.3076 232.34 39.1389 232.616 38.9254 232.847C38.748 233.114 38.5293 233.35 38.352 233.607C38.2693 233.736 38.1505 233.843 38.0713 233.965C37.9904 234.086 37.8991 234.196 37.8113 234.298C37.6357 234.501 37.4996 234.686 37.3774 234.806C37.2999 234.889 37.2327 234.953 37.1811 234.999C37.1656 234.934 37.1518 234.844 37.1397 234.729C37.1294 234.56 37.095 234.307 37.1432 234.026C37.1776 233.739 37.2379 233.405 37.3825 233.072C37.4549 232.909 37.5065 232.723 37.6167 232.566C37.7131 232.4 37.8233 232.238 37.9318 232.076C38.0627 231.928 38.197 231.782 38.3347 231.645C38.4622 231.499 38.6378 231.402 38.7859 231.292C38.9426 231.187 39.0803 231.087 39.256 231.023C39.4195 230.949 39.5814 230.899 39.7243 230.856C40.0084 230.756 40.2409 230.796 40.4131 230.785C40.5267 230.789 40.618 230.794 40.6869 230.803L40.6903 230.801Z" fill="#193969"/>
<path d="M102.632 113.644C102.632 126.173 96.5968 137.29 87.2779 144.241C85.3408 145.683 83.2659 146.948 81.0705 148.008C81.055 148.017 81.0377 148.024 81.0188 148.032C76.0305 150.433 70.4394 151.778 64.5351 151.778C58.9561 151.778 53.6595 150.578 48.8847 148.422C48.8709 148.417 48.8572 148.412 48.8451 148.405C46.5894 147.383 44.4525 146.149 42.4568 144.727C32.7574 137.814 26.4346 126.469 26.4346 113.644C26.4346 92.5824 43.4917 75.5089 64.5351 75.5089C85.575 75.5089 102.63 92.5824 102.63 113.644H102.632Z" fill="#42A6D2"/>
<path d="M48.8453 148.405C46.5896 147.383 44.4527 146.149 42.457 144.727C42.5707 144.27 42.686 143.936 42.7997 143.743C44.2805 141.23 46.166 139.222 48.4561 137.719L48.8849 148.422L48.8453 148.405Z" fill="#FFBA9E"/>
<path d="M81.3411 106.629C80.9485 112.745 84.9261 115.461 82.1435 121.504C81.4599 122.988 79.7707 123.796 78.9959 126.817C78.4432 128.975 81.4685 131.966 78.9959 136.924C76.8177 141.293 61.9801 147.031 53.7683 142.031C45.5583 137.029 51.9517 130.747 52.1136 125.985C52.2186 122.927 49.1244 122.259 48.1635 118.992C46.5708 113.574 47.4489 109.59 47.3835 107.801C46.6999 88.8922 56.7179 83.189 66.4759 83.7406C79.4487 84.4731 82.2313 97.9564 81.3411 106.629V106.629Z" fill="#4B280E"/>
<path d="M87.2778 144.241C85.3406 145.683 83.2657 146.948 81.0703 148.008L81.4784 137.634C83.7358 139.137 85.5938 141.149 87.0522 143.665C87.128 143.794 87.202 143.989 87.2778 144.241V144.241Z" fill="#FFBA9E"/>
<path d="M48.8454 148.405L48.458 137.719L49.7425 137.179L54.371 135.237L76.5284 135.068L79.1888 136.517L81.3928 137.72L81.0191 148.034C76.0308 150.435 70.4398 151.78 64.5354 151.78C58.9564 151.78 53.6599 150.58 48.885 148.424L48.8454 148.407V148.405Z" fill="#FF601E"/>
<path d="M60.0522 133.1L58.8073 123.201H71.1757L70.4835 133.382L76.5308 135.066C78.6918 145.061 75.0086 150.04 65.4848 150.001C57.4969 149.968 53.7931 145.047 54.3734 135.237L60.0522 133.098V133.1Z" fill="#FFBA9E"/>
<g style="mix-blend-mode:multiply">
<path d="M66.5054 131.938C64.236 132.197 61.9045 131.083 59.5162 128.599L59.0771 123.201H71.1752L70.8136 128.67C70.211 130.59 68.7749 131.679 66.5054 131.938V131.938Z" fill="#ECD1D0"/>
</g>
<path d="M78.9523 106.233C79.1382 108.605 78.2308 115.333 77.6161 117.441C75.431 124.944 68.168 129.144 64.9636 129.144C61.7608 129.144 56.4849 125.985 53.0497 118.475C51.6774 115.473 50.9766 110.18 50.9766 107.302C50.9766 95.3177 57.2391 88.1012 64.9653 88.1012C72.6914 88.1012 77.8434 92.0998 78.954 106.231L78.9523 106.233Z" fill="#FFBA9E"/>
<path d="M75.9384 107.994C79.78 103.003 81.6534 107.15 81.6689 109.384C81.6862 111.886 80.0435 114.068 76.5342 113.243C74.294 112.715 73.6896 111.974 73.6896 110.152C73.6896 108.332 73.5312 107.994 75.9384 107.994V107.994Z" fill="#FFBA9E"/>
<path d="M55.8036 110.152C55.8036 111.974 55.1975 112.715 52.9591 113.241C49.4498 114.066 47.8071 111.883 47.8244 109.382C47.8398 107.148 49.7133 103.001 53.5548 107.993C55.9638 107.993 55.8036 108.33 55.8036 110.152Z" fill="#FFBA9E"/>
<path d="M76.2915 90.633C76.3517 90.7571 79.7697 96.0502 79.7697 100.74C79.7697 105.44 79.279 112.331 78.7624 111.605C78.4697 111.193 78.7366 107.92 75.9333 103.448C73.8068 100.052 67.6906 100.456 66.5679 95.135C64.3243 100.144 54.3441 99.7558 53.051 103.448C52.3657 105.404 51.7768 107.984 51.2809 111.188C49.9292 109.061 49.4281 107.141 49.7777 105.426C50.3028 102.855 50.6868 92.6755 57.0165 89.1732C63.0793 85.8192 75.5889 89.1922 76.2915 90.6313V90.633Z" fill="#4B280E"/>
<path d="M69.2377 118.917C68.6815 120.418 67.366 121.168 65.2911 121.168C63.6106 121.168 62.4224 120.418 61.7285 118.917C63.2162 118.622 64.2287 118.475 64.7677 118.475C65.1069 119.011 65.6183 118.917 65.9764 118.475C66.5636 118.475 67.6519 118.622 69.2377 118.917Z" fill="#EF6252"/>
<path d="M69.2379 118.917C68.5475 119.313 67.2767 119.509 65.4257 119.509C63.795 119.509 62.5639 119.311 61.7305 118.917C63.2182 118.622 64.2307 118.475 64.7696 118.475C65.1088 119.011 65.6202 118.917 65.9784 118.475C66.5656 118.475 67.6538 118.622 69.2397 118.917H69.2379Z" fill="#EF7056"/>
<g style="mix-blend-mode:soft-light">
<path d="M66.4316 119.742C66.4316 119.889 65.9598 120.292 65.3778 120.292C64.7958 120.292 64.3223 119.889 64.3223 119.742C64.3223 119.597 64.7941 119.77 65.3778 119.77C65.9598 119.77 66.4316 119.599 66.4316 119.742Z" fill="white"/>
</g>
<g style="mix-blend-mode:multiply">
<path d="M66.1987 106.379L67.113 114.444L65.2637 114.935L65.4393 105.793L67.6881 105.43L66.1969 106.381L66.1987 106.379Z" fill="#ECD1D0"/>
</g>
<path d="M75.9328 106.629C75.4369 106.038 74.7154 105.533 73.7649 105.118C72.7146 104.659 68.7542 105.335 68.6079 105.071C68.4615 104.808 68.3857 103.577 68.8971 103.542C69.0848 103.529 73.5635 103.112 74.6104 104.168C75.4231 104.987 75.8639 105.807 75.9328 106.629V106.629Z" fill="#603515"/>
<path d="M72.7916 108.179C72.7916 108.923 72.1752 109.528 71.4158 109.528C70.6565 109.528 70.04 108.923 70.04 108.179C70.04 107.434 70.6565 106.831 71.4158 106.831C72.1752 106.831 72.7916 107.434 72.7916 108.179Z" fill="#603515"/>
<path d="M71.4337 107.803C71.4337 108.12 71.1771 108.375 70.8603 108.375C70.5417 108.375 70.2852 108.118 70.2852 107.803C70.2852 107.486 70.5417 107.229 70.8603 107.229C71.1771 107.229 71.4337 107.486 71.4337 107.803Z" fill="white"/>
<path d="M71.6812 108.417C71.6812 108.58 71.5503 108.708 71.3902 108.708C71.2283 108.708 71.0957 108.579 71.0957 108.417C71.0957 108.255 71.2266 108.124 71.3902 108.124C71.5503 108.124 71.6812 108.255 71.6812 108.417Z" fill="white"/>
<path d="M56.162 104.168C57.2089 103.112 61.6893 103.529 61.8753 103.542C62.3867 103.577 62.3109 104.808 62.1646 105.071C62.0182 105.335 58.0578 104.659 57.0075 105.118C56.057 105.533 55.3355 106.038 54.8379 106.629C54.9085 105.807 55.3493 104.987 56.162 104.168V104.168Z" fill="#603515"/>
<path d="M59.3536 106.831C60.1146 106.831 60.7294 107.434 60.7294 108.179C60.7294 108.923 60.1146 109.528 59.3536 109.528C58.5942 109.528 57.9795 108.923 57.9795 108.179C57.9795 107.434 58.5959 106.831 59.3536 106.831Z" fill="#603515"/>
<path d="M59.9093 107.229C60.2262 107.229 60.4844 107.486 60.4844 107.803C60.4844 108.12 60.2279 108.375 59.9093 108.375C59.5925 108.375 59.3359 108.118 59.3359 107.803C59.3359 107.486 59.5925 107.229 59.9093 107.229Z" fill="white"/>
<path d="M59.3808 108.124C59.5427 108.124 59.6753 108.255 59.6753 108.417C59.6753 108.58 59.5427 108.708 59.3808 108.708C59.219 108.708 59.0898 108.579 59.0898 108.417C59.0898 108.255 59.219 108.124 59.3808 108.124Z" fill="white"/>
<path d="M153.051 37.2546C153.051 50.0347 146.621 61.3137 136.824 68.0217C134.682 69.4902 132.38 70.7398 129.945 71.7377C129.921 71.748 129.895 71.7601 129.869 71.7705C126.777 73.0304 123.476 73.8887 120.032 74.2765H120.03C118.653 74.4299 117.254 74.5092 115.834 74.5092C114.133 74.5092 112.459 74.3954 110.82 74.1731H110.818C107.972 73.7887 105.23 73.0855 102.627 72.0962C102.618 72.091 102.611 72.0893 102.603 72.0876C100.123 71.1414 97.7711 69.94 95.5792 68.5164C85.3666 61.8738 78.6133 50.3536 78.6133 37.2546C78.6133 16.6788 95.2761 0 115.834 0C136.386 0 153.051 16.6788 153.051 37.2546Z" fill="#FF601E"/>
<path d="M102.61 71.9394V71.9583C102.608 71.9876 102.606 72.0307 102.603 72.0876C100.123 71.1414 97.7711 69.94 95.5791 68.5164C96.0216 64.011 96.5106 60.3778 96.9842 59.578C98.2739 57.3926 99.9131 55.6466 101.905 54.3384L102.611 71.9394H102.61Z" fill="#FFBA9E"/>
<path d="M131.553 27.1149C131.54 29.7709 132.091 36.1118 130.534 47.9716C130.298 49.7658 129.89 51.6945 129.349 53.6766C127.275 61.3067 123.288 69.7315 120.032 74.2748H120.03C118.653 74.4282 117.255 74.5074 115.834 74.5074C114.133 74.5074 112.459 74.3937 110.82 74.1713H110.818C107.467 70.6088 103.75 64.1541 102.173 54.2229C101.678 51.1223 101.393 47.6786 101.393 43.8782C101.393 39.9536 101.489 36.0395 101.394 32.8957C101.338 31.0498 101.219 29.4693 100.972 28.3111C100.864 27.7992 100.774 27.2959 100.7 26.8029C99.1834 16.7098 104.618 10.6757 108.291 9.26752C115.858 6.36851 124.268 6.54948 125.897 11.715C131.125 13.4713 132.998 20.6085 131.553 27.1149V27.1149Z" fill="#0D3B5B"/>
<g style="mix-blend-mode:multiply">
<path d="M127.431 55.8776C124.553 59.597 116.774 59.6332 104.094 55.9861C101.423 44.0712 101.423 36.1463 104.094 32.2132C106.764 28.28 115.074 27.7992 129.022 30.7688C130.838 43.7868 130.308 52.1564 127.431 55.8776Z" fill="#AB9990"/>
</g>
<path d="M136.824 68.0217C134.682 69.4902 132.38 70.7398 129.945 71.7377L130.634 54.2661C132.597 55.576 134.212 57.3236 135.481 59.5125C135.932 60.2881 136.401 63.7163 136.824 68.0235V68.0217Z" fill="#FFBA9E"/>
<path d="M130.559 54.3384L129.943 71.2361L129.869 71.7704C126.776 73.0303 123.475 73.8887 120.031 74.2765H120.03C118.652 74.4299 117.254 74.5091 115.833 74.5091C114.132 74.5091 112.459 74.3954 110.819 74.1731H110.818C107.971 73.7887 105.23 73.0855 102.627 72.0962L102.609 71.9583V71.9393L102.52 71.2361L101.903 54.3384L102.172 54.2247L103.623 53.6162L107.048 52.1805L126.327 52.0306L128.696 53.3232L129.349 53.6783L130.559 54.3384V54.3384Z" fill="#34A8AE"/>
<path d="M111.991 50.3208L110.91 41.71H121.67L121.069 50.5673L126.329 52.0323L116.626 67.2858L107.051 52.1823L111.993 50.3226L111.991 50.3208Z" fill="#FFBA9E"/>
<g style="mix-blend-mode:multiply">
<path d="M117.606 49.3091C115.631 49.5332 113.604 48.5663 111.526 46.4049L111.144 41.7083H121.668L121.354 46.467C120.831 48.1371 119.581 49.0833 117.606 49.3091V49.3091Z" fill="#ECD1D0"/>
</g>
<path d="M128.435 26.946C128.598 29.0091 128.197 34.1073 127.822 35.9809C126.393 43.1267 119.052 46.8806 116.266 46.8806C113.48 46.8806 107.453 43.5076 104.981 37.1322C104.173 35.0484 104.096 30.3827 104.096 27.8784C104.096 17.4527 109.544 11.1755 116.266 11.1755C122.987 11.1755 127.469 14.6536 128.435 26.9477V26.946Z" fill="#FFBA9E"/>
<path d="M126.226 28.4559C129.569 24.1142 131.197 27.7216 131.21 29.6641C131.226 31.8392 129.797 33.7385 126.744 33.0215C124.795 32.5631 124.269 31.9185 124.269 30.3328C124.269 28.7489 124.132 28.4559 126.227 28.4559H126.226Z" fill="#FFBA9E"/>
<path d="M106.523 30.3328C106.523 31.9184 105.996 32.563 104.049 33.0215C100.996 33.7402 99.5667 31.8409 99.5822 29.664C99.5959 27.7198 101.225 24.1125 104.567 28.4558C106.663 28.4558 106.525 28.7505 106.525 30.3328H106.523Z" fill="#FFBA9E"/>
<path d="M126.12 13.3747C126.174 13.4833 129.146 18.0886 129.146 22.1683C129.146 26.2566 127.858 32.8957 127.532 33.0456C128.144 25.9756 124.657 25.15 122.868 19.9018C121.89 21.7081 118.024 23.0111 113.718 23.3455C106.744 23.8884 105.719 25.9946 105.366 29.3796C105.132 31.6358 105.759 38.4783 107.247 49.9054C103.737 42.7544 101.99 35.0794 102 26.8805C102.017 15.5499 103.842 15.1534 109.349 12.1045C114.622 9.18649 125.507 12.1217 126.117 13.3747H126.12Z" fill="#0D3B5B"/>
<path d="M119.984 37.982C119.5 39.2884 118.355 39.9416 116.551 39.9416C115.087 39.9416 114.056 39.2884 113.453 37.982C114.748 37.7251 115.628 37.5976 116.096 37.5976C116.391 38.063 116.837 37.9819 117.148 37.5976C117.66 37.5976 118.605 37.7251 119.984 37.982Z" fill="#EF6252"/>
<path d="M119.984 37.982C119.383 38.3267 118.278 38.499 116.666 38.499C115.249 38.499 114.176 38.3267 113.451 37.982C114.746 37.7251 115.626 37.5976 116.094 37.5976C116.389 38.063 116.835 37.9819 117.146 37.5976C117.658 37.5976 118.603 37.7251 119.982 37.982H119.984Z" fill="#EF7056"/>
<g style="mix-blend-mode:soft-light">
<path d="M117.543 38.6989C117.543 38.8264 117.131 39.1763 116.625 39.1763C116.119 39.1763 115.707 38.8264 115.707 38.6989C115.707 38.5731 116.117 38.7213 116.625 38.7213C117.131 38.7213 117.543 38.5731 117.543 38.6989Z" fill="white"/>
</g>
<g style="mix-blend-mode:multiply">
<path d="M117.339 27.0735L118.137 34.0884L116.528 34.5141L116.682 26.5616L118.639 26.2445L117.341 27.0718L117.339 27.0735Z" fill="#ECD1D0"/>
</g>
<path d="M125.808 27.2907C125.376 26.7771 124.748 26.3393 123.92 25.9773C123.007 25.5775 119.561 26.1652 119.434 25.936C119.307 25.7067 119.239 24.6364 119.685 24.6054C119.849 24.5951 123.744 24.2314 124.657 25.15C125.364 25.8619 125.748 26.5754 125.808 27.2907V27.2907Z" fill="#0D3B5B"/>
<path d="M123.074 28.6403C123.074 29.2883 122.539 29.814 121.878 29.814C121.216 29.814 120.683 29.2883 120.683 28.6403C120.683 27.9922 121.216 27.4666 121.878 27.4666C122.539 27.4666 123.074 27.9922 123.074 28.6403Z" fill="#0D3B5B"/>
<path d="M121.893 28.3129C121.893 28.5886 121.669 28.811 121.394 28.811C121.118 28.811 120.895 28.5886 120.895 28.3129C120.895 28.0354 121.118 27.813 121.394 27.813C121.669 27.813 121.893 28.0371 121.893 28.3129Z" fill="white"/>
<path d="M122.111 28.8471C122.111 28.9885 121.997 29.1005 121.857 29.1005C121.716 29.1005 121.603 28.9885 121.603 28.8471C121.603 28.7058 121.716 28.592 121.857 28.592C121.997 28.592 122.111 28.7058 122.111 28.8471Z" fill="white"/>
<path d="M108.607 25.15C109.52 24.2314 113.416 24.5951 113.578 24.6054C114.022 24.6364 113.957 25.7067 113.83 25.936C113.702 26.1652 110.257 25.5775 109.342 25.9773C108.516 26.3393 107.887 26.7771 107.455 27.2907C107.515 26.5754 107.899 25.8619 108.607 25.15V25.15Z" fill="#0D3B5B"/>
<path d="M111.386 27.4666C112.047 27.4666 112.581 27.9922 112.581 28.6403C112.581 29.2883 112.046 29.814 111.386 29.814C110.725 29.814 110.189 29.2883 110.189 28.6403C110.189 27.9922 110.725 27.4666 111.386 27.4666Z" fill="#0D3B5B"/>
<path d="M111.868 27.813C112.144 27.813 112.368 28.037 112.368 28.3128C112.368 28.5886 112.144 28.8109 111.868 28.8109C111.593 28.8109 111.369 28.5886 111.369 28.3128C111.369 28.0353 111.593 27.813 111.868 27.813Z" fill="white"/>
<path d="M111.407 28.592C111.548 28.592 111.662 28.7058 111.662 28.8471C111.662 28.9885 111.548 29.1005 111.407 29.1005C111.266 29.1005 111.152 28.9885 111.152 28.8471C111.152 28.7058 111.266 28.592 111.407 28.592Z" fill="white"/>
</svg>
