<svg width="304" height="254" viewBox="0 0 304 254" fill="none" xmlns="http://www.w3.org/2000/svg">
<path d="M87.4255 253.3H221.505L227.393 246.046L134.081 57.4295L4.52992 47.4554L-0.000359371 57.4295L87.4237 253.3H87.4255Z" fill="#D4D5D6"/>
<path d="M93.3154 246.046H227.395L138.613 47.4537H4.53362L93.3154 246.046Z" fill="#F5F6F6"/>
<path d="M210.223 222.015L138.264 61.0558H17.0423L89.0013 222.015H210.223V222.015Z" fill="#1CAB04"/>
<path d="M204.336 222.015H210.223L138.264 61.0558H17.0423L19.3738 66.2699H134.709L204.336 222.015V222.015Z" fill="#0E6016"/>
<path d="M132.723 234.257C137.485 242.996 142.255 242.872 154.013 242.872C165.771 242.872 178.624 241.361 175.303 234.257C171.239 225.563 165.771 225.642 154.013 225.642C142.255 225.642 129.1 227.607 132.723 234.257Z" fill="#D4D5D6"/>
<path d="M86.4227 54.149C87.5221 55.653 89.871 56.8792 91.6702 56.8845C93.4676 56.8897 94.0348 55.674 92.9354 54.1718C91.836 52.666 89.4853 51.4415 87.6879 51.4363C85.8887 51.4293 85.3233 52.6451 86.4227 54.149Z" fill="#D4D5D6"/>
<path d="M60.149 54.0635C61.2485 55.5692 63.5973 56.7937 65.3965 56.7989L83.0116 56.8566C84.8108 56.8635 85.3762 55.646 84.2768 54.1438C83.1774 52.6381 80.8284 51.4136 79.0292 51.4084L61.4142 51.3507C59.615 51.3455 59.0479 52.5595 60.149 54.0652V54.0635Z" fill="#D4D5D6"/>
<path d="M25.5979 111.611L36.5065 135.641L40.0176 130.881L28.4773 104.945L25.5979 111.613V111.611Z" fill="#B0B1B3"/>
<path d="M9.83121 76.2458L20.7398 100.276L24.251 95.5144L12.7106 69.5784L9.83121 76.2458V76.2458Z" fill="#B0B1B3"/>
<path d="M46.2108 110.835H149.102L132.111 73.2849H28.5574L46.2108 110.835V110.835Z" fill="white"/>
<path d="M97.5601 91.6243C101.775 100.161 113.564 107.04 123.895 106.989C134.223 106.937 139.181 99.9774 134.963 91.4392C130.748 82.9045 118.959 76.0257 108.629 76.0746C98.3001 76.127 93.344 83.0896 97.5601 91.6261V91.6243Z" fill="#0E6016"/>
<path d="M38.3571 85.2625L87.2529 85.018L82.8989 76.202L34.0031 76.4466L38.3554 85.2643L38.3571 85.2625Z" fill="#0B4B7F"/>
<path d="M40.9999 90.6146L89.8975 90.3718L88.3949 87.3271L39.4991 87.5717L41.0016 90.6146H40.9999Z" fill="#C4C5C7"/>
<path d="M61.3044 95.675L92.4404 95.5196L90.9379 92.4767L59.8002 92.6304L61.3044 95.675Z" fill="#C4C5C7"/>
<path d="M46.5434 101.841C47.477 103.731 50.0859 105.256 52.372 105.244L63.0188 105.19C65.3083 105.179 66.4043 103.637 65.4706 101.747C64.5387 99.8569 61.9281 98.3337 59.6385 98.3442L48.9917 98.3966C46.7056 98.4105 45.6097 99.9512 46.5416 101.839L46.5434 101.841Z" fill="#0B4B7F"/>
<path fill-rule="evenodd" clip-rule="evenodd" d="M58.4319 102.87L58.418 102.494L59.4336 102.487L59.7896 102.863L60.7197 102.858L58.1544 100.138L57.3761 100.14L57.5018 102.874L58.4319 102.868V102.87ZM58.2522 101.135L58.8734 101.855L58.3499 101.857L58.2522 101.135Z" fill="white"/>
<path fill-rule="evenodd" clip-rule="evenodd" d="M55.7461 102.884L57.2207 102.875L55.8735 100.149L54.3989 100.159C54.1703 100.159 53.9731 100.197 53.8055 100.269C53.6398 100.341 53.5141 100.44 53.4234 100.563C53.3361 100.687 53.2873 100.832 53.2838 100.999C53.2803 101.167 53.3239 101.343 53.4164 101.53C53.5089 101.719 53.6398 101.895 53.809 102.061C53.9748 102.225 54.1668 102.369 54.3779 102.493C54.5891 102.615 54.8125 102.709 55.0498 102.779C55.2854 102.853 55.5175 102.886 55.7478 102.884H55.7461ZM54.8299 100.823L55.336 100.821L56.0288 102.22L55.521 102.222C55.4023 102.222 55.2819 102.205 55.1597 102.168C55.0393 102.133 54.9241 102.082 54.8159 102.019C54.7095 101.956 54.6118 101.883 54.5245 101.798C54.4408 101.714 54.3727 101.623 54.3256 101.527C54.2767 101.431 54.2575 101.34 54.2558 101.254C54.2593 101.17 54.282 101.092 54.3273 101.031C54.3727 100.966 54.4373 100.917 54.5228 100.88C54.61 100.844 54.7113 100.825 54.8299 100.825V100.823Z" fill="white"/>
<path fill-rule="evenodd" clip-rule="evenodd" d="M52.2441 102.901L53.7188 102.894L52.3733 100.169L50.8969 100.175C50.6683 100.176 50.4729 100.213 50.3053 100.285C50.1395 100.356 50.0122 100.456 49.9232 100.578C49.8342 100.702 49.787 100.847 49.7818 101.015C49.7783 101.179 49.8219 101.357 49.9162 101.546C50.0069 101.733 50.1378 101.911 50.3071 102.075C50.4746 102.243 50.6666 102.384 50.8742 102.508C51.0871 102.629 51.3088 102.727 51.5461 102.795C51.7817 102.866 52.0138 102.9 52.2441 102.9V102.901ZM51.3279 100.84L51.834 100.838L52.5251 102.234L52.0173 102.238C51.8986 102.241 51.7782 102.22 51.6578 102.185C51.5339 102.15 51.4204 102.101 51.314 102.037C51.2058 101.974 51.1081 101.9 51.0243 101.815C50.9353 101.729 50.869 101.638 50.8219 101.542C50.7713 101.448 50.7503 101.355 50.7521 101.268C50.7538 101.186 50.7765 101.109 50.8236 101.046C50.8673 100.982 50.9318 100.931 51.0173 100.893C51.1028 100.858 51.2058 100.84 51.3245 100.838L51.3279 100.84Z" fill="white"/>
<path d="M107.957 87.5176C109.2 90.0312 113.03 92.0592 116.515 92.0434C119.998 92.0242 121.817 89.9718 120.576 87.4547L118.586 83.4249C117.342 80.9095 113.512 78.8833 110.028 78.9007C106.544 78.9182 104.727 80.9707 105.969 83.486L107.957 87.5176Z" fill="white"/>
<path d="M121.838 103.265C126.539 103.24 129.651 102.629 131.169 101.431L129.656 98.3703C127.405 93.8094 122.236 92.4242 116.718 92.4522C111.202 92.4801 107.42 93.9073 109.673 98.4681L111.186 101.53C113.589 102.709 117.138 103.286 121.838 103.265Z" fill="white"/>
<path d="M115.589 94.6043L119.962 94.5815L117.849 90.3037L113.475 90.3229L115.589 94.6043Z" fill="white"/>
<path d="M106.569 86.4748C106.728 86.8032 107.185 87.067 107.58 87.0652C107.979 87.0635 108.17 86.7962 108.006 86.4661L107.372 85.1822C107.21 84.8538 106.76 84.5901 106.36 84.5918C105.962 84.5936 105.77 84.8591 105.934 85.1892L106.569 86.4731V86.4748Z" fill="white"/>
<path d="M119.337 86.4101C119.501 86.7385 119.955 87.0057 120.351 87.0022C120.749 86.9988 120.937 86.7298 120.775 86.4031L120.143 85.1175C119.979 84.7873 119.527 84.5271 119.129 84.5288C118.735 84.5306 118.541 84.7978 118.703 85.1245L119.337 86.4083V86.4101Z" fill="white"/>
<path d="M65.8053 154.677H169.284L151.35 117.113H48.74L65.8053 154.677Z" fill="white"/>
<path d="M117.741 135.453C121.955 143.989 133.745 150.868 144.076 150.817C154.404 150.765 159.362 143.806 155.145 135.267C150.931 126.733 139.141 119.854 128.81 119.903C118.483 119.955 113.525 126.918 117.741 135.454V135.453Z" fill="#F77563"/>
<path d="M58.5378 129.089L107.434 128.844L103.081 120.028L54.1855 120.271L58.5378 129.089V129.089Z" fill="#0B4B7F"/>
<path d="M61.1806 134.443L110.078 134.2L108.574 131.155L59.6781 131.4L61.1806 134.443Z" fill="#C4C5C7"/>
<path d="M81.4851 139.503L112.621 139.346L111.119 136.303L79.9808 136.457L81.4851 139.503Z" fill="#C4C5C7"/>
<path d="M66.7242 145.669C67.6578 147.559 70.2667 149.084 72.5545 149.072L83.2014 149.02C85.4909 149.007 86.5869 147.465 85.6532 145.577C84.7214 143.687 82.1107 142.164 79.8211 142.174L69.1743 142.227C66.8882 142.241 65.7923 143.783 66.7242 145.669Z" fill="#0B4B7F"/>
<path fill-rule="evenodd" clip-rule="evenodd" d="M78.6108 146.698L78.5968 146.323L79.6125 146.317L79.9702 146.693L80.9004 146.688L78.3333 143.968L77.555 143.97L77.6807 146.703L78.6108 146.698V146.698ZM78.4311 144.964L79.0523 145.683L78.5288 145.685L78.4311 144.964V144.964Z" fill="white"/>
<path fill-rule="evenodd" clip-rule="evenodd" d="M75.927 146.712L77.4033 146.703L76.0561 143.979L74.5815 143.987C74.3529 143.987 74.1557 144.026 73.9882 144.097C73.8207 144.169 73.6968 144.268 73.606 144.391C73.5188 144.515 73.4699 144.66 73.4647 144.826C73.4612 144.993 73.5048 145.17 73.5973 145.357C73.6898 145.545 73.8207 145.722 73.9899 145.888C74.1557 146.052 74.3477 146.195 74.5588 146.319C74.77 146.441 74.9934 146.536 75.2307 146.606C75.4663 146.679 75.6984 146.712 75.9287 146.71L75.927 146.712ZM75.0126 144.651L75.5169 144.648L76.2097 146.047L75.7036 146.048C75.5832 146.048 75.4645 146.031 75.3406 145.994C75.2202 145.959 75.105 145.909 74.9968 145.846C74.8904 145.783 74.7927 145.71 74.7054 145.624C74.6217 145.538 74.5536 145.449 74.5065 145.353C74.4576 145.257 74.4384 145.166 74.4367 145.081C74.4402 144.997 74.4646 144.918 74.5082 144.857C74.5536 144.793 74.6182 144.744 74.7037 144.707C74.7909 144.67 74.8921 144.651 75.0126 144.651V144.651Z" fill="white"/>
<path fill-rule="evenodd" clip-rule="evenodd" d="M72.4248 146.73L73.8994 146.723L72.5539 143.998L71.0776 144.003C70.849 144.005 70.6518 144.041 70.4842 144.113C70.3185 144.186 70.1928 144.284 70.1021 144.406C70.0131 144.53 69.966 144.675 69.9607 144.843C69.9572 145.009 70.0009 145.185 70.0951 145.374C70.1858 145.561 70.3185 145.739 70.486 145.903C70.6535 146.071 70.8437 146.213 71.0532 146.337C71.2661 146.457 71.4877 146.555 71.725 146.623C71.9623 146.695 72.1927 146.728 72.423 146.728L72.4248 146.73ZM71.5086 144.668L72.0147 144.667L72.7058 146.062L72.1997 146.064C72.0793 146.068 71.9606 146.048 71.8402 146.012C71.7163 145.977 71.6011 145.928 71.4964 145.863C71.3882 145.8 71.2905 145.727 71.2067 145.641C71.1177 145.556 71.0514 145.465 71.0043 145.369C70.9537 145.275 70.9328 145.182 70.9345 145.095C70.9362 145.013 70.9607 144.936 71.006 144.873C71.0497 144.808 71.1142 144.758 71.1997 144.719C71.2852 144.684 71.39 144.667 71.5069 144.665L71.5086 144.668Z" fill="white"/>
<path d="M128.139 131.346C129.381 133.859 133.212 135.887 136.697 135.872C140.182 135.852 142 133.8 140.759 131.283L138.77 127.253C137.526 124.738 133.697 122.712 130.212 122.729C126.727 122.746 124.909 124.797 126.153 127.314L128.141 131.344L128.139 131.346Z" fill="white"/>
<path d="M142.018 147.093C146.721 147.069 149.83 146.457 151.349 145.259L149.836 142.199C147.584 137.638 142.416 136.254 136.898 136.281C131.381 136.308 127.601 137.736 129.853 142.296L131.364 145.358C133.767 146.538 137.316 147.114 142.016 147.093H142.018Z" fill="white"/>
<path d="M135.772 138.432L140.146 138.41L138.032 134.132L133.659 134.153L135.772 138.434V138.432Z" fill="white"/>
<path d="M126.748 130.303C126.907 130.631 127.364 130.895 127.758 130.893C128.158 130.892 128.348 130.624 128.184 130.294L127.551 129.01C127.388 128.682 126.938 128.418 126.539 128.42C126.141 128.422 125.951 128.687 126.113 129.017L126.748 130.301V130.303Z" fill="white"/>
<path d="M139.518 130.237C139.68 130.565 140.136 130.832 140.532 130.829C140.93 130.827 141.12 130.556 140.956 130.23L140.324 128.944C140.16 128.616 139.708 128.354 139.31 128.355C138.914 128.357 138.722 128.624 138.883 128.951L139.516 130.235L139.518 130.237Z" fill="white"/>
<path d="M85.8628 200.197H189.464L171.528 162.634H68.9197L85.8628 200.197Z" fill="white"/>
<path d="M137.923 180.97C142.139 189.508 153.927 196.389 164.258 196.334C174.585 196.284 179.543 189.323 175.327 180.785C171.111 172.25 159.323 165.369 148.992 165.42C138.663 165.472 133.707 172.435 137.921 180.97H137.923Z" fill="#0E6016"/>
<path d="M78.7196 174.608L127.617 174.364L123.263 165.546L74.3673 165.79L78.7196 174.608Z" fill="#0B4B7F"/>
<path d="M81.3622 179.96L130.26 179.719L128.757 176.673L79.8614 176.917L81.3639 179.96H81.3622Z" fill="#C4C5C7"/>
<path d="M101.666 185.022L132.804 184.867L131.299 181.822L100.162 181.978L101.666 185.022Z" fill="#C4C5C7"/>
<path d="M86.9039 191.188C87.8375 193.078 90.4482 194.603 92.7342 194.591L103.381 194.537C105.671 194.526 106.767 192.984 105.833 191.094C104.901 189.202 102.29 187.681 100.003 187.691L89.3557 187.745C87.0697 187.758 85.9737 189.3 86.9056 191.188H86.9039Z" fill="#0B4B7F"/>
<path fill-rule="evenodd" clip-rule="evenodd" d="M98.7925 192.217L98.7785 191.843L99.7942 191.836L100.152 192.212L101.082 192.207L98.515 189.489L97.7384 189.491L97.8623 192.222L98.7925 192.217V192.217ZM98.6145 190.483L99.234 191.202L98.7122 191.204L98.6145 190.483V190.483Z" fill="white"/>
<path fill-rule="evenodd" clip-rule="evenodd" d="M96.1084 192.231L97.583 192.222L96.2358 189.498L94.7612 189.506C94.5326 189.506 94.3354 189.545 94.1679 189.616C94.0021 189.69 93.8764 189.789 93.7857 189.91C93.6984 190.034 93.6495 190.179 93.646 190.345C93.6408 190.512 93.6862 190.691 93.7787 190.876C93.8712 191.064 94.002 191.241 94.1713 191.409C94.3389 191.571 94.5291 191.716 94.7402 191.84C94.9514 191.962 95.1748 192.057 95.4121 192.126C95.6477 192.198 95.8798 192.233 96.1102 192.231H96.1084ZM95.1922 190.17L95.6983 190.167L96.3894 191.564L95.8833 191.566C95.7629 191.566 95.6425 191.55 95.5203 191.513C95.3981 191.477 95.2847 191.428 95.1748 191.365C95.0701 191.302 94.9706 191.229 94.8833 191.143C94.7996 191.057 94.7315 190.967 94.6844 190.872C94.6355 190.776 94.6163 190.685 94.6146 190.6C94.6181 190.516 94.6425 190.437 94.6861 190.376C94.7315 190.313 94.7961 190.261 94.8816 190.224C94.9688 190.189 95.0718 190.17 95.1905 190.17H95.1922Z" fill="white"/>
<path fill-rule="evenodd" clip-rule="evenodd" d="M92.6064 192.249L94.0811 192.242L92.7356 189.517L91.261 189.522C91.0324 189.524 90.8352 189.56 90.6677 189.632C90.5019 189.705 90.3745 189.805 90.2855 189.925C90.1948 190.051 90.1476 190.194 90.1441 190.362C90.1389 190.528 90.1843 190.706 90.2785 190.895C90.3693 191.082 90.5001 191.258 90.6694 191.424C90.8369 191.59 91.0271 191.733 91.2366 191.857C91.4477 191.978 91.6711 192.076 91.9084 192.144C92.1457 192.214 92.3761 192.249 92.6064 192.249V192.249ZM91.6903 190.187L92.1964 190.186L92.8874 191.581L92.3813 191.585C92.2609 191.587 92.1405 191.567 92.0218 191.531C91.8979 191.496 91.7828 191.449 91.6781 191.382C91.5716 191.319 91.4721 191.246 91.3884 191.16C91.2994 191.075 91.2331 190.984 91.1859 190.89C91.1353 190.795 91.1144 190.703 91.1161 190.615C91.1179 190.532 91.1406 190.455 91.1877 190.394C91.2313 190.327 91.2959 190.278 91.3831 190.238C91.4669 190.203 91.5734 190.187 91.6903 190.186V190.187Z" fill="white"/>
<path d="M148.319 176.863C149.561 179.379 153.393 181.405 156.877 181.389C160.36 181.37 162.178 179.317 160.939 176.802L158.948 172.772C157.705 170.257 153.875 168.231 150.39 168.248C146.905 168.267 145.088 170.32 146.331 172.833L148.319 176.863Z" fill="white"/>
<path d="M162.199 192.612C166.902 192.588 170.012 191.976 171.53 190.778L170.017 187.718C167.766 183.155 162.599 181.772 157.081 181.8C151.565 181.828 147.785 183.255 150.036 187.817L151.547 190.879C153.948 192.058 157.5 192.637 162.199 192.614V192.612Z" fill="white"/>
<path d="M155.951 183.952L160.324 183.929L158.211 179.649L153.838 179.67L155.951 183.952V183.952Z" fill="white"/>
<path d="M146.93 175.822C147.088 176.151 147.546 176.414 147.942 176.413C148.341 176.411 148.53 176.144 148.368 175.813L147.734 174.53C147.574 174.201 147.122 173.939 146.722 173.941C146.324 173.943 146.134 174.208 146.296 174.538L146.93 175.822V175.822Z" fill="white"/>
<path d="M159.702 175.756C159.864 176.084 160.32 176.351 160.714 176.35C161.112 176.346 161.302 176.077 161.138 175.751L160.507 174.467C160.343 174.138 159.892 173.874 159.494 173.876C159.098 173.878 158.905 174.145 159.067 174.474L159.7 175.758L159.702 175.756Z" fill="white"/>
<path d="M226.259 204.249C226.259 225.689 243.622 243.067 265.038 243.067C286.458 243.067 303.821 225.689 303.821 204.249C303.821 182.811 286.458 165.43 265.038 165.43C243.622 165.43 226.259 182.811 226.259 204.249Z" fill="#FF473E"/>
<path d="M292.65 243.81C291.976 240.113 291.295 237.015 290.987 236.527C290.186 235.259 285.209 229.287 283.584 228.665C282.579 228.279 281.996 237.071 281.697 243.81H292.651H292.65Z" fill="#2559A6"/>
<path d="M282.75 243.81L283.584 228.665L269.005 223.098L253.849 223.24L239.636 228.882L240.995 243.81H282.75V243.81Z" fill="#3468AD"/>
<path d="M245.096 243.81C244.626 236.007 241.091 228.323 239.634 228.882C238.011 229.505 233.643 235.261 232.836 236.527C232.568 236.957 231.974 239.989 231.309 243.81H245.096Z" fill="#2559A6"/>
<path d="M271.107 229.919C272.885 229.367 275.782 227.324 276.221 225.855C276.658 224.386 273.461 222.712 271.072 221.2C268.751 219.738 264.662 219.086 261.896 218.813C257.186 218.347 254.067 218.272 250.226 220.646C246.246 223.1 244.979 225.341 245.679 226.484C246.372 227.628 253.568 229.153 255.957 230.033C260.287 231.631 261.76 234.655 263.077 234.655C264.393 234.655 267.889 230.913 271.108 229.919H271.107Z" fill="#2559A6"/>
<path d="M271.523 225.579C271.857 224.445 270.602 223.596 268.751 222.431C266.96 221.299 263.798 220.798 261.664 220.586C258.025 220.225 257.591 219.938 254.319 221.138C251.982 221.998 250.647 223.743 251.186 224.623C251.722 225.507 262.566 228.856 266.817 228.206C267.822 228.054 271.183 226.716 271.523 225.579V225.579Z" fill="#193969"/>
<path d="M274.366 199.622C274.366 201.837 274.956 202.74 277.15 203.379C280.587 204.383 282.549 200.244 282.549 197.882C282.549 194.567 280.327 190.923 276.568 196.995C274.207 196.995 274.366 197.407 274.366 199.622Z" fill="#E69A7E"/>
<path d="M246.258 193.847C245.724 212.768 260.24 215.718 264.222 215.718C268.203 215.718 279.729 209.976 279.729 196.034C280.364 181.611 277.553 174.95 266.817 172.349C262.571 171.319 253.189 171.438 252.692 175.756C247.593 175.502 246.436 183.726 246.258 193.85V193.847Z" fill="#1B262A"/>
<path d="M264.741 226.695C267.828 226.695 269.249 225.496 269.004 223.102L268.926 222.233L268.116 212.211L259.792 209.739L251.522 207.281C253.997 213.692 254.771 219.012 253.848 223.241C253.203 223.495 259.106 226.693 264.741 226.693V226.695Z" fill="#FFBA9E"/>
<g style="mix-blend-mode:multiply">
<path d="M257.225 215.185C259.979 219.514 263.366 221.902 267.389 222.349C267.888 222.405 268.408 222.363 268.928 222.235L268.118 212.212L259.794 209.741L257.227 215.185H257.225Z" fill="#ECD1D0"/>
</g>
<path d="M250.349 194.102C250.153 196.704 250.694 203.122 251.073 205.498C252.097 211.962 260.022 219.143 266.299 219.143C273.895 219.143 276.836 211.728 278.125 206.948C278.853 204.256 279.176 198.436 279.176 195.277C279.176 182.124 272.421 177.067 264.459 177.067C256.495 177.067 251.492 178.59 250.347 194.1L250.349 194.102Z" fill="#FFBA9E"/>
<path d="M252.111 196.58C248.35 190.507 246.13 194.152 246.13 197.466C246.13 199.828 248.092 203.968 251.528 202.963C253.723 202.322 254.313 201.421 254.313 199.206C254.313 196.991 254.472 196.58 252.111 196.58Z" fill="#FFBA9E"/>
<path d="M250.226 188.722C249.818 191.763 250.263 195.973 251.558 201.353L253.214 202.196C252.146 197.499 251.962 194.264 252.662 192.489C253.889 189.366 257.573 187.132 257.536 182.194C258.271 183.546 266.93 185.191 283.517 187.129L280.535 184.271L284.629 183.228L280.177 181.078L283.992 179.247C279.931 176.868 275.827 174.905 271.677 173.355C258.229 168.34 251.064 182.461 250.224 188.72L250.226 188.722Z" fill="#1B262A"/>
<g style="mix-blend-mode:multiply">
<path d="M261.325 193.559C263.37 194.346 264.452 195.052 264.574 195.677C264.953 197.648 264.598 200.233 263.511 203.431L266.3 203.421C266.261 198.514 265.956 195.688 265.384 194.94C264.679 194.018 263.326 193.559 261.325 193.559V193.559Z" fill="#ECD1D0"/>
</g>
<path d="M254.083 193.971C254.312 194.304 255.901 193.179 257.177 193.183C259.671 193.193 263.266 193.965 263.468 193.651C263.712 193.274 264.02 191.293 263.028 191.164C259.83 190.75 256.73 190.947 255.687 191.537C255.116 191.861 253.853 193.641 254.083 193.969V193.971Z" fill="#1B262A"/>
<path d="M258.231 197.178C258.231 197.981 258.931 198.631 259.793 198.631C260.658 198.631 261.356 197.98 261.356 197.178C261.356 196.374 260.658 195.725 259.793 195.725C258.931 195.725 258.231 196.376 258.231 197.178Z" fill="#1B262A"/>
<path d="M259.775 196.549C259.775 196.83 260.003 197.061 260.286 197.061C260.574 197.061 260.803 196.83 260.803 196.549C260.803 196.263 260.574 196.034 260.286 196.034C260.005 196.034 259.775 196.263 259.775 196.549Z" fill="white"/>
<path d="M259.554 197.096C259.554 197.243 259.669 197.356 259.819 197.356C259.962 197.356 260.077 197.243 260.077 197.096C260.077 196.949 259.962 196.834 259.819 196.834C259.671 196.834 259.554 196.949 259.554 197.096Z" fill="white"/>
<path d="M277.186 191.539C276.143 190.949 273.045 190.752 269.85 191.166C268.857 191.293 269.162 193.276 269.403 193.653C269.609 193.967 273.202 193.195 275.694 193.185C276.977 193.181 278.561 194.304 278.79 193.973C279.024 193.644 277.757 191.862 277.188 191.541L277.186 191.539Z" fill="#1B262A"/>
<path d="M273.087 195.725C272.223 195.725 271.523 196.376 271.523 197.178C271.523 197.981 272.223 198.631 273.087 198.631C273.944 198.631 274.644 197.98 274.644 197.178C274.644 196.374 273.944 195.725 273.087 195.725Z" fill="#1B262A"/>
<path d="M272.586 196.032C272.304 196.032 272.075 196.261 272.075 196.547C272.075 196.828 272.304 197.059 272.586 197.059C272.867 197.059 273.098 196.828 273.098 196.547C273.098 196.261 272.869 196.032 272.586 196.032Z" fill="white"/>
<path d="M273.063 196.834C272.916 196.834 272.798 196.949 272.798 197.096C272.798 197.243 272.915 197.356 273.063 197.356C273.203 197.356 273.321 197.243 273.321 197.096C273.321 196.949 273.204 196.834 273.063 196.834Z" fill="white"/>
<path d="M262.571 207.744C262.458 210.721 263.873 212.209 266.817 212.209C269.539 212.209 270.956 210.721 271.071 207.744H262.571Z" fill="white"/>
<path d="M262.795 234.442C262.793 234.503 262.795 234.582 262.804 234.679C262.804 234.823 262.87 235.036 262.875 235.249C262.88 235.355 262.884 235.465 262.903 235.57C262.927 235.668 262.908 235.808 262.933 235.921C262.973 236.157 262.966 236.419 263.013 236.665C263.02 236.922 263.076 237.175 263.097 237.429C263.1 237.553 263.146 237.677 263.153 237.797C263.161 237.916 263.186 238.033 263.21 238.143C263.257 238.362 263.289 238.554 263.332 238.695C263.359 238.79 263.385 238.865 263.407 238.922C263.453 238.886 263.51 238.831 263.578 238.758C263.674 238.648 263.826 238.489 263.931 238.272C264.048 238.058 264.166 237.794 264.217 237.492C264.242 237.341 264.294 237.188 264.285 237.025C264.292 236.863 264.285 236.699 264.28 236.533C264.252 236.368 264.221 236.203 264.179 236.045C264.151 235.885 264.064 235.738 264.002 235.595C263.934 235.45 263.875 235.322 263.774 235.198C263.687 235.074 263.587 234.968 263.498 234.875C263.329 234.683 263.139 234.618 263.011 234.541C262.924 234.498 262.851 234.464 262.795 234.444V234.442Z" fill="#193969"/>
<path d="M262.583 234.229C262.625 234.285 262.682 234.356 262.761 234.444C262.864 234.578 263.077 234.73 263.236 234.936C263.318 235.037 263.401 235.142 263.497 235.235C263.593 235.319 263.672 235.471 263.777 235.572C263.984 235.789 264.155 236.068 264.372 236.302C264.551 236.573 264.773 236.812 264.953 237.072C265.036 237.203 265.157 237.312 265.237 237.436C265.319 237.558 265.412 237.67 265.501 237.773C265.679 237.979 265.817 238.166 265.94 238.288C266.019 238.372 266.087 238.437 266.139 238.484C266.155 238.417 266.169 238.327 266.181 238.21C266.192 238.038 266.227 237.782 266.178 237.497C266.143 237.207 266.082 236.868 265.935 236.531C265.862 236.365 265.81 236.176 265.698 236.017C265.6 235.85 265.488 235.686 265.379 235.521C265.246 235.371 265.11 235.223 264.97 235.085C264.841 234.936 264.663 234.838 264.513 234.727C264.354 234.62 264.215 234.519 264.037 234.454C263.871 234.379 263.707 234.328 263.562 234.285C263.274 234.183 263.038 234.223 262.864 234.213C262.749 234.217 262.656 234.222 262.586 234.23L262.583 234.229Z" fill="#193969"/>
<path d="M199.807 115.494C199.807 128.191 205.924 139.458 215.368 146.502C217.332 147.964 219.434 149.246 221.659 150.321C221.675 150.329 221.693 150.336 221.712 150.345C226.767 152.778 232.434 154.141 238.418 154.141C244.072 154.141 249.44 152.925 254.279 150.74C254.293 150.735 254.307 150.729 254.319 150.723C256.605 149.687 258.771 148.436 260.793 146.995C270.623 139.989 277.031 128.491 277.031 115.494C277.031 94.1481 259.744 76.8446 238.418 76.8446C217.094 76.8446 199.809 94.1481 199.809 115.494H199.807Z" fill="#42A6D2"/>
<path d="M254.319 150.723C256.605 149.687 258.77 148.436 260.793 146.995C260.678 146.532 260.561 146.193 260.446 145.998C258.945 143.451 257.034 141.416 254.713 139.893L254.279 150.74L254.319 150.723Z" fill="#FFBA9E"/>
<path d="M221.386 108.384C221.783 114.582 217.752 117.335 220.572 123.459C221.265 124.963 222.977 125.782 223.762 128.844C224.323 131.031 221.256 134.062 223.762 139.087C225.97 143.515 241.007 149.33 249.33 144.263C257.65 139.194 251.171 132.827 251.007 128.001C250.9 124.902 254.036 124.224 255.01 120.914C256.624 115.422 255.734 111.385 255.801 109.572C256.493 90.4084 246.34 84.6283 236.451 85.1873C223.303 85.9296 220.483 99.5946 221.386 108.384V108.384Z" fill="#4B280E"/>
<path d="M215.368 146.502C217.331 147.964 219.434 149.247 221.659 150.321L221.246 139.807C218.958 141.33 217.075 143.369 215.597 145.919C215.52 146.05 215.445 146.247 215.368 146.502V146.502Z" fill="#FFBA9E"/>
<path d="M254.318 150.723L254.711 139.893L253.409 139.346L248.718 137.377L226.262 137.206L223.566 138.675L221.333 139.894L221.711 150.347C226.767 152.78 232.433 154.143 238.417 154.143C244.071 154.143 249.439 152.927 254.278 150.742L254.318 150.724V150.723Z" fill="#FF601E"/>
<path d="M242.96 135.211L244.222 125.18H231.687L232.389 135.498L226.26 137.204C224.07 147.334 227.802 152.38 237.455 152.34C245.55 152.307 249.304 147.32 248.716 137.377L242.96 135.21V135.211Z" fill="#FFBA9E"/>
<g style="mix-blend-mode:multiply">
<path d="M236.421 134.034C238.721 134.296 241.084 133.168 243.504 130.65L243.949 125.18H231.688L232.055 130.722C232.665 132.668 234.121 133.772 236.421 134.034V134.034Z" fill="#ECD1D0"/>
</g>
<path d="M223.806 107.983C223.617 110.386 224.537 117.206 225.16 119.342C227.374 126.946 234.735 131.202 237.983 131.202C241.229 131.202 246.576 128.001 250.057 120.39C251.448 117.347 252.158 111.983 252.158 109.066C252.158 96.9203 245.811 89.6066 237.981 89.6066C230.151 89.6066 224.929 93.6591 223.804 107.981L223.806 107.983Z" fill="#FFBA9E"/>
<path d="M226.86 109.768C222.967 104.709 221.068 108.912 221.053 111.176C221.035 113.712 222.7 115.923 226.257 115.087C228.527 114.552 229.139 113.801 229.139 111.955C229.139 110.11 229.3 109.768 226.86 109.768V109.768Z" fill="#FFBA9E"/>
<path d="M247.267 111.955C247.267 113.801 247.881 114.552 250.15 115.085C253.706 115.922 255.371 113.709 255.353 111.174C255.338 108.91 253.439 104.707 249.546 109.766C247.104 109.766 247.267 110.108 247.267 111.955Z" fill="#FFBA9E"/>
<path d="M226.503 92.1726C226.442 92.2984 222.978 97.6627 222.978 102.416C222.978 107.179 223.476 114.163 223.999 113.427C224.296 113.01 224.025 109.693 226.866 105.16C229.021 101.719 235.22 102.127 236.358 96.7352C238.632 101.811 248.746 101.418 250.057 105.16C250.751 107.142 251.348 109.757 251.851 113.005C253.221 110.849 253.728 108.903 253.374 107.165C252.842 104.559 252.453 94.2426 246.038 90.6931C239.893 87.2939 227.215 90.7123 226.503 92.1709V92.1726Z" fill="#4B280E"/>
<path d="M233.651 120.837C234.215 122.358 235.548 123.118 237.651 123.118C239.354 123.118 240.558 122.358 241.262 120.837C239.754 120.538 238.728 120.39 238.182 120.39C237.838 120.933 237.32 120.837 236.957 120.39C236.361 120.39 235.259 120.538 233.651 120.837Z" fill="#EF6252"/>
<path d="M233.651 120.837C234.351 121.239 235.639 121.438 237.515 121.438C239.167 121.438 240.415 121.237 241.26 120.837C239.752 120.538 238.726 120.39 238.18 120.39C237.836 120.933 237.318 120.837 236.955 120.39C236.36 120.39 235.257 120.538 233.649 120.837H233.651Z" fill="#EF7056"/>
<g style="mix-blend-mode:soft-light">
<path d="M236.495 121.674C236.495 121.822 236.973 122.231 237.563 122.231C238.153 122.231 238.633 121.822 238.633 121.674C238.633 121.527 238.155 121.702 237.563 121.702C236.973 121.702 236.495 121.529 236.495 121.674Z" fill="white"/>
</g>
<g style="mix-blend-mode:multiply">
<path d="M236.731 108.131L235.804 116.304L237.679 116.802L237.501 107.537L235.222 107.169L236.733 108.133L236.731 108.131Z" fill="#ECD1D0"/>
</g>
<path d="M226.866 108.384C227.369 107.785 228.1 107.273 229.064 106.853C230.128 106.388 234.142 107.073 234.29 106.805C234.438 106.538 234.515 105.291 233.997 105.256C233.807 105.242 229.268 104.819 228.207 105.89C227.383 106.72 226.936 107.551 226.866 108.384V108.384Z" fill="#603515"/>
<path d="M230.049 109.955C230.049 110.709 230.674 111.322 231.444 111.322C232.213 111.322 232.838 110.709 232.838 109.955C232.838 109.2 232.213 108.589 231.444 108.589C230.674 108.589 230.049 109.2 230.049 109.955Z" fill="#603515"/>
<path d="M231.426 109.574C231.426 109.895 231.686 110.154 232.007 110.154C232.33 110.154 232.59 109.894 232.59 109.574C232.59 109.252 232.33 108.992 232.007 108.992C231.686 108.992 231.426 109.252 231.426 109.574Z" fill="white"/>
<path d="M231.174 110.196C231.174 110.362 231.307 110.491 231.469 110.491C231.633 110.491 231.768 110.36 231.768 110.196C231.768 110.032 231.635 109.899 231.469 109.899C231.307 109.899 231.174 110.032 231.174 110.196Z" fill="white"/>
<path d="M246.903 105.89C245.842 104.819 241.301 105.242 241.113 105.256C240.595 105.291 240.671 106.538 240.82 106.805C240.968 107.073 244.982 106.388 246.046 106.853C247.01 107.273 247.741 107.785 248.245 108.384C248.174 107.551 247.727 106.72 246.903 105.89V105.89Z" fill="#603515"/>
<path d="M243.669 108.589C242.898 108.589 242.275 109.2 242.275 109.955C242.275 110.709 242.898 111.322 243.669 111.322C244.439 111.322 245.062 110.709 245.062 109.955C245.062 109.2 244.437 108.589 243.669 108.589Z" fill="#603515"/>
<path d="M243.105 108.992C242.784 108.992 242.523 109.253 242.523 109.574C242.523 109.895 242.783 110.154 243.105 110.154C243.427 110.154 243.687 109.894 243.687 109.574C243.687 109.253 243.427 108.992 243.105 108.992Z" fill="white"/>
<path d="M243.642 109.899C243.478 109.899 243.343 110.032 243.343 110.196C243.343 110.362 243.478 110.491 243.642 110.491C243.806 110.491 243.937 110.36 243.937 110.196C243.937 110.032 243.806 109.899 243.642 109.899Z" fill="white"/>
<path d="M148.708 38.0752C148.708 51.0275 155.224 62.4583 165.154 69.2568C167.325 70.745 169.658 72.0114 172.125 73.0228C172.15 73.0333 172.176 73.0455 172.202 73.056C175.336 74.3329 178.682 75.2028 182.172 75.5958H182.174C183.57 75.7513 184.987 75.8316 186.426 75.8316C188.151 75.8316 189.847 75.7163 191.508 75.491H191.51C194.395 75.1015 197.173 74.3888 199.811 73.3861C199.82 73.3809 199.827 73.3791 199.836 73.3774C202.349 72.4184 204.733 71.2009 206.954 69.7581C217.304 63.026 224.148 51.3506 224.148 38.0752C224.148 17.2222 207.261 0.318726 186.426 0.318726C165.597 0.318726 148.708 17.2222 148.708 38.0752Z" fill="#FF601E"/>
<path d="M199.829 73.2272V73.2464C199.831 73.2761 199.832 73.3198 199.836 73.3774C202.349 72.4184 204.733 71.2009 206.954 69.7581C206.506 65.192 206.01 61.5099 205.53 60.6993C204.223 58.4844 202.562 56.715 200.543 55.3892L199.827 73.2272H199.829Z" fill="#FFBA9E"/>
<path d="M170.495 27.7989C170.509 30.4907 169.951 36.9171 171.528 48.9366C171.767 50.755 172.181 52.7096 172.729 54.7184C174.832 62.4514 178.872 70.9896 182.172 75.5941H182.173C183.569 75.7495 184.986 75.8299 186.426 75.8299C188.15 75.8299 189.847 75.7146 191.508 75.4893H191.51C194.906 71.8787 198.673 65.337 200.272 55.2722C200.773 52.1297 201.062 48.6397 201.062 44.788C201.062 40.8106 200.965 36.8437 201.061 33.6576C201.118 31.7868 201.239 30.185 201.488 29.0112C201.598 28.4924 201.689 27.9824 201.764 27.4828C203.301 17.2537 197.794 11.1383 194.071 9.71115C186.402 6.77308 177.879 6.95649 176.228 12.1916C170.93 13.9715 169.031 21.2049 170.495 27.7989V27.7989Z" fill="#0D3B5B"/>
<g style="mix-blend-mode:multiply">
<path d="M174.673 56.9491C177.589 60.7186 185.474 60.7553 198.325 57.0591C201.031 44.9837 201.031 36.952 198.325 32.9659C195.618 28.9798 187.196 28.4924 173.061 31.5021C171.22 44.6955 171.757 53.1778 174.673 56.9491Z" fill="#AB9990"/>
</g>
<path d="M165.153 69.2568C167.324 70.745 169.657 72.0114 172.125 73.0228L171.427 55.3158C169.438 56.6433 167.801 58.4146 166.515 60.633C166.057 61.419 165.583 64.8933 165.153 69.2585V69.2568Z" fill="#FFBA9E"/>
<path d="M171.503 55.3892L172.128 72.5146L172.203 73.056C175.337 74.3329 178.682 75.2028 182.173 75.5958H182.174C183.57 75.7513 184.987 75.8317 186.427 75.8317C188.151 75.8317 189.847 75.7164 191.509 75.491H191.511C194.395 75.1015 197.173 74.3888 199.812 73.3862L199.829 73.2465V73.2272L199.92 72.5146L200.545 55.3892L200.273 55.2739L198.802 54.6573L195.331 53.2023L175.792 53.0503L173.391 54.3604L172.73 54.7202L171.503 55.3892V55.3892Z" fill="#34A8AE"/>
<path d="M190.321 51.3174L191.417 42.5906H180.512L181.121 51.5672L175.79 53.052L185.624 68.5109L195.328 53.204L190.32 51.3192L190.321 51.3174Z" fill="#FFBA9E"/>
<g style="mix-blend-mode:multiply">
<path d="M184.63 50.2921C186.632 50.5192 188.686 49.5393 190.792 47.3488L191.18 42.5889H180.514L180.831 47.4117C181.362 49.1043 182.629 50.0633 184.63 50.2921V50.2921Z" fill="#ECD1D0"/>
</g>
<path d="M173.656 27.6277C173.491 29.7186 173.897 34.8856 174.278 36.7843C175.726 44.0264 183.165 47.8309 185.989 47.8309C188.812 47.8309 194.92 44.4124 197.426 37.9511C198.245 35.8393 198.323 31.1108 198.323 28.5727C198.323 18.0065 192.802 11.6448 185.989 11.6448C179.178 11.6448 174.635 15.1698 173.656 27.6295V27.6277Z" fill="#FFBA9E"/>
<path d="M175.895 29.1579C172.506 24.7578 170.857 28.4138 170.843 30.3824C170.827 32.5868 172.275 34.5118 175.369 33.7851C177.345 33.3205 177.877 32.6672 177.877 31.0601C177.877 29.4549 178.017 29.1579 175.893 29.1579H175.895Z" fill="#FFBA9E"/>
<path d="M195.863 31.0602C195.863 32.6673 196.397 33.3205 198.371 33.7852C201.465 34.5136 202.913 32.5887 202.897 30.3825C202.883 28.4121 201.233 24.7561 197.845 29.158C195.722 29.158 195.861 29.4567 195.861 31.0602H195.863Z" fill="#FFBA9E"/>
<path d="M176.001 13.8737C175.947 13.9838 172.935 18.6511 172.935 22.7857C172.935 26.9291 174.24 33.6576 174.57 33.8096C173.95 26.6444 177.484 25.8076 179.297 20.4887C180.289 22.3193 184.206 23.6399 188.571 23.9788C195.638 24.529 196.677 26.6636 197.035 30.0942C197.272 32.3807 196.637 39.3154 195.129 50.8965C198.685 43.6492 200.457 35.8708 200.446 27.5614C200.429 16.0781 198.579 15.6764 192.998 12.5863C187.655 9.62906 176.622 12.6038 176.004 13.8737H176.001Z" fill="#0D3B5B"/>
<path d="M182.22 38.8124C182.71 40.1364 183.871 40.7985 185.699 40.7985C187.183 40.7985 188.228 40.1364 188.839 38.8124C187.527 38.5521 186.635 38.4229 186.16 38.4229C185.862 38.8945 185.41 38.8124 185.094 38.4229C184.576 38.4229 183.618 38.5521 182.22 38.8124Z" fill="#EF6252"/>
<path d="M182.22 38.8124C182.829 39.1617 183.949 39.3364 185.583 39.3364C187.019 39.3364 188.106 39.1617 188.841 38.8124C187.529 38.5521 186.637 38.4229 186.162 38.4229C185.864 38.8945 185.412 38.8124 185.096 38.4229C184.578 38.4229 183.619 38.5521 182.222 38.8124H182.22Z" fill="#EF7056"/>
<g style="mix-blend-mode:soft-light">
<path d="M184.694 39.539C184.694 39.6683 185.111 40.0228 185.625 40.0228C186.138 40.0228 186.555 39.6683 186.555 39.539C186.555 39.4115 186.139 39.5617 185.625 39.5617C185.111 39.5617 184.694 39.4115 184.694 39.539Z" fill="white"/>
</g>
<g style="mix-blend-mode:multiply">
<path d="M184.901 27.7571L184.093 34.8664L185.723 35.2979L185.567 27.2383L183.583 26.9169L184.899 27.7553L184.901 27.7571Z" fill="#ECD1D0"/>
</g>
<path d="M176.317 27.977C176.755 27.4565 177.392 27.0128 178.232 26.646C179.157 26.2408 182.648 26.8364 182.778 26.6041C182.907 26.3718 182.975 25.287 182.523 25.2556C182.357 25.2451 178.41 24.8765 177.485 25.8076C176.768 26.529 176.378 27.2521 176.317 27.977V27.977Z" fill="#0D3B5B"/>
<path d="M179.089 29.3448C179.089 30.0016 179.632 30.5344 180.302 30.5344C180.972 30.5344 181.513 30.0016 181.513 29.3448C181.513 28.688 180.972 28.1553 180.302 28.1553C179.632 28.1553 179.089 28.688 179.089 29.3448Z" fill="#0D3B5B"/>
<path d="M180.286 29.0129C180.286 29.2924 180.513 29.5177 180.792 29.5177C181.071 29.5177 181.298 29.2924 181.298 29.0129C181.298 28.7317 181.071 28.5063 180.792 28.5063C180.513 28.5063 180.286 28.7334 180.286 29.0129Z" fill="white"/>
<path d="M180.065 29.5544C180.065 29.6977 180.18 29.8112 180.322 29.8112C180.465 29.8112 180.58 29.6977 180.58 29.5544C180.58 29.4112 180.465 29.2959 180.322 29.2959C180.18 29.2959 180.065 29.4112 180.065 29.5544Z" fill="white"/>
<path d="M193.75 25.8076C192.826 24.8765 188.876 25.2451 188.712 25.2556C188.262 25.287 188.328 26.3718 188.458 26.6041C188.587 26.8364 192.079 26.2408 193.005 26.646C193.843 27.0128 194.48 27.4565 194.918 27.977C194.857 27.2521 194.468 26.529 193.75 25.8076V25.8076Z" fill="#0D3B5B"/>
<path d="M190.934 28.1553C190.264 28.1553 189.723 28.688 189.723 29.3448C189.723 30.0016 190.265 30.5344 190.934 30.5344C191.604 30.5344 192.146 30.0016 192.146 29.3448C192.146 28.688 191.604 28.1553 190.934 28.1553Z" fill="#0D3B5B"/>
<path d="M190.445 28.5063C190.166 28.5063 189.939 28.7334 189.939 29.0129C189.939 29.2924 190.166 29.5177 190.445 29.5177C190.724 29.5177 190.951 29.2924 190.951 29.0129C190.951 28.7317 190.724 28.5063 190.445 28.5063Z" fill="white"/>
<path d="M190.913 29.2959C190.77 29.2959 190.654 29.4112 190.654 29.5544C190.654 29.6977 190.77 29.8112 190.913 29.8112C191.056 29.8112 191.171 29.6977 191.171 29.5544C191.171 29.4112 191.056 29.2959 190.913 29.2959Z" fill="white"/>
</svg>
