<svg width="517" height="449" viewBox="0 0 517 449" fill="none" xmlns="http://www.w3.org/2000/svg">
<path d="M11.8541 70.4495L13.2528 129.157C13.321 133.408 17.014 136.993 21.6665 137.743C22.1971 137.828 22.7129 137.875 23.214 137.884C24.2163 137.9 25.154 137.798 26.0272 137.576C30.0704 136.652 32.9163 133.415 32.8495 129.546L31.4424 70.8908C31.3912 66.5344 31.8567 62.4788 32.9359 58.9026C40.7992 32.3426 73.6061 38.4485 75.0141 38.6755C80.3059 39.7463 85.4169 36.8746 86.3523 32.2425C86.49 31.6488 86.5402 31.0771 86.5032 30.5276C86.3922 26.5421 83.0751 22.9635 78.4482 22.0543C60.483 18.5593 23.8435 20.6403 13.9514 53.9387C12.4408 59.0216 11.736 64.5605 11.8541 70.4495V70.4495Z" fill="#0E6016"/>
<path d="M22.5253 65.8113L25.057 137.746C25.3949 137.728 25.7181 137.672 26.0265 137.576C30.0698 136.652 32.9157 133.415 32.8488 129.546L31.4417 70.8907C31.3905 66.5343 31.8561 62.4787 32.9353 58.9025C40.7986 32.3425 73.6055 38.4484 75.0135 38.6754C80.3053 39.7462 85.4163 36.8745 86.3517 32.2425C86.3688 32.1365 86.3944 31.9776 86.4115 31.8716C77.4467 30.2085 45.2234 25.9361 29.3265 45.0587C24.419 50.9526 22.2179 58.3699 22.5253 65.8113Z" fill="#1CAB04"/>
<path d="M398.378 25.8012C398.378 30.4695 402.78 34.2792 408.237 34.2792L507.203 34.3329C512.597 34.3329 517 30.5231 517 25.8012C517 24.6744 516.752 23.5475 516.256 22.528C514.768 19.4695 511.295 17.3232 507.203 17.3232L408.237 17.2695C404.145 17.2695 400.61 19.4695 399.122 22.528C398.626 23.5475 398.378 24.6744 398.378 25.8012V25.8012Z" fill="#1CAB04"/>
<path d="M399.123 22.528C400.611 25.5866 404.145 27.7866 408.238 27.7866H507.204C511.296 27.7866 514.769 25.5866 516.257 22.528C514.769 19.4695 511.296 17.3232 507.204 17.3232L408.238 17.2695C404.145 17.2695 400.611 19.4695 399.123 22.528Z" fill="#0E6016"/>
<path d="M23.9049 373.867L30.2357 409.281C34.2821 431.871 58.2345 448.881 85.9723 448.881H334.894C340.572 448.881 345.271 445.071 345.271 440.403C345.271 439.902 345.206 439.419 345.076 438.954C344.227 434.93 339.985 431.871 334.894 431.871H85.9723C68.4159 431.871 53.2743 421.086 50.6637 406.813L44.333 371.398C43.5498 366.838 38.4591 363.618 32.9116 364.155C32.781 364.208 32.7158 364.208 32.5852 364.208C26.9724 364.906 23.0565 369.198 23.9049 373.867V373.867Z" fill="#0E6016"/>
<path d="M32.9772 366.086L39.1774 400.857C45.2471 428.276 56.4727 439.705 93.7392 439.705H340.899C342.4 439.705 343.836 439.437 345.076 438.954C344.228 434.93 339.985 431.871 334.895 431.871H85.9727C68.4163 431.871 53.2747 421.086 50.6641 406.813L44.3334 371.398C43.5502 366.838 38.4595 363.618 32.9119 364.155C32.8249 364.798 32.8467 365.442 32.9772 366.086V366.086Z" fill="#1CAB04"/>
<rect width="345.899" height="53.716" rx="26.858" transform="matrix(-1 0 0 1 410.572 0.29248)" fill="#0E6016"/>
</svg>
