<svg width="299" height="342" viewBox="0 0 299 342" fill="none" xmlns="http://www.w3.org/2000/svg">
<path d="M141.642 199.444H96.4574C68.1681 199.444 45.186 176.462 45.186 148.124V72.8971H192.962V148.124C192.962 176.462 169.98 199.444 141.642 199.444Z" fill="#FFC79A"/>
<path d="M73.4739 150.802C67.9719 150.802 63.541 146.323 63.541 140.821V132.64C63.541 127.138 67.9719 122.708 73.4739 122.708C78.976 122.708 83.4555 127.138 83.4555 132.64V140.821C83.4555 146.323 78.976 150.802 73.4739 150.802Z" fill="#0C2D48"/>
<path d="M89.0554 124.85C89.0554 128.745 85.8905 131.91 81.9952 131.91C78.1 131.91 74.9351 128.745 74.9351 124.85C74.9351 120.955 78.1 117.838 81.9952 117.838C85.8905 117.838 89.0554 120.955 89.0554 124.85Z" fill="#FFFDFA"/>
<path d="M55.9458 114.089C58.4128 107.792 63.7688 105.406 72.0137 106.932" stroke="#0C2D48" stroke-width="9.8" stroke-linecap="round" stroke-linejoin="round"/>
<path d="M154.69 140.821V132.64C154.69 127.138 159.169 122.708 164.672 122.708C170.174 122.708 174.604 127.138 174.604 132.64V140.821C174.604 146.323 170.174 150.802 164.672 150.802C159.169 150.802 154.69 146.323 154.69 140.821Z" fill="#0C2D48"/>
<path d="M156.151 117.838C160.047 117.838 163.212 120.955 163.212 124.85C163.212 128.745 160.047 131.91 156.151 131.91C152.256 131.91 149.091 128.745 149.091 124.85C149.091 120.955 152.256 117.838 156.151 117.838Z" fill="#FFFDFA"/>
<path d="M182.201 114.089C179.734 107.792 174.378 105.406 166.133 106.932" stroke="#0C2D48" stroke-width="9.8" stroke-linecap="round" stroke-linejoin="round"/>
<path d="M119.049 163.9C112.379 163.9 106.925 158.447 106.925 151.727V148.076C106.925 146.031 108.532 144.424 110.577 144.424H127.57C129.615 144.424 131.222 146.031 131.222 148.076V151.727C131.222 158.447 125.769 163.9 119.049 163.9Z" fill="#062E40"/>
<path d="M126.596 155.282C126.596 158.301 123.237 160.784 119.049 160.784C114.91 160.784 111.551 158.301 111.551 155.282C111.551 154.698 111.697 154.113 111.94 153.626C112.914 151.387 115.738 149.78 119.049 149.78C122.409 149.78 125.233 151.387 126.207 153.626C126.45 154.113 126.596 154.698 126.596 155.282V155.282Z" fill="#EA336A"/>
<path d="M126.206 153.626C125.232 155.817 122.408 157.424 119.049 157.424C115.738 157.424 112.914 155.817 111.94 153.626C112.914 151.386 115.738 149.78 119.049 149.78C122.408 149.78 125.232 151.386 126.206 153.626Z" fill="#F88200"/>
<path d="M192.961 122.708C193.935 99.1089 189.796 85.8488 180.545 82.9274H59.013C49.7942 86.92 45.1848 94.2723 45.1848 104.984L44.9414 126.749H20.3525V94.8079C20.3525 59.8967 48.6905 31.6074 83.6018 31.6074H154.544C189.455 31.6074 217.793 59.8967 217.793 94.8079V122.708H192.961Z" fill="#062E40"/>
<path d="M217.793 114.089V122.708H192.961C193.935 99.109 189.796 85.8326 180.545 82.8787H59.013C49.7942 86.9363 45.1848 94.3048 45.1848 104.984L44.9414 126.749H20.3525V117.839H35.4954V98.9954C35.4954 85.6541 46.3534 74.7961 59.6946 74.7961H177.77C191.111 74.7961 201.969 85.6541 201.969 98.9954V114.089H217.793Z" fill="#042835"/>
<path d="M45.9157 59.4584C45.8508 59.0364 45.7697 58.6144 45.6723 58.1924C42.7508 42.8062 48.7885 27.0791 60.9125 17.2436C70.6506 9.35568 85.55 0.932185 105.513 0.201824C111.259 0.00706109 116.566 3.36672 118.806 8.674C119.633 10.6703 120.461 12.9588 121.094 15.5881C122.912 12.6017 125.915 10.0211 130.102 7.84627C136.773 4.38923 145.001 7.99233 146.803 15.2472C147.582 18.4608 148.069 22.5509 147.728 27.6634C146.917 52.6579 157.856 71.0793 180.546 82.9274C143.541 91.3022 108.597 92.8765 75.7145 87.6503C60.8638 85.2645 49.0319 74.1143 45.9157 59.4584V59.4584Z" fill="#062E40"/>
<path d="M180.546 82.8786C143.541 91.2858 108.597 92.8764 75.7148 87.6502C60.8641 85.2644 49.0323 74.1629 45.9648 59.4583C45.8674 59.0363 45.77 58.6143 45.6726 58.1923C43.4815 46.604 46.3543 34.8208 53.0736 25.5209C51.1747 31.8507 50.7364 38.6674 52.0024 45.4354C52.0998 45.8574 52.1972 46.2794 52.2946 46.7013C55.4108 61.4059 67.1939 72.5074 82.0446 74.8933C113.207 79.8597 146.755 76.6461 167.302 73.6273C171.003 77.0357 175.336 80.2006 180.546 82.8786V82.8786Z" fill="#042835"/>
<path d="M157.904 66.4699C137.211 68.9531 110.382 70.4139 85.3063 66.4212C72.7441 64.3762 62.9086 55.0763 60.2793 42.6602C60.1819 42.2706 60.1007 41.8973 60.0358 41.5403C59.5976 39.3005 59.4028 37.012 59.4028 34.7236C59.4515 28.5886 62.1782 22.7457 66.9012 18.8991C66.9337 18.8991 66.9661 18.8829 66.9986 18.8504C75.276 12.1311 89.1042 3.95104 107.801 3.26937C111.258 3.1233 114.521 5.16832 115.835 8.33321C116.663 10.3295 117.345 12.3745 117.88 14.4682L120.997 26.6409L127.472 15.929C127.472 15.8803 129.615 12.618 134.289 10.1835C135.993 9.30702 137.99 9.25834 139.791 10.0374C141.495 10.8164 142.761 12.2772 143.2 14.0787C143.979 17.0975 144.222 20.7006 143.979 24.742V24.8881C143.93 25.9106 143.394 47.5779 157.904 66.4699Z" fill="#0F354F"/>
<path d="M117.493 183.912V191.362H70.7009C47.7189 191.362 29.0703 172.665 29.0703 149.731V140.139H36.52V149.731C36.52 168.575 51.8576 183.912 70.7009 183.912H117.493Z" fill="#FFCC51"/>
<path d="M117.492 183.912V187.369H72.7935C47.8152 187.369 33.0132 169.694 33.0132 147.881V140.139H36.5189V149.731C36.5189 168.574 51.8565 183.912 70.6998 183.912H117.492Z" fill="#FFF16E"/>
<path d="M132.829 187.369C132.829 192.335 127.18 196.328 120.266 196.328C113.352 196.328 107.704 192.335 107.704 187.369C107.704 182.451 113.352 178.458 120.266 178.458C127.18 178.458 132.829 182.451 132.829 187.369Z" fill="#F88200"/>
<path d="M132.829 187.369C132.829 192.335 127.18 196.328 120.266 196.328C113.352 196.328 107.704 192.335 107.704 187.369C107.704 186.72 107.801 186.071 107.996 185.421C109.262 189.414 114.277 192.384 120.266 192.384C126.255 192.384 131.27 189.414 132.488 185.421C132.715 186.071 132.829 186.72 132.829 187.369Z" fill="#EA336A"/>
<path d="M128.739 184.009C128.739 186.59 124.989 188.684 120.315 188.684C115.689 188.684 111.892 186.59 111.892 184.009C111.892 181.429 115.689 179.335 120.315 179.335C124.989 179.335 128.739 181.429 128.739 184.009Z" fill="#F88200"/>
<path d="M212.825 104.449V122.708H197.926V104.449C197.926 72.5076 171.925 46.5068 139.984 46.5068H98.1587C66.2176 46.5068 40.2167 72.5076 40.2167 104.449V122.708H25.3174V104.449C25.3174 64.2789 57.9889 31.6074 98.1587 31.6074H139.984C180.154 31.6074 212.825 64.2789 212.825 104.449Z" fill="#FFF16E"/>
<path d="M206.157 109.951V122.708H197.928V104.449C197.928 72.5078 171.927 46.507 139.986 46.507H98.161C66.2199 46.507 40.2191 72.5078 40.2191 104.449V122.708H32.3799V109.951C32.3799 70.755 62.6655 38.8625 99.8652 38.8625H138.623C175.871 38.8625 206.157 70.755 206.157 109.951Z" fill="#FFCC51"/>
<path d="M215.312 166.481H205.379V111.168H215.312C227.923 111.168 238.148 121.393 238.148 134.053V143.596C238.148 156.207 227.923 166.481 215.312 166.481Z" fill="#FFF16E"/>
<path d="M238.148 135.124V143.596C238.148 156.207 227.923 166.481 215.312 166.481H205.379V158.008H215.312C227.923 158.008 238.148 147.783 238.148 135.124Z" fill="#FFCC51"/>
<path d="M214.532 153.286H209.127V114.869H214.532C225.147 114.869 233.716 123.487 233.716 134.053C233.716 144.667 225.147 153.286 214.532 153.286Z" fill="#FFFB8C"/>
<path d="M205.378 172.665C198.512 172.665 192.961 167.114 192.961 160.248V117.401C192.961 110.535 198.512 104.984 205.378 104.984C212.194 104.984 217.794 110.535 217.794 117.401V160.248C217.794 167.114 212.194 172.665 205.378 172.665Z" fill="#F88200"/>
<path d="M217.794 148.709V160.248C217.794 167.114 212.194 172.665 205.378 172.665C198.512 172.665 192.961 167.114 192.961 160.248V148.709C192.961 155.525 198.512 161.076 205.378 161.076C212.194 161.076 217.794 155.525 217.794 148.709Z" fill="#EA336A"/>
<path d="M205.378 153.286C200.071 153.286 195.786 148.952 195.786 143.645V116.816C195.786 111.509 200.071 107.224 205.378 107.224C210.685 107.224 214.97 111.509 214.97 116.816V143.645C214.97 148.952 210.685 153.286 205.378 153.286Z" fill="#F88200"/>
<path d="M0 143.596V134.053C0 121.393 10.2251 111.168 22.8359 111.168H32.7689V166.481H22.8359C10.2251 166.481 0 156.207 0 143.596Z" fill="#FFF16E"/>
<path d="M22.8359 158.008H32.7689V166.481H22.8359C10.2251 166.481 0 156.207 0 143.596V135.124C0 147.783 10.2251 158.008 22.8359 158.008Z" fill="#FFCC51"/>
<path d="M4.43213 134.053C4.43213 123.487 13.0017 114.869 23.6163 114.869H29.0209V153.286H23.6163C13.0017 153.286 4.43213 144.667 4.43213 134.053V134.053Z" fill="#FFFB8C"/>
<path d="M20.3525 160.248V117.401C20.3525 110.535 25.952 104.984 32.7687 104.984C39.6341 104.984 45.1848 110.535 45.1848 117.401V160.248C45.1848 167.114 39.6341 172.664 32.7687 172.664C25.952 172.664 20.3525 167.114 20.3525 160.248Z" fill="#F88200"/>
<path d="M32.7687 161.076C39.6341 161.076 45.1848 155.525 45.1848 148.709V160.248C45.1848 167.114 39.6341 172.664 32.7687 172.664C25.952 172.664 20.3525 167.114 20.3525 160.248V148.709C20.3525 155.525 25.952 161.076 32.7687 161.076Z" fill="#EA336A"/>
<path d="M23.1772 143.645V116.816C23.1772 111.509 27.462 107.224 32.7693 107.224C38.0766 107.224 42.3614 111.509 42.3614 116.816V143.645C42.3614 148.952 38.0766 153.286 32.7693 153.286C27.462 153.286 23.1772 148.952 23.1772 143.645Z" fill="#F88200"/>
<path d="M185.659 151.533C185.659 155.136 180.4 158.057 173.924 158.057C167.448 158.057 162.238 155.136 162.238 151.533C162.238 147.929 167.448 145.008 173.924 145.008C180.4 145.008 185.659 147.929 185.659 151.533Z" fill="#FF799A"/>
<path d="M64.2237 145.008C70.6996 145.008 75.9095 147.929 75.9095 151.533C75.9095 155.136 70.6996 158.057 64.2237 158.057C57.7479 158.057 52.4893 155.136 52.4893 151.533C52.4893 147.929 57.7479 145.008 64.2237 145.008Z" fill="#FF799A"/>
<path d="M241.799 256.753C242.091 252.858 242.902 248.638 244.233 244.094C247.788 231.824 258.256 223.011 270.867 221.355C276.126 220.673 282.163 220.576 287.909 222.134C295.846 224.277 300.763 232.505 298.28 240.345C296.819 244.921 293.119 249.839 284.89 253.54C283.624 254.075 282.456 254.708 281.336 255.487C278.463 257.484 273.886 261.574 272.425 267.855C260.545 266.264 250.336 262.564 241.799 256.753V256.753Z" fill="#FFC79A"/>
<path d="M298.28 240.345C296.819 244.921 293.119 249.839 284.89 253.54C283.624 254.124 282.456 254.708 281.336 255.487C278.463 257.484 273.886 261.574 272.425 267.855C270.153 267.563 267.378 267.011 264.099 266.199C265.998 260.21 272.084 254.27 274.811 252.371C275.931 251.592 277.1 250.959 278.365 250.424C286.594 246.723 290.295 241.805 291.755 237.228C293.606 231.483 291.415 225.494 287.032 221.891C287.325 221.956 287.633 222.037 287.958 222.134C295.845 224.277 300.763 232.505 298.28 240.345Z" fill="#FFB881"/>
<path d="M288.103 231.872C288.103 232.895 287.957 233.966 287.617 234.94C286.205 239.468 282.309 243.217 276.126 245.993C274.567 246.723 273.204 247.453 271.987 248.281C269.504 250.034 264.245 255 261.324 260.746C256.26 259.285 250.173 257.045 244.817 253.783C245.158 251.592 245.743 247.892 246.911 243.899C250.027 233.09 259.327 225.153 270.575 223.692C273.934 223.254 277.099 223.157 280.069 223.352C284.5 223.692 288.055 227.344 288.103 231.775C288.103 231.807 288.103 231.84 288.103 231.872V231.872Z" fill="#F7D2AC"/>
<path d="M171.148 222.719C187.346 231.158 198.756 243.412 205.378 259.48L219.547 292.785L234.056 252.761C251.066 252.988 265.121 258.425 276.223 269.072L257.087 319.175C251.975 332.516 239.169 341.378 224.854 341.378H219.547C209.419 341.378 199.827 336.898 193.254 329.157L171.148 303.058V222.719Z" fill="#C1CFD0"/>
<path d="M276.222 269.072L257.087 319.175C251.974 332.516 239.169 341.378 224.853 341.378H219.546C209.808 341.378 200.557 337.239 194.032 330.082C199.486 333.441 205.767 335.291 212.291 335.291H217.599C231.914 335.291 244.719 326.478 249.832 313.137L268.87 263.278C271.45 264.933 273.934 266.832 276.222 269.072V269.072Z" fill="#AAB5B5"/>
<path d="M259.034 263.375C261.323 264.349 262.394 266.979 261.518 269.267L245.401 311.433C241.019 322.875 229.869 330.569 217.599 330.569H212.291C212.226 330.569 212.178 330.569 212.145 330.569C205.669 330.52 196.954 326.186 192.766 321.269L176.991 302.62C176.26 301.792 175.871 300.721 175.871 299.65V241.026C175.871 237.034 180.642 234.94 183.661 237.618C189.991 243.364 196.856 251.349 200.995 261.379L215.31 294.927C216.917 298.822 222.468 298.628 223.928 294.684C227.824 283.923 233.569 268.147 236.052 261.184C236.831 259.139 238.925 257.873 241.116 258.214C245.888 258.945 252.412 260.405 259.034 263.375V263.375Z" fill="#D4E2E5"/>
<path d="M66.9982 341.378H20.3525L23.4687 274.136C24.2478 257.046 33.5477 241.416 48.2523 232.7C55.3612 228.513 61.6098 225.186 66.9982 222.719V341.378Z" fill="#C1CFD0"/>
<path d="M66.9982 321.366V341.378H20.3525L21.1803 323.947C22.2515 327.452 25.5138 329.984 29.409 329.984H58.38C63.1517 329.984 66.9982 326.138 66.9982 321.366V321.366Z" fill="#AAB5B5"/>
<path d="M61.155 236.157V315.28C61.155 319.224 57.9415 322.437 53.9975 322.437H29.3113C27.4124 322.437 25.9517 320.879 26.049 319.029L28.1427 273.114C28.8244 257.971 37.0044 244.337 49.9075 236.693C52.0986 235.378 54.1923 234.21 56.1399 233.139C58.3797 231.921 61.155 233.528 61.155 236.157V236.157Z" fill="#D4E2E5"/>
<path d="M183.467 245.214V341.378H119.049H54.6797V245.214C54.6797 235.817 59.4027 227.15 66.9984 222.719C68.7026 221.745 70.5042 220.722 72.4031 219.7C83.7967 213.662 96.3102 210.595 108.97 210.595H119.049H129.176C141.836 210.595 154.35 213.662 165.743 219.7C167.642 220.722 169.444 221.745 171.148 222.719C178.744 227.15 183.467 235.817 183.467 245.214V245.214Z" fill="#C1CFD0"/>
<path d="M183.467 316.059V341.378H54.6797V316.059C54.6797 323.655 60.8147 329.79 68.4105 329.79H169.736C177.283 329.79 183.467 323.655 183.467 316.059V316.059Z" fill="#AAB5B5"/>
<path d="M174.264 243.948V311.53C174.264 315.328 171.197 318.396 167.399 318.396H70.7476C66.9497 318.396 63.8335 315.328 63.8335 311.53V243.948C63.8335 237.131 67.1932 230.947 72.5491 227.831C74.1072 226.906 75.7627 225.981 77.4669 225.056C87.3024 219.846 98.3552 217.119 109.457 217.119H128.69C139.791 217.119 150.844 219.846 160.679 225.056C162.384 225.981 164.039 226.906 165.597 227.831C170.953 230.947 174.264 237.131 174.264 243.948V243.948Z" fill="#D4E2E5"/>
<path d="M139.11 317.033L119.05 332.224L99.0379 317.033C96.5546 315.134 95.4834 311.92 96.2625 308.902L110.918 243.023H119.05H127.23L141.886 308.902C142.665 311.92 141.594 315.134 139.11 317.033V317.033Z" fill="#F88200"/>
<path d="M139.11 317.033L119.05 332.224L99.0379 317.033C96.5546 315.134 95.4834 311.92 96.2625 308.901L97.2363 304.617C97.6258 306.223 98.5509 307.636 99.9143 308.707L119.05 323.265L138.234 308.707C139.597 307.636 140.522 306.175 140.912 304.568L141.886 308.901C142.665 311.92 141.594 315.134 139.11 317.033V317.033Z" fill="#EA336A"/>
<path d="M136.627 302.474C136.384 302.864 136.091 303.205 135.702 303.497L122.458 313.576C120.462 315.085 117.686 315.085 115.69 313.576L102.446 303.497C102.057 303.205 101.764 302.864 101.521 302.474L113.255 249.645C113.84 247.113 116.08 245.311 118.709 245.311H119.439C122.068 245.311 124.308 247.113 124.893 249.645L136.627 302.474Z" fill="#F88200"/>
<path d="M124.308 246.723H113.839C109.116 246.723 105.318 242.925 105.318 238.202V234.015C105.318 229.292 109.116 225.445 113.839 225.445H124.308C129.031 225.445 132.829 229.292 132.829 234.015V238.202C132.829 242.925 129.031 246.723 124.308 246.723Z" fill="#F88200"/>
<path d="M132.877 234.015V238.202C132.877 242.925 129.031 246.723 124.308 246.723H113.839C109.116 246.723 105.27 242.925 105.27 238.202V234.015C105.318 238.689 109.165 242.487 113.839 242.487H124.308C128.982 242.487 132.828 238.689 132.877 234.015Z" fill="#EA336A"/>
<path d="M123.577 239.03H114.569C111.404 239.03 108.823 236.449 108.823 233.284C108.823 230.168 111.404 227.588 114.569 227.588H123.577C126.741 227.588 129.322 230.168 129.322 233.284C129.322 236.449 126.741 239.03 123.577 239.03Z" fill="#F88200"/>
<path d="M133.315 199.396V213.127C133.315 219.943 127.813 225.494 120.948 225.494H117.15C110.333 225.494 104.783 219.943 104.783 213.127V199.396H133.315Z" fill="#FFC79A"/>
<path d="M133.315 199.396V206.164H104.783V199.396H133.315Z" fill="#FFB881"/>
<path d="M226.753 263.181L230.599 252.809C231.281 251.008 233.034 249.742 234.981 249.791C259.327 250.278 272.717 260.308 277.586 264.933C278.949 266.199 279.387 268.147 278.706 269.9L274.177 281.683C273.106 284.361 269.844 285.481 267.409 283.923C255.334 276.181 238.341 271.312 230.015 269.267C227.337 268.585 225.827 265.761 226.753 263.181Z" fill="#F0F8F7"/>
<path d="M276.466 268.098L273.058 277.057C272.717 277.496 272.23 277.788 271.694 277.934C271.256 277.982 270.672 278.031 269.99 277.593C257.671 269.705 240.532 264.739 231.427 262.499C230.648 262.304 230.015 261.671 229.771 260.941L232.79 252.712C233.131 251.836 233.959 251.251 234.933 251.251C258.645 251.689 271.499 261.525 275.93 265.712C276.612 266.297 276.807 267.27 276.466 268.098V268.098Z" fill="#FFFDFA"/>
<path d="M120.996 225.445C127.813 225.445 133.364 219.943 133.364 213.127V207.722C141.089 208.469 145.78 212.64 147.436 220.236C148.555 225.348 147.241 230.607 144.271 234.891C141.349 239.079 136.383 244.483 128.641 247.454C127.797 237.164 124.6 229.828 119.049 225.445H120.996Z" fill="#FFFDFA"/>
<path d="M144.32 234.892C141.35 239.079 136.383 244.484 128.641 247.454C128.512 245.863 128.203 243.98 127.716 241.806C133.462 238.787 137.406 234.405 139.84 230.899C142.81 226.614 144.125 221.307 143.005 216.243C142.47 213.808 141.496 211.812 140.327 210.205C143.297 212.007 146.316 215.074 147.485 220.284C148.556 225.348 147.241 230.607 144.32 234.892Z" fill="#F0F8F7"/>
<path d="M119.049 225.445C113.53 229.828 110.349 237.164 109.505 247.454C101.763 244.483 96.7969 239.079 93.8755 234.891C90.9054 230.607 89.5907 225.348 90.6619 220.236C92.3499 212.64 97.0566 208.469 104.782 207.722V213.127C104.782 219.943 110.333 225.445 117.15 225.445H119.049Z" fill="#FFFDFA"/>
<path d="M90.6615 220.284C91.8301 215.074 94.849 212.007 97.8191 210.205C96.6505 211.812 95.6767 213.808 95.1411 216.243C94.0212 221.307 95.3359 226.614 98.306 230.899C100.741 234.405 104.684 238.787 110.43 241.806C109.943 243.98 109.635 245.863 109.505 247.454C101.763 244.484 96.7966 239.079 93.8264 234.892C90.905 230.607 89.5904 225.348 90.6615 220.284Z" fill="#F0F8F7"/>
</svg>
