<svg width="635" height="552" viewBox="0 0 635 552" fill="none" xmlns="http://www.w3.org/2000/svg">
<path d="M620.901 86.2005L619.182 158.334C619.099 163.556 614.561 167.961 608.845 168.883C608.193 168.988 607.559 169.046 606.943 169.056C605.712 169.076 604.56 168.95 603.487 168.678C598.519 167.543 595.022 163.566 595.104 158.811L596.833 86.7427C596.896 81.3901 596.324 76.407 594.998 72.0129C585.337 39.3792 545.027 46.8813 543.297 47.1603C536.795 48.476 530.516 44.9476 529.366 39.2562C529.197 38.5266 529.135 37.8243 529.181 37.1491C529.317 32.2521 533.393 27.8551 539.078 26.738C561.151 22.4438 606.17 25.0007 618.324 65.914C620.18 72.1592 621.046 78.9648 620.901 86.2005V86.2005Z" fill="#0E6016"/>
<path d="M607.788 80.5018L604.678 168.887C604.263 168.865 603.865 168.795 603.486 168.678C598.519 167.543 595.022 163.566 595.104 158.811L596.833 86.7428C596.896 81.3902 596.324 76.4071 594.998 72.0131C585.336 39.3793 545.027 46.8815 543.297 47.1605C536.795 48.4761 530.515 44.9477 529.366 39.2564C529.345 39.1262 529.313 38.9309 529.292 38.8007C540.307 36.7573 579.9 31.5078 599.432 55.0035C605.462 62.2452 608.166 71.3587 607.788 80.5018Z" fill="#1CAB04"/>
<path d="M145.984 31.342C145.984 37.0779 140.574 41.7588 133.87 41.7588L12.2722 41.8248C5.6438 41.8248 0.234375 37.1438 0.234375 31.342C0.234375 29.9575 0.53914 28.573 1.14865 27.3204C2.97718 23.5624 7.24376 20.9252 12.2722 20.9252L133.87 20.8593C138.898 20.8593 143.241 23.5624 145.069 27.3204C145.679 28.573 145.984 29.9575 145.984 31.342V31.342Z" fill="#1CAB04"/>
<path d="M145.069 27.3204C143.24 31.0784 138.897 33.7815 133.869 33.7815H12.2715C7.24306 33.7815 2.97648 31.0784 1.14795 27.3204C2.97648 23.5625 7.24306 20.9253 12.2715 20.9253L133.869 20.8594C138.897 20.8594 143.24 23.5625 145.069 27.3204Z" fill="#0E6016"/>
<path d="M606.092 459.005L598.314 502.518C593.342 530.274 563.912 551.174 529.831 551.174H223.985C217.008 551.174 211.234 546.493 211.234 540.757C211.234 540.142 211.315 539.548 211.475 538.977C212.517 534.032 217.73 530.274 223.985 530.274H529.831C551.402 530.274 570.007 517.022 573.214 499.485L580.993 455.972C581.955 450.368 588.21 446.412 595.026 447.072C595.186 447.138 595.267 447.138 595.427 447.138C602.323 447.995 607.135 453.269 606.092 459.005V459.005Z" fill="#0E6016"/>
<path d="M594.946 449.445L587.328 492.167C579.87 525.857 566.077 539.9 520.288 539.9H216.607C214.762 539.9 212.998 539.57 211.475 538.977C212.517 534.032 217.729 530.274 223.984 530.274H529.831C551.402 530.274 570.006 517.022 573.214 499.485L580.992 455.972C581.955 450.368 588.21 446.412 595.026 447.072C595.133 447.863 595.106 448.654 594.946 449.445V449.445Z" fill="#1CAB04"/>
<rect x="131" width="425" height="66" rx="33" fill="#0E6016"/>
</svg>
