<svg width="358" height="409" viewBox="0 0 358 409" fill="none" xmlns="http://www.w3.org/2000/svg">
<path d="M188.722 239.036H242.723C276.532 239.036 303.998 211.57 303.998 177.703V87.7979H127.389V177.703C127.389 211.57 154.855 239.036 188.722 239.036Z" fill="#FFC79A"/>
<path d="M270.191 180.903C276.766 180.903 282.062 175.549 282.062 168.974V159.198C282.062 152.622 276.766 147.327 270.191 147.327C263.615 147.327 258.261 152.622 258.261 159.198V168.974C258.261 175.549 263.615 180.903 270.191 180.903Z" fill="#0C2D48"/>
<path d="M251.57 149.887C251.57 154.543 255.352 158.325 260.008 158.325C264.663 158.325 268.445 154.543 268.445 149.887C268.445 145.232 264.663 141.508 260.008 141.508C255.352 141.508 251.57 145.232 251.57 149.887Z" fill="#FFFDFA"/>
<path d="M291.14 137.027C288.191 129.501 281.79 126.65 271.937 128.473" stroke="#0C2D48" stroke-width="9.8" stroke-linecap="round" stroke-linejoin="round"/>
<path d="M173.129 168.974V159.198C173.129 152.622 167.775 147.327 161.2 147.327C154.624 147.327 149.329 152.622 149.329 159.198V168.974C149.329 175.549 154.624 180.903 161.2 180.903C167.775 180.903 173.129 175.549 173.129 168.974Z" fill="#0C2D48"/>
<path d="M171.383 141.508C166.727 141.508 162.945 145.232 162.945 149.887C162.945 154.543 166.727 158.325 171.383 158.325C176.038 158.325 179.82 154.543 179.82 149.887C179.82 145.232 176.038 141.508 171.383 141.508Z" fill="#FFFDFA"/>
<path d="M140.25 137.027C143.198 129.501 149.599 126.65 159.453 128.473" stroke="#0C2D48" stroke-width="9.8" stroke-linecap="round" stroke-linejoin="round"/>
<path d="M215.724 196.556C223.696 196.556 230.214 190.039 230.214 182.009V177.644C230.214 175.2 228.294 173.28 225.85 173.28H205.541C203.097 173.28 201.177 175.2 201.177 177.644V182.009C201.177 190.039 207.694 196.556 215.724 196.556Z" fill="#062E40"/>
<path d="M206.706 186.257C206.706 189.865 210.721 192.833 215.725 192.833C220.671 192.833 224.687 189.865 224.687 186.257C224.687 185.559 224.512 184.86 224.221 184.278C223.057 181.602 219.682 179.681 215.725 179.681C211.71 179.681 208.335 181.602 207.171 184.278C206.88 184.86 206.706 185.559 206.706 186.257V186.257Z" fill="#EA336A"/>
<path d="M207.171 184.278C208.335 186.897 211.71 188.817 215.725 188.817C219.682 188.817 223.057 186.897 224.221 184.278C223.057 181.601 219.682 179.681 215.725 179.681C211.71 179.681 208.335 181.601 207.171 184.278Z" fill="#F88200"/>
<path d="M127.389 147.327C126.225 119.124 131.172 103.277 142.228 99.7851H287.472C298.49 104.557 303.998 113.344 303.998 126.146L304.289 152.157H333.676V113.984C333.676 72.2608 299.809 38.4519 258.086 38.4519H173.302C131.579 38.4519 97.7118 72.2608 97.7118 113.984V147.327H127.389Z" fill="#062E40"/>
<path d="M97.7118 137.027V147.327H127.389C126.225 119.124 131.172 103.257 142.228 99.7271H287.472C298.49 104.576 303.998 113.383 303.998 126.146L304.289 152.157H333.676V141.508H315.578V118.988C315.578 103.044 302.602 90.0674 286.658 90.0674H145.545C129.6 90.0674 116.624 103.044 116.624 118.988V137.027H97.7118Z" fill="#042835"/>
<path d="M303.127 71.7373C303.204 71.233 303.301 70.7286 303.418 70.2243C306.909 51.836 299.694 33.0404 285.204 21.2858C273.566 11.8589 255.759 1.79189 231.901 0.919029C225.035 0.686266 218.692 4.70143 216.015 11.0442C215.026 13.4301 214.037 16.165 213.28 19.3073C211.108 15.7383 207.519 12.6542 202.515 10.055C194.543 5.92345 184.708 10.2296 182.555 18.9C181.624 22.7406 181.042 27.6286 181.45 33.7387C182.42 63.61 169.346 85.6255 142.229 99.7853C186.454 109.794 228.216 111.676 267.514 105.43C285.262 102.578 299.403 89.2527 303.127 71.7373V71.7373Z" fill="#062E40"/>
<path d="M142.228 99.7271C186.453 109.775 228.215 111.676 267.513 105.43C285.262 102.578 299.402 89.3109 303.068 71.7373C303.184 71.233 303.301 70.7286 303.417 70.2243C306.036 56.3749 302.602 42.2927 294.572 31.1782C296.842 38.743 297.365 46.8898 295.852 54.9783C295.736 55.4826 295.62 55.9869 295.503 56.4913C291.779 74.0649 277.697 87.3324 259.949 90.1838C222.706 96.1193 182.613 92.2786 158.056 88.6708C153.634 92.7442 148.455 96.5266 142.228 99.7271V99.7271Z" fill="#042835"/>
<path d="M169.288 80.1167C194.019 83.0844 226.082 84.8301 256.05 80.0585C271.064 77.6145 282.818 66.5 285.96 51.6614C286.077 51.1958 286.174 50.7497 286.251 50.323C286.775 47.6462 287.008 44.9112 287.008 42.1763C286.95 34.8442 283.691 27.8613 278.046 23.2642C278.008 23.2642 277.969 23.2448 277.93 23.206C268.038 15.1757 251.511 5.39962 229.166 4.58495C225.035 4.41038 221.136 6.85441 219.565 10.6368C218.575 13.0226 217.761 15.4666 217.121 17.9688L213.396 32.5166L205.657 19.7146C205.657 19.6564 203.097 15.7576 197.51 12.8481C195.474 11.8006 193.088 11.7424 190.935 12.6735C188.898 13.6045 187.385 15.3503 186.861 17.5033C185.93 21.1112 185.639 25.4173 185.93 30.2471V30.4217C185.989 31.6437 186.629 57.5386 169.288 80.1167Z" fill="#0F354F"/>
<path d="M217.583 220.473V229.377H273.505C300.971 229.377 323.258 207.031 323.258 179.623V168.16H314.355V179.623C314.355 202.143 296.024 220.473 273.505 220.473H217.583Z" fill="#FFCC51"/>
<path d="M217.586 220.473V224.605H271.005C300.857 224.605 318.547 203.481 318.547 177.412V168.159H314.357V179.623C314.357 202.143 296.027 220.473 273.507 220.473H217.586Z" fill="#FFF16E"/>
<path d="M199.256 224.604C199.256 230.54 206.006 235.311 214.269 235.311C222.532 235.311 229.282 230.54 229.282 224.604C229.282 218.727 222.532 213.955 214.269 213.955C206.006 213.955 199.256 218.727 199.256 224.604Z" fill="#F88200"/>
<path d="M199.256 224.604C199.256 230.54 206.006 235.312 214.269 235.312C222.532 235.312 229.282 230.54 229.282 224.604C229.282 223.829 229.166 223.053 228.933 222.277C227.42 227.048 221.426 230.598 214.269 230.598C207.111 230.598 201.118 227.048 199.663 222.277C199.391 223.053 199.256 223.829 199.256 224.604Z" fill="#EA336A"/>
<path d="M204.143 220.589C204.143 223.673 208.624 226.176 214.21 226.176C219.738 226.176 224.277 223.673 224.277 220.589C224.277 217.505 219.738 215.003 214.21 215.003C208.624 215.003 204.143 217.505 204.143 220.589Z" fill="#F88200"/>
<path d="M103.649 125.505V147.327H121.456V125.505C121.456 87.332 152.53 56.2581 190.703 56.2581H240.689C278.862 56.2581 309.936 87.332 309.936 125.505V147.327H327.742V125.505C327.742 77.4977 288.696 38.4517 240.689 38.4517H190.703C142.695 38.4517 103.649 77.4977 103.649 125.505Z" fill="#FFF16E"/>
<path d="M111.619 132.081V147.327H121.453V125.505C121.453 87.3322 152.527 56.2583 190.7 56.2583H240.686C278.859 56.2583 309.933 87.3322 309.933 125.505V147.327H319.302V132.081C319.302 85.2373 283.107 47.1223 238.649 47.1223H192.329C147.813 47.1223 111.619 85.2373 111.619 132.081Z" fill="#FFCC51"/>
<path d="M100.679 199.64H112.55V133.536H100.679C85.6075 133.536 73.3874 145.756 73.3874 160.885V172.291C73.3874 187.362 85.6075 199.64 100.679 199.64Z" fill="#FFF16E"/>
<path d="M73.3874 162.166V172.291C73.3874 187.362 85.6075 199.64 100.679 199.64H112.55V189.515H100.679C85.6075 189.515 73.3874 177.295 73.3874 162.166Z" fill="#FFCC51"/>
<path d="M101.61 183.871H108.069V137.958H101.61C88.9245 137.958 78.683 148.258 78.683 160.886C78.683 173.571 88.9245 183.871 101.61 183.871Z" fill="#FFFB8C"/>
<path d="M112.552 207.031C120.757 207.031 127.391 200.397 127.391 192.192V140.984C127.391 132.779 120.757 126.146 112.552 126.146C104.405 126.146 97.7133 132.779 97.7133 140.984V192.192C97.7133 200.397 104.405 207.031 112.552 207.031Z" fill="#F88200"/>
<path d="M97.7133 178.401V192.192C97.7133 200.397 104.405 207.031 112.552 207.031C120.757 207.031 127.391 200.397 127.391 192.192V178.401C127.391 186.548 120.757 193.182 112.552 193.182C104.405 193.182 97.7133 186.548 97.7133 178.401Z" fill="#EA336A"/>
<path d="M112.551 183.871C118.894 183.871 124.015 178.692 124.015 172.349V140.286C124.015 133.943 118.894 128.822 112.551 128.822C106.208 128.822 101.087 133.943 101.087 140.286V172.349C101.087 178.692 106.208 183.871 112.551 183.871Z" fill="#F88200"/>
<path d="M358 172.291V160.886C358 145.756 345.78 133.536 330.708 133.536H318.838V199.641H330.708C345.78 199.641 358 187.363 358 172.291Z" fill="#FFF16E"/>
<path d="M330.708 189.516H318.838V199.641H330.708C345.78 199.641 358 187.363 358 172.291V162.166C358 177.296 345.78 189.516 330.708 189.516Z" fill="#FFCC51"/>
<path d="M352.703 160.886C352.703 148.258 342.462 137.958 329.776 137.958H323.317V183.871H329.776C342.462 183.871 352.703 173.571 352.703 160.886V160.886Z" fill="#FFFB8C"/>
<path d="M333.676 192.192V140.984C333.676 132.779 326.984 126.146 318.837 126.146C310.632 126.146 303.998 132.779 303.998 140.984V192.192C303.998 200.397 310.632 207.031 318.837 207.031C326.984 207.031 333.676 200.397 333.676 192.192Z" fill="#F88200"/>
<path d="M318.837 193.181C310.632 193.181 303.998 186.548 303.998 178.401V192.192C303.998 200.397 310.632 207.031 318.837 207.031C326.984 207.031 333.676 200.397 333.676 192.192V178.401C333.676 186.548 326.984 193.181 318.837 193.181Z" fill="#EA336A"/>
<path d="M330.301 172.349V140.286C330.301 133.943 325.18 128.822 318.837 128.822C312.494 128.822 307.374 133.943 307.374 140.286V172.349C307.374 178.692 312.494 183.871 318.837 183.871C325.18 183.871 330.301 178.692 330.301 172.349Z" fill="#F88200"/>
<path d="M136.118 181.776C136.118 186.082 142.402 189.574 150.142 189.574C157.881 189.574 164.107 186.082 164.107 181.776C164.107 177.47 157.881 173.979 150.142 173.979C142.402 173.979 136.118 177.47 136.118 181.776Z" fill="#FF799A"/>
<path d="M281.246 173.979C273.506 173.979 267.28 177.47 267.28 181.776C267.28 186.082 273.506 189.574 281.246 189.574C288.985 189.574 295.27 186.082 295.27 181.776C295.27 177.47 288.985 173.979 281.246 173.979Z" fill="#FF799A"/>
<path d="M69.0225 307.527C68.6733 302.871 67.7035 297.828 66.1129 292.397C61.865 277.733 49.3539 267.2 34.2825 265.222C27.9979 264.407 20.7822 264.291 13.9157 266.153C4.43059 268.713 -1.44668 278.547 1.52106 287.916C3.26678 293.386 7.68929 299.263 17.5235 303.686C19.0365 304.326 20.4331 305.083 21.7715 306.014C25.2047 308.399 30.6747 313.287 32.4204 320.794C46.619 318.893 58.8197 314.471 69.0225 307.527V307.527Z" fill="#FFC79A"/>
<path d="M1.52209 287.916C3.26781 293.386 7.69032 299.264 17.5246 303.686C19.0375 304.384 20.4341 305.083 21.7725 306.014C25.2058 308.4 30.6757 313.288 32.4214 320.794C35.137 320.445 38.4539 319.786 42.3721 318.816C40.1026 311.658 32.8288 304.559 29.5701 302.29C28.2317 301.358 26.8351 300.602 25.3222 299.962C15.4879 295.539 11.0654 289.662 9.31968 284.192C7.10842 277.326 9.72702 270.168 14.9642 265.862C14.6151 265.94 14.2465 266.037 13.8586 266.153C4.43164 268.713 -1.44564 278.548 1.52209 287.916Z" fill="#FFB881"/>
<path d="M13.6834 277.791C13.6834 279.013 13.8579 280.293 14.2653 281.457C15.9528 286.869 20.6081 291.35 27.9983 294.666C29.8604 295.539 31.4898 296.412 32.9445 297.401C35.9123 299.496 42.1969 305.432 45.6883 312.298C51.7402 310.553 59.014 307.876 65.415 303.977C65.0077 301.358 64.3094 296.936 62.9128 292.164C59.1886 279.246 48.0742 269.761 34.6321 268.015C30.6169 267.491 26.8345 267.375 23.2849 267.608C17.9895 268.015 13.7415 272.379 13.6834 277.675C13.6834 277.714 13.6834 277.752 13.6834 277.791V277.791Z" fill="#F7D2AC"/>
<path d="M153.459 266.851C134.101 276.938 120.465 291.582 112.551 310.785L95.6173 350.588L78.2764 302.755C57.9484 303.027 41.1506 309.525 27.8831 322.249L50.7522 382.127C56.8622 398.072 72.1664 408.662 89.2745 408.662H95.6173C107.721 408.662 119.185 403.309 127.04 394.056L153.459 362.866V266.851Z" fill="#C1CFD0"/>
<path d="M27.8842 322.249L50.7532 382.127C56.8633 398.071 72.1674 408.662 89.2755 408.662H95.6183C107.257 408.662 118.313 403.716 126.11 395.162C119.593 399.177 112.086 401.388 104.289 401.388H97.946C80.8379 401.388 65.5337 390.856 59.4236 374.911L36.671 315.324C33.5869 317.302 30.6192 319.572 27.8842 322.249V322.249Z" fill="#AAB5B5"/>
<path d="M48.4244 315.441C45.6895 316.604 44.4092 319.747 45.4567 322.482L64.7179 372.875C69.9551 386.55 83.2808 395.744 97.9449 395.744H104.288C104.365 395.744 104.423 395.744 104.462 395.744C112.202 395.686 122.618 390.507 127.622 384.629L146.476 362.342C147.349 361.353 147.814 360.073 147.814 358.793V288.731C147.814 283.959 142.112 281.457 138.504 284.658C130.939 291.524 122.734 301.067 117.788 313.055L100.68 353.148C98.7595 357.804 92.1258 357.571 90.38 352.857C85.7248 339.997 78.8582 321.143 75.8905 312.822C74.9594 310.378 72.4573 308.865 69.8387 309.272C64.136 310.145 56.3384 311.891 48.4244 315.441V315.441Z" fill="#D4E2E5"/>
<path d="M277.929 408.662H333.676L329.952 328.301C329.021 307.876 317.906 289.197 300.332 278.78C291.837 273.776 284.369 269.8 277.929 266.851V408.662Z" fill="#C1CFD0"/>
<path d="M277.929 384.746V408.662H333.676L332.687 387.83C331.406 392.02 327.508 395.046 322.852 395.046H288.229C282.526 395.046 277.929 390.449 277.929 384.746V384.746Z" fill="#AAB5B5"/>
<path d="M284.913 282.912V377.472C284.913 382.186 288.754 386.026 293.467 386.026H322.97C325.239 386.026 326.985 384.164 326.869 381.953L324.366 327.079C323.552 308.982 313.776 292.688 298.355 283.552C295.736 281.981 293.234 280.584 290.907 279.304C288.23 277.849 284.913 279.77 284.913 282.912V282.912Z" fill="#D4E2E5"/>
<path d="M138.737 293.736V408.662H215.723H292.651V293.736C292.651 282.505 287.007 272.147 277.929 266.851C275.892 265.688 273.739 264.466 271.47 263.244C257.853 256.028 242.898 252.362 227.769 252.362H215.723H203.619C188.49 252.362 173.535 256.028 159.918 263.244C157.649 264.466 155.496 265.688 153.459 266.851C144.381 272.147 138.737 282.505 138.737 293.736V293.736Z" fill="#C1CFD0"/>
<path d="M138.737 378.403V408.663H292.651V378.403C292.651 387.481 285.319 394.813 276.242 394.813H155.146C146.127 394.813 138.737 387.481 138.737 378.403V378.403Z" fill="#AAB5B5"/>
<path d="M149.734 292.222V372.991C149.734 377.53 153.4 381.196 157.939 381.196H273.448C277.987 381.196 281.711 377.53 281.711 372.991V292.222C281.711 284.076 277.696 276.685 271.295 272.961C269.433 271.856 267.454 270.75 265.417 269.644C253.663 263.418 240.454 260.159 227.186 260.159H204.201C190.933 260.159 177.724 263.418 165.969 269.644C163.933 270.75 161.954 271.856 160.092 272.961C153.691 276.685 149.734 284.076 149.734 292.222V292.222Z" fill="#D4E2E5"/>
<path d="M191.747 379.567L215.721 397.723L239.638 379.567C242.606 377.298 243.886 373.457 242.955 369.849L225.439 291.117H215.721H205.945L188.43 369.849C187.499 373.457 188.779 377.298 191.747 379.567V379.567Z" fill="#F88200"/>
<path d="M191.747 379.567L215.721 397.723L239.638 379.567C242.606 377.298 243.886 373.457 242.955 369.849L241.791 364.729C241.325 366.649 240.22 368.336 238.59 369.617L215.721 387.016L192.794 369.617C191.165 368.336 190.059 366.591 189.594 364.67L188.43 369.849C187.499 373.457 188.779 377.298 191.747 379.567V379.567Z" fill="#EA336A"/>
<path d="M194.714 362.168C195.005 362.634 195.354 363.041 195.82 363.39L211.648 375.436C214.034 377.24 217.351 377.24 219.736 375.436L235.564 363.39C236.03 363.041 236.379 362.634 236.67 362.168L222.646 299.031C221.948 296.005 219.271 293.852 216.129 293.852H215.256C212.113 293.852 209.437 296.005 208.738 299.031L194.714 362.168Z" fill="#F88200"/>
<path d="M209.438 295.54H221.949C227.594 295.54 232.133 291.001 232.133 285.356V280.352C232.133 274.707 227.594 270.11 221.949 270.11H209.438C203.794 270.11 199.255 274.707 199.255 280.352V285.356C199.255 291.001 203.794 295.54 209.438 295.54Z" fill="#F88200"/>
<path d="M199.196 280.351V285.356C199.196 291 203.793 295.539 209.438 295.539H221.949C227.593 295.539 232.19 291 232.19 285.356V280.351C232.132 285.938 227.535 290.477 221.949 290.477H209.438C203.851 290.477 199.254 285.938 199.196 280.351Z" fill="#EA336A"/>
<path d="M210.312 286.345H221.077C224.859 286.345 227.943 283.261 227.943 279.479C227.943 275.755 224.859 272.67 221.077 272.67H210.312C206.529 272.67 203.445 275.755 203.445 279.479C203.445 283.261 206.529 286.345 210.312 286.345Z" fill="#F88200"/>
<path d="M198.672 238.978V255.388C198.672 263.534 205.247 270.168 213.452 270.168H217.991C226.138 270.168 232.771 263.534 232.771 255.388V238.978H198.672Z" fill="#FFC79A"/>
<path d="M198.672 238.978V247.066H232.771V238.978H198.672Z" fill="#FFB881"/>
<path d="M87.0047 315.208L82.4076 302.813C81.593 300.66 79.4981 299.147 77.1705 299.205C48.075 299.787 32.0726 311.774 26.2535 317.303C24.6241 318.816 24.1004 321.143 24.9151 323.238L30.3268 337.32C31.607 340.521 35.5058 341.859 38.4154 339.997C52.8467 330.745 73.1553 324.926 83.1059 322.482C86.3064 321.667 88.1103 318.292 87.0047 315.208Z" fill="#F0F8F7"/>
<path d="M27.5914 321.085L31.6648 331.792C32.0721 332.316 32.654 332.665 33.2941 332.839C33.8179 332.897 34.5162 332.956 35.3308 332.432C50.0531 323.005 70.5363 317.07 81.418 314.393C82.349 314.16 83.1055 313.404 83.3965 312.531L79.7886 302.696C79.3813 301.649 78.3921 300.951 77.2283 300.951C48.8893 301.474 33.5269 313.229 28.2315 318.233C27.4169 318.932 27.1841 320.095 27.5914 321.085V321.085Z" fill="#FFFDFA"/>
<path d="M213.395 270.11C205.248 270.11 198.615 263.534 198.615 255.388V248.928C189.382 249.821 183.776 254.806 181.797 263.884C180.459 269.994 182.03 276.278 185.58 281.399C189.071 286.403 195.007 292.863 204.259 296.412C205.268 284.114 209.089 275.347 215.723 270.11H213.395Z" fill="#FFFDFA"/>
<path d="M185.52 281.399C189.07 286.403 195.005 292.862 204.258 296.412C204.413 294.511 204.781 292.261 205.363 289.662C198.497 286.054 193.783 280.817 190.874 276.627C187.324 271.506 185.753 265.164 187.091 259.112C187.731 256.202 188.895 253.816 190.292 251.896C186.742 254.049 183.134 257.715 181.738 263.942C180.458 269.993 182.029 276.278 185.52 281.399Z" fill="#F0F8F7"/>
<path d="M215.723 270.11C222.318 275.347 226.12 284.114 227.128 296.412C236.381 292.863 242.316 286.403 245.808 281.399C249.357 276.278 250.929 269.994 249.648 263.884C247.631 254.806 242.006 249.821 232.773 248.928V255.388C232.773 263.534 226.139 270.11 217.993 270.11H215.723Z" fill="#FFFDFA"/>
<path d="M249.649 263.942C248.252 257.715 244.644 254.049 241.095 251.896C242.491 253.816 243.655 256.202 244.295 259.112C245.633 265.164 244.062 271.506 240.513 276.627C237.603 280.817 232.89 286.054 226.023 289.662C226.605 292.261 226.974 294.511 227.129 296.412C236.381 292.862 242.317 286.403 245.866 281.399C249.358 276.278 250.929 269.993 249.649 263.942Z" fill="#F0F8F7"/>
</svg>
