<svg width="18" height="18" viewBox="0 0 18 18" fill="none" xmlns="http://www.w3.org/2000/svg">
<path d="M11.1752 0H6.8927C6.78622 0 6.6841 0.0422993 6.6088 0.117593C6.53351 0.192886 6.49121 0.295006 6.49121 0.401487V4.68401C6.49121 4.7905 6.53351 4.89262 6.6088 4.96791C6.6841 5.0432 6.78622 5.0855 6.8927 5.0855H11.1752C11.2817 5.0855 11.3838 5.0432 11.4591 4.96791C11.5344 4.89262 11.5767 4.7905 11.5767 4.68401V0.401487C11.5767 0.295006 11.5344 0.192886 11.4591 0.117593C11.3838 0.0422993 11.2817 0 11.1752 0ZM10.7737 4.28253H7.29418V0.802974H10.7737V4.28253ZM17.599 0H13.3165C13.21 0 13.1079 0.0422993 13.0326 0.117593C12.9573 0.192886 12.915 0.295006 12.915 0.401487V4.68401C12.915 4.7905 12.9573 4.89262 13.0326 4.96791C13.1079 5.0432 13.21 5.0855 13.3165 5.0855H17.599C17.7055 5.0855 17.8076 5.0432 17.8829 4.96791C17.9582 4.89262 18.0005 4.7905 18.0005 4.68401V0.401487C18.0005 0.295006 17.9582 0.192886 17.8829 0.117593C17.8076 0.0422993 17.7055 0 17.599 0ZM17.1975 4.28253H13.718V0.802974H17.1975V4.28253ZM11.1752 6.42379H6.8927C6.78622 6.42379 6.6841 6.46609 6.6088 6.54138C6.53351 6.61668 6.49121 6.7188 6.49121 6.82528V11.1078C6.49121 11.2143 6.53351 11.3164 6.6088 11.3917C6.6841 11.467 6.78622 11.5093 6.8927 11.5093H11.1752C11.2817 11.5093 11.3838 11.467 11.4591 11.3917C11.5344 11.3164 11.5767 11.2143 11.5767 11.1078V6.82528C11.5767 6.7188 11.5344 6.61668 11.4591 6.54138C11.3838 6.46609 11.2817 6.42379 11.1752 6.42379ZM10.7737 10.7063H7.29418V7.22677H10.7737V10.7063ZM17.599 6.42379H13.3165C13.21 6.42379 13.1079 6.46609 13.0326 6.54138C12.9573 6.61668 12.915 6.7188 12.915 6.82528V11.1078C12.915 11.2143 12.9573 11.3164 13.0326 11.3917C13.1079 11.467 13.21 11.5093 13.3165 11.5093H17.599C17.7055 11.5093 17.8076 11.467 17.8829 11.3917C17.9582 11.3164 18.0005 11.2143 18.0005 11.1078V6.82528C18.0005 6.7188 17.9582 6.61668 17.8829 6.54138C17.8076 6.46609 17.7055 6.42379 17.599 6.42379ZM17.1975 10.7063H13.718V7.22677H17.1975V10.7063Z" fill="#111111"/>
<path d="M4.68401 6.49072H0.401487C0.295006 6.49072 0.192886 6.53302 0.117593 6.60832C0.0422993 6.68361 0 6.78573 0 6.89221V11.1747C0 11.2812 0.0422993 11.3833 0.117593 11.4586C0.192886 11.5339 0.295006 11.5762 0.401487 11.5762H4.68401C4.7905 11.5762 4.89262 11.5339 4.96791 11.4586C5.0432 11.3833 5.0855 11.2812 5.0855 11.1747V6.89221C5.0855 6.78573 5.0432 6.68361 4.96791 6.60832C4.89262 6.53302 4.7905 6.49072 4.68401 6.49072ZM4.28253 10.7733H0.802974V7.2937H4.28253V10.7733ZM11.1078 6.49072H6.82528C6.7188 6.49072 6.61668 6.53302 6.54138 6.60832C6.46609 6.68361 6.42379 6.78573 6.42379 6.89221V11.1747C6.42379 11.2812 6.46609 11.3833 6.54138 11.4586C6.61668 11.5339 6.7188 11.5762 6.82528 11.5762H11.1078C11.2143 11.5762 11.3164 11.5339 11.3917 11.4586C11.467 11.3833 11.5093 11.2812 11.5093 11.1747V6.89221C11.5093 6.78573 11.467 6.68361 11.3917 6.60832C11.3164 6.53302 11.2143 6.49072 11.1078 6.49072ZM10.7063 10.7733H7.22677V7.2937H10.7063V10.7733ZM4.68401 12.9145H0.401487C0.295006 12.9145 0.192886 12.9568 0.117593 13.0321C0.0422993 13.1074 0 13.2095 0 13.316V17.5985C0 17.705 0.0422993 17.8071 0.117593 17.8824C0.192886 17.9577 0.295006 18 0.401487 18H4.68401C4.7905 18 4.89262 17.9577 4.96791 17.8824C5.0432 17.8071 5.0855 17.705 5.0855 17.5985V13.316C5.0855 13.2095 5.0432 13.1074 4.96791 13.0321C4.89262 12.9568 4.7905 12.9145 4.68401 12.9145ZM4.28253 17.197H0.802974V13.7175H4.28253V17.197ZM11.1078 12.9145H6.82528C6.7188 12.9145 6.61668 12.9568 6.54138 13.0321C6.46609 13.1074 6.42379 13.2095 6.42379 13.316V17.5985C6.42379 17.705 6.46609 17.8071 6.54138 17.8824C6.61668 17.9577 6.7188 18 6.82528 18H11.1078C11.2143 18 11.3164 17.9577 11.3917 17.8824C11.467 17.8071 11.5093 17.705 11.5093 17.5985V13.316C11.5093 13.2095 11.467 13.1074 11.3917 13.0321C11.3164 12.9568 11.2143 12.9145 11.1078 12.9145ZM10.7063 17.197H7.22677V13.7175H10.7063V17.197Z" fill="#111111"/>
</svg>
