<svg width="45" height="45" viewBox="0 0 45 45" fill="none" xmlns="http://www.w3.org/2000/svg">
<path d="M4.5 0C2.025 0 0 2.025 0 4.5V22.5C0 24.975 2.025 27 4.5 27H18V40.5C18 42.975 20.025 45 22.5 45H40.5C42.975 45 45 42.975 45 40.5V22.5C45 20.025 42.975 18 40.5 18H27V4.5C27 2.025 24.975 0 22.5 0H4.5ZM11.6455 4.5H15.3105L20.8345 18.3296C19.3998 18.9064 18.3366 20.1985 18.0747 21.7617L16.6641 18H10.3008L8.61328 22.5352L4.5 22.5L11.6455 4.5ZM13.5 9L11.25 15.75H15.75L13.5 9ZM30.7573 22.5044C32.7883 22.4236 34.0884 24.3721 34.0884 24.3721V25.2202C34.0884 25.2202 33.2383 24.3721 31.5396 24.3721C31.0648 24.3721 29.9185 24.7849 29.707 26.0156C29.4775 27.3544 31.7892 27.769 32.3877 27.769C34.0864 27.769 35.9956 26.9648 35.9956 26.9648L34.7344 31.5C34.7344 31.5 33.2054 30.0541 30.6606 30.9023C28.8606 31.5031 28.5383 34.0104 28.9028 34.8047C30.6578 38.6387 38.25 38.25 38.25 38.25C38.25 38.25 36.0351 40.5 31.5396 40.5C28.5471 40.5 24.75 38.802 24.75 35.4067C24.75 32.0115 28.147 30.3135 28.147 30.3135C28.147 30.3135 27.2697 29.0956 27.1055 28.6523C26.4372 26.8591 27.2963 23.5196 29.8433 22.6714C30.1616 22.5654 30.4672 22.5159 30.7573 22.5044Z" fill="black"/>
</svg>
