<svg width="410" height="315" viewBox="0 0 410 315" fill="none" xmlns="http://www.w3.org/2000/svg">
<g clip-path="url(#clip0_796_2786)">
<path d="M201.289 310.307C278.359 310.307 340.834 247.63 340.834 170.322C340.834 93.0125 278.359 30.3372 201.289 30.3372C124.221 30.3372 61.7424 93.0144 61.7424 170.322C61.7424 247.631 124.223 310.307 201.289 310.307Z" fill="#EAEAEA"/>
<path style="mix-blend-mode:multiply" opacity="0.3" d="M409.974 305.792C405.638 305.083 400.761 305.552 396.363 305.552C396.522 308.586 395.87 311.69 394.397 314.129C398.672 314.129 404.455 315.298 407.797 311.936C409.418 310.301 410.151 308.01 409.974 305.79V305.792ZM407.797 300.945C404.455 297.585 398.672 298.743 394.397 298.743C395.587 300.706 396.24 303.101 396.363 305.552C400.763 305.552 405.638 305.083 409.974 305.792C409.824 303.997 409.109 302.254 407.797 300.945ZM396.363 305.552C356.304 305.552 71.5475 305.552 30.7233 305.552C30.2738 308.647 30.5909 311.69 31.9583 314.129C72.2282 314.129 354.138 314.129 394.399 314.129C395.87 311.689 396.524 308.584 396.365 305.552H396.363ZM394.397 298.743C354.136 298.743 72.2262 298.743 31.9563 298.743C31.4455 300.715 31.0661 303.129 30.7214 305.552C71.5455 305.552 356.302 305.552 396.361 305.552C396.238 303.101 395.585 300.706 394.395 298.743H394.397ZM30.7233 305.552C24.931 305.552 19.1919 305.552 13.5063 305.552C11.4513 305.552 9.41519 305.571 8.06663 305.792C7.88979 308.012 8.61393 310.301 10.2352 311.938C11.5926 313.291 13.452 314.131 15.5069 314.131C20.99 314.131 26.4732 314.131 31.9563 314.131C30.589 311.69 30.2718 308.649 30.7214 305.554L30.7233 305.552ZM31.9583 298.743C26.4751 298.743 20.992 298.743 15.5089 298.743C13.4539 298.743 11.5946 299.583 10.2372 300.945C8.93997 302.254 8.20888 303.997 8.06859 305.792C9.41715 305.571 11.4533 305.552 13.5083 305.552C19.1939 305.552 24.9329 305.552 30.7243 305.552C31.0681 303.129 31.4465 300.715 31.9592 298.743H31.9583Z" fill="url(#paint0_linear_796_2786)"/>
<path style="mix-blend-mode:multiply" d="M309.328 100.627C299.586 92.7063 276.855 97.6814 265.708 97.9694C265.488 168.159 265.365 238.353 265.091 308.542C279.84 308.542 294.579 308.542 309.328 308.542C309.328 239.236 309.328 169.933 309.328 100.627ZM305.356 53.2132C302.901 50.7501 299.515 49.2287 295.787 49.2287C285.035 49.2287 274.286 49.2287 263.541 49.2287C270.949 59.3275 265.749 86.1411 265.708 97.9694C276.855 97.6814 299.588 92.7081 309.328 100.627C309.328 88.021 309.328 75.4138 309.328 62.8121C309.328 59.0667 307.808 55.6709 305.356 53.2132ZM265.708 97.9694C222.798 99.0655 179.982 98.4204 137.098 98.1071C137.227 168.297 137.245 238.354 137.362 308.542C179.938 308.542 222.517 308.542 265.091 308.542C265.363 238.353 265.488 168.159 265.708 97.9694ZM263.541 49.2287C222.001 49.2287 180.462 49.2287 138.923 49.2287C132.576 60.6098 137.05 85.3985 137.098 98.1053C179.982 98.4186 222.798 99.0655 265.708 97.9676C265.749 86.1393 270.949 59.3275 263.541 49.2269V49.2287ZM137.098 98.1053C125.89 98.022 114.677 97.9641 103.458 97.9641C99.6107 97.9549 95.9563 98.9819 93.2532 100.627C93.2532 169.933 93.2532 239.236 93.2532 308.542C107.953 308.542 122.659 308.542 137.362 308.542C137.243 238.353 137.225 168.295 137.098 98.1071V98.1053ZM138.923 49.2287C128.212 49.2287 117.502 49.2287 106.796 49.2287C103.063 49.2287 99.6769 50.7501 97.2267 53.2132C94.7776 55.6709 93.2552 59.0667 93.2552 62.8121C93.2552 75.4138 93.2552 88.0192 93.2552 100.627C95.9582 98.9819 99.6117 97.9549 103.46 97.9641C114.677 97.9641 125.89 98.022 137.1 98.1053C137.051 85.3967 132.578 60.6098 138.925 49.2287H138.923Z" fill="url(#paint1_linear_796_2786)"/>
<path d="M102.28 304.015C102.28 306.499 104.311 308.542 106.794 308.542H295.786C298.264 308.542 300.3 306.499 300.3 304.015V62.8122C300.3 60.3219 298.264 58.2844 295.786 58.2844H106.794C104.311 58.2844 102.28 60.3219 102.28 62.8122V304.015Z" fill="url(#paint2_linear_796_2786)"/>
<path style="mix-blend-mode:multiply" d="M294.072 257.445C285.614 263.663 265.487 259.793 255.949 259.532C255.949 270.082 260.276 292.394 253.639 301.776C262.606 301.776 271.572 301.776 280.531 301.776C284.265 301.776 287.651 300.254 290.101 297.792C292.551 295.334 294.072 291.939 294.072 288.192C294.072 277.944 294.072 267.694 294.072 257.444V257.445ZM294.072 103.983C285.565 97.3012 265.611 101.484 255.949 101.749C255.949 154.34 255.949 206.941 255.949 259.532C265.487 259.793 285.614 263.661 294.072 257.445C294.072 206.29 294.072 155.137 294.072 103.983ZM290.101 69.0334C287.651 66.5703 284.265 65.049 280.531 65.049C271.572 65.049 262.606 65.049 253.639 65.049C259.53 73.3529 255.949 92.4021 255.949 101.749C265.611 101.484 285.565 97.3012 294.072 103.983C294.072 95.5317 294.072 87.0829 294.072 78.6323C294.072 74.8869 292.552 71.491 290.101 69.0334ZM255.949 259.532C220.421 258.562 184.817 259.599 149.28 259.465C149.271 270.254 149.271 281.046 149.271 291.843C149.271 295.7 149.843 299.206 151.466 301.774C185.526 301.774 219.584 301.774 253.639 301.774C260.278 292.391 255.949 270.08 255.949 259.53V259.532ZM255.949 101.749C220.607 102.7 185.242 102.173 149.88 101.882C149.378 154.451 149.293 206.922 149.28 259.465C184.817 259.597 220.421 258.562 255.949 259.532C255.949 206.941 255.949 154.34 255.949 101.749ZM253.639 65.049C219.586 65.049 185.526 65.049 151.466 65.049C147.366 75.2799 149.876 91.1452 149.88 101.882C185.242 102.173 220.607 102.7 255.949 101.749C255.949 92.4021 259.528 73.3529 253.639 65.049ZM149.28 259.465C137.458 259.452 119.972 262.91 108.508 257.444C108.508 267.693 108.508 277.942 108.508 288.192C108.508 291.939 110.025 295.334 112.475 297.792C114.925 300.254 118.31 301.776 122.049 301.776C131.853 301.776 141.663 301.776 151.466 301.776C149.845 299.208 149.271 295.702 149.271 291.845C149.271 281.048 149.271 270.255 149.28 259.467V259.465ZM149.88 101.882C139.443 101.793 128.996 101.731 118.558 101.731C114.665 101.731 111.117 102.403 108.508 103.983C108.508 155.137 108.508 206.29 108.508 257.445C119.972 262.911 137.458 259.452 149.28 259.467C149.293 206.924 149.378 154.453 149.88 101.884V101.882ZM151.466 65.049C141.663 65.049 131.853 65.049 122.049 65.049C118.312 65.049 114.927 66.5703 112.475 69.0334C110.025 71.491 108.508 74.8869 108.508 78.6323C108.508 87.0829 108.508 95.5317 108.508 103.983C111.117 102.403 114.666 101.731 118.558 101.731C128.994 101.731 139.441 101.793 149.88 101.882C149.876 91.1452 147.366 75.2799 151.466 65.049Z" fill="url(#paint3_linear_796_2786)"/>
<path d="M117.536 288.192C117.536 290.683 119.563 292.72 122.049 292.72H280.532C283.015 292.72 285.045 290.683 285.045 288.192V78.6324C285.045 76.1421 283.015 74.1045 280.532 74.1045H122.049C119.563 74.1045 117.536 76.1421 117.536 78.6324V288.192Z" fill="#F5F5F5"/>
<path style="mix-blend-mode:multiply" d="M252.067 70.9204C245.759 72.3223 239.404 72.7859 233.004 72.3096C233.655 78.7028 232.952 84.991 230.888 91.1633C237.058 91.1633 243.07 91.5871 247.778 86.8655C252.238 82.3903 252.065 76.8065 252.065 70.9204H252.067ZM252.067 58.3495C245.592 58.3369 239.122 58.3277 232.646 58.3187C232.784 62.9841 232.888 67.6478 233.004 72.3096C239.404 72.7877 245.759 72.3223 252.067 70.9204C252.067 66.7295 252.067 62.5369 252.067 58.3495ZM233.004 72.3096C215.187 72.3929 192.292 75.7942 172.079 74.6441C172.186 80.9975 171.679 85.9817 174.795 91.1633C193.492 91.1633 212.191 91.1633 230.888 91.1633C232.952 84.991 233.655 78.7028 233.004 72.3096ZM232.646 58.3187C212.842 58.2916 193.033 58.2825 173.233 58.2825C173.251 62.5929 172.061 70.3663 172.077 74.6423C192.291 75.7923 215.185 72.3911 233.002 72.3078C232.888 67.6478 232.782 62.9823 232.644 58.3169L232.646 58.3187ZM172.079 74.6441C164.357 74.2058 157.021 73.1047 150.511 70.8987C150.511 76.7921 150.331 82.3812 154.8 86.8655C160.194 92.2771 167.82 91.1633 174.793 91.1633C171.677 85.9817 172.184 80.9975 172.077 74.6441H172.079ZM173.235 58.2844C165.662 58.2844 158.088 58.2844 150.517 58.2844C150.517 62.5115 150.513 66.7114 150.513 70.8987C157.023 73.1047 164.357 74.2058 172.081 74.6441C172.063 70.3681 173.253 62.5948 173.237 58.2844H173.235Z" fill="url(#paint4_linear_796_2786)"/>
<path d="M159.537 58.3495V74.1044V76.5005C159.537 79.5867 162.055 82.1077 165.131 82.1077H196.913H205.667H237.447C240.524 82.1077 243.041 79.5867 243.041 76.5005V74.1044V58.3495C243.041 53.3671 238.981 49.294 234.014 49.294H211.516V43.1398C211.516 37.4764 206.936 32.8816 201.29 32.8816C195.645 32.8816 191.064 37.4764 191.064 43.1398V49.294H168.567C163.6 49.294 159.539 53.3671 159.539 58.3495H159.537Z" fill="url(#paint5_linear_796_2786)"/>
<path d="M196.139 43.1399C196.139 45.9924 198.445 48.3052 201.288 48.3052C204.132 48.3052 206.438 45.9924 206.438 43.1399C206.438 40.2874 204.132 37.9746 201.288 37.9746C198.445 37.9746 196.139 40.2874 196.139 43.1399Z" fill="#F5F5F5"/>
<path d="M244.586 270.547L267.701 247.368L259.802 239.448L244.586 254.712L219.832 229.319L211.933 237.239L244.586 270.547Z" fill="url(#paint6_linear_796_2786)"/>
<path d="M244.586 223.574L267.701 200.395L259.802 192.475L244.586 207.74L219.832 182.342L211.933 190.262L244.586 223.576V223.574Z" fill="url(#paint7_linear_796_2786)"/>
<path d="M150.422 96.3995C150.422 97.3539 151.203 98.1418 152.154 98.1418H196.522C197.473 98.1418 198.254 97.3539 198.254 96.3995V94.9143C198.254 93.9544 197.473 93.172 196.522 93.172H152.154C151.203 93.172 150.422 93.9544 150.422 94.9143V96.3995Z" fill="url(#paint8_linear_796_2786)"/>
<path d="M133.414 105.304C133.414 106.259 134.193 107.038 135.144 107.038H196.524C197.475 107.038 198.256 106.259 198.256 105.304V103.81C198.256 102.855 197.475 102.074 196.524 102.074H135.144C134.193 102.074 133.414 102.855 133.414 103.81V105.304Z" fill="url(#paint9_linear_796_2786)"/>
<path d="M144.398 114.204C144.398 115.159 145.174 115.941 146.126 115.941H196.524C197.475 115.941 198.256 115.159 198.256 114.204V112.714C198.256 111.76 197.475 110.977 196.524 110.977H146.126C145.174 110.977 144.398 111.76 144.398 112.714V114.204Z" fill="url(#paint10_linear_796_2786)"/>
<path d="M157.743 123.106C157.743 124.06 158.523 124.848 159.475 124.848H196.522C197.473 124.848 198.254 124.06 198.254 123.106V121.616C198.254 120.661 197.473 119.878 196.522 119.878H159.475C158.523 119.878 157.743 120.661 157.743 121.616V123.106Z" fill="url(#paint11_linear_796_2786)"/>
<path d="M150.744 142.897C150.744 143.852 151.525 144.639 152.476 144.639H196.845C197.797 144.639 198.576 143.852 198.576 142.897V141.412C198.576 140.452 197.797 139.67 196.845 139.67H152.476C151.525 139.67 150.744 140.452 150.744 141.412V142.897Z" fill="url(#paint12_linear_796_2786)"/>
<path d="M133.736 151.802C133.736 152.757 134.516 153.536 135.468 153.536H196.846C197.799 153.536 198.578 152.757 198.578 151.802V150.309C198.578 149.354 197.799 148.571 196.846 148.571H135.468C134.516 148.571 133.736 149.354 133.736 150.309V151.802Z" fill="url(#paint13_linear_796_2786)"/>
<path d="M144.72 160.703C144.72 161.656 145.496 162.439 146.448 162.439H196.846C197.799 162.439 198.578 161.656 198.578 160.703V159.212C198.578 158.257 197.799 157.474 196.846 157.474H146.448C145.496 157.474 144.72 158.257 144.72 159.212V160.703Z" fill="url(#paint14_linear_796_2786)"/>
<path d="M158.066 169.604C158.066 170.559 158.846 171.346 159.797 171.346H196.845C197.797 171.346 198.576 170.559 198.576 169.604V168.113C198.576 167.159 197.797 166.376 196.845 166.376H159.797C158.846 166.376 158.066 167.159 158.066 168.113V169.604Z" fill="url(#paint15_linear_796_2786)"/>
<path d="M150.744 190.444C150.744 191.399 151.525 192.187 152.476 192.187H196.845C197.797 192.187 198.576 191.399 198.576 190.444V188.959C198.576 188 197.797 187.217 196.845 187.217H152.476C151.525 187.217 150.744 188 150.744 188.959V190.444Z" fill="url(#paint16_linear_796_2786)"/>
<path d="M133.736 199.349C133.736 200.304 134.516 201.083 135.468 201.083H196.846C197.799 201.083 198.578 200.304 198.578 199.349V197.856C198.578 196.901 197.799 196.118 196.846 196.118H135.468C134.516 196.118 133.736 196.901 133.736 197.856V199.349Z" fill="url(#paint17_linear_796_2786)"/>
<path d="M144.72 208.25C144.72 209.204 145.496 209.986 146.448 209.986H196.846C197.799 209.986 198.578 209.204 198.578 208.25V206.759C198.578 205.804 197.799 205.021 196.846 205.021H146.448C145.496 205.021 144.72 205.804 144.72 206.759V208.25Z" fill="url(#paint18_linear_796_2786)"/>
<path d="M158.066 217.151C158.066 218.106 158.846 218.893 159.797 218.893H196.845C197.797 218.893 198.576 218.106 198.576 217.151V215.66C198.576 214.706 197.797 213.924 196.845 213.924H159.797C158.846 213.924 158.066 214.706 158.066 215.66V217.151Z" fill="url(#paint19_linear_796_2786)"/>
<path d="M150.744 237.991C150.744 238.946 151.525 239.734 152.476 239.734H196.845C197.797 239.734 198.576 238.946 198.576 237.991V236.507C198.576 235.547 197.797 234.764 196.845 234.764H152.476C151.525 234.764 150.744 235.547 150.744 236.507V237.991Z" fill="url(#paint20_linear_796_2786)"/>
<path d="M133.736 246.897C133.736 247.852 134.516 248.63 135.468 248.63H196.846C197.799 248.63 198.578 247.852 198.578 246.897V245.403C198.578 244.448 197.799 243.665 196.846 243.665H135.468C134.516 243.665 133.736 244.448 133.736 245.403V246.897Z" fill="url(#paint21_linear_796_2786)"/>
<path d="M144.72 255.797C144.72 256.751 145.496 257.533 146.448 257.533H196.846C197.799 257.533 198.578 256.751 198.578 255.797V254.306C198.578 253.351 197.799 252.569 196.846 252.569H146.448C145.496 252.569 144.72 253.351 144.72 254.306V255.797Z" fill="url(#paint22_linear_796_2786)"/>
<path d="M158.066 264.698C158.066 265.653 158.846 266.44 159.797 266.44H196.845C197.797 266.44 198.576 265.653 198.576 264.698V263.207C198.576 262.253 197.797 261.471 196.845 261.471H159.797C158.846 261.471 158.066 262.253 158.066 263.207V264.698Z" fill="url(#paint23_linear_796_2786)"/>
<path d="M318.566 166.074L341.681 142.896L333.782 134.982L318.566 150.245L293.812 124.848L285.912 132.763L318.566 166.076V166.074Z" fill="url(#paint24_linear_796_2786)"/>
<path d="M293.725 8.34663C292.464 3.07628 285.702 2.21419 281.594 4.88921C280.162 5.82736 278.318 8.35568 276.542 11.5124C276.542 22.8356 287.734 18.5215 290.079 20.2185C291.227 16.3517 292.442 12.3944 293.725 8.34663Z" fill="url(#paint25_linear_796_2786)"/>
<path d="M289.836 50.8551C287.579 53.2875 285.745 60.9448 293.218 60.3091C300.689 59.6717 305.669 58.0724 306.057 53.3798C306.316 50.2521 305.706 48.7507 304.224 48.8738C300.979 48.6873 292.093 48.4228 289.836 50.8551Z" fill="url(#paint26_linear_796_2786)"/>
<path d="M298.627 55.0478C298.577 55.1945 301.965 55.0496 308.792 54.6095C309.255 53.8162 309.18 52.84 308.563 51.6827C307.842 50.3298 305.742 49.6525 302.264 49.6525C299.893 53.1008 298.679 54.8993 298.627 55.0478Z" fill="url(#paint27_linear_796_2786)"/>
<path d="M302.264 49.6526C298.756 49.6001 277.752 44.6611 274.023 46.4686C274.137 50.4314 272.596 54.5154 281.781 56.3736C295.82 59.2352 302.322 58.134 302.768 57.7791C302.737 57.7791 302.71 57.7518 302.667 57.7392C302.807 57.7085 302.826 57.7392 302.768 57.7791C302.826 57.7971 302.887 57.8316 302.939 57.8497C302.593 52.3838 302.366 49.6526 302.264 49.6526Z" fill="url(#paint28_linear_796_2786)"/>
<path d="M300.708 93.4363C300.897 92.5688 299.243 91.464 299.289 89.9517C299.43 85.6177 297.155 83.7216 297.65 82.0716C297.913 81.2838 299.625 76.7741 301.521 71.8044C303.591 66.8076 306.924 58.9509 308.239 55.8503C308.459 55.5099 308.645 55.077 308.795 54.6078L300.764 54.4395C300.456 56.8754 298.92 60.3418 298.335 61.5806C297.675 62.9552 295.488 71.176 295.183 75.3506C294.618 79.1611 294.318 82.0934 294.082 82.7743C293.341 84.781 291.587 85.5816 294.069 87.5013C296.039 89.0136 296.247 92.989 297.776 93.8819C299.311 94.7621 300.5 94.4397 300.711 93.4346L300.708 93.4363Z" fill="url(#paint29_linear_796_2786)"/>
<path d="M291.483 87.7584C291.787 89.6456 291.976 90.9061 292.052 91.5437C292.089 91.8443 292.141 92.4348 292.211 93.3131L292.988 93.6319C292.968 90.5657 293.621 89.7724 294.948 91.2539C296.274 92.739 296.219 92.3098 294.786 89.9626L291.483 87.7603V87.7584Z" fill="url(#paint30_linear_796_2786)"/>
<path d="M293.895 83.0188C292.307 85.8278 291.504 87.4089 291.484 87.7585C291.463 88.2801 293.516 88.8542 294.794 90.9243C296.072 93.0071 296.751 94.9486 296.962 95.2221C298.408 97.0966 302.212 96.5352 302.392 95.9918C302.799 94.7367 299.745 91.3445 300.075 91.9023C300.771 93.1175 299.096 93.9017 297.888 90.0314C296.962 87.0956 297.024 87.0866 294.833 84.8752C294.107 84.1472 293.795 83.5278 293.895 83.0188Z" fill="url(#paint31_linear_796_2786)"/>
<path d="M291.408 56.2502C291.356 56.3969 292.791 57.3316 295.713 59.0539C298.842 56.781 300.314 54.9952 300.127 53.6948C299.933 52.3799 298.236 51.4345 295.041 50.8568C292.67 54.3052 291.458 56.1035 291.408 56.2521V56.2502Z" fill="url(#paint32_linear_796_2786)"/>
<path d="M295.04 50.8551C291.532 50.8026 270.533 45.8638 266.799 47.6712C266.918 51.6339 265.375 55.718 274.561 57.5762C288.595 60.4378 295.101 59.3365 295.542 58.9816C295.514 58.9816 295.49 58.9545 295.444 58.9418C295.585 58.911 295.597 58.9418 295.542 58.9816C295.603 58.9998 295.664 59.0341 295.713 59.0523C295.37 53.5863 295.145 50.8551 295.038 50.8551H295.04Z" fill="url(#paint33_linear_796_2786)"/>
<path d="M313.719 90.9333C313.423 90.0985 311.441 90.0405 310.677 88.7311C308.512 84.973 305.582 84.5746 305.141 82.9119C304.949 82.0988 304.022 77.3663 303.013 72.1413C302.136 66.8039 300.827 58.3678 300.31 55.0389C300.319 54.6313 300.249 54.1678 300.125 53.6951L293.217 57.8081C294.235 60.0412 294.764 63.7957 294.917 65.1576C295.08 66.6735 297.557 74.8109 299.498 78.52C301.024 82.048 302.32 84.7014 302.473 85.4041C302.901 87.4995 301.834 89.1132 304.956 89.4229C307.424 89.6619 309.695 92.9256 311.463 92.8713C313.226 92.8042 314.071 91.8987 313.719 90.9352V90.9333Z" fill="url(#paint34_linear_796_2786)"/>
<path d="M302.898 91.004C304.148 92.4493 304.971 93.4219 305.372 93.9217C305.564 94.1571 305.919 94.6298 306.439 95.3362L307.268 95.1895C305.634 92.5978 305.772 91.5799 307.681 92.1341C309.586 92.6938 309.311 92.3587 306.861 91.1253L302.898 91.0022V91.004Z" fill="url(#paint35_linear_796_2786)"/>
<path d="M302.446 85.703C302.581 88.9304 302.733 90.698 302.899 91.0041C303.149 91.4641 305.204 90.8629 307.376 91.9423C309.557 93.0307 311.159 94.313 311.48 94.4361C313.697 95.2675 316.629 92.7736 316.496 92.2158C316.178 90.9335 311.796 89.6693 312.374 89.97C313.603 90.6328 312.594 92.185 309.531 89.5407C307.194 87.5376 307.243 87.4978 304.224 86.786C303.226 86.5505 302.632 86.1884 302.444 85.703H302.446Z" fill="url(#paint36_linear_796_2786)"/>
<path d="M266.928 47.7075C265.671 53.9957 265.8 56.6309 277.026 59.0269C284.511 60.6243 289.908 61.0518 293.215 60.3092C292.026 59.4019 291.42 58.2917 291.404 56.9804C291.356 54.0083 292.55 52.0941 296.254 50.8571C298.727 50.0312 301.385 49.3719 304.223 48.8757C304.363 48.6221 301.802 48.144 296.536 47.4431C291.269 46.7421 287.021 46.0141 283.787 45.2589C279.353 44.9147 268.183 41.4211 266.928 47.7093V47.7075Z" fill="url(#paint37_linear_796_2786)"/>
<path d="M317.452 26.0285C318.909 25.4834 320.09 25.2533 320.991 25.3384C322.379 25.4616 325.003 24.538 325.523 23.1724C326.042 21.7669 324.571 19.3654 323.648 19.0557C322.74 18.7333 321 20.4448 320.061 21.4517C319.481 22.0766 318.171 22.4896 316.125 22.6906L317.452 26.0285Z" fill="url(#paint38_linear_796_2786)"/>
<path d="M302.231 25.5285C297.152 23.8388 292.234 19.6659 288.029 18.0921C284.106 16.6233 282.229 22.3193 286.91 24.7914C289.826 26.3381 293.742 28.1764 298.662 30.3044C303.246 31.1177 304.506 26.2946 302.233 25.5285H302.231Z" fill="url(#paint39_linear_796_2786)"/>
<path d="M318.853 25.9433C319.391 25.4543 319.387 24.7136 318.844 23.7228C318.45 23.0093 317.952 22.466 317.349 22.0911C313.099 22.8789 308.833 23.6323 304.549 24.3549C298.06 25.4343 294.824 25.1736 296.121 27.6801C296.668 28.7288 297.377 30.3062 300.142 30.3986C301.739 30.4403 307.977 28.9534 318.853 25.9415V25.9433Z" fill="url(#paint40_linear_796_2786)"/>
<path d="M287.307 17.9581C286.779 17.844 286.17 17.6846 285.433 17.5252C285.341 16.924 285.579 16.866 285.895 15.9424C286.927 16.2068 288.171 16.3227 288.708 16.0437C290.606 15.0911 292.524 11.9072 294.457 6.48835C294.414 5.50673 291.209 2.50933 287.793 3.15046C284.907 3.69017 282.69 6.75458 282.38 10.0797C282.359 10.0979 282.337 10.107 282.31 10.1505C282.221 11.784 281.893 13.3072 281.322 14.7216C280.811 15.9949 279.718 16.7864 279.528 17.2464C278.316 17.3568 276.773 16.8624 275.715 18.065C272.99 21.1729 273.626 26.3472 272.77 32.8075C271.905 39.4579 276.552 32.4452 274.106 38.268C273.273 42.8882 279.136 47.7528 283.799 46.3727C283.464 41.8847 281.283 43.6216 283.341 37.0255C284.196 34.3107 289.775 33.6298 290.737 29.801C291.57 26.5464 290.425 22.6 287.309 17.96L287.307 17.9581Z" fill="url(#paint41_linear_796_2786)"/>
<path style="mix-blend-mode:multiply" d="M285.689 17.5832C285.527 18.994 287.845 21.6782 288.187 22.6199C288.637 23.8497 285.243 23.7609 283.631 21.939C282.01 20.1261 280.478 18.1012 281.392 16.8986C282.309 15.687 284.734 14.9879 285.896 15.9442C286.928 16.2086 288.172 16.3245 288.709 16.0456C288.807 15.9967 288.903 15.9261 289.001 15.8554C288.334 15.0767 285.235 14.5732 284.672 13.9809C284.002 13.2818 284.716 12.2567 284.611 10.1341C284.504 8.01149 283.496 7.64383 284.083 6.84876C284.663 6.0573 284.25 7.90464 287.644 8.97501C290.466 9.87332 293.409 7.39572 293.295 7.997C293.182 8.59467 292.828 10.3532 292.824 10.3714C293.479 8.99131 294.024 7.69818 294.46 6.48835C294.416 5.50673 291.212 2.50933 287.796 3.15046C284.909 3.69017 282.691 6.75458 282.383 10.0797C282.361 10.0979 282.34 10.107 282.313 10.1504C282.224 11.784 281.896 13.3072 281.325 14.7216C280.814 15.9949 279.72 16.7864 279.531 17.2464C278.319 17.3568 276.776 16.8624 275.718 18.065C274.727 19.2006 274.183 20.6169 273.843 22.265C276.837 25.1121 282.849 30.5074 283.66 30.8424C284.489 31.1865 288.429 30.9927 290.36 30.8949C290.5 30.5671 290.633 30.223 290.738 29.7992C291.571 26.5446 290.426 22.5982 287.31 17.9581C286.852 17.8603 286.296 17.7191 285.693 17.5814L285.689 17.5832Z" fill="url(#paint42_linear_796_2786)"/>
<path d="M270.244 35.053C269.041 39.704 268.907 43.8442 268.268 45.2314C267.831 46.1914 270.556 43.9528 276.895 47.106C282.02 49.6524 286.384 47.0879 285.729 45.4615C285.077 43.8387 284.265 44.1666 284.442 40.7128C284.604 37.2771 285.596 37.2372 289.775 32.1516C292.548 28.7558 291.822 24.027 287.597 17.967C287.551 17.9579 287.121 17.8457 286.31 17.6301C287.3 19.0211 288.055 20.2798 288.576 21.4062C289.377 23.0996 289.591 24.1827 286.994 24.3331C283.419 24.5631 282.018 20.9644 280.211 18.9468C278.4 16.922 276.958 16.6122 275.23 18.1282C273.123 19.9936 271.448 30.4075 270.246 35.0494L270.244 35.053Z" fill="url(#paint43_linear_796_2786)"/>
<path d="M293.644 3.11066C284.503 -5.04659 274.859 4.66279 272.147 11.3748C273.84 14.7706 274.373 15.1908 276.942 17.8531C280.116 16.5002 281.429 15.3412 282.437 13.9357C283.443 12.5339 284.571 10.8768 284.025 9.92949C283.492 8.99136 283.214 7.16213 284.245 6.43225C284.61 6.1642 285.133 6.36161 285.819 7.02448L286.617 8.00248C286.377 7.98438 287.352 8.05682 289.544 8.21982C292.836 8.46794 293.776 6.91581 293.837 7.35773C293.873 7.65475 293.833 7.98618 293.724 8.34841C295.417 6.42138 295.389 4.67547 293.644 3.11248V3.11066Z" fill="url(#paint44_linear_796_2786)"/>
<path d="M293.046 2.75198C292.387 2.40062 291.313 2.56362 289.82 3.23917C288.032 4.05055 286.482 5.14808 285.165 6.53358L285.958 7.51158C286.846 6.71831 288.178 6.02103 289.96 5.41975C291.744 4.81846 293.364 4.97964 294.817 5.9015C295.406 4.03606 294.813 2.98561 293.046 2.75379V2.75198Z" fill="url(#paint45_linear_796_2786)"/>
<path d="M321.939 149.055H323.336V22.5203H321.939V149.055Z" fill="url(#paint46_linear_796_2786)"/>
<path d="M322.635 24.0471C323.476 24.0471 324.155 23.3625 324.155 22.5222C324.155 21.6818 323.476 20.9972 322.635 20.9972C321.794 20.9972 321.115 21.6818 321.115 22.5222C321.115 23.3625 321.794 24.0471 322.635 24.0471Z" fill="url(#paint47_linear_796_2786)"/>
<path d="M322.635 150.583C323.476 150.583 324.155 149.901 324.155 149.057C324.155 148.213 323.476 147.533 322.635 147.533C321.794 147.533 321.115 148.213 321.115 149.057C321.115 149.901 321.794 150.583 322.635 150.583Z" fill="url(#paint48_linear_796_2786)"/>
<path d="M306.259 143.935H307.656V29.6053H306.259V143.935Z" fill="url(#paint49_linear_796_2786)"/>
<path d="M306.957 31.1267C307.804 31.1267 308.482 30.4457 308.482 29.6053C308.482 28.7613 307.804 28.075 306.957 28.075C306.119 28.075 305.441 28.7595 305.441 29.6053C305.441 30.4457 306.119 31.1267 306.957 31.1267Z" fill="url(#paint50_linear_796_2786)"/>
<path d="M306.957 145.463C307.804 145.463 308.482 144.781 308.482 143.937C308.482 143.093 307.804 142.413 306.957 142.413C306.119 142.413 305.441 143.093 305.441 143.937C305.441 144.781 306.119 145.463 306.957 145.463Z" fill="url(#paint51_linear_796_2786)"/>
<path d="M301.728 32.784C303.186 32.2388 304.368 32.0088 305.273 32.0939C306.657 32.2171 309.284 31.2934 309.799 29.9278C310.325 28.5224 308.848 26.1208 307.925 25.8112C307.017 25.4888 305.28 27.2003 304.338 28.2073C303.762 28.8321 302.451 29.245 300.406 29.4461L301.728 32.784H301.728Z" fill="url(#paint52_linear_796_2786)"/>
<path d="M286.885 33.8851C283.702 29.5692 282.08 23.3082 279.549 19.5936C277.182 16.1216 272.378 19.6913 274.788 24.422C276.276 27.3705 278.421 31.1376 281.223 35.7233C284.502 39.0359 288.302 35.8211 286.883 33.8833L286.885 33.8851Z" fill="url(#paint53_linear_796_2786)"/>
<path d="M303.132 32.7006C303.672 32.2117 303.67 31.4709 303.123 30.4802C302.73 29.7666 302.233 29.2233 301.634 28.8484C297.384 29.6362 293.117 30.3896 288.833 31.1123C282.344 32.1917 279.109 31.9309 280.402 34.4375C280.952 35.4862 281.659 37.0636 284.422 37.156C286.023 37.1977 292.261 35.7107 303.134 32.6988L303.132 32.7006Z" fill="url(#paint54_linear_796_2786)"/>
<path d="M95.4202 224.31C96.9545 224.045 98.1558 224.037 99.0252 224.291C100.365 224.671 103.116 224.248 103.875 223C104.646 221.717 103.642 219.082 102.79 218.604C101.957 218.118 99.9341 219.479 98.8236 220.294C98.141 220.807 96.7756 220.97 94.7237 220.781L95.4202 224.31Z" fill="url(#paint55_linear_796_2786)"/>
<path d="M83.0701 221.098C79.3673 217.211 77.0397 212.941 73.7706 209.867C70.7069 206.994 62.5385 209.301 65.9114 213.387C68.0058 215.942 71.9547 219.662 77.755 224.546C81.6692 227.059 84.724 222.841 83.0701 221.098Z" fill="url(#paint56_linear_796_2786)"/>
<path d="M96.8075 224.494C97.4299 224.105 97.5643 223.377 97.2086 222.31C96.9557 221.535 96.5674 220.906 96.0438 220.427C93.7577 220.473 90.4431 220.455 86.0991 220.374C79.5223 220.233 78.4731 216.146 77.0761 220.291C76.6997 221.409 76.5555 225.061 79.9017 225.282C81.4992 225.388 87.1335 225.126 96.8055 224.494H96.8075Z" fill="url(#paint57_linear_796_2786)"/>
<path style="mix-blend-mode:multiply" d="M4.5675 162.829C28.7654 173.67 32.0682 177.191 34.8571 178.729C34.6368 170.425 35.8451 169.541 39.4017 164.213C37.5019 163.157 35.607 162.103 33.7072 161.043C32.98 159.248 31.6492 157.7 29.8541 156.702C29.7662 156.653 29.6684 156.596 29.5765 156.552C27.8615 155.597 25.8549 155.269 23.9304 155.597C20.1396 153.483 16.4941 151.066 12.069 153.006C8.1281 154.739 6.52859 159.303 4.5675 162.831V162.829ZM13.3475 186.008C15.2522 187.06 17.3101 187.4 19.2366 187.096C23.3534 189.387 27.4752 191.685 31.588 193.981C33.801 185.176 34.9026 180.296 34.8591 178.731C32.0701 177.191 28.7674 173.672 4.56949 162.831C3.73171 164.343 2.89393 165.864 2.04923 167.368C-0.309008 171.647 1.22922 177.065 5.49223 179.435C6.82794 180.183 8.1676 180.926 9.50726 181.669C10.2383 183.469 11.5622 185.015 13.3514 186.01L13.3475 186.008ZM34.8571 178.729C58.1313 190.623 75.0826 201.876 97.2364 214.022C99.237 215.118 101.414 216.148 103.734 217.148C103.567 210.834 99.4593 200.691 101.231 198.66C80.6201 187.177 60.0183 175.694 39.4017 164.211C35.8451 169.539 34.6368 170.423 34.8571 178.727V178.729ZM31.586 193.979C48.4326 203.365 65.2841 212.749 82.1257 222.127C82.3114 222.25 82.4952 222.369 82.6908 222.476C87.9536 225.403 93.2036 228.339 98.4605 231.267C100.207 228.279 103.953 224.282 103.733 217.15C101.414 216.15 99.237 215.119 97.2354 214.024C75.0826 201.876 58.1293 190.625 34.8552 178.731C34.8986 180.296 33.7971 185.178 31.584 193.981L31.586 193.979ZM103.733 217.148C115.723 222.304 126.19 229.627 136.792 228.547C134.077 224.299 131.361 220.044 128.651 215.795C128.175 214.366 127.211 213.138 125.826 212.368C117.628 207.797 109.429 203.233 101.231 198.662C99.4593 200.693 103.567 210.834 103.734 217.15L103.733 217.148ZM98.4605 231.265C102.684 233.618 106.907 235.971 111.124 238.322C112.2 238.92 113.369 239.184 114.513 239.126C114.739 239.117 114.962 239.099 115.183 239.073C120.755 239.147 126.336 239.215 131.907 239.285C137.892 239.374 139.515 232.822 136.79 228.545C126.188 229.625 115.721 222.303 103.731 217.146C103.952 224.278 100.205 228.276 98.4595 231.264L98.4605 231.265Z" fill="url(#paint58_linear_796_2786)"/>
<path d="M122.464 217.852L94.0252 202.009L85.7867 216.879L114.222 232.735L114.259 232.66L131.986 232.886L122.421 217.914L122.464 217.852Z" fill="#FFC3AE"/>
<path d="M16.8289 158.957C15.6394 158.294 14.1318 158.736 13.4709 159.926L7.62714 170.481C6.97509 171.665 7.39792 173.187 8.58346 173.84L16.4248 178.2C17.6054 178.862 19.1131 178.43 19.774 177.246L25.6177 166.686C26.2747 165.493 25.8469 163.981 24.6574 163.327L16.8289 158.959V158.957Z" fill="url(#paint59_linear_796_2786)"/>
<path style="mix-blend-mode:multiply" d="M19.208 160.291L16.828 158.957C15.6385 158.294 14.1309 158.736 13.47 159.926L7.62624 170.481C6.97419 171.665 7.39606 173.187 8.58259 173.84L10.9764 175.172C9.79577 174.509 9.36306 172.996 10.0161 171.812L15.8746 161.257C16.5316 160.064 18.0392 159.631 19.2109 160.293L19.208 160.291Z" fill="url(#paint60_linear_796_2786)"/>
<path d="M122.73 217.959L117.226 214.9L26.8162 164.52L24.4184 168.846L20.9665 175.085L18.5727 179.409L108.985 229.777L114.486 232.844L111.383 225.452L118.612 225.403L114.83 219.216L122.729 217.961L122.73 217.959Z" fill="url(#paint61_linear_796_2786)"/>
<path d="M124.43 232.798L131.986 232.887L127.913 226.51L124.43 232.798Z" fill="url(#paint62_linear_796_2786)"/>
<path style="mix-blend-mode:multiply" d="M114.83 219.214L24.418 168.842L20.9661 175.082L111.383 225.448L118.613 225.399L114.83 219.212V219.214Z" fill="url(#paint63_linear_796_2786)"/>
<path d="M26.5498 162.18C25.3692 161.522 23.8616 161.947 23.2007 163.14L15.4946 177.065C14.8337 178.245 15.2655 179.758 16.4461 180.417L16.6575 180.537C17.844 181.199 19.3457 180.766 20.0066 179.577L27.7126 165.652C28.3736 164.463 27.9419 162.956 26.7524 162.293L26.5498 162.182V162.18Z" fill="#191801"/>
<path d="M83.1072 268.694C82.309 265.268 82.0225 243.632 79.3738 240.432C75.5662 241.506 71.2449 240.99 71.6638 250.38C72.2852 264.734 75.3222 270.504 75.3182 270.556C80.5376 269.419 83.1339 268.798 83.1072 268.694Z" fill="url(#paint64_linear_796_2786)"/>
<path d="M94.3512 306.101C94.1704 305.226 92.2439 303.39 90.7323 303.39C86.9465 303.39 85.103 301.881 84.8975 300.175C84.8184 299.344 83.2584 290.855 82.9986 285.54C82.884 280.131 83.1478 272.067 83.1083 268.693C83.1518 268.429 80.5554 269.048 75.3193 270.554C76.0168 272.911 76.0079 276.103 75.9713 277.469C75.919 278.994 78.537 291.074 79.934 295.022C80.9437 298.737 81.8556 301.541 81.9099 302.261C82.0373 304.397 80.75 306.652 83.7959 307.403C86.2065 307.987 90.0862 307.496 91.8408 307.692C93.5964 307.878 94.5567 307.102 94.3542 306.1L94.3512 306.101Z" fill="url(#paint65_linear_796_2786)"/>
<path d="M72.4254 266.385C73.2355 269.144 73.853 271.125 74.2758 272.327C74.6749 274.737 75.2163 277.911 75.897 281.847C76.5817 285.782 78.0438 291.397 80.2825 298.688C80.6708 298.965 81.5125 298.978 82.8087 298.724C84.101 298.476 85 298.197 85.5059 297.884C84.2126 281.919 83.3896 272.262 83.0379 268.913C82.5084 263.891 81.6272 253.597 80.7014 245.139C79.8854 237.67 68.5368 241.526 68.7571 248.415C70.3941 257.633 71.6162 263.623 72.4234 266.385H72.4254Z" fill="url(#paint66_linear_796_2786)"/>
<path d="M69.0509 268.86C68.7694 265.351 71.669 243.905 69.5192 240.354C65.5961 240.848 61.4002 239.7 60.4301 249.051C58.9264 263.337 61.0821 269.493 61.0732 269.546C66.3973 269.192 69.0568 268.964 69.0509 268.86Z" fill="url(#paint67_linear_796_2786)"/>
<path d="M54.6185 306.269C55.0156 305.482 54.0287 304.316 52.8481 303.374C49.8813 301.012 48.832 298.223 49.7261 296.754C50.1796 296.054 52.9735 292.129 56.0648 287.796C59.327 283.489 67.0765 271.685 69.1344 269.017C69.331 268.834 66.9135 267.7 61.8839 265.617C60.967 267.894 58.9842 270.388 58.101 271.437C57.114 272.599 50.3831 285.657 49.0346 289.628C47.523 293.164 46.0016 297.127 45.5965 297.728C44.3764 299.48 41.9697 300.444 43.8873 302.928C45.4167 304.891 49.7983 306.183 51.049 307.438C52.3096 308.676 54.1531 307.189 54.6204 306.269H54.6185Z" fill="url(#paint68_linear_796_2786)"/>
<path d="M60.1329 245.378C59.3959 251.006 59.1844 256.826 59.3958 261.769C59.5371 265.065 59.7821 267.089 60.1329 267.843C59.6883 268.031 58.4316 269.824 56.3648 273.22C54.2961 276.617 51.4754 282.488 47.901 290.837C48.229 291.592 49.0994 292.346 50.5092 293.101C51.92 293.856 52.7894 293.997 53.1184 293.525C63.65 279.805 69.1973 271.813 69.7624 269.546C70.6091 266.146 71.5971 251.288 72.0199 246.76C72.4418 242.232 62.7104 244.222 60.1003 245.137" fill="url(#paint69_linear_796_2786)"/>
<path d="M80.625 243.906C79.4227 238.378 77.8538 231.604 75.9184 223.583C72.9397 211.264 74.3772 210.212 71.0923 208.524C67.8083 206.83 62.008 208.162 59.3593 209.797C55.1852 212.388 51.9862 211.843 56.8065 228.841C60.045 240.28 59.5737 243.782 60.0232 246.373C60.4728 248.959 74.1292 250.007 80.625 243.906Z" fill="url(#paint70_linear_796_2786)"/>
<path d="M47.3555 191.526C47.1678 189.472 47.3268 188.102 47.8327 187.413C48.6428 186.3 50.0002 184.266 49.5072 183.434C49.031 182.581 46.41 181.578 45.1257 182.355C43.8839 183.116 43.4689 185.874 43.8512 187.22C44.1042 188.095 44.1002 189.3 43.8384 190.837L47.3555 191.526Z" fill="url(#paint71_linear_796_2786)"/>
<path d="M43.6459 208.559C48.5254 214.368 52.243 218.322 54.792 220.418C58.8781 223.792 61.1613 215.589 58.2873 212.53C55.2148 209.248 50.9518 206.932 47.0701 203.227C45.3303 201.563 41.1286 204.637 43.6459 208.559Z" fill="url(#paint72_linear_796_2786)"/>
<path d="M42.9058 206.401C43.135 209.76 46.7767 209.607 47.896 209.232C52.0217 207.818 47.9395 206.774 47.7893 200.176C47.6954 195.819 47.6688 192.496 47.7102 190.206C47.2321 189.684 46.6057 189.295 45.8322 189.038C44.7652 188.687 44.042 188.825 43.6587 189.449C43.0501 199.147 42.7991 204.798 42.9058 206.401Z" fill="url(#paint73_linear_796_2786)"/>
<path d="M66.8739 207.86C66.618 207.303 66.1774 206.468 66.0184 205.499C67.0547 205.234 68.7125 204.711 69.0464 204.207C70.2596 202.462 70.2576 198.758 69.0425 193.091C68.5406 192.251 64.2964 191.154 61.5933 193.349C59.3181 195.21 58.835 198.964 60.1381 202.033C60.1292 202.06 60.1114 202.075 60.1114 202.125C60.8099 203.608 61.2486 205.106 61.4254 206.622C61.5756 207.984 61.1685 208.717 61.1132 209.209C60.5046 209.447 67.6238 207.812 66.8739 207.858V207.86Z" fill="url(#paint74_linear_796_2786)"/>
<path d="M65.6135 209.699C67.7643 209.386 68.8866 208.778 68.9805 207.868C68.7928 207.549 68.5962 207.248 68.3907 206.966C68.0726 206.542 67.87 207.223 65.7114 207.585C63.5517 207.956 62.6477 207.515 61.1095 207.859C60.08 208.092 59.6631 208.781 59.8578 209.929C61.5481 210.083 63.4667 210.005 65.6135 209.699Z" fill="url(#paint75_linear_796_2786)"/>
<path d="M63.1384 195.673C64.6371 195.815 65.549 196.266 69.3832 195.081C72.187 194.21 72.2216 191.799 71.8916 189.82C67.2147 190.483 66.8363 187.388 61.3749 189.055C55.6438 190.811 55.2703 195.786 57.8084 199.903C58.6481 201.27 59.7517 203.017 61.1141 205.147C61.3235 204.57 61.5458 203.857 61.7839 203.007C62.019 202.158 61.936 201.096 61.5329 199.823C60.5025 200.113 59.9829 199.812 59.9769 198.924C59.972 198.037 60.5816 197.742 61.8116 198.041C62.1544 197.639 62.0319 196.718 63.1384 195.675V195.673Z" fill="url(#paint76_linear_796_2786)"/>
<path d="M81.4898 301.803C80.9692 302.386 81.392 307.141 81.8326 307.985C82.208 308.74 88.1535 308.427 91.7714 308.484C95.4041 308.524 96.1747 306.193 95.3863 304.752C94.5929 303.332 93.6613 304.756 90.7617 303.092C87.87 301.461 83.4449 299.635 81.4878 301.802L81.4898 301.803Z" fill="url(#paint77_linear_796_2786)"/>
<path d="M45.3025 296.692C44.5625 296.931 42.5174 301.238 42.4651 302.193C42.4028 303.033 47.6844 305.797 50.7698 307.694C53.8729 309.586 55.7234 307.967 55.7757 306.322C55.8123 304.696 54.2869 305.447 52.6291 302.537C50.9723 299.653 48.0885 295.825 45.3025 296.69V296.692Z" fill="url(#paint78_linear_796_2786)"/>
<path d="M368.181 291.165L391.287 267.986L383.397 260.062L368.181 275.327L343.423 249.93L335.528 257.853L368.181 291.167V291.165Z" fill="url(#paint79_linear_796_2786)"/>
<path d="M346.854 307.065H390.112V277.811H346.854V307.065Z" fill="url(#paint80_linear_796_2786)"/>
<path d="M343.588 292.438H393.375L390.113 277.811H346.854L343.588 292.438Z" fill="url(#paint81_linear_796_2786)"/>
<path d="M389.584 278.275L401.669 287.097L402.198 286.628L390.113 277.811L389.584 278.275Z" fill="url(#paint82_linear_796_2786)"/>
<path d="M346.855 277.811L334.769 286.628L335.298 287.097L347.384 278.275L346.855 277.811Z" fill="url(#paint83_linear_796_2786)"/>
<path d="M364.394 302.003H372.574V292.438H364.394V302.003Z" fill="#F5F5F5"/>
<path d="M305.095 293.393L304.694 299.681L308.049 300.325L308.987 294.289L305.095 293.391V293.393Z" fill="url(#paint84_linear_796_2786)"/>
<path d="M309.317 306.697C310.418 302.193 309.723 299.723 307.231 299.286C303.494 298.636 303.07 299.789 302.546 302.218C302.196 303.837 301.958 305.398 301.828 306.905L309.317 306.697Z" fill="url(#paint85_linear_796_2786)"/>
<path d="M307.567 243.313C306.88 251.795 306.276 262.115 305.883 267.146C305.625 270.504 305.069 280.179 304.216 296.174C304.727 296.472 305.634 296.727 306.932 296.938C308.237 297.156 309.077 297.121 309.452 296.832C311.492 289.48 312.8 283.828 313.375 279.875C313.948 275.92 314.405 272.733 314.742 270.31C315.13 269.098 315.692 267.102 316.427 264.322C317.519 260.147 318.34 251.282 318.886 246.325C318.922 239.432 308.174 235.828 307.565 243.31L307.567 243.313Z" fill="url(#paint86_linear_796_2786)"/>
<path d="M303.553 299.742C301.497 301.015 300.14 302.104 299.481 303.006C298.493 304.358 298.705 306.552 298.845 306.905C298.986 307.259 301.273 306.923 301.824 306.905C302.371 306.887 304.447 300.144 303.552 299.742H303.553Z" fill="url(#paint87_linear_796_2786)"/>
<path d="M327.052 294.29L327.991 300.327L331.346 299.682L330.945 293.394L327.052 294.292V294.29Z" fill="url(#paint88_linear_796_2786)"/>
<path d="M334.216 306.905C334.084 305.398 333.842 303.837 333.494 302.218C332.965 299.791 332.551 298.636 328.812 299.286C326.321 299.722 325.624 302.192 326.723 306.697L334.216 306.905Z" fill="url(#paint89_linear_796_2786)"/>
<path d="M317.15 246.329C317.697 251.286 318.517 260.151 319.618 264.326C320.349 267.106 320.911 269.101 321.302 270.314C321.638 272.737 322.093 275.924 322.669 279.878C323.24 283.832 324.543 289.484 326.583 296.835C326.966 297.125 327.806 297.159 329.104 296.942C330.409 296.73 331.317 296.474 331.828 296.177C330.976 280.184 330.418 270.507 330.153 267.149C329.764 262.118 329.165 251.796 328.474 243.317C327.862 235.835 317.123 239.44 317.15 246.332V246.329Z" fill="url(#paint90_linear_796_2786)"/>
<path d="M334.214 306.905C334.761 306.923 337.048 307.258 337.189 306.905C337.33 306.551 337.541 304.358 336.553 303.005C335.894 302.104 334.539 301.015 332.486 299.742C331.587 300.144 333.663 306.887 334.214 306.905Z" fill="url(#paint91_linear_796_2786)"/>
<path d="M318.523 200.468C320.533 201.341 322.101 200.693 323.226 198.522C324.351 196.353 324.073 195.378 322.388 195.6C321.657 195.399 320.368 197.022 318.523 200.468Z" fill="url(#paint92_linear_796_2786)"/>
<path d="M309.248 195.6C307.561 195.378 307.282 196.353 308.41 198.522C309.533 200.693 311.098 201.341 313.109 200.468C311.264 197.022 309.977 195.399 309.248 195.6Z" fill="url(#paint93_linear_796_2786)"/>
<path d="M303.762 185.593C303.972 183.737 304.389 182.548 305.018 182.029C306.024 181.179 305.786 179.915 306.12 179.093C307.601 175.44 304.656 174.769 303.246 175.237C301.879 175.698 301.029 179.903 301.142 181.162C301.221 181.98 300.985 183.051 300.433 184.371L303.76 185.591L303.762 185.593Z" fill="url(#paint94_linear_796_2786)"/>
<path d="M296.962 203.806C296.39 206.932 303.406 215.404 307.068 220.021C310.167 223.911 313.429 210.478 309.352 209.594C307.832 207.082 306.889 207.18 303.732 202.766C303.961 200.07 297.668 199.928 296.962 203.806Z" fill="url(#paint95_linear_796_2786)"/>
<path d="M296.982 203.447C296.563 206.467 302.478 204.539 303.624 204.282C303.722 201.982 303.598 197.459 303.615 193.484C303.639 189.38 303.886 186.379 304.355 184.481C303.986 183.932 303.446 183.48 302.738 183.119C301.76 182.622 301.021 182.616 300.521 183.101C298.362 195.22 297.181 202 296.982 203.445V203.447Z" fill="url(#paint96_linear_796_2786)"/>
<path d="M334.63 184.435C334.077 183.114 333.843 182.043 333.924 181.225C334.038 179.964 333.184 175.759 331.817 175.301C330.411 174.832 327.466 175.504 328.948 179.157C329.279 179.979 329.04 181.243 330.05 182.093C330.678 182.61 331.097 183.801 331.306 185.66L334.63 184.436V184.435Z" fill="url(#paint97_linear_796_2786)"/>
<path d="M332.21 202.827C329.051 207.241 327.238 207.143 325.718 209.655C321.641 210.54 324.902 223.973 328.002 220.077C331.665 215.466 339.55 206.994 338.977 203.867C338.271 199.989 331.981 200.131 332.21 202.827Z" fill="url(#paint98_linear_796_2786)"/>
<path d="M334.541 183.165C334.045 182.677 333.307 182.684 332.328 183.182C331.617 183.545 331.077 184 330.707 184.544C331.47 188.777 331.862 192.946 331.884 197.048C331.905 201.023 332.214 202.046 332.312 204.344C333.458 204.6 339.378 206.528 338.959 203.509C338.759 202.064 337.287 195.282 334.543 183.165H334.541Z" fill="url(#paint99_linear_796_2786)"/>
<path d="M328.978 245.139C328.949 235.656 328.515 227.222 327.678 219.837C327.047 214.297 327.365 210.088 326.403 208.42C323.807 209.746 323.211 207.647 317.935 207.788C314.81 207.877 312.629 208.151 311.068 208.129C305.995 208.061 307.229 214.24 307.064 218.59C306.734 227.266 307.282 241.858 307.193 243.754C307.105 245.649 309.691 246.371 317.966 246.821C323.478 247.127 327.149 246.566 328.978 245.137V245.139Z" fill="url(#paint100_linear_796_2786)"/>
<path d="M315.94 190.944C312.503 190.732 309.329 190.222 310.096 197.912C310.867 205.597 315.845 205.341 319.3 204.686C322.765 204.032 321.783 195.64 321.759 195.286C321.597 192.722 319.383 191.16 315.94 190.945V190.944Z" fill="url(#paint101_linear_796_2786)"/>
<path d="M313.752 203.966C314.149 205.726 313.981 207.524 313.972 207.499C313.963 207.484 315.75 207.416 319.332 207.296L319.345 205.063C320.935 201.861 313.311 201.998 313.752 203.967V203.966Z" fill="url(#paint102_linear_796_2786)"/>
<path d="M321.759 207.956C321.224 206.698 319.648 206.069 317.034 206.069C314.418 206.069 312.809 206.734 312.203 208.063L321.759 207.956Z" fill="url(#paint103_linear_796_2786)"/>
<path d="M318.022 189.173C313.698 189.076 311.19 189.182 309.982 192.201C308.774 195.221 309.49 197.914 310.581 200.466C311.612 202.853 314.006 203.712 317.545 203.668C321.089 203.619 321.503 200.993 321.905 199.653C323.037 195.885 322.351 189.266 318.022 189.173Z" fill="url(#paint104_linear_796_2786)"/>
</g>
<defs>
<linearGradient id="paint0_linear_796_2786" x1="407.035" y1="311.328" x2="396.837" y2="305.668" gradientUnits="userSpaceOnUse">
<stop stop-color="white"/>
<stop offset="1" stop-color="#808080"/>
</linearGradient>
<linearGradient id="paint1_linear_796_2786" x1="309.326" y1="308.538" x2="265.093" y2="308.538" gradientUnits="userSpaceOnUse">
<stop stop-color="white"/>
<stop offset="1" stop-color="#CECECE"/>
</linearGradient>
<linearGradient id="paint2_linear_796_2786" x1="300.659" y1="791.653" x2="300.659" y2="-50.9493" gradientUnits="userSpaceOnUse">
<stop stop-color="#1CAB04"/>
<stop offset="1" stop-color="#0E6016"/>
</linearGradient>
<linearGradient id="paint3_linear_796_2786" x1="290.097" y1="297.799" x2="255.837" y2="259.637" gradientUnits="userSpaceOnUse">
<stop stop-color="white"/>
<stop offset="1" stop-color="#AFAFAF"/>
</linearGradient>
<linearGradient id="paint4_linear_796_2786" x1="247.418" y1="86.007" x2="233.057" y2="71.9254" gradientUnits="userSpaceOnUse">
<stop stop-color="white"/>
<stop offset="1" stop-color="#D3D3D3"/>
</linearGradient>
<linearGradient id="paint5_linear_796_2786" x1="252.003" y1="32.5248" x2="116.217" y2="32.5248" gradientUnits="userSpaceOnUse">
<stop stop-color="#0E6016"/>
<stop offset="1" stop-color="#106A14"/>
</linearGradient>
<linearGradient id="paint6_linear_796_2786" x1="211.58" y1="178.247" x2="211.58" y2="450.421" gradientUnits="userSpaceOnUse">
<stop stop-color="#0E6016"/>
<stop offset="1" stop-color="#1CAB04"/>
</linearGradient>
<linearGradient id="paint7_linear_796_2786" x1="211.58" y1="131.267" x2="211.58" y2="403.477" gradientUnits="userSpaceOnUse">
<stop stop-color="#0E6016"/>
<stop offset="1" stop-color="#1CAB04"/>
</linearGradient>
<linearGradient id="paint8_linear_796_2786" x1="150.069" y1="69.8702" x2="150.069" y2="201.557" gradientUnits="userSpaceOnUse">
<stop stop-color="#0E6016"/>
<stop offset="1" stop-color="#1CAB04"/>
</linearGradient>
<linearGradient id="paint9_linear_796_2786" x1="133.043" y1="69.8882" x2="133.043" y2="201.465" gradientUnits="userSpaceOnUse">
<stop stop-color="#0E6016"/>
<stop offset="1" stop-color="#1CAB04"/>
</linearGradient>
<linearGradient id="paint10_linear_796_2786" x1="144.038" y1="69.9058" x2="144.038" y2="201.466" gradientUnits="userSpaceOnUse">
<stop stop-color="#0E6016"/>
<stop offset="1" stop-color="#1CAB04"/>
</linearGradient>
<linearGradient id="paint11_linear_796_2786" x1="157.38" y1="69.8518" x2="157.38" y2="201.557" gradientUnits="userSpaceOnUse">
<stop stop-color="#0E6016"/>
<stop offset="1" stop-color="#1CAB04"/>
</linearGradient>
<linearGradient id="paint12_linear_796_2786" x1="150.391" y1="116.368" x2="150.391" y2="248.054" gradientUnits="userSpaceOnUse">
<stop stop-color="#0E6016"/>
<stop offset="1" stop-color="#1CAB04"/>
</linearGradient>
<linearGradient id="paint13_linear_796_2786" x1="133.365" y1="116.385" x2="133.365" y2="247.964" gradientUnits="userSpaceOnUse">
<stop stop-color="#0E6016"/>
<stop offset="1" stop-color="#1CAB04"/>
</linearGradient>
<linearGradient id="paint14_linear_796_2786" x1="144.361" y1="116.403" x2="144.361" y2="247.965" gradientUnits="userSpaceOnUse">
<stop stop-color="#0E6016"/>
<stop offset="1" stop-color="#1CAB04"/>
</linearGradient>
<linearGradient id="paint15_linear_796_2786" x1="157.703" y1="116.35" x2="157.703" y2="248.054" gradientUnits="userSpaceOnUse">
<stop stop-color="#0E6016"/>
<stop offset="1" stop-color="#1CAB04"/>
</linearGradient>
<linearGradient id="paint16_linear_796_2786" x1="150.391" y1="163.915" x2="150.391" y2="295.602" gradientUnits="userSpaceOnUse">
<stop stop-color="#0E6016"/>
<stop offset="1" stop-color="#1CAB04"/>
</linearGradient>
<linearGradient id="paint17_linear_796_2786" x1="133.365" y1="163.933" x2="133.365" y2="295.511" gradientUnits="userSpaceOnUse">
<stop stop-color="#0E6016"/>
<stop offset="1" stop-color="#1CAB04"/>
</linearGradient>
<linearGradient id="paint18_linear_796_2786" x1="144.361" y1="163.95" x2="144.361" y2="295.512" gradientUnits="userSpaceOnUse">
<stop stop-color="#0E6016"/>
<stop offset="1" stop-color="#1CAB04"/>
</linearGradient>
<linearGradient id="paint19_linear_796_2786" x1="157.703" y1="163.897" x2="157.703" y2="295.601" gradientUnits="userSpaceOnUse">
<stop stop-color="#0E6016"/>
<stop offset="1" stop-color="#1CAB04"/>
</linearGradient>
<linearGradient id="paint20_linear_796_2786" x1="150.391" y1="211.462" x2="150.391" y2="343.149" gradientUnits="userSpaceOnUse">
<stop stop-color="#0E6016"/>
<stop offset="1" stop-color="#1CAB04"/>
</linearGradient>
<linearGradient id="paint21_linear_796_2786" x1="133.365" y1="211.48" x2="133.365" y2="343.058" gradientUnits="userSpaceOnUse">
<stop stop-color="#0E6016"/>
<stop offset="1" stop-color="#1CAB04"/>
</linearGradient>
<linearGradient id="paint22_linear_796_2786" x1="144.361" y1="211.498" x2="144.361" y2="343.059" gradientUnits="userSpaceOnUse">
<stop stop-color="#0E6016"/>
<stop offset="1" stop-color="#1CAB04"/>
</linearGradient>
<linearGradient id="paint23_linear_796_2786" x1="157.703" y1="211.444" x2="157.703" y2="343.148" gradientUnits="userSpaceOnUse">
<stop stop-color="#0E6016"/>
<stop offset="1" stop-color="#1CAB04"/>
</linearGradient>
<linearGradient id="paint24_linear_796_2786" x1="285.548" y1="73.7823" x2="285.548" y2="345.956" gradientUnits="userSpaceOnUse">
<stop stop-color="#0E6016"/>
<stop offset="1" stop-color="#1CAB04"/>
</linearGradient>
<linearGradient id="paint25_linear_796_2786" x1="271.411" y1="10.5743" x2="274.351" y2="17.4136" gradientUnits="userSpaceOnUse">
<stop stop-color="#101719"/>
<stop offset="1" stop-color="#243137"/>
</linearGradient>
<linearGradient id="paint26_linear_796_2786" x1="283.581" y1="59.1301" x2="298.867" y2="64.948" gradientUnits="userSpaceOnUse">
<stop stop-color="#101719"/>
<stop offset="1" stop-color="#243137"/>
</linearGradient>
<linearGradient id="paint27_linear_796_2786" x1="-340.919" y1="364.628" x2="-258.046" y2="325.854" gradientUnits="userSpaceOnUse">
<stop stop-color="#FFD1AE"/>
<stop offset="1" stop-color="#F9AC78"/>
</linearGradient>
<linearGradient id="paint28_linear_796_2786" x1="-250.014" y1="287.947" x2="-185.795" y2="257.91" gradientUnits="userSpaceOnUse">
<stop stop-color="#FFD1AE"/>
<stop offset="1" stop-color="#F9AC78"/>
</linearGradient>
<linearGradient id="paint29_linear_796_2786" x1="-297.047" y1="19.34" x2="-220.49" y2="28.3938" gradientUnits="userSpaceOnUse">
<stop stop-color="#FFD1AE"/>
<stop offset="1" stop-color="#F9AC78"/>
</linearGradient>
<linearGradient id="paint30_linear_796_2786" x1="260.69" y1="14.4499" x2="310.589" y2="134.688" gradientUnits="userSpaceOnUse">
<stop stop-color="#101719"/>
<stop offset="1" stop-color="#243137"/>
</linearGradient>
<linearGradient id="paint31_linear_796_2786" x1="261.684" y1="16.8226" x2="309.531" y2="132.102" gradientUnits="userSpaceOnUse">
<stop stop-color="#101719"/>
<stop offset="1" stop-color="#243137"/>
</linearGradient>
<linearGradient id="paint32_linear_796_2786" x1="267.784" y1="49.7665" x2="318.93" y2="67.362" gradientUnits="userSpaceOnUse">
<stop stop-color="#FFD1AE"/>
<stop offset="1" stop-color="#F9AC78"/>
</linearGradient>
<linearGradient id="paint33_linear_796_2786" x1="266.034" y1="54.5661" x2="316.71" y2="71.9995" gradientUnits="userSpaceOnUse">
<stop stop-color="#FFD1AE"/>
<stop offset="1" stop-color="#F9AC78"/>
</linearGradient>
<linearGradient id="paint34_linear_796_2786" x1="258.341" y1="75.4483" x2="310.769" y2="93.476" gradientUnits="userSpaceOnUse">
<stop stop-color="#FFD1AE"/>
<stop offset="1" stop-color="#F9AC78"/>
</linearGradient>
<linearGradient id="paint35_linear_796_2786" x1="239.746" y1="45.8729" x2="345.462" y2="121.353" gradientUnits="userSpaceOnUse">
<stop stop-color="#101719"/>
<stop offset="1" stop-color="#243137"/>
</linearGradient>
<linearGradient id="paint36_linear_796_2786" x1="241.39" y1="47.6659" x2="339.869" y2="117.97" gradientUnits="userSpaceOnUse">
<stop stop-color="#101719"/>
<stop offset="1" stop-color="#243137"/>
</linearGradient>
<linearGradient id="paint37_linear_796_2786" x1="255.108" y1="52.248" x2="290.794" y2="65.8471" gradientUnits="userSpaceOnUse">
<stop stop-color="#101719"/>
<stop offset="1" stop-color="#243137"/>
</linearGradient>
<linearGradient id="paint38_linear_796_2786" x1="321.675" y1="16.7864" x2="326.872" y2="21.5876" gradientUnits="userSpaceOnUse">
<stop stop-color="#FFD1AE"/>
<stop offset="1" stop-color="#F9AC78"/>
</linearGradient>
<linearGradient id="paint39_linear_796_2786" x1="747.143" y1="425.718" x2="710.535" y2="393.087" gradientUnits="userSpaceOnUse">
<stop stop-color="#0B490D"/>
<stop offset="1" stop-color="#0E6215"/>
</linearGradient>
<linearGradient id="paint40_linear_796_2786" x1="480.607" y1="691.372" x2="466.66" y2="636.806" gradientUnits="userSpaceOnUse">
<stop stop-color="#0B490D"/>
<stop offset="1" stop-color="#106A14"/>
</linearGradient>
<linearGradient id="paint41_linear_796_2786" x1="295.28" y1="5.37632" x2="287.869" y2="54.9035" gradientUnits="userSpaceOnUse">
<stop stop-color="#FFD1AE"/>
<stop offset="1" stop-color="#F9AC78"/>
</linearGradient>
<linearGradient id="paint42_linear_796_2786" x1="271.881" y1="33.177" x2="276.241" y2="4.07632" gradientUnits="userSpaceOnUse">
<stop stop-color="#AFAFAF"/>
<stop offset="1" stop-color="white"/>
</linearGradient>
<linearGradient id="paint43_linear_796_2786" x1="266.013" y1="56.9928" x2="273.098" y2="9.67494" gradientUnits="userSpaceOnUse">
<stop stop-color="#0B490D"/>
<stop offset="1" stop-color="#116F12"/>
</linearGradient>
<linearGradient id="paint44_linear_796_2786" x1="266.445" y1="10.9728" x2="282.8" y2="-0.696562" gradientUnits="userSpaceOnUse">
<stop stop-color="#101719"/>
<stop offset="1" stop-color="#243137"/>
</linearGradient>
<linearGradient id="paint45_linear_796_2786" x1="265.472" y1="60.0356" x2="291.179" y2="12.5433" gradientUnits="userSpaceOnUse">
<stop stop-color="#0B490D"/>
<stop offset="1" stop-color="#0E6215"/>
</linearGradient>
<linearGradient id="paint46_linear_796_2786" x1="321.585" y1="12.3128" x2="321.585" y2="192.736" gradientUnits="userSpaceOnUse">
<stop stop-color="#101719"/>
<stop offset="1" stop-color="#243137"/>
</linearGradient>
<linearGradient id="paint47_linear_796_2786" x1="320.754" y1="12.3129" x2="320.754" y2="192.735" gradientUnits="userSpaceOnUse">
<stop stop-color="#101719"/>
<stop offset="1" stop-color="#243137"/>
</linearGradient>
<linearGradient id="paint48_linear_796_2786" x1="320.754" y1="12.3129" x2="320.754" y2="192.736" gradientUnits="userSpaceOnUse">
<stop stop-color="#101719"/>
<stop offset="1" stop-color="#243137"/>
</linearGradient>
<linearGradient id="paint49_linear_796_2786" x1="305.895" y1="12.3128" x2="305.895" y2="192.736" gradientUnits="userSpaceOnUse">
<stop stop-color="#101719"/>
<stop offset="1" stop-color="#243137"/>
</linearGradient>
<linearGradient id="paint50_linear_796_2786" x1="305.083" y1="12.3129" x2="305.083" y2="192.736" gradientUnits="userSpaceOnUse">
<stop stop-color="#101719"/>
<stop offset="1" stop-color="#243137"/>
</linearGradient>
<linearGradient id="paint51_linear_796_2786" x1="305.083" y1="12.3128" x2="305.083" y2="192.736" gradientUnits="userSpaceOnUse">
<stop stop-color="#101719"/>
<stop offset="1" stop-color="#243137"/>
</linearGradient>
<linearGradient id="paint52_linear_796_2786" x1="305.95" y1="23.5418" x2="311.146" y2="28.3431" gradientUnits="userSpaceOnUse">
<stop stop-color="#FFD1AE"/>
<stop offset="1" stop-color="#F9AC78"/>
</linearGradient>
<linearGradient id="paint53_linear_796_2786" x1="415.107" y1="592.974" x2="404.5" y2="547.24" gradientUnits="userSpaceOnUse">
<stop stop-color="#0B490D"/>
<stop offset="1" stop-color="#106A14"/>
</linearGradient>
<linearGradient id="paint54_linear_796_2786" x1="464.883" y1="698.073" x2="450.935" y2="643.525" gradientUnits="userSpaceOnUse">
<stop stop-color="#0B490D"/>
<stop offset="1" stop-color="#0E6315"/>
</linearGradient>
<linearGradient id="paint55_linear_796_2786" x1="101.324" y1="216.299" x2="105.312" y2="221.648" gradientUnits="userSpaceOnUse">
<stop stop-color="#FFD1AE"/>
<stop offset="1" stop-color="#F9AC78"/>
</linearGradient>
<linearGradient id="paint56_linear_796_2786" x1="90.4926" y1="233.595" x2="65.102" y2="213.841" gradientUnits="userSpaceOnUse">
<stop stop-color="#0E570A"/>
<stop offset="1" stop-color="#14800E"/>
</linearGradient>
<linearGradient id="paint57_linear_796_2786" x1="88.7389" y1="234.536" x2="66.135" y2="216.947" gradientUnits="userSpaceOnUse">
<stop stop-color="#0E570A"/>
<stop offset="1" stop-color="#14800E"/>
</linearGradient>
<linearGradient id="paint58_linear_796_2786" x1="24.6832" y1="156.749" x2="35.5173" y2="179.525" gradientUnits="userSpaceOnUse">
<stop stop-color="white"/>
<stop offset="1" stop-color="#808080"/>
</linearGradient>
<linearGradient id="paint59_linear_796_2786" x1="18.5262" y1="155.391" x2="3.41631" y2="166.737" gradientUnits="userSpaceOnUse">
<stop stop-color="#0E570A"/>
<stop offset="1" stop-color="#14800E"/>
</linearGradient>
<linearGradient id="paint60_linear_796_2786" x1="31.2896" y1="166.927" x2="8.61561" y2="154.364" gradientUnits="userSpaceOnUse">
<stop stop-color="#AFAFAF"/>
<stop offset="1" stop-color="white"/>
</linearGradient>
<linearGradient id="paint61_linear_796_2786" x1="121.4" y1="216.805" x2="3.38459" y2="151.468" gradientUnits="userSpaceOnUse">
<stop stop-color="#F39E40"/>
<stop offset="1" stop-color="#C46700"/>
</linearGradient>
<linearGradient id="paint62_linear_796_2786" x1="130.553" y1="236.221" x2="134.053" y2="229.927" gradientUnits="userSpaceOnUse">
<stop stop-color="#101719"/>
<stop offset="1" stop-color="#243137"/>
</linearGradient>
<linearGradient id="paint63_linear_796_2786" x1="20.0236" y1="174.969" x2="134.007" y2="238.072" gradientUnits="userSpaceOnUse">
<stop stop-color="#AFAFAF"/>
<stop offset="1" stop-color="white"/>
</linearGradient>
<linearGradient id="paint64_linear_796_2786" x1="71.4425" y1="240.242" x2="66.5731" y2="294.971" gradientUnits="userSpaceOnUse">
<stop stop-color="#FFD1AE"/>
<stop offset="1" stop-color="#F9AC78"/>
</linearGradient>
<linearGradient id="paint65_linear_796_2786" x1="34.9901" y1="283.329" x2="89.3862" y2="311.171" gradientUnits="userSpaceOnUse">
<stop stop-color="#FFD1AE"/>
<stop offset="1" stop-color="#F9AC78"/>
</linearGradient>
<linearGradient id="paint66_linear_796_2786" x1="79.4754" y1="236.692" x2="90.9353" y2="282.931" gradientUnits="userSpaceOnUse">
<stop stop-color="#101719"/>
<stop offset="1" stop-color="#243137"/>
</linearGradient>
<linearGradient id="paint67_linear_796_2786" x1="62.7952" y1="239.589" x2="50.1546" y2="291.803" gradientUnits="userSpaceOnUse">
<stop stop-color="#FFD1AE"/>
<stop offset="1" stop-color="#F9AC78"/>
</linearGradient>
<linearGradient id="paint68_linear_796_2786" x1="20.9442" y1="250.728" x2="46.969" y2="307.916" gradientUnits="userSpaceOnUse">
<stop stop-color="#FFD1AE"/>
<stop offset="1" stop-color="#F9AC78"/>
</linearGradient>
<linearGradient id="paint69_linear_796_2786" x1="86.1199" y1="234.609" x2="15.4315" y2="389.382" gradientUnits="userSpaceOnUse">
<stop stop-color="#101719"/>
<stop offset="1" stop-color="#243137"/>
</linearGradient>
<linearGradient id="paint70_linear_796_2786" x1="72.3637" y1="198.876" x2="84.8229" y2="252.576" gradientUnits="userSpaceOnUse">
<stop stop-color="#0D550A"/>
<stop offset="1" stop-color="#14800E"/>
</linearGradient>
<linearGradient id="paint71_linear_796_2786" x1="51.7983" y1="184.894" x2="46.4425" y2="180.944" gradientUnits="userSpaceOnUse">
<stop stop-color="#FFD1AE"/>
<stop offset="1" stop-color="#F9AC78"/>
</linearGradient>
<linearGradient id="paint72_linear_796_2786" x1="34.613" y1="195.815" x2="54.514" y2="221.111" gradientUnits="userSpaceOnUse">
<stop stop-color="#0E560A"/>
<stop offset="1" stop-color="#14800E"/>
</linearGradient>
<linearGradient id="paint73_linear_796_2786" x1="33.6744" y1="197.572" x2="51.3829" y2="220.084" gradientUnits="userSpaceOnUse">
<stop stop-color="#0D560A"/>
<stop offset="1" stop-color="#14800E"/>
</linearGradient>
<linearGradient id="paint74_linear_796_2786" x1="69.0968" y1="192.645" x2="71.4405" y2="210.755" gradientUnits="userSpaceOnUse">
<stop stop-color="#FFD1AE"/>
<stop offset="1" stop-color="#F9AC78"/>
</linearGradient>
<linearGradient id="paint75_linear_796_2786" x1="68.9884" y1="206.446" x2="69.6417" y2="209.307" gradientUnits="userSpaceOnUse">
<stop stop-color="#101719"/>
<stop offset="1" stop-color="#243137"/>
</linearGradient>
<linearGradient id="paint76_linear_796_2786" x1="69.979" y1="186.397" x2="76.8748" y2="200.779" gradientUnits="userSpaceOnUse">
<stop stop-color="#101719"/>
<stop offset="1" stop-color="#243137"/>
</linearGradient>
<linearGradient id="paint77_linear_796_2786" x1="80.5414" y1="248.229" x2="90.1307" y2="286.936" gradientUnits="userSpaceOnUse">
<stop stop-color="#101719"/>
<stop offset="1" stop-color="#243137"/>
</linearGradient>
<linearGradient id="paint78_linear_796_2786" x1="83.0164" y1="247.197" x2="24.4159" y2="375.484" gradientUnits="userSpaceOnUse">
<stop stop-color="#101719"/>
<stop offset="1" stop-color="#243137"/>
</linearGradient>
<linearGradient id="paint79_linear_796_2786" x1="335.162" y1="198.839" x2="335.162" y2="471.087" gradientUnits="userSpaceOnUse">
<stop stop-color="#013366"/>
<stop offset="1" stop-color="#1462B3"/>
</linearGradient>
<linearGradient id="paint80_linear_796_2786" x1="390.479" y1="310.766" x2="390.479" y2="292.728" gradientUnits="userSpaceOnUse">
<stop stop-color="#F75250"/>
<stop offset="1" stop-color="#FF9900"/>
</linearGradient>
<linearGradient id="paint81_linear_796_2786" x1="393.729" y1="285.447" x2="393.729" y2="271.574" gradientUnits="userSpaceOnUse">
<stop stop-color="#F3BB7D"/>
<stop offset="1" stop-color="#D77100"/>
</linearGradient>
<linearGradient id="paint82_linear_796_2786" x1="397.863" y1="281.136" x2="388.696" y2="270.752" gradientUnits="userSpaceOnUse">
<stop stop-color="#F75250"/>
<stop offset="1" stop-color="#F75250"/>
</linearGradient>
<linearGradient id="paint83_linear_796_2786" x1="339.097" y1="281.136" x2="348.265" y2="270.752" gradientUnits="userSpaceOnUse">
<stop stop-color="#F75250"/>
<stop offset="1" stop-color="#F75250"/>
</linearGradient>
<linearGradient id="paint84_linear_796_2786" x1="304.977" y1="291.55" x2="303.106" y2="305.35" gradientUnits="userSpaceOnUse">
<stop stop-color="#FFD1AE"/>
<stop offset="1" stop-color="#F9AC78"/>
</linearGradient>
<linearGradient id="paint85_linear_796_2786" x1="322.778" y1="246.417" x2="307.257" y2="285.54" gradientUnits="userSpaceOnUse">
<stop stop-color="#101719"/>
<stop offset="1" stop-color="#243137"/>
</linearGradient>
<linearGradient id="paint86_linear_796_2786" x1="308.497" y1="234.844" x2="298.326" y2="281.395" gradientUnits="userSpaceOnUse">
<stop stop-color="#101719"/>
<stop offset="1" stop-color="#243137"/>
</linearGradient>
<linearGradient id="paint87_linear_796_2786" x1="310.86" y1="248.88" x2="301.544" y2="286.538" gradientUnits="userSpaceOnUse">
<stop stop-color="#101719"/>
<stop offset="1" stop-color="#243137"/>
</linearGradient>
<linearGradient id="paint88_linear_796_2786" x1="331.064" y1="291.55" x2="332.935" y2="305.35" gradientUnits="userSpaceOnUse">
<stop stop-color="#FFD1AE"/>
<stop offset="1" stop-color="#F9AC78"/>
</linearGradient>
<linearGradient id="paint89_linear_796_2786" x1="313.264" y1="246.417" x2="328.784" y2="285.522" gradientUnits="userSpaceOnUse">
<stop stop-color="#101719"/>
<stop offset="1" stop-color="#243137"/>
</linearGradient>
<linearGradient id="paint90_linear_796_2786" x1="327.546" y1="234.844" x2="337.717" y2="281.395" gradientUnits="userSpaceOnUse">
<stop stop-color="#101719"/>
<stop offset="1" stop-color="#243137"/>
</linearGradient>
<linearGradient id="paint91_linear_796_2786" x1="325.177" y1="248.898" x2="334.494" y2="286.538" gradientUnits="userSpaceOnUse">
<stop stop-color="#101719"/>
<stop offset="1" stop-color="#243137"/>
</linearGradient>
<linearGradient id="paint92_linear_796_2786" x1="318.227" y1="195.833" x2="318.227" y2="199.999" gradientUnits="userSpaceOnUse">
<stop stop-color="#FFD1AE"/>
<stop offset="1" stop-color="#F9AC78"/>
</linearGradient>
<linearGradient id="paint93_linear_796_2786" x1="313.405" y1="195.833" x2="313.405" y2="199.999" gradientUnits="userSpaceOnUse">
<stop stop-color="#FFD1AE"/>
<stop offset="1" stop-color="#F9AC78"/>
</linearGradient>
<linearGradient id="paint94_linear_796_2786" x1="309.543" y1="178.663" x2="304.905" y2="173.607" gradientUnits="userSpaceOnUse">
<stop stop-color="#FFD1AE"/>
<stop offset="1" stop-color="#F9AC78"/>
</linearGradient>
<linearGradient id="paint95_linear_796_2786" x1="296.636" y1="180.222" x2="296.636" y2="262.446" gradientUnits="userSpaceOnUse">
<stop stop-color="#0B490D"/>
<stop offset="1" stop-color="#0F6315"/>
</linearGradient>
<linearGradient id="paint96_linear_796_2786" x1="296.616" y1="165.859" x2="296.616" y2="294.123" gradientUnits="userSpaceOnUse">
<stop stop-color="#0C4C0D"/>
<stop offset="1" stop-color="#106A14"/>
</linearGradient>
<linearGradient id="paint97_linear_796_2786" x1="325.522" y1="178.718" x2="330.159" y2="173.679" gradientUnits="userSpaceOnUse">
<stop stop-color="#FFD1AE"/>
<stop offset="1" stop-color="#F9AC78"/>
</linearGradient>
<linearGradient id="paint98_linear_796_2786" x1="323.499" y1="180.239" x2="323.499" y2="262.445" gradientUnits="userSpaceOnUse">
<stop stop-color="#0B490D"/>
<stop offset="1" stop-color="#0F6415"/>
</linearGradient>
<linearGradient id="paint99_linear_796_2786" x1="330.36" y1="165.859" x2="330.36" y2="294.104" gradientUnits="userSpaceOnUse">
<stop stop-color="#0C4C0C"/>
<stop offset="1" stop-color="#0E6215"/>
</linearGradient>
<linearGradient id="paint100_linear_796_2786" x1="306.617" y1="167.742" x2="306.617" y2="282.785" gradientUnits="userSpaceOnUse">
<stop stop-color="#0B490D"/>
<stop offset="1" stop-color="#0E6216"/>
</linearGradient>
<linearGradient id="paint101_linear_796_2786" x1="309.652" y1="190.726" x2="309.652" y2="214.017" gradientUnits="userSpaceOnUse">
<stop stop-color="#FFD1AE"/>
<stop offset="1" stop-color="#F9AC78"/>
</linearGradient>
<linearGradient id="paint102_linear_796_2786" x1="315.084" y1="191.07" x2="311.796" y2="214.395" gradientUnits="userSpaceOnUse">
<stop stop-color="#FFD1AE"/>
<stop offset="1" stop-color="#F9AC78"/>
</linearGradient>
<linearGradient id="paint103_linear_796_2786" x1="311.836" y1="206.102" x2="311.836" y2="208.457" gradientUnits="userSpaceOnUse">
<stop stop-color="#101719"/>
<stop offset="1" stop-color="#243137"/>
</linearGradient>
<linearGradient id="paint104_linear_796_2786" x1="309.019" y1="189.223" x2="309.019" y2="203.621" gradientUnits="userSpaceOnUse">
<stop stop-color="#101719"/>
<stop offset="1" stop-color="#243137"/>
</linearGradient>
<clipPath id="clip0_796_2786">
<rect width="410" height="315" fill="white" transform="matrix(-1 0 0 1 410 0)"/>
</clipPath>
</defs>
</svg>
