<svg width="392" height="301" viewBox="0 0 392 301" fill="none" xmlns="http://www.w3.org/2000/svg">
<g clip-path="url(#clip0_700_5523)">
<path d="M199.549 296.515C125.862 296.515 66.1299 236.624 66.1299 162.752C66.1299 88.8787 125.862 28.9889 199.549 28.9889C273.233 28.9889 332.969 88.8805 332.969 162.752C332.969 236.625 273.231 296.515 199.549 296.515Z" fill="#EAEAEA"/>
<path style="mix-blend-mode:multiply" opacity="0.3" d="M0.0246891 292.201C4.17096 291.524 8.83334 291.972 13.0383 291.972C12.8864 294.871 13.5095 297.838 14.9181 300.168C10.8305 300.168 5.30158 301.285 2.10644 298.072C0.556339 296.51 -0.144475 294.32 0.0246891 292.199V292.201ZM2.10644 287.57C5.30158 284.359 10.8305 285.465 14.9181 285.465C13.7805 287.341 13.1557 289.63 13.0383 291.972C8.83162 291.972 4.17096 291.524 0.0246891 292.201C0.167961 290.486 0.851514 288.821 2.10644 287.57ZM13.0383 291.972C51.3386 291.972 323.594 291.972 362.626 291.972C363.055 294.93 362.752 297.838 361.445 300.168C322.943 300.168 53.41 300.168 14.9164 300.168C13.5095 297.836 12.8846 294.869 13.0366 291.972H13.0383ZM14.9181 285.465C53.4117 285.465 322.945 285.465 361.447 285.465C361.935 287.35 362.298 289.657 362.627 291.972C323.596 291.972 51.3403 291.972 13.04 291.972C13.1574 289.63 13.7822 287.341 14.9198 285.465H14.9181ZM362.626 291.972C368.164 291.972 373.651 291.972 379.087 291.972C381.051 291.972 382.998 291.99 384.288 292.201C384.457 294.322 383.764 296.51 382.214 298.074C380.916 299.367 379.139 300.17 377.174 300.17C371.931 300.17 366.689 300.17 361.447 300.17C362.754 297.838 363.057 294.932 362.627 291.974L362.626 291.972ZM361.445 285.465C366.687 285.465 371.93 285.465 377.172 285.465C379.137 285.465 380.914 286.268 382.212 287.57C383.453 288.821 384.151 290.486 384.286 292.201C382.996 291.99 381.049 291.972 379.085 291.972C373.649 291.972 368.162 291.972 362.625 291.972C362.296 289.657 361.934 287.35 361.444 285.465H361.445Z" fill="url(#paint0_linear_700_5523)"/>
<path style="mix-blend-mode:multiply" d="M96.2524 96.1544C105.567 88.5861 127.3 93.3401 137.957 93.6153C138.168 160.686 138.285 227.759 138.548 294.829C124.446 294.829 110.354 294.829 96.2524 294.829C96.2524 228.604 96.2524 162.38 96.2524 96.1544ZM100.051 50.8482C102.398 48.4946 105.635 47.0408 109.199 47.0408C119.479 47.0408 129.756 47.0408 140.03 47.0408C132.946 56.6908 137.919 82.3126 137.957 93.6153C127.3 93.3401 105.565 88.5878 96.2524 96.1544C96.2524 84.109 96.2524 72.0621 96.2524 60.0205C96.2524 56.4416 97.7061 53.1966 100.051 50.8482ZM137.957 93.6153C178.983 94.6626 219.92 94.0462 260.921 93.7468C260.798 160.817 260.781 227.76 260.669 294.829C219.962 294.829 179.253 294.829 138.548 294.829C138.287 227.759 138.168 160.686 137.957 93.6153ZM140.03 47.0408C179.746 47.0408 219.461 47.0408 259.176 47.0408C265.245 57.9161 260.967 81.6031 260.921 93.7451C219.92 94.0445 178.983 94.6626 137.957 93.6136C137.919 82.3109 132.946 56.6908 140.03 47.0391V47.0408ZM260.921 93.7451C271.637 93.6655 282.358 93.6101 293.085 93.6101C296.763 93.6014 300.257 94.5827 302.841 96.1544C302.841 162.38 302.841 228.604 302.841 294.829C288.787 294.829 274.727 294.829 260.669 294.829C260.783 227.759 260.8 160.815 260.921 93.7468V93.7451ZM259.176 47.0408C269.417 47.0408 279.656 47.0408 289.893 47.0408C293.462 47.0408 296.7 48.4946 299.042 50.8482C301.384 53.1966 302.839 56.4416 302.839 60.0205C302.839 72.0621 302.839 84.1073 302.839 96.1544C300.255 94.5827 296.762 93.6014 293.083 93.6101C282.358 93.6101 271.637 93.6655 260.919 93.7451C260.966 81.6013 265.243 57.9161 259.174 47.0408H259.176Z" fill="url(#paint1_linear_700_5523)"/>
<path d="M294.211 290.503C294.211 292.877 292.269 294.829 289.895 294.829H109.2C106.831 294.829 104.884 292.877 104.884 290.503V60.0205C104.884 57.6409 106.831 55.694 109.2 55.694H289.895C292.269 55.694 294.211 57.6409 294.211 60.0205V290.503Z" fill="url(#paint2_linear_700_5523)"/>
<path style="mix-blend-mode:multiply" d="M110.838 246.003C118.924 251.945 138.168 248.246 147.287 247.997C147.287 258.078 143.15 279.399 149.496 288.364C140.923 288.364 132.351 288.364 123.784 288.364C120.215 288.364 116.978 286.91 114.635 284.557C112.293 282.208 110.838 278.964 110.838 275.384C110.838 265.591 110.838 255.797 110.838 246.002V246.003ZM110.838 99.3612C118.972 92.9767 138.049 96.9741 147.287 97.2268C147.287 147.481 147.287 197.744 147.287 247.997C138.168 248.246 118.924 251.943 110.838 246.003C110.838 197.122 110.838 148.243 110.838 99.3612ZM114.635 65.9653C116.978 63.6116 120.215 62.1579 123.784 62.1579C132.351 62.1579 140.923 62.1579 149.496 62.1579C143.864 70.0928 147.287 88.2954 147.287 97.2268C138.049 96.9741 118.972 92.9767 110.838 99.3612C110.838 91.2859 110.838 83.2126 110.838 75.1376C110.838 71.5586 112.292 68.3137 114.635 65.9653ZM147.287 247.997C181.255 247.071 215.297 248.061 249.273 247.933C249.282 258.243 249.282 268.555 249.282 278.873C249.282 282.558 248.735 285.908 247.183 288.362C214.619 288.362 182.056 288.362 149.496 288.362C143.148 279.396 147.287 258.076 147.287 247.996V247.997ZM147.287 97.2268C181.078 98.1355 214.89 97.6319 248.7 97.3536C249.18 147.587 249.261 197.726 249.273 247.933C215.297 248.059 181.255 247.071 147.287 247.997C147.287 197.744 147.287 147.481 147.287 97.2268ZM149.496 62.1579C182.054 62.1579 214.619 62.1579 247.183 62.1579C251.103 71.9342 248.704 87.0943 248.7 97.3536C214.89 97.6319 181.078 98.1355 147.287 97.2268C147.287 88.2954 143.866 70.0928 149.496 62.1579ZM249.273 247.933C260.576 247.921 277.294 251.225 288.255 246.002C288.255 255.795 288.255 265.589 288.255 275.384C288.255 278.964 286.805 282.208 284.463 284.557C282.12 286.91 278.884 288.364 275.309 288.364C265.936 288.364 256.556 288.364 247.183 288.364C248.733 285.91 249.282 282.559 249.282 278.875C249.282 268.557 249.282 258.244 249.273 247.935V247.933ZM248.7 97.3536C258.679 97.2684 268.667 97.2097 278.647 97.2097C282.369 97.2097 285.761 97.8515 288.255 99.3612C288.255 148.243 288.255 197.122 288.255 246.003C277.294 251.226 260.576 247.921 249.273 247.935C249.261 197.728 249.18 147.588 248.7 97.3555V97.3536ZM247.183 62.1579C256.556 62.1579 265.936 62.1579 275.309 62.1579C278.882 62.1579 282.118 63.6116 284.463 65.9653C286.805 68.3137 288.255 71.5586 288.255 75.1376C288.255 83.2126 288.255 91.2859 288.255 99.3612C285.761 97.8515 282.368 97.2097 278.647 97.2097C268.668 97.2097 258.68 97.2684 248.7 97.3536C248.704 87.0943 251.103 71.9342 247.183 62.1579Z" fill="url(#paint3_linear_700_5523)"/>
<path d="M279.624 275.384C279.624 277.763 277.686 279.71 275.31 279.71H123.784C121.41 279.71 119.469 277.763 119.469 275.384V75.1376C119.469 72.758 121.41 70.8109 123.784 70.8109H275.31C277.686 70.8109 279.624 72.758 279.624 75.1376V275.384Z" fill="#F5F5F5"/>
<path style="mix-blend-mode:multiply" d="M151 67.7684C157.031 69.1079 163.107 69.551 169.226 69.0958C168.604 75.2048 169.276 81.2136 171.249 87.1116C165.35 87.1116 159.602 87.5165 155.101 83.0048C150.836 78.7284 151.001 73.3929 151.001 67.7684H151ZM151 55.7562C157.19 55.7441 163.376 55.7354 169.568 55.7267C169.437 60.1848 169.337 64.6412 169.226 69.0958C163.107 69.5527 157.031 69.1079 151 67.7684C151 63.7637 151 59.7574 151 55.7562ZM169.226 69.0958C186.261 69.1754 208.15 72.4255 227.476 71.3266C227.374 77.3976 227.859 82.1602 224.88 87.1116C207.004 87.1116 189.126 87.1116 171.249 87.1116C169.276 81.2136 168.604 75.2048 169.226 69.0958ZM169.568 55.7267C188.503 55.7008 207.442 55.6921 226.373 55.6921C226.356 59.811 227.493 67.2389 227.478 71.3248C208.151 72.4237 186.263 69.1737 169.228 69.0941C169.337 64.6412 169.439 60.1831 169.57 55.725L169.568 55.7267ZM227.476 71.3266C234.859 70.9077 241.873 69.8556 248.097 67.7476C248.097 73.3791 248.269 78.7197 243.997 83.0048C238.84 88.1759 231.548 87.1116 224.882 87.1116C227.861 82.1602 227.376 77.3976 227.478 71.3266H227.476ZM226.371 55.6939C233.611 55.6939 240.853 55.6939 248.092 55.6939C248.092 59.7332 248.096 63.7464 248.096 67.7476C241.871 69.8556 234.859 70.9077 227.474 71.3266C227.491 67.2406 226.354 59.8128 226.369 55.6939H226.371Z" fill="url(#paint4_linear_700_5523)"/>
<path d="M239.467 55.7563V70.8109V73.1005C239.467 76.0496 237.06 78.4585 234.118 78.4585H203.732H195.362H164.977C162.036 78.4585 159.629 76.0496 159.629 73.1005V70.8109V55.7563C159.629 50.9953 163.511 47.1032 168.26 47.1032H189.769V41.2225C189.769 35.8109 194.149 31.4202 199.547 31.4202C204.944 31.4202 209.324 35.8109 209.324 41.2225V47.1032H230.833C235.582 47.1032 239.465 50.9953 239.465 55.7563H239.467Z" fill="url(#paint5_linear_700_5523)"/>
<path d="M204.472 41.2226C204.472 43.9484 202.267 46.1584 199.549 46.1584C196.83 46.1584 194.625 43.9484 194.625 41.2226C194.625 38.4969 196.83 36.2869 199.549 36.2869C202.267 36.2869 204.472 38.4969 204.472 41.2226Z" fill="#F5F5F5"/>
<path d="M158.152 258.523L136.051 236.374L143.603 228.806L158.152 243.392L181.819 219.127L189.371 226.695L158.152 258.523Z" fill="url(#paint6_linear_700_5523)"/>
<path d="M158.152 213.637L136.051 191.489L143.603 183.92L158.152 198.507L181.819 174.238L189.371 181.806L158.152 213.639V213.637Z" fill="url(#paint7_linear_700_5523)"/>
<path d="M248.181 92.115C248.181 93.027 247.435 93.7799 246.526 93.7799H204.106C203.196 93.7799 202.45 93.027 202.45 92.115V90.6958C202.45 89.7786 203.196 89.031 204.106 89.031H246.526C247.435 89.031 248.181 89.7786 248.181 90.6958V92.115Z" fill="url(#paint8_linear_700_5523)"/>
<path d="M264.443 100.624C264.443 101.536 263.698 102.28 262.788 102.28H204.104C203.194 102.28 202.448 101.536 202.448 100.624V99.1965C202.448 98.2841 203.194 97.5372 204.104 97.5372H262.788C263.698 97.5372 264.443 98.2841 264.443 99.1965V100.624Z" fill="url(#paint9_linear_700_5523)"/>
<path d="M253.941 109.129C253.941 110.041 253.199 110.788 252.289 110.788H204.104C203.194 110.788 202.448 110.041 202.448 109.129V107.704C202.448 106.793 203.194 106.045 204.104 106.045H252.289C253.199 106.045 253.941 106.793 253.941 107.704V109.129Z" fill="url(#paint10_linear_700_5523)"/>
<path d="M241.182 117.634C241.182 118.547 240.436 119.299 239.526 119.299H204.106C203.196 119.299 202.45 118.547 202.45 117.634V116.211C202.45 115.298 203.196 114.55 204.106 114.55H239.526C240.436 114.55 241.182 115.298 241.182 116.211V117.634Z" fill="url(#paint11_linear_700_5523)"/>
<path d="M247.873 136.546C247.873 137.459 247.127 138.211 246.218 138.211H203.797C202.887 138.211 202.142 137.459 202.142 136.546V135.127C202.142 134.21 202.887 133.462 203.797 133.462H246.218C247.127 133.462 247.873 134.21 247.873 135.127V136.546Z" fill="url(#paint12_linear_700_5523)"/>
<path d="M264.135 145.055C264.135 145.968 263.389 146.712 262.479 146.712H203.796C202.885 146.712 202.14 145.968 202.14 145.055V143.628C202.14 142.716 202.885 141.968 203.796 141.968H262.479C263.389 141.968 264.135 142.716 264.135 143.628V145.055Z" fill="url(#paint13_linear_700_5523)"/>
<path d="M253.633 153.56C253.633 154.472 252.891 155.219 251.981 155.219H203.796C202.885 155.219 202.14 154.472 202.14 153.56V152.136C202.14 151.223 202.885 150.475 203.796 150.475H251.981C252.891 150.475 253.633 151.223 253.633 152.136V153.56Z" fill="url(#paint14_linear_700_5523)"/>
<path d="M240.873 162.066C240.873 162.978 240.128 163.731 239.218 163.731H203.797C202.887 163.731 202.142 162.978 202.142 162.066V160.641C202.142 159.73 202.887 158.982 203.797 158.982H239.218C240.128 158.982 240.873 159.73 240.873 160.641V162.066Z" fill="url(#paint15_linear_700_5523)"/>
<path d="M247.873 181.98C247.873 182.893 247.127 183.645 246.218 183.645H203.797C202.887 183.645 202.142 182.893 202.142 181.98V180.561C202.142 179.644 202.887 178.896 203.797 178.896H246.218C247.127 178.896 247.873 179.644 247.873 180.561V181.98Z" fill="url(#paint16_linear_700_5523)"/>
<path d="M264.135 190.489C264.135 191.402 263.389 192.146 262.479 192.146H203.796C202.885 192.146 202.14 191.402 202.14 190.489V189.062C202.14 188.15 202.885 187.402 203.796 187.402H262.479C263.389 187.402 264.135 188.15 264.135 189.062V190.489Z" fill="url(#paint17_linear_700_5523)"/>
<path d="M253.633 198.994C253.633 199.906 252.891 200.653 251.981 200.653H203.796C202.885 200.653 202.14 199.906 202.14 198.994V197.57C202.14 196.657 202.885 195.909 203.796 195.909H251.981C252.891 195.909 253.633 196.657 253.633 197.57V198.994Z" fill="url(#paint18_linear_700_5523)"/>
<path d="M240.873 207.5C240.873 208.412 240.128 209.165 239.218 209.165H203.797C202.887 209.165 202.142 208.412 202.142 207.5V206.075C202.142 205.164 202.887 204.416 203.797 204.416H239.218C240.128 204.416 240.873 205.164 240.873 206.075V207.5Z" fill="url(#paint19_linear_700_5523)"/>
<path d="M247.873 227.414C247.873 228.326 247.127 229.079 246.218 229.079H203.797C202.887 229.079 202.142 228.326 202.142 227.414V225.995C202.142 225.078 202.887 224.33 203.797 224.33H246.218C247.127 224.33 247.873 225.078 247.873 225.995V227.414Z" fill="url(#paint20_linear_700_5523)"/>
<path d="M264.135 235.923C264.135 236.836 263.389 237.58 262.479 237.58H203.796C202.885 237.58 202.14 236.836 202.14 235.923V234.496C202.14 233.584 202.885 232.836 203.796 232.836H262.479C263.389 232.836 264.135 233.584 264.135 234.496V235.923Z" fill="url(#paint21_linear_700_5523)"/>
<path d="M253.633 244.428C253.633 245.34 252.891 246.087 251.981 246.087H203.796C202.885 246.087 202.14 245.34 202.14 244.428V243.004C202.14 242.091 202.885 241.343 203.796 241.343H251.981C252.891 241.343 253.633 242.091 253.633 243.004V244.428Z" fill="url(#paint22_linear_700_5523)"/>
<path d="M240.873 252.934C240.873 253.846 240.128 254.599 239.218 254.599H203.797C202.887 254.599 202.142 253.846 202.142 252.934V251.509C202.142 250.598 202.887 249.85 203.797 249.85H239.218C240.128 249.85 240.873 250.598 240.873 251.509V252.934Z" fill="url(#paint23_linear_700_5523)"/>
<path d="M87.42 158.693L65.3198 136.545L72.8718 128.982L87.42 143.568L111.087 119.299L118.64 126.862L87.42 158.695V158.693Z" fill="url(#paint24_linear_700_5523)"/>
<path d="M111.17 7.97561C112.376 2.9395 118.84 2.11573 122.769 4.67185C124.138 5.56831 125.9 7.98426 127.599 11.0007C127.599 21.8206 116.898 17.6982 114.656 19.3198C113.558 15.6249 112.396 11.8435 111.17 7.97561Z" fill="url(#paint25_linear_700_5523)"/>
<path d="M114.888 48.5948C117.046 50.9191 118.8 58.2361 111.655 57.6286C104.512 57.0195 99.7502 55.4913 99.379 51.0073C99.1315 48.0186 99.7153 46.5839 101.132 46.7016C104.234 46.5233 112.731 46.2706 114.888 48.5948Z" fill="url(#paint26_linear_700_5523)"/>
<path d="M106.483 52.6013C106.532 52.7414 103.292 52.603 96.7646 52.1824C96.3216 51.4244 96.3934 50.4916 96.9838 49.3858C97.6733 48.093 99.6805 47.4457 103.006 47.4457C105.273 50.7408 106.433 52.4594 106.483 52.6013Z" fill="url(#paint27_linear_700_5523)"/>
<path d="M103.006 47.4458C106.36 47.3957 126.442 42.6762 130.007 44.4034C129.899 48.19 131.372 52.0925 122.589 53.8681C109.167 56.6026 102.951 55.5503 102.525 55.2112C102.554 55.2112 102.579 55.1851 102.621 55.173C102.487 55.1437 102.469 55.173 102.525 55.2112C102.469 55.2284 102.41 55.2613 102.36 55.2786C102.692 50.0556 102.908 47.4458 103.006 47.4458Z" fill="url(#paint28_linear_700_5523)"/>
<path d="M104.494 89.2836C104.313 88.4546 105.894 87.3989 105.85 85.9539C105.715 81.8125 107.891 80.0006 107.418 78.4239C107.166 77.6712 105.529 73.3619 103.717 68.613C101.737 63.8383 98.5507 56.3308 97.2935 53.3681C97.0829 53.0427 96.9053 52.6291 96.7617 52.1808L104.44 52.0199C104.735 54.3475 106.203 57.66 106.762 58.8437C107.394 60.1572 109.484 68.0126 109.776 72.0017C110.316 75.6428 110.603 78.4448 110.828 79.0954C111.537 81.0129 113.214 81.7779 110.841 83.6123C108.957 85.0574 108.759 88.8561 107.297 89.7094C105.83 90.5504 104.692 90.2423 104.49 89.2819L104.494 89.2836Z" fill="url(#paint29_linear_700_5523)"/>
<path d="M113.313 83.858C113.023 85.6614 112.842 86.8659 112.769 87.475C112.734 87.7623 112.684 88.3266 112.617 89.1659L111.875 89.4705C111.894 86.5405 111.269 85.7825 110.001 87.1982C108.733 88.6172 108.785 88.2071 110.156 85.9643L113.313 83.8598V83.858Z" fill="url(#paint30_linear_700_5523)"/>
<path d="M111.008 79.329C112.526 82.0132 113.294 83.524 113.313 83.858C113.333 84.3565 111.37 84.9051 110.148 86.8832C108.926 88.8734 108.277 90.7286 108.075 90.9899C106.693 92.7812 103.055 92.2447 102.883 91.7255C102.494 90.5261 105.415 87.2847 105.099 87.8177C104.433 88.9789 106.035 89.7283 107.19 86.03C108.075 83.2246 108.016 83.216 110.11 81.1029C110.805 80.4072 111.103 79.8154 111.008 79.329Z" fill="url(#paint31_linear_700_5523)"/>
<path d="M113.385 53.7503C113.435 53.8905 112.063 54.7835 109.269 56.4294C106.277 54.2574 104.87 52.551 105.049 51.3084C105.235 50.0519 106.857 49.1486 109.912 48.5965C112.179 51.8916 113.337 53.6101 113.385 53.7521V53.7503Z" fill="url(#paint32_linear_700_5523)"/>
<path d="M109.913 48.5948C113.267 48.5447 133.344 43.8253 136.914 45.5525C136.8 49.339 138.276 53.2416 129.493 55.0172C116.075 57.7516 109.854 56.6993 109.433 56.3602C109.459 56.3602 109.483 56.3342 109.526 56.3221C109.391 56.2927 109.38 56.3221 109.433 56.3602C109.374 56.3775 109.316 56.4103 109.27 56.4277C109.597 51.2046 109.813 48.5948 109.915 48.5948H109.913Z" fill="url(#paint33_linear_700_5523)"/>
<path d="M92.0536 86.8919C92.3367 86.0941 94.2321 86.0388 94.9624 84.7875C97.032 81.1965 99.8336 80.8158 100.255 79.227C100.439 78.45 101.325 73.9279 102.29 68.9351C103.128 63.8349 104.38 55.7737 104.874 52.5927C104.865 52.2033 104.932 51.7604 105.051 51.3087L111.656 55.2389C110.682 57.3728 110.177 60.9604 110.03 62.2618C109.875 63.7102 107.506 71.486 105.65 75.0303C104.192 78.4015 102.953 80.9369 102.806 81.6084C102.397 83.6107 103.417 85.1526 100.432 85.4486C98.0729 85.677 95.9014 88.7956 94.2113 88.7437C92.5249 88.6796 91.7171 87.8144 92.0536 86.8937V86.8919Z" fill="url(#paint34_linear_700_5523)"/>
<path d="M102.4 86.9594C101.205 88.3405 100.418 89.2698 100.035 89.7474C99.8516 89.9724 99.5115 90.4241 99.0147 91.0991L98.2222 90.9589C99.7845 88.4824 99.6523 87.5097 97.8273 88.0393C96.0062 88.5741 96.2688 88.2539 98.6114 87.0753L102.4 86.9577V86.9594Z" fill="url(#paint35_linear_700_5523)"/>
<path d="M102.832 81.894C102.703 84.9779 102.559 86.667 102.4 86.9595C102.16 87.399 100.195 86.8245 98.119 87.8559C96.0334 88.896 94.5022 90.1213 94.195 90.2389C92.0752 91.0334 89.272 88.6503 89.3997 88.1173C89.7035 86.892 93.8929 85.684 93.3406 85.9713C92.1651 86.6047 93.1299 88.0878 96.0589 85.5611C98.2928 83.6471 98.2465 83.609 101.132 82.9288C102.087 82.7038 102.655 82.3578 102.834 81.894H102.832Z" fill="url(#paint36_linear_700_5523)"/>
<path d="M136.791 45.5872C137.992 51.5958 137.87 54.1139 127.136 56.4035C119.979 57.9299 114.82 58.3383 111.658 57.6288C112.795 56.7618 113.374 55.7009 113.389 54.448C113.435 51.608 112.293 49.7788 108.752 48.5967C106.388 47.8076 103.847 47.1776 101.133 46.7035C100.999 46.4611 103.448 46.0043 108.483 45.3345C113.518 44.6647 117.58 43.969 120.672 43.2474C124.911 42.9185 135.591 39.5802 136.791 45.5889V45.5872Z" fill="url(#paint37_linear_700_5523)"/>
<path d="M88.4851 24.8717C87.0921 24.3508 85.9631 24.131 85.1018 24.2123C83.7744 24.33 81.2662 23.4474 80.7691 22.1425C80.272 20.7996 81.6788 18.5048 82.5609 18.2088C83.4291 17.9008 85.0932 19.5362 85.9907 20.4984C86.5449 21.0955 87.7981 21.4901 89.7538 21.6821L88.4851 24.8717Z" fill="url(#paint38_linear_700_5523)"/>
<path d="M103.037 24.3939C107.893 22.7793 112.595 18.7919 116.616 17.288C120.367 15.8845 122.161 21.3273 117.686 23.6896C114.897 25.1675 111.154 26.9241 106.45 28.9575C102.067 29.7346 100.862 25.1259 103.035 24.3939H103.037Z" fill="url(#paint39_linear_700_5523)"/>
<path d="M87.1452 24.7902C86.6307 24.323 86.6342 23.6152 87.1538 22.6684C87.5301 21.9866 88.0065 21.4675 88.5831 21.1092C92.6465 21.862 96.7255 22.5819 100.821 23.2724C107.025 24.3039 110.119 24.0547 108.879 26.4499C108.356 27.4519 107.678 28.9592 105.035 29.0475C103.508 29.0873 97.5435 27.6665 87.1452 24.7885V24.7902Z" fill="url(#paint40_linear_700_5523)"/>
<path d="M117.306 17.1599C117.811 17.0509 118.393 16.8986 119.098 16.7463C119.186 16.1717 118.958 16.1164 118.656 15.2338C117.67 15.4865 116.481 15.5972 115.967 15.3307C114.152 14.4204 112.319 11.378 110.47 6.19994C110.512 5.26194 113.576 2.39776 116.841 3.0104C119.601 3.52612 121.721 6.45434 122.017 9.63172C122.038 9.64904 122.058 9.65775 122.084 9.6993C122.169 11.2602 122.482 12.7157 123.028 14.0673C123.517 15.284 124.562 16.0403 124.744 16.4798C125.903 16.5854 127.378 16.113 128.39 17.2621C130.995 20.2318 130.387 25.1762 131.205 31.3493C132.032 37.7041 127.589 31.0032 129.928 36.5671C130.724 40.982 125.119 45.6304 120.66 44.3117C120.981 40.0232 123.066 41.6828 121.099 35.3799C120.281 32.7857 114.947 32.1351 114.027 28.4765C113.23 25.3665 114.325 21.5955 117.304 17.1617L117.306 17.1599Z" fill="url(#paint41_linear_700_5523)"/>
<path style="mix-blend-mode:multiply" d="M118.853 16.8017C119.008 18.1498 116.792 20.7147 116.464 21.6145C116.035 22.7897 119.279 22.7049 120.821 20.9639C122.371 19.2315 123.835 17.2967 122.961 16.1475C122.085 14.9898 119.767 14.3217 118.655 15.2355C117.669 15.4882 116.48 15.5989 115.966 15.3324C115.872 15.2857 115.781 15.2182 115.687 15.1507C116.325 14.4065 119.287 13.9254 119.825 13.3595C120.466 12.6915 119.784 11.7119 119.884 9.68368C119.986 7.65539 120.95 7.30407 120.389 6.54433C119.834 5.78805 120.229 7.55328 116.984 8.57608C114.286 9.43447 111.472 7.06698 111.581 7.64154C111.69 8.21264 112.028 9.89306 112.032 9.91038C111.405 8.59166 110.884 7.356 110.467 6.19994C110.509 5.26194 113.573 2.39776 116.838 3.0104C119.599 3.52612 121.719 6.45434 122.014 9.63172C122.035 9.64904 122.055 9.65775 122.081 9.6992C122.166 11.2602 122.479 12.7157 123.025 14.0673C123.514 15.284 124.56 16.0403 124.741 16.4798C125.9 16.5854 127.375 16.113 128.387 17.2621C129.334 18.3472 129.854 19.7005 130.179 21.2754C127.317 23.9959 121.569 29.1515 120.793 29.4716C120.001 29.8004 116.233 29.6152 114.387 29.5218C114.253 29.2085 114.127 28.8797 114.026 28.4748C113.229 25.3648 114.324 21.5938 117.303 17.1599C117.741 17.0665 118.273 16.9315 118.849 16.8L118.853 16.8017Z" fill="url(#paint42_linear_700_5523)"/>
<path d="M133.621 33.4951C134.77 37.9393 134.899 41.8955 135.51 43.2211C135.928 44.1384 133.322 41.9993 127.262 45.0124C122.362 47.4456 118.189 44.9951 118.816 43.4409C119.439 41.8903 120.215 42.2036 120.046 38.9033C119.891 35.6203 118.942 35.5822 114.948 30.7226C112.296 27.4777 112.99 22.9591 117.029 17.1685C117.074 17.1597 117.485 17.0525 118.26 16.8465C117.314 18.1757 116.591 19.3784 116.093 20.4548C115.327 22.073 115.123 23.1079 117.606 23.2516C121.024 23.4714 122.363 20.0326 124.091 18.1047C125.822 16.1699 127.202 15.8739 128.854 17.3225C130.868 19.105 132.469 29.0561 133.619 33.4916L133.621 33.4951Z" fill="url(#paint43_linear_700_5523)"/>
<path d="M111.248 2.97235C119.987 -4.82235 129.208 4.4555 131.801 10.8692C130.182 14.1141 129.673 14.5156 127.216 17.0596C124.182 15.7668 122.926 14.6593 121.962 13.3163C121 11.9768 119.922 10.3933 120.444 9.48812C120.953 8.59168 121.22 6.84375 120.233 6.14631C119.885 5.89018 119.384 6.07882 118.729 6.71222L117.966 7.64676C118.195 7.62946 117.263 7.69868 115.168 7.85443C112.019 8.09153 111.121 6.60839 111.063 7.03066C111.029 7.31448 111.066 7.63118 111.171 7.97731C109.552 6.13593 109.579 4.46761 111.248 2.97409V2.97235Z" fill="url(#paint44_linear_700_5523)"/>
<path d="M111.82 2.62971C112.45 2.29397 113.477 2.44972 114.904 3.09525C116.614 3.87057 118.096 4.91931 119.355 6.24324L118.597 7.17777C117.747 6.41976 116.474 5.75347 114.77 5.17891C113.064 4.60434 111.516 4.75836 110.127 5.63925C109.564 3.85672 110.13 2.85296 111.82 2.63144V2.62971Z" fill="url(#paint45_linear_700_5523)"/>
<path d="M84.1949 142.431H82.8589V21.5194H84.1949V142.431Z" fill="url(#paint46_linear_700_5523)"/>
<path d="M83.5291 22.9784C82.7247 22.9784 82.0757 22.3242 82.0757 21.5212C82.0757 20.7182 82.7247 20.064 83.5291 20.064C84.3335 20.064 84.9825 20.7182 84.9825 21.5212C84.9825 22.3242 84.3335 22.9784 83.5291 22.9784Z" fill="url(#paint47_linear_700_5523)"/>
<path d="M83.5291 143.89C82.7247 143.89 82.0757 143.239 82.0757 142.433C82.0757 141.626 82.7247 140.976 83.5291 140.976C84.3335 140.976 84.9825 141.626 84.9825 142.433C84.9825 143.239 84.3335 143.89 83.5291 143.89Z" fill="url(#paint48_linear_700_5523)"/>
<path d="M99.1862 137.538H97.8506V28.2896H99.1862V137.538Z" fill="url(#paint49_linear_700_5523)"/>
<path d="M98.5195 29.7432C97.71 29.7432 97.061 29.0925 97.061 28.2895C97.061 27.483 97.71 26.8271 98.5195 26.8271C99.3205 26.8271 99.9694 27.4813 99.9694 28.2895C99.9694 29.0925 99.3205 29.7432 98.5195 29.7432Z" fill="url(#paint50_linear_700_5523)"/>
<path d="M98.5195 138.998C97.71 138.998 97.061 138.346 97.061 137.54C97.061 136.734 97.71 136.083 98.5195 136.083C99.3205 136.083 99.9694 136.734 99.9694 137.54C99.9694 138.346 99.3205 138.998 98.5195 138.998Z" fill="url(#paint51_linear_700_5523)"/>
<path d="M103.518 31.3269C102.125 30.8059 100.994 30.5861 100.129 30.6675C98.8058 30.7852 96.2942 29.9025 95.8021 28.5976C95.2995 27.2547 96.7117 24.9599 97.5939 24.664C98.462 24.3559 100.123 25.9913 101.024 26.9536C101.574 27.5507 102.828 27.9452 104.783 28.1373L103.519 31.3269H103.518Z" fill="url(#paint52_linear_700_5523)"/>
<path d="M117.711 32.3791C120.754 28.255 122.304 22.2723 124.724 18.7228C126.987 15.4051 131.581 18.8162 129.276 23.3366C127.854 26.1541 125.803 29.7538 123.124 34.1357C119.989 37.301 116.356 34.2291 117.713 32.3774L117.711 32.3791Z" fill="url(#paint53_linear_700_5523)"/>
<path d="M102.177 31.2472C101.66 30.78 101.662 30.0722 102.185 29.1255C102.561 28.4436 103.036 27.9245 103.609 27.5662C107.672 28.319 111.752 29.0389 115.848 29.7295C122.052 30.761 125.145 30.5117 123.909 32.9069C123.383 33.909 122.707 35.4163 120.065 35.5046C118.534 35.5444 112.57 34.1236 102.175 31.2455L102.177 31.2472Z" fill="url(#paint54_linear_700_5523)"/>
<path d="M300.769 214.34C299.302 214.088 298.153 214.08 297.322 214.322C296.041 214.686 293.411 214.282 292.685 213.089C291.948 211.863 292.908 209.346 293.722 208.888C294.519 208.424 296.453 209.724 297.515 210.503C298.167 210.993 299.473 211.149 301.435 210.969L300.769 214.34Z" fill="url(#paint55_linear_700_5523)"/>
<path d="M312.577 211.272C316.117 207.557 318.342 203.477 321.468 200.54C324.397 197.794 332.207 199.998 328.982 203.903C326.98 206.345 323.204 209.899 317.659 214.567C313.916 216.967 310.995 212.937 312.577 211.272Z" fill="url(#paint56_linear_700_5523)"/>
<path d="M299.443 214.516C298.848 214.144 298.719 213.449 299.059 212.429C299.301 211.689 299.672 211.088 300.173 210.63C302.359 210.674 305.528 210.657 309.681 210.58C315.969 210.444 316.972 206.54 318.308 210.5C318.668 211.569 318.806 215.058 315.606 215.27C314.079 215.371 308.692 215.12 299.445 214.516H299.443Z" fill="url(#paint57_linear_700_5523)"/>
<path style="mix-blend-mode:multiply" d="M387.633 155.592C364.497 165.951 361.34 169.316 358.673 170.785C358.884 162.85 357.728 162.006 354.328 156.915C356.144 155.906 357.956 154.899 359.773 153.886C360.468 152.171 361.74 150.691 363.456 149.737C363.54 149.691 363.634 149.636 363.722 149.594C365.362 148.682 367.28 148.368 369.12 148.682C372.744 146.662 376.23 144.352 380.461 146.206C384.229 147.862 385.758 152.223 387.633 155.594V155.592ZM379.238 177.741C377.417 178.747 375.45 179.071 373.608 178.781C369.672 180.97 365.731 183.166 361.799 185.359C359.683 176.946 358.63 172.283 358.671 170.787C361.338 169.316 364.495 165.953 387.631 155.594C388.432 157.039 389.233 158.493 390.041 159.929C392.295 164.019 390.825 169.195 386.749 171.46C385.472 172.175 384.191 172.885 382.91 173.595C382.211 175.315 380.945 176.792 379.235 177.742L379.238 177.741ZM358.673 170.785C336.421 182.15 320.214 192.904 299.032 204.51C297.12 205.557 295.038 206.542 292.82 207.497C292.98 201.464 296.907 191.771 295.213 189.831C314.919 178.858 334.617 167.885 354.328 156.913C357.728 162.004 358.884 162.849 358.673 170.783V170.785ZM361.801 185.357C345.694 194.327 329.582 203.293 313.48 212.254C313.302 212.373 313.126 212.486 312.939 212.588C307.908 215.385 302.888 218.191 297.862 220.989C296.192 218.133 292.61 214.314 292.821 207.499C295.038 206.544 297.12 205.558 299.033 204.512C320.214 192.904 336.423 182.152 358.675 170.787C358.633 172.283 359.687 176.948 361.802 185.359L361.801 185.357ZM292.821 207.497C281.357 212.424 271.35 219.421 261.213 218.39C263.809 214.33 266.406 210.265 268.997 206.204C269.452 204.839 270.374 203.665 271.698 202.93C279.536 198.562 287.375 194.201 295.213 189.833C296.907 191.773 292.98 201.464 292.82 207.499L292.821 207.497ZM297.862 220.987C293.824 223.235 289.787 225.483 285.754 227.73C284.726 228.301 283.608 228.554 282.515 228.498C282.298 228.489 282.085 228.472 281.874 228.448C276.547 228.519 271.211 228.583 265.884 228.65C260.162 228.735 258.61 222.474 261.215 218.388C271.352 219.42 281.359 212.423 292.823 207.495C292.612 214.31 296.194 218.13 297.863 220.985L297.862 220.987Z" fill="url(#paint58_linear_700_5523)"/>
<path d="M274.912 208.17L302.103 193.031L309.98 207.239L282.793 222.391L282.758 222.32L265.809 222.536L274.954 208.229L274.912 208.17Z" fill="#FFC3AE"/>
<path d="M375.91 151.892C377.048 151.259 378.489 151.681 379.121 152.818L384.708 162.904C385.332 164.036 384.927 165.489 383.794 166.114L376.297 170.28C375.168 170.913 373.727 170.499 373.095 169.368L367.507 159.278C366.879 158.138 367.288 156.693 368.426 156.068L375.91 151.894V151.892Z" fill="url(#paint59_linear_700_5523)"/>
<path style="mix-blend-mode:multiply" d="M373.636 153.167L375.911 151.892C377.048 151.259 378.49 151.681 379.122 152.818L384.709 162.904C385.332 164.036 384.929 165.489 383.795 166.114L381.506 167.386C382.635 166.753 383.048 165.308 382.424 164.176L376.823 154.09C376.195 152.95 374.753 152.536 373.633 153.169L373.636 153.167Z" fill="url(#paint60_linear_700_5523)"/>
<path d="M274.658 208.272L279.921 205.349L366.362 157.208L368.654 161.342L371.955 167.303L374.243 171.436L287.8 219.564L282.541 222.496L285.508 215.432L278.596 215.385L282.212 209.473L274.66 208.274L274.658 208.272Z" fill="url(#paint61_linear_700_5523)"/>
<path d="M273.033 222.451L265.809 222.536L269.703 216.443L273.033 222.451Z" fill="url(#paint62_linear_700_5523)"/>
<path style="mix-blend-mode:multiply" d="M282.211 209.471L368.654 161.338L371.954 167.3L285.506 215.428L278.594 215.382L282.211 209.469V209.471Z" fill="url(#paint63_linear_700_5523)"/>
<path d="M366.615 154.972C367.744 154.343 369.185 154.749 369.817 155.89L377.185 169.195C377.817 170.323 377.404 171.769 376.275 172.398L376.073 172.513C374.939 173.146 373.503 172.732 372.871 171.596L365.503 158.29C364.871 157.153 365.284 155.714 366.421 155.08L366.615 154.974V154.972Z" fill="#191801"/>
<path d="M312.541 256.752C313.304 253.478 313.578 232.804 316.111 229.746C319.751 230.772 323.883 230.279 323.482 239.252C322.888 252.968 319.984 258.481 319.988 258.532C314.998 257.445 312.516 256.851 312.541 256.752Z" fill="url(#paint64_linear_700_5523)"/>
<path d="M301.791 292.496C301.964 291.66 303.806 289.906 305.251 289.906C308.871 289.906 310.633 288.464 310.83 286.834C310.905 286.04 312.397 277.928 312.645 272.849C312.755 267.681 312.503 259.975 312.54 256.751C312.499 256.498 314.981 257.09 319.987 258.53C319.321 260.781 319.329 263.832 319.364 265.137C319.414 266.594 316.911 278.137 315.575 281.91C314.61 285.46 313.738 288.139 313.686 288.828C313.564 290.868 314.795 293.023 311.883 293.741C309.578 294.299 305.869 293.829 304.191 294.016C302.513 294.194 301.595 293.453 301.788 292.495L301.791 292.496Z" fill="url(#paint65_linear_700_5523)"/>
<path d="M322.754 254.546C321.98 257.182 321.389 259.075 320.985 260.224C320.603 262.527 320.086 265.56 319.435 269.32C318.78 273.081 317.382 278.446 315.242 285.413C314.871 285.677 314.066 285.69 312.827 285.447C311.591 285.211 310.732 284.944 310.248 284.645C311.485 269.389 312.271 260.162 312.608 256.961C313.114 252.162 313.956 242.326 314.842 234.244C315.622 227.106 326.472 230.791 326.261 237.374C324.696 246.183 323.528 251.907 322.756 254.546H322.754Z" fill="url(#paint66_linear_700_5523)"/>
<path d="M325.98 256.911C326.25 253.557 323.477 233.065 325.533 229.672C329.284 230.144 333.295 229.047 334.223 237.982C335.66 251.633 333.599 257.516 333.608 257.566C328.517 257.228 325.975 257.01 325.98 256.911Z" fill="url(#paint67_linear_700_5523)"/>
<path d="M339.779 292.657C339.399 291.905 340.343 290.791 341.472 289.89C344.308 287.634 345.311 284.968 344.456 283.565C344.023 282.896 341.352 279.145 338.396 275.005C335.277 270.89 327.868 259.61 325.9 257.061C325.712 256.886 328.024 255.803 332.832 253.812C333.709 255.987 335.605 258.371 336.449 259.373C337.393 260.483 343.828 272.962 345.118 276.755C346.563 280.134 348.018 283.922 348.405 284.496C349.571 286.17 351.872 287.091 350.039 289.464C348.577 291.341 344.388 292.575 343.192 293.774C341.986 294.957 340.224 293.537 339.777 292.657H339.779Z" fill="url(#paint68_linear_700_5523)"/>
<path d="M334.507 234.472C335.211 239.851 335.414 245.412 335.211 250.135C335.076 253.284 334.842 255.219 334.507 255.939C334.932 256.119 336.133 257.832 338.109 261.077C340.087 264.323 342.784 269.933 346.202 277.911C345.888 278.632 345.056 279.353 343.708 280.074C342.359 280.796 341.528 280.931 341.213 280.479C331.144 267.369 325.84 259.733 325.3 257.566C324.49 254.318 323.546 240.119 323.142 235.793C322.738 231.466 332.042 233.368 334.538 234.242" fill="url(#paint69_linear_700_5523)"/>
<path d="M314.915 233.066C316.065 227.783 317.565 221.311 319.415 213.646C322.263 201.874 320.889 200.869 324.029 199.256C327.169 197.638 332.715 198.91 335.247 200.473C339.238 202.949 342.296 202.428 337.688 218.67C334.592 229.601 335.042 232.947 334.612 235.423C334.183 237.894 321.126 238.896 314.915 233.066Z" fill="url(#paint70_linear_700_5523)"/>
<path d="M346.723 183.014C346.903 181.052 346.751 179.741 346.267 179.084C345.492 178.02 344.195 176.076 344.666 175.281C345.121 174.466 347.627 173.508 348.855 174.251C350.042 174.978 350.439 177.613 350.074 178.899C349.832 179.735 349.836 180.887 350.086 182.355L346.723 183.014Z" fill="url(#paint71_linear_700_5523)"/>
<path d="M350.27 199.289C345.605 204.841 342.05 208.619 339.613 210.621C335.707 213.845 333.524 206.007 336.271 203.084C339.209 199.948 343.285 197.735 346.996 194.194C348.66 192.605 352.677 195.542 350.27 199.289Z" fill="url(#paint72_linear_700_5523)"/>
<path d="M350.978 197.228C350.759 200.438 347.277 200.291 346.207 199.933C342.262 198.581 346.165 197.584 346.309 191.28C346.399 187.116 346.424 183.94 346.384 181.753C346.842 181.254 347.44 180.882 348.18 180.636C349.2 180.301 349.892 180.432 350.258 181.029C350.84 190.296 351.08 195.696 350.978 197.228Z" fill="url(#paint73_linear_700_5523)"/>
<path d="M328.062 198.622C328.307 198.089 328.728 197.291 328.88 196.366C327.889 196.113 326.304 195.613 325.985 195.131C324.825 193.463 324.827 189.924 325.989 184.509C326.469 183.707 330.527 182.659 333.111 184.755C335.286 186.534 335.748 190.121 334.502 193.054C334.511 193.079 334.528 193.094 334.528 193.142C333.86 194.559 333.441 195.99 333.271 197.439C333.128 198.74 333.517 199.441 333.57 199.91C334.152 200.139 327.345 198.576 328.062 198.62V198.622Z" fill="url(#paint74_linear_700_5523)"/>
<path d="M329.267 200.379C327.211 200.08 326.138 199.499 326.048 198.63C326.227 198.325 326.415 198.037 326.612 197.767C326.916 197.362 327.11 198.013 329.173 198.359C331.238 198.714 332.103 198.292 333.573 198.621C334.558 198.844 334.956 199.501 334.77 200.599C333.154 200.746 331.32 200.671 329.267 200.379Z" fill="url(#paint75_linear_700_5523)"/>
<path d="M331.634 186.977C330.201 187.112 329.329 187.543 325.664 186.411C322.983 185.579 322.95 183.275 323.265 181.384C327.737 182.017 328.099 179.06 333.32 180.653C338.8 182.33 339.157 187.085 336.73 191.019C335.927 192.325 334.872 193.995 333.57 196.03C333.369 195.478 333.157 194.796 332.929 193.984C332.704 193.173 332.784 192.158 333.169 190.942C334.154 191.219 334.651 190.932 334.657 190.083C334.662 189.235 334.079 188.953 332.903 189.239C332.575 188.855 332.692 187.975 331.634 186.979V186.977Z" fill="url(#paint76_linear_700_5523)"/>
<path d="M314.087 288.389C314.585 288.947 314.181 293.49 313.759 294.297C313.4 295.018 307.716 294.719 304.257 294.774C300.784 294.812 300.047 292.584 300.801 291.207C301.559 289.851 302.45 291.211 305.222 289.622C307.987 288.063 312.218 286.318 314.089 288.388L314.087 288.389Z" fill="url(#paint77_linear_700_5523)"/>
<path d="M348.686 283.506C349.393 283.734 351.349 287.85 351.399 288.762C351.458 289.565 346.409 292.206 343.459 294.018C340.492 295.826 338.723 294.28 338.672 292.707C338.638 291.154 340.096 291.872 341.681 289.091C343.265 286.335 346.022 282.677 348.686 283.504V283.506Z" fill="url(#paint78_linear_700_5523)"/>
<path d="M39.9831 278.224L17.8916 256.075L25.435 248.504L39.9831 263.09L63.6542 238.822L71.2027 246.393L39.9831 278.226V278.224Z" fill="url(#paint79_linear_700_5523)"/>
<path d="M60.3732 293.417H19.0142V265.464H60.3732V293.417Z" fill="url(#paint80_linear_700_5523)"/>
<path d="M63.4964 279.441H15.8955L19.0147 265.464H60.3738L63.4964 279.441Z" fill="url(#paint81_linear_700_5523)"/>
<path d="M19.5198 265.907L7.96477 274.337L7.45898 273.889L19.0139 265.464L19.5198 265.907Z" fill="url(#paint82_linear_700_5523)"/>
<path d="M60.3729 265.464L71.9279 273.889L71.4221 274.337L59.8672 265.907L60.3729 265.464Z" fill="url(#paint83_linear_700_5523)"/>
<path d="M43.6035 288.58H35.7822V279.441H43.6035V288.58Z" fill="#F5F5F5"/>
<path d="M100.3 280.353L100.684 286.362L97.476 286.977L96.5786 281.21L100.3 280.351V280.353Z" fill="url(#paint84_linear_700_5523)"/>
<path d="M96.263 293.066C95.2098 288.762 95.8748 286.401 98.257 285.984C101.83 285.363 102.236 286.465 102.736 288.786C103.072 290.333 103.299 291.825 103.423 293.265L96.263 293.066Z" fill="url(#paint85_linear_700_5523)"/>
<path d="M97.9357 232.499C98.5931 240.604 99.1703 250.465 99.5462 255.273C99.7928 258.481 100.325 267.726 101.14 283.011C100.651 283.295 99.7842 283.539 98.5431 283.741C97.2953 283.949 96.4924 283.916 96.1335 283.639C94.183 276.614 92.9332 271.213 92.3826 267.436C91.8354 263.657 91.3987 260.611 91.0759 258.296C90.7048 257.138 90.1679 255.231 89.4654 252.574C88.4211 248.585 87.6357 240.114 87.1143 235.377C87.0798 228.79 97.3557 225.347 97.9376 232.496L97.9357 232.499Z" fill="url(#paint86_linear_700_5523)"/>
<path d="M101.773 286.42C103.739 287.637 105.037 288.677 105.667 289.539C106.611 290.831 106.409 292.927 106.275 293.265C106.14 293.603 103.953 293.282 103.426 293.265C102.904 293.248 100.919 286.805 101.774 286.42H101.773Z" fill="url(#paint87_linear_700_5523)"/>
<path d="M79.306 281.211L78.4084 286.979L75.2012 286.363L75.5844 280.354L79.306 281.213V281.211Z" fill="url(#paint88_linear_700_5523)"/>
<path d="M72.4565 293.265C72.5825 291.825 72.8139 290.333 73.147 288.786C73.6528 286.467 74.0481 285.363 77.6229 285.984C80.005 286.401 80.6714 288.761 79.6201 293.066L72.4565 293.265Z" fill="url(#paint89_linear_700_5523)"/>
<path d="M88.7735 235.381C88.2505 240.118 87.4668 248.589 86.4138 252.578C85.7147 255.235 85.1779 257.141 84.8033 258.3C84.4822 260.615 84.0472 263.661 83.4966 267.438C82.9512 271.217 81.7049 276.618 79.7543 283.642C79.3883 283.92 78.5857 283.952 77.3445 283.745C76.0965 283.542 75.2283 283.298 74.7397 283.014C75.5545 267.731 76.0878 258.484 76.3417 255.275C76.7128 250.468 77.2859 240.605 77.947 232.503C78.5321 225.353 88.7994 228.798 88.7735 235.384V235.381Z" fill="url(#paint90_linear_700_5523)"/>
<path d="M72.4595 293.265C71.9365 293.282 69.7495 293.602 69.6149 293.265C69.4802 292.927 69.2782 290.831 70.2224 289.538C70.8524 288.677 72.1489 287.637 74.1115 286.42C74.9711 286.805 72.986 293.248 72.4595 293.265Z" fill="url(#paint91_linear_700_5523)"/>
<path d="M87.461 191.558C85.5397 192.392 84.0398 191.773 82.9644 189.699C81.889 187.626 82.1548 186.695 83.7653 186.907C84.4643 186.715 85.6968 188.265 87.461 191.558Z" fill="url(#paint92_linear_700_5523)"/>
<path d="M96.3293 186.907C97.9417 186.695 98.209 187.626 97.1303 189.699C96.0563 191.773 94.5601 192.392 92.6372 191.558C94.4013 188.265 95.6322 186.715 96.3293 186.907Z" fill="url(#paint93_linear_700_5523)"/>
<path d="M101.573 177.345C101.373 175.571 100.974 174.435 100.373 173.939C99.4112 173.127 99.6388 171.919 99.3196 171.134C97.9036 167.643 100.719 167.001 102.067 167.449C103.374 167.889 104.187 171.907 104.078 173.11C104.003 173.892 104.229 174.915 104.757 176.177L101.575 177.343L101.573 177.345Z" fill="url(#paint94_linear_700_5523)"/>
<path d="M108.076 194.748C108.623 197.735 101.914 205.831 98.4126 210.242C95.4504 213.96 92.331 201.124 96.2288 200.279C97.6825 197.878 98.5846 197.972 101.602 193.754C101.383 191.178 107.4 191.042 108.076 194.748Z" fill="url(#paint95_linear_700_5523)"/>
<path d="M108.056 194.405C108.457 197.29 102.802 195.448 101.706 195.203C101.612 193.005 101.731 188.683 101.714 184.885C101.692 180.963 101.456 178.095 101.007 176.282C101.36 175.758 101.877 175.325 102.553 174.98C103.488 174.505 104.195 174.5 104.673 174.963C106.738 186.543 107.866 193.022 108.056 194.403V194.405Z" fill="url(#paint96_linear_700_5523)"/>
<path d="M72.061 176.237C72.5892 174.976 72.8136 173.952 72.7359 173.171C72.6272 171.966 73.4437 167.948 74.7503 167.509C76.095 167.062 78.9105 167.703 77.4932 171.194C77.1773 171.98 77.4052 173.188 76.4403 174C75.8395 174.494 75.4391 175.632 75.2389 177.408L72.061 176.238V176.237Z" fill="url(#paint97_linear_700_5523)"/>
<path d="M74.3749 193.813C77.3957 198.031 79.1288 197.937 80.5822 200.337C84.4799 201.183 81.3624 214.019 78.3986 210.296C74.8962 205.89 67.358 197.794 67.9052 194.807C68.5801 191.101 74.5942 191.236 74.3749 193.813Z" fill="url(#paint98_linear_700_5523)"/>
<path d="M72.1461 175.024C72.6207 174.558 73.3267 174.565 74.2623 175.041C74.9424 175.387 75.4585 175.822 75.8124 176.342C75.0823 180.387 74.7077 184.371 74.687 188.291C74.6663 192.089 74.371 193.066 74.2779 195.262C73.1817 195.507 67.5216 197.349 67.9221 194.464C68.1137 193.083 69.5205 186.603 72.1443 175.024H72.1461Z" fill="url(#paint99_linear_700_5523)"/>
<path d="M77.4653 234.244C77.493 225.182 77.9073 217.123 78.7082 210.067C79.3107 204.773 79.0069 200.751 79.9269 199.157C82.4092 200.424 82.9787 198.419 88.0226 198.553C91.0107 198.638 93.0958 198.899 94.5889 198.879C99.4393 198.814 98.2586 204.718 98.4164 208.875C98.7319 217.165 98.2086 231.108 98.2936 232.92C98.3776 234.732 95.9047 235.421 87.9933 235.851C82.7233 236.144 79.214 235.607 77.4653 234.242V234.244Z" fill="url(#paint100_linear_700_5523)"/>
<path d="M89.9301 182.457C93.2167 182.255 96.2516 181.768 95.5176 189.116C94.7809 196.459 90.0216 196.215 86.7177 195.588C83.4052 194.964 84.3442 186.945 84.3666 186.607C84.522 184.156 86.6383 182.664 89.9301 182.458V182.457Z" fill="url(#paint101_linear_700_5523)"/>
<path d="M92.0225 194.9C91.6428 196.582 91.8033 198.3 91.812 198.277C91.8205 198.262 90.1116 198.197 86.687 198.083L86.6749 195.949C85.1541 192.889 92.4437 193.021 92.0225 194.902V194.9Z" fill="url(#paint102_linear_700_5523)"/>
<path d="M84.3672 198.714C84.8781 197.512 86.3851 196.911 88.8845 196.911C91.3858 196.911 92.9238 197.546 93.5038 198.816L84.3672 198.714Z" fill="url(#paint103_linear_700_5523)"/>
<path d="M87.9403 180.766C92.0746 180.673 94.4722 180.774 95.6274 183.659C96.7817 186.544 96.0978 189.118 95.0541 191.556C94.0683 193.837 91.7794 194.658 88.3961 194.616C85.0076 194.569 84.6123 192.06 84.2274 190.779C83.1451 187.179 83.801 180.855 87.9403 180.766Z" fill="url(#paint104_linear_700_5523)"/>
</g>
<defs>
<linearGradient id="paint0_linear_700_5523" x1="2.8349" y1="297.491" x2="12.5824" y2="292.078" gradientUnits="userSpaceOnUse">
<stop stop-color="white"/>
<stop offset="1" stop-color="#808080"/>
</linearGradient>
<linearGradient id="paint1_linear_700_5523" x1="96.2543" y1="294.826" x2="138.546" y2="294.826" gradientUnits="userSpaceOnUse">
<stop stop-color="white"/>
<stop offset="1" stop-color="#CECECE"/>
</linearGradient>
<linearGradient id="paint2_linear_700_5523" x1="104.54" y1="756.469" x2="104.54" y2="-48.6849" gradientUnits="userSpaceOnUse">
<stop stop-color="#1CAB04"/>
<stop offset="1" stop-color="#0E6016"/>
</linearGradient>
<linearGradient id="paint3_linear_700_5523" x1="114.639" y1="284.563" x2="147.374" y2="248.079" gradientUnits="userSpaceOnUse">
<stop stop-color="white"/>
<stop offset="1" stop-color="#AFAFAF"/>
</linearGradient>
<linearGradient id="paint4_linear_700_5523" x1="155.445" y1="82.1845" x2="169.168" y2="68.7209" gradientUnits="userSpaceOnUse">
<stop stop-color="white"/>
<stop offset="1" stop-color="#D3D3D3"/>
</linearGradient>
<linearGradient id="paint5_linear_700_5523" x1="151.061" y1="31.0793" x2="280.885" y2="31.0793" gradientUnits="userSpaceOnUse">
<stop stop-color="#0E6016"/>
<stop offset="1" stop-color="#106A14"/>
</linearGradient>
<linearGradient id="paint6_linear_700_5523" x1="189.709" y1="170.325" x2="189.709" y2="430.402" gradientUnits="userSpaceOnUse">
<stop stop-color="#0E6016"/>
<stop offset="1" stop-color="#1CAB04"/>
</linearGradient>
<linearGradient id="paint7_linear_700_5523" x1="189.709" y1="125.433" x2="189.709" y2="385.545" gradientUnits="userSpaceOnUse">
<stop stop-color="#0E6016"/>
<stop offset="1" stop-color="#1CAB04"/>
</linearGradient>
<linearGradient id="paint8_linear_700_5523" x1="248.52" y1="66.7648" x2="248.52" y2="192.598" gradientUnits="userSpaceOnUse">
<stop stop-color="#0E6016"/>
<stop offset="1" stop-color="#1CAB04"/>
</linearGradient>
<linearGradient id="paint9_linear_700_5523" x1="264.798" y1="66.782" x2="264.798" y2="192.511" gradientUnits="userSpaceOnUse">
<stop stop-color="#0E6016"/>
<stop offset="1" stop-color="#1CAB04"/>
</linearGradient>
<linearGradient id="paint10_linear_700_5523" x1="254.285" y1="66.7989" x2="254.285" y2="192.512" gradientUnits="userSpaceOnUse">
<stop stop-color="#0E6016"/>
<stop offset="1" stop-color="#1CAB04"/>
</linearGradient>
<linearGradient id="paint11_linear_700_5523" x1="241.529" y1="66.7473" x2="241.529" y2="192.598" gradientUnits="userSpaceOnUse">
<stop stop-color="#0E6016"/>
<stop offset="1" stop-color="#1CAB04"/>
</linearGradient>
<linearGradient id="paint12_linear_700_5523" x1="248.212" y1="111.196" x2="248.212" y2="237.03" gradientUnits="userSpaceOnUse">
<stop stop-color="#0E6016"/>
<stop offset="1" stop-color="#1CAB04"/>
</linearGradient>
<linearGradient id="paint13_linear_700_5523" x1="264.489" y1="111.213" x2="264.489" y2="236.943" gradientUnits="userSpaceOnUse">
<stop stop-color="#0E6016"/>
<stop offset="1" stop-color="#1CAB04"/>
</linearGradient>
<linearGradient id="paint14_linear_700_5523" x1="253.976" y1="111.23" x2="253.976" y2="236.944" gradientUnits="userSpaceOnUse">
<stop stop-color="#0E6016"/>
<stop offset="1" stop-color="#1CAB04"/>
</linearGradient>
<linearGradient id="paint15_linear_700_5523" x1="241.221" y1="111.179" x2="241.221" y2="237.029" gradientUnits="userSpaceOnUse">
<stop stop-color="#0E6016"/>
<stop offset="1" stop-color="#1CAB04"/>
</linearGradient>
<linearGradient id="paint16_linear_700_5523" x1="248.212" y1="156.63" x2="248.212" y2="282.464" gradientUnits="userSpaceOnUse">
<stop stop-color="#0E6016"/>
<stop offset="1" stop-color="#1CAB04"/>
</linearGradient>
<linearGradient id="paint17_linear_700_5523" x1="264.489" y1="156.647" x2="264.489" y2="282.377" gradientUnits="userSpaceOnUse">
<stop stop-color="#0E6016"/>
<stop offset="1" stop-color="#1CAB04"/>
</linearGradient>
<linearGradient id="paint18_linear_700_5523" x1="253.976" y1="156.664" x2="253.976" y2="282.378" gradientUnits="userSpaceOnUse">
<stop stop-color="#0E6016"/>
<stop offset="1" stop-color="#1CAB04"/>
</linearGradient>
<linearGradient id="paint19_linear_700_5523" x1="241.221" y1="156.613" x2="241.221" y2="282.463" gradientUnits="userSpaceOnUse">
<stop stop-color="#0E6016"/>
<stop offset="1" stop-color="#1CAB04"/>
</linearGradient>
<linearGradient id="paint20_linear_700_5523" x1="248.212" y1="202.064" x2="248.212" y2="327.898" gradientUnits="userSpaceOnUse">
<stop stop-color="#0E6016"/>
<stop offset="1" stop-color="#1CAB04"/>
</linearGradient>
<linearGradient id="paint21_linear_700_5523" x1="264.489" y1="202.081" x2="264.489" y2="327.811" gradientUnits="userSpaceOnUse">
<stop stop-color="#0E6016"/>
<stop offset="1" stop-color="#1CAB04"/>
</linearGradient>
<linearGradient id="paint22_linear_700_5523" x1="253.976" y1="202.098" x2="253.976" y2="327.812" gradientUnits="userSpaceOnUse">
<stop stop-color="#0E6016"/>
<stop offset="1" stop-color="#1CAB04"/>
</linearGradient>
<linearGradient id="paint23_linear_700_5523" x1="241.221" y1="202.047" x2="241.221" y2="327.897" gradientUnits="userSpaceOnUse">
<stop stop-color="#0E6016"/>
<stop offset="1" stop-color="#1CAB04"/>
</linearGradient>
<linearGradient id="paint24_linear_700_5523" x1="118.989" y1="70.503" x2="118.989" y2="330.58" gradientUnits="userSpaceOnUse">
<stop stop-color="#0E6016"/>
<stop offset="1" stop-color="#1CAB04"/>
</linearGradient>
<linearGradient id="paint25_linear_700_5523" x1="132.505" y1="10.1042" x2="129.696" y2="16.6408" gradientUnits="userSpaceOnUse">
<stop stop-color="#101719"/>
<stop offset="1" stop-color="#243137"/>
</linearGradient>
<linearGradient id="paint26_linear_700_5523" x1="120.869" y1="56.5021" x2="106.256" y2="62.0669" gradientUnits="userSpaceOnUse">
<stop stop-color="#101719"/>
<stop offset="1" stop-color="#243137"/>
</linearGradient>
<linearGradient id="paint27_linear_700_5523" x1="717.953" y1="348.423" x2="638.734" y2="311.337" gradientUnits="userSpaceOnUse">
<stop stop-color="#FFD1AE"/>
<stop offset="1" stop-color="#F9AC78"/>
</linearGradient>
<linearGradient id="paint28_linear_700_5523" x1="631.038" y1="275.149" x2="569.65" y2="246.421" gradientUnits="userSpaceOnUse">
<stop stop-color="#FFD1AE"/>
<stop offset="1" stop-color="#F9AC78"/>
</linearGradient>
<linearGradient id="paint29_linear_700_5523" x1="676.006" y1="18.4805" x2="602.811" y2="27.1415" gradientUnits="userSpaceOnUse">
<stop stop-color="#FFD1AE"/>
<stop offset="1" stop-color="#F9AC78"/>
</linearGradient>
<linearGradient id="paint30_linear_700_5523" x1="142.755" y1="13.8077" x2="95.093" y2="128.721" gradientUnits="userSpaceOnUse">
<stop stop-color="#101719"/>
<stop offset="1" stop-color="#243137"/>
</linearGradient>
<linearGradient id="paint31_linear_700_5523" x1="141.805" y1="16.0748" x2="96.1022" y2="126.249" gradientUnits="userSpaceOnUse">
<stop stop-color="#101719"/>
<stop offset="1" stop-color="#243137"/>
</linearGradient>
<linearGradient id="paint32_linear_700_5523" x1="135.972" y1="47.5547" x2="87.0778" y2="64.3852" gradientUnits="userSpaceOnUse">
<stop stop-color="#FFD1AE"/>
<stop offset="1" stop-color="#F9AC78"/>
</linearGradient>
<linearGradient id="paint33_linear_700_5523" x1="137.646" y1="52.1409" x2="89.2002" y2="68.8164" gradientUnits="userSpaceOnUse">
<stop stop-color="#FFD1AE"/>
<stop offset="1" stop-color="#F9AC78"/>
</linearGradient>
<linearGradient id="paint34_linear_700_5523" x1="145.001" y1="72.0951" x2="94.8799" y2="89.339" gradientUnits="userSpaceOnUse">
<stop stop-color="#FFD1AE"/>
<stop offset="1" stop-color="#F9AC78"/>
</linearGradient>
<linearGradient id="paint35_linear_700_5523" x1="162.779" y1="43.8341" x2="61.7433" y2="116.014" gradientUnits="userSpaceOnUse">
<stop stop-color="#101719"/>
<stop offset="1" stop-color="#243137"/>
</linearGradient>
<linearGradient id="paint36_linear_700_5523" x1="161.208" y1="45.5474" x2="67.089" y2="112.777" gradientUnits="userSpaceOnUse">
<stop stop-color="#101719"/>
<stop offset="1" stop-color="#243137"/>
</linearGradient>
<linearGradient id="paint37_linear_700_5523" x1="148.092" y1="49.9259" x2="113.977" y2="62.9334" gradientUnits="userSpaceOnUse">
<stop stop-color="#101719"/>
<stop offset="1" stop-color="#243137"/>
</linearGradient>
<linearGradient id="paint38_linear_700_5523" x1="84.4476" y1="16.0404" x2="79.4817" y2="20.631" gradientUnits="userSpaceOnUse">
<stop stop-color="#FFD1AE"/>
<stop offset="1" stop-color="#F9AC78"/>
</linearGradient>
<linearGradient id="paint39_linear_700_5523" x1="-322.341" y1="406.797" x2="-287.359" y2="375.597" gradientUnits="userSpaceOnUse">
<stop stop-color="#0B490D"/>
<stop offset="1" stop-color="#0E6215"/>
</linearGradient>
<linearGradient id="paint40_linear_700_5523" x1="-67.5079" y1="660.644" x2="-54.1867" y2="608.5" gradientUnits="userSpaceOnUse">
<stop stop-color="#0B490D"/>
<stop offset="1" stop-color="#106A14"/>
</linearGradient>
<linearGradient id="paint41_linear_700_5523" x1="109.683" y1="5.13733" x2="116.761" y2="52.4645" gradientUnits="userSpaceOnUse">
<stop stop-color="#FFD1AE"/>
<stop offset="1" stop-color="#F9AC78"/>
</linearGradient>
<linearGradient id="paint42_linear_700_5523" x1="132.055" y1="31.7024" x2="127.891" y2="3.89442" gradientUnits="userSpaceOnUse">
<stop stop-color="#AFAFAF"/>
<stop offset="1" stop-color="white"/>
</linearGradient>
<linearGradient id="paint43_linear_700_5523" x1="137.666" y1="54.4598" x2="130.9" y2="9.2438" gradientUnits="userSpaceOnUse">
<stop stop-color="#0B490D"/>
<stop offset="1" stop-color="#116F12"/>
</linearGradient>
<linearGradient id="paint44_linear_700_5523" x1="137.252" y1="10.485" x2="121.621" y2="-0.674043" gradientUnits="userSpaceOnUse">
<stop stop-color="#101719"/>
<stop offset="1" stop-color="#243137"/>
</linearGradient>
<linearGradient id="paint45_linear_700_5523" x1="138.183" y1="57.3674" x2="113.626" y2="11.9742" gradientUnits="userSpaceOnUse">
<stop stop-color="#0B490D"/>
<stop offset="1" stop-color="#0E6215"/>
</linearGradient>
<linearGradient id="paint46_linear_700_5523" x1="84.5332" y1="11.7656" x2="84.5332" y2="184.17" gradientUnits="userSpaceOnUse">
<stop stop-color="#101719"/>
<stop offset="1" stop-color="#243137"/>
</linearGradient>
<linearGradient id="paint47_linear_700_5523" x1="85.3278" y1="11.7657" x2="85.3278" y2="184.169" gradientUnits="userSpaceOnUse">
<stop stop-color="#101719"/>
<stop offset="1" stop-color="#243137"/>
</linearGradient>
<linearGradient id="paint48_linear_700_5523" x1="85.3278" y1="11.7652" x2="85.3278" y2="184.17" gradientUnits="userSpaceOnUse">
<stop stop-color="#101719"/>
<stop offset="1" stop-color="#243137"/>
</linearGradient>
<linearGradient id="paint49_linear_700_5523" x1="99.5348" y1="11.7656" x2="99.5348" y2="184.17" gradientUnits="userSpaceOnUse">
<stop stop-color="#101719"/>
<stop offset="1" stop-color="#243137"/>
</linearGradient>
<linearGradient id="paint50_linear_700_5523" x1="100.311" y1="11.7656" x2="100.311" y2="184.169" gradientUnits="userSpaceOnUse">
<stop stop-color="#101719"/>
<stop offset="1" stop-color="#243137"/>
</linearGradient>
<linearGradient id="paint51_linear_700_5523" x1="100.311" y1="11.7652" x2="100.311" y2="184.17" gradientUnits="userSpaceOnUse">
<stop stop-color="#101719"/>
<stop offset="1" stop-color="#243137"/>
</linearGradient>
<linearGradient id="paint52_linear_700_5523" x1="99.4821" y1="22.4955" x2="94.5164" y2="27.0863" gradientUnits="userSpaceOnUse">
<stop stop-color="#FFD1AE"/>
<stop offset="1" stop-color="#F9AC78"/>
</linearGradient>
<linearGradient id="paint53_linear_700_5523" x1="-4.88208" y1="566.62" x2="5.24812" y2="522.916" gradientUnits="userSpaceOnUse">
<stop stop-color="#0B490D"/>
<stop offset="1" stop-color="#106A14"/>
</linearGradient>
<linearGradient id="paint54_linear_700_5523" x1="-52.4728" y1="667.047" x2="-39.1517" y2="614.92" gradientUnits="userSpaceOnUse">
<stop stop-color="#0B490D"/>
<stop offset="1" stop-color="#0E6315"/>
</linearGradient>
<linearGradient id="paint55_linear_700_5523" x1="295.124" y1="206.686" x2="291.314" y2="211.799" gradientUnits="userSpaceOnUse">
<stop stop-color="#FFD1AE"/>
<stop offset="1" stop-color="#F9AC78"/>
</linearGradient>
<linearGradient id="paint56_linear_700_5523" x1="305.48" y1="223.213" x2="329.746" y2="204.324" gradientUnits="userSpaceOnUse">
<stop stop-color="#0E570A"/>
<stop offset="1" stop-color="#14800E"/>
</linearGradient>
<linearGradient id="paint57_linear_700_5523" x1="307.157" y1="224.112" x2="328.759" y2="207.293" gradientUnits="userSpaceOnUse">
<stop stop-color="#0E570A"/>
<stop offset="1" stop-color="#14800E"/>
</linearGradient>
<linearGradient id="paint58_linear_700_5523" x1="368.4" y1="149.783" x2="358.051" y2="171.551" gradientUnits="userSpaceOnUse">
<stop stop-color="white"/>
<stop offset="1" stop-color="#808080"/>
</linearGradient>
<linearGradient id="paint59_linear_700_5523" x1="374.288" y1="148.485" x2="388.728" y2="159.335" gradientUnits="userSpaceOnUse">
<stop stop-color="#0E570A"/>
<stop offset="1" stop-color="#14800E"/>
</linearGradient>
<linearGradient id="paint60_linear_700_5523" x1="362.084" y1="159.508" x2="383.757" y2="147.493" gradientUnits="userSpaceOnUse">
<stop stop-color="#AFAFAF"/>
<stop offset="1" stop-color="white"/>
</linearGradient>
<linearGradient id="paint61_linear_700_5523" x1="275.931" y1="207.169" x2="388.734" y2="144.682" gradientUnits="userSpaceOnUse">
<stop stop-color="#F39E40"/>
<stop offset="1" stop-color="#C46700"/>
</linearGradient>
<linearGradient id="paint62_linear_700_5523" x1="267.179" y1="225.723" x2="263.835" y2="219.707" gradientUnits="userSpaceOnUse">
<stop stop-color="#101719"/>
<stop offset="1" stop-color="#243137"/>
</linearGradient>
<linearGradient id="paint63_linear_700_5523" x1="372.855" y1="167.192" x2="263.905" y2="227.543" gradientUnits="userSpaceOnUse">
<stop stop-color="#AFAFAF"/>
<stop offset="1" stop-color="white"/>
</linearGradient>
<linearGradient id="paint64_linear_700_5523" x1="323.694" y1="229.565" x2="328.344" y2="281.862" gradientUnits="userSpaceOnUse">
<stop stop-color="#FFD1AE"/>
<stop offset="1" stop-color="#F9AC78"/>
</linearGradient>
<linearGradient id="paint65_linear_700_5523" x1="358.546" y1="270.736" x2="306.55" y2="297.365" gradientUnits="userSpaceOnUse">
<stop stop-color="#FFD1AE"/>
<stop offset="1" stop-color="#F9AC78"/>
</linearGradient>
<linearGradient id="paint66_linear_700_5523" x1="316.014" y1="226.172" x2="305.069" y2="270.359" gradientUnits="userSpaceOnUse">
<stop stop-color="#101719"/>
<stop offset="1" stop-color="#243137"/>
</linearGradient>
<linearGradient id="paint67_linear_700_5523" x1="331.961" y1="228.941" x2="344.034" y2="278.838" gradientUnits="userSpaceOnUse">
<stop stop-color="#FFD1AE"/>
<stop offset="1" stop-color="#F9AC78"/>
</linearGradient>
<linearGradient id="paint68_linear_700_5523" x1="371.975" y1="239.585" x2="347.116" y2="294.242" gradientUnits="userSpaceOnUse">
<stop stop-color="#FFD1AE"/>
<stop offset="1" stop-color="#F9AC78"/>
</linearGradient>
<linearGradient id="paint69_linear_700_5523" x1="309.661" y1="224.182" x2="377.182" y2="372.105" gradientUnits="userSpaceOnUse">
<stop stop-color="#101719"/>
<stop offset="1" stop-color="#243137"/>
</linearGradient>
<linearGradient id="paint70_linear_700_5523" x1="322.814" y1="190.037" x2="310.914" y2="241.353" gradientUnits="userSpaceOnUse">
<stop stop-color="#0D550A"/>
<stop offset="1" stop-color="#14800E"/>
</linearGradient>
<linearGradient id="paint71_linear_700_5523" x1="342.475" y1="176.677" x2="347.594" y2="172.9" gradientUnits="userSpaceOnUse">
<stop stop-color="#FFD1AE"/>
<stop offset="1" stop-color="#F9AC78"/>
</linearGradient>
<linearGradient id="paint72_linear_700_5523" x1="358.906" y1="187.112" x2="339.892" y2="211.294" gradientUnits="userSpaceOnUse">
<stop stop-color="#0E560A"/>
<stop offset="1" stop-color="#14800E"/>
</linearGradient>
<linearGradient id="paint73_linear_700_5523" x1="359.804" y1="188.791" x2="342.885" y2="210.312" gradientUnits="userSpaceOnUse">
<stop stop-color="#0D560A"/>
<stop offset="1" stop-color="#14800E"/>
</linearGradient>
<linearGradient id="paint74_linear_700_5523" x1="325.937" y1="184.083" x2="323.698" y2="201.389" gradientUnits="userSpaceOnUse">
<stop stop-color="#FFD1AE"/>
<stop offset="1" stop-color="#F9AC78"/>
</linearGradient>
<linearGradient id="paint75_linear_700_5523" x1="326.04" y1="197.27" x2="325.416" y2="200.004" gradientUnits="userSpaceOnUse">
<stop stop-color="#101719"/>
<stop offset="1" stop-color="#243137"/>
</linearGradient>
<linearGradient id="paint76_linear_700_5523" x1="325.094" y1="178.112" x2="318.507" y2="191.858" gradientUnits="userSpaceOnUse">
<stop stop-color="#101719"/>
<stop offset="1" stop-color="#243137"/>
</linearGradient>
<linearGradient id="paint77_linear_700_5523" x1="314.994" y1="237.197" x2="305.835" y2="274.186" gradientUnits="userSpaceOnUse">
<stop stop-color="#101719"/>
<stop offset="1" stop-color="#243137"/>
</linearGradient>
<linearGradient id="paint78_linear_700_5523" x1="312.628" y1="236.21" x2="368.603" y2="358.82" gradientUnits="userSpaceOnUse">
<stop stop-color="#101719"/>
<stop offset="1" stop-color="#243137"/>
</linearGradient>
<linearGradient id="paint79_linear_700_5523" x1="71.5531" y1="190.002" x2="71.5531" y2="450.149" gradientUnits="userSpaceOnUse">
<stop stop-color="#013366"/>
<stop offset="1" stop-color="#1462B3"/>
</linearGradient>
<linearGradient id="paint80_linear_700_5523" x1="18.6637" y1="296.954" x2="18.6637" y2="279.718" gradientUnits="userSpaceOnUse">
<stop stop-color="#F75250"/>
<stop offset="1" stop-color="#FF9900"/>
</linearGradient>
<linearGradient id="paint81_linear_700_5523" x1="15.5572" y1="272.761" x2="15.5572" y2="259.504" gradientUnits="userSpaceOnUse">
<stop stop-color="#F3BB7D"/>
<stop offset="1" stop-color="#D77100"/>
</linearGradient>
<linearGradient id="paint82_linear_700_5523" x1="11.6035" y1="268.642" x2="20.3633" y2="258.713" gradientUnits="userSpaceOnUse">
<stop stop-color="#F75250"/>
<stop offset="1" stop-color="#F75250"/>
</linearGradient>
<linearGradient id="paint83_linear_700_5523" x1="67.7903" y1="268.642" x2="59.0305" y2="258.713" gradientUnits="userSpaceOnUse">
<stop stop-color="#F75250"/>
<stop offset="1" stop-color="#F75250"/>
</linearGradient>
<linearGradient id="paint84_linear_700_5523" x1="100.413" y1="278.593" x2="102.2" y2="291.779" gradientUnits="userSpaceOnUse">
<stop stop-color="#FFD1AE"/>
<stop offset="1" stop-color="#F9AC78"/>
</linearGradient>
<linearGradient id="paint85_linear_700_5523" x1="83.3926" y1="235.465" x2="98.2177" y2="272.855" gradientUnits="userSpaceOnUse">
<stop stop-color="#101719"/>
<stop offset="1" stop-color="#243137"/>
</linearGradient>
<linearGradient id="paint86_linear_700_5523" x1="97.0469" y1="224.407" x2="106.761" y2="268.891" gradientUnits="userSpaceOnUse">
<stop stop-color="#101719"/>
<stop offset="1" stop-color="#243137"/>
</linearGradient>
<linearGradient id="paint87_linear_700_5523" x1="94.7873" y1="237.819" x2="103.685" y2="273.806" gradientUnits="userSpaceOnUse">
<stop stop-color="#101719"/>
<stop offset="1" stop-color="#243137"/>
</linearGradient>
<linearGradient id="paint88_linear_700_5523" x1="75.4705" y1="278.593" x2="73.6834" y2="291.779" gradientUnits="userSpaceOnUse">
<stop stop-color="#FFD1AE"/>
<stop offset="1" stop-color="#F9AC78"/>
</linearGradient>
<linearGradient id="paint89_linear_700_5523" x1="92.4887" y1="235.465" x2="77.664" y2="272.838" gradientUnits="userSpaceOnUse">
<stop stop-color="#101719"/>
<stop offset="1" stop-color="#243137"/>
</linearGradient>
<linearGradient id="paint90_linear_700_5523" x1="78.8342" y1="224.407" x2="69.12" y2="268.891" gradientUnits="userSpaceOnUse">
<stop stop-color="#101719"/>
<stop offset="1" stop-color="#243137"/>
</linearGradient>
<linearGradient id="paint91_linear_700_5523" x1="81.099" y1="237.836" x2="72.2006" y2="273.806" gradientUnits="userSpaceOnUse">
<stop stop-color="#101719"/>
<stop offset="1" stop-color="#243137"/>
</linearGradient>
<linearGradient id="paint92_linear_700_5523" x1="87.7441" y1="187.129" x2="87.7441" y2="191.11" gradientUnits="userSpaceOnUse">
<stop stop-color="#FFD1AE"/>
<stop offset="1" stop-color="#F9AC78"/>
</linearGradient>
<linearGradient id="paint93_linear_700_5523" x1="92.3541" y1="187.129" x2="92.3541" y2="191.11" gradientUnits="userSpaceOnUse">
<stop stop-color="#FFD1AE"/>
<stop offset="1" stop-color="#F9AC78"/>
</linearGradient>
<linearGradient id="paint94_linear_700_5523" x1="96.0466" y1="170.723" x2="100.478" y2="165.889" gradientUnits="userSpaceOnUse">
<stop stop-color="#FFD1AE"/>
<stop offset="1" stop-color="#F9AC78"/>
</linearGradient>
<linearGradient id="paint95_linear_700_5523" x1="108.387" y1="172.212" x2="108.387" y2="250.782" gradientUnits="userSpaceOnUse">
<stop stop-color="#0B490D"/>
<stop offset="1" stop-color="#0F6315"/>
</linearGradient>
<linearGradient id="paint96_linear_700_5523" x1="108.407" y1="158.488" x2="108.407" y2="281.051" gradientUnits="userSpaceOnUse">
<stop stop-color="#0C4C0D"/>
<stop offset="1" stop-color="#106A14"/>
</linearGradient>
<linearGradient id="paint97_linear_700_5523" x1="80.7695" y1="170.775" x2="76.3381" y2="165.958" gradientUnits="userSpaceOnUse">
<stop stop-color="#FFD1AE"/>
<stop offset="1" stop-color="#F9AC78"/>
</linearGradient>
<linearGradient id="paint98_linear_700_5523" x1="82.7036" y1="172.229" x2="82.7036" y2="250.781" gradientUnits="userSpaceOnUse">
<stop stop-color="#0B490D"/>
<stop offset="1" stop-color="#0F6415"/>
</linearGradient>
<linearGradient id="paint99_linear_700_5523" x1="76.1438" y1="158.488" x2="76.1438" y2="281.033" gradientUnits="userSpaceOnUse">
<stop stop-color="#0C4C0C"/>
<stop offset="1" stop-color="#0E6215"/>
</linearGradient>
<linearGradient id="paint100_linear_700_5523" x1="98.8443" y1="160.287" x2="98.8443" y2="270.217" gradientUnits="userSpaceOnUse">
<stop stop-color="#0B490D"/>
<stop offset="1" stop-color="#0E6216"/>
</linearGradient>
<linearGradient id="paint101_linear_700_5523" x1="95.9427" y1="182.249" x2="95.9427" y2="204.505" gradientUnits="userSpaceOnUse">
<stop stop-color="#FFD1AE"/>
<stop offset="1" stop-color="#F9AC78"/>
</linearGradient>
<linearGradient id="paint102_linear_700_5523" x1="90.7485" y1="182.578" x2="93.8888" y2="204.867" gradientUnits="userSpaceOnUse">
<stop stop-color="#FFD1AE"/>
<stop offset="1" stop-color="#F9AC78"/>
</linearGradient>
<linearGradient id="paint103_linear_700_5523" x1="93.8542" y1="196.942" x2="93.8542" y2="199.192" gradientUnits="userSpaceOnUse">
<stop stop-color="#101719"/>
<stop offset="1" stop-color="#243137"/>
</linearGradient>
<linearGradient id="paint104_linear_700_5523" x1="96.5474" y1="180.813" x2="96.5474" y2="194.571" gradientUnits="userSpaceOnUse">
<stop stop-color="#101719"/>
<stop offset="1" stop-color="#243137"/>
</linearGradient>
<clipPath id="clip0_700_5523">
<rect width="392" height="301" fill="white"/>
</clipPath>
</defs>
</svg>
