<svg width="26" height="24" viewBox="0 0 26 24" fill="none" xmlns="http://www.w3.org/2000/svg">
<path d="M13 0C5.82075 0 0 5.45713 0 12.1879C0 17.8989 4.19467 22.6776 9.84967 24C9.789 23.8355 9.75 23.6445 9.75 23.4079V21.3248C9.22242 21.3248 8.33842 21.3248 8.11633 21.3248C7.22692 21.3248 6.43608 20.9662 6.05258 20.3C5.62683 19.5595 5.55317 18.4271 4.498 17.7344C4.18492 17.5039 4.42325 17.2408 4.784 17.2763C5.45025 17.4531 6.00275 17.8817 6.52275 18.5175C7.04058 19.1543 7.28433 19.2985 8.25175 19.2985C8.72083 19.2985 9.42283 19.2731 10.0837 19.1756C10.439 18.3296 11.0533 17.5506 11.804 17.1829C7.475 16.7655 5.40908 14.7463 5.40908 12.0051C5.40908 10.8249 5.94533 9.68328 6.85642 8.72146C6.55742 7.76674 6.1815 5.81972 6.97125 5.07829C8.91908 5.07829 10.0967 6.26255 10.3794 6.58248C11.3501 6.27067 12.4161 6.09395 13.5363 6.09395C14.6586 6.09395 15.7289 6.27067 16.7018 6.58451C16.9813 6.26661 18.1599 5.07829 20.1121 5.07829C20.9051 5.82074 20.5248 7.77588 20.2226 8.72857C21.1283 9.68836 21.6613 10.8269 21.6613 12.0051C21.6613 14.7443 19.5986 16.7624 15.2761 17.1819C16.4656 17.7639 17.3333 19.3991 17.3333 20.6311V23.4079C17.3333 23.5135 17.3084 23.5897 17.2954 23.6801C22.3611 22.0154 26 17.5059 26 12.1879C26 5.45713 20.1793 0 13 0Z" fill="#AFAFAF"/>
</svg>
