<svg width="18" height="18" viewBox="0 0 18 18" fill="none" xmlns="http://www.w3.org/2000/svg">
<path d="M11.5802 12.375L8.4375 9.23062V3.9375H9.56137V8.76487L12.375 11.5802L11.5802 12.375Z" fill="#0E6016"/>
<path d="M9 1.125C10.0494 1.12468 11.0881 1.33535 12.0544 1.74448C13.0207 2.15362 13.8949 2.75288 14.625 3.50663V1.125H15.75V5.625H11.25V4.5H14.0186C12.9648 3.32969 11.5344 2.56537 9.97574 2.33974C8.41711 2.11412 6.82867 2.44142 5.48621 3.26485C4.14374 4.08827 3.13201 5.3558 2.62667 6.8474C2.12132 8.339 2.15427 9.96046 2.71979 11.4303C3.28531 12.9001 4.34769 14.1255 5.7225 14.8937C7.0973 15.6619 8.69772 15.9245 10.2459 15.6357C11.7941 15.347 13.1923 14.5252 14.1977 13.313C15.2031 12.1009 15.7524 10.5749 15.75 9H16.875C16.875 10.5575 16.4131 12.0801 15.5478 13.3751C14.6825 14.6702 13.4526 15.6795 12.0136 16.2756C10.5747 16.8716 8.99127 17.0275 7.46367 16.7237C5.93607 16.4198 4.53288 15.6698 3.43154 14.5685C2.3302 13.4671 1.58018 12.0639 1.27632 10.5363C0.972461 9.00874 1.12841 7.42534 1.72445 5.98637C2.32049 4.5474 3.32985 3.31749 4.62489 2.45218C5.91992 1.58686 7.44248 1.125 9 1.125V1.125Z" fill="#0E6016"/>
</svg>
