<svg width="21" height="24" viewBox="0 0 21 24" fill="none" xmlns="http://www.w3.org/2000/svg">
<path d="M12.8333 18V14.4H21V9.6H12.8333V6L7 12L12.8333 18ZM12.8333 0H2.33333C1.71449 0 1.121 0.252856 0.683417 0.702944C0.245832 1.15303 -7.59959e-07 1.76348 -7.59959e-07 2.4V21.6C-7.59959e-07 22.2365 0.245832 22.847 0.683417 23.2971C1.121 23.7471 1.71449 24 2.33333 24H12.8333C13.4522 24 14.0457 23.7471 14.4832 23.2971C14.9208 22.847 15.1667 22.2365 15.1667 21.6V19.2H12.8333V21.6H2.33333V2.4H12.8333V4.8H15.1667V2.4C15.1667 1.76348 14.9208 1.15303 14.4832 0.702944C14.0457 0.252856 13.4522 0 12.8333 0Z" fill="black"/>
</svg>
