<svg width="34" height="38" viewBox="0 0 34 38" fill="none" xmlns="http://www.w3.org/2000/svg">
<path d="M13.125 28.125V22.5H0V15H13.125V9.375L22.5 18.75L13.125 28.125ZM13.125 0H30C30.9946 0 31.9484 0.395088 32.6516 1.09835C33.3549 1.80161 33.75 2.75544 33.75 3.75V33.75C33.75 34.7446 33.3549 35.6984 32.6516 36.4017C31.9484 37.1049 30.9946 37.5 30 37.5H13.125C12.1304 37.5 11.1766 37.1049 10.4734 36.4017C9.77009 35.6984 9.375 34.7446 9.375 33.75V30H13.125V33.75H30V3.75H13.125V7.5H9.375V3.75C9.375 2.75544 9.77009 1.80161 10.4734 1.09835C11.1766 0.395088 12.1304 0 13.125 0Z" fill="black"/>
</svg>
