<svg width="17" height="18" viewBox="0 0 17 18" fill="none" xmlns="http://www.w3.org/2000/svg">
<path d="M15.7353 4.78329C16.4305 4.78329 16.994 4.21974 16.994 3.52455C16.994 2.82937 16.4305 2.26581 15.7353 2.26581C15.0401 2.26581 14.4766 2.82937 14.4766 3.52455C14.4766 4.21974 15.0401 4.78329 15.7353 4.78329Z" fill="#111111"/>
<path d="M15.7353 12.5874C16.4305 12.5874 16.994 12.0239 16.994 11.3287C16.994 10.6335 16.4305 10.0699 15.7353 10.0699C15.0401 10.0699 14.4766 10.6335 14.4766 11.3287C14.4766 12.0239 15.0401 12.5874 15.7353 12.5874Z" fill="#111111"/>
<path d="M8.55952 12.5874C9.25471 12.5874 9.81827 12.0239 9.81827 11.3287C9.81827 10.6335 9.25471 10.0699 8.55952 10.0699C7.86434 10.0699 7.30078 10.6335 7.30078 11.3287C7.30078 12.0239 7.86434 12.5874 8.55952 12.5874Z" fill="#111111"/>
<path d="M8.43452 18C9.12971 18 9.69327 17.4365 9.69327 16.7413C9.69327 16.0461 9.12971 15.4825 8.43452 15.4825C7.73934 15.4825 7.17578 16.0461 7.17578 16.7413C7.17578 17.4365 7.73934 18 8.43452 18Z" fill="#111111"/>
<path d="M1.38374 12.5874C2.07893 12.5874 2.64249 12.0239 2.64249 11.3287C2.64249 10.6335 2.07893 10.0699 1.38374 10.0699C0.688558 10.0699 0.125 10.6335 0.125 11.3287C0.125 12.0239 0.688558 12.5874 1.38374 12.5874Z" fill="#111111"/>
<path d="M1.25874 18C1.95393 18 2.51749 17.4365 2.51749 16.7413C2.51749 16.0461 1.95393 15.4825 1.25874 15.4825C0.563558 15.4825 0 16.0461 0 16.7413C0 17.4365 0.563558 18 1.25874 18Z" fill="#111111"/>
<path d="M11.522 0H5.52689C5.37782 0 5.23486 0.0592151 5.12946 0.164619C5.02406 0.270022 4.96484 0.41298 4.96484 0.562044V6.55717C4.96484 6.70624 5.02406 6.8492 5.12946 6.9546C5.23486 7.06 5.37782 7.11922 5.52689 7.11922H11.522C11.6711 7.11922 11.814 7.06 11.9194 6.9546C12.0248 6.8492 12.0841 6.70624 12.0841 6.55717V0.562044C12.0841 0.41298 12.0248 0.270022 11.9194 0.164619C11.814 0.0592151 11.6711 0 11.522 0ZM10.96 5.99513H6.08893V1.12409H10.96V5.99513Z" fill="#111111"/>
</svg>
