<svg width="18" height="18" viewBox="0 0 18 18" fill="none" xmlns="http://www.w3.org/2000/svg">
<path d="M9 18C7.21997 18 5.47991 17.4722 3.99987 16.4832C2.51983 15.4943 1.36628 14.0887 0.685088 12.4442C0.00389955 10.7996 -0.17433 8.99002 0.172936 7.24419C0.520203 5.49836 1.37737 3.89471 2.63604 2.63604C3.89471 1.37737 5.49836 0.520203 7.24419 0.172936C8.99002 -0.17433 10.7996 0.00389955 12.4442 0.685088C14.0887 1.36628 15.4943 2.51983 16.4832 3.99987C17.4722 5.47991 18 7.21997 18 9C17.9973 11.3861 17.0482 13.6737 15.361 15.361C13.6737 17.0482 11.3861 17.9973 9 18V18ZM9 1.28572C7.47426 1.28572 5.98278 1.73815 4.71418 2.58581C3.44557 3.43347 2.45681 4.63827 1.87293 6.04787C1.28906 7.45747 1.13629 9.00856 1.43395 10.505C1.7316 12.0014 2.46632 13.376 3.54518 14.4548C4.62404 15.5337 5.9986 16.2684 7.49502 16.5661C8.99145 16.8637 10.5425 16.7109 11.9521 16.1271C13.3617 15.5432 14.5665 14.5544 15.4142 13.2858C16.2619 12.0172 16.7143 10.5257 16.7143 9C16.7119 6.95478 15.8984 4.994 14.4522 3.54781C13.006 2.10162 11.0452 1.2881 9 1.28572V1.28572Z" fill="#0E6016"/>
<path d="M10.1009 3.85712L9 5.06569L12.5761 8.99997L9 12.9343L10.1009 14.1428L14.7857 8.99997L10.1009 3.85712Z" fill="#0E6016"/>
<path d="M5.08067 3.85712L3.85742 5.06569L7.83082 8.99997L3.85742 12.9343L5.08067 14.1428L10.286 8.99997L5.08067 3.85712Z" fill="#0E6016"/>
</svg>
