<svg width="25" height="27" viewBox="0 0 25 27" fill="none" xmlns="http://www.w3.org/2000/svg">
<path d="M24.2059 20.7177L22.3526 19.7911V17.5839C22.3504 16.2712 21.8841 15.0016 21.0363 13.9995C20.1885 12.9974 19.0137 12.3272 17.7195 12.1075V10.1709H15.8663V12.1075C14.5721 12.3272 13.3973 12.9974 12.5495 13.9995C11.7016 15.0016 11.2354 16.2712 11.2331 17.5839V19.7911L9.37988 20.7177V24.9969H14.9396V26.8502H18.6461V24.9969H24.2059V20.7177ZM22.3526 23.1437H11.2331V21.8631L13.0864 20.9364V17.5839C13.0864 16.6009 13.4769 15.6581 14.172 14.963C14.8671 14.2679 15.8099 13.8774 16.7929 13.8774C17.7759 13.8774 18.7187 14.2679 19.4138 14.963C20.1089 15.6581 20.4994 16.6009 20.4994 17.5839V20.9364L22.3526 21.8631V23.1437Z" fill="#9F0000"/>
<path d="M22.3523 4.61104C22.3523 4.11953 22.157 3.64815 21.8095 3.3006C21.4619 2.95304 20.9906 2.75779 20.499 2.75779H16.7925V0.904541H14.9393V2.75779H7.52628V0.904541H5.67303V2.75779H1.96653C1.47502 2.75779 1.00364 2.95304 0.656086 3.3006C0.308534 3.64815 0.113281 4.11953 0.113281 4.61104V23.1435C0.113281 23.6351 0.308534 24.1064 0.656086 24.454C1.00364 24.8015 1.47502 24.9968 1.96653 24.9968H5.67303V23.1435H1.96653V4.61104H5.67303V6.46429H7.52628V4.61104H14.9393V6.46429H16.7925V4.61104H20.499V10.1708H22.3523V4.61104Z" fill="#9F0000"/>
</svg>
