<svg width="24" height="26" viewBox="0 0 24 26" fill="none" xmlns="http://www.w3.org/2000/svg">
<path d="M20.5714 11.8182V4.72727C20.5714 3.42727 19.5429 2.36364 18.2857 2.36364H17.1429V1.18182C17.1429 0.531818 16.6286 0 16 0C15.3714 0 14.8571 0.531818 14.8571 1.18182V2.36364H5.71429V1.18182C5.71429 0.531818 5.2 0 4.57143 0C3.94286 0 3.42857 0.531818 3.42857 1.18182V2.36364H2.28571C1.02857 2.36364 0 3.42727 0 4.72727V21.2727C0 22.5727 1.02857 23.6364 2.28571 23.6364H10.2857V21.2727H2.28571V9.45455H18.2857V11.8182H20.5714ZM13.8629 21.2727C13.2343 21.2727 12.8229 21.9345 13.0857 22.5255C13.5367 23.5611 14.2673 24.4399 15.1898 25.0563C16.1123 25.6727 17.1874 26.0004 18.2857 26C21.44 26 24 23.3527 24 20.0909C24 16.8291 21.44 14.1818 18.2857 14.1818C16.7314 14.1818 15.3143 14.8318 14.2857 15.8718V15.0682C14.2857 14.5836 13.8971 14.1818 13.4286 14.1818C12.96 14.1818 12.5714 14.5836 12.5714 15.0682V17.7273C12.5714 18.3773 13.0857 18.9091 13.7143 18.9091H16.2857C16.7543 18.9091 17.1429 18.5073 17.1429 18.0227C17.1429 17.5382 16.7543 17.1364 16.2857 17.1364H15.4857C16.2057 16.4036 17.2 15.9545 18.2857 15.9545C20.4914 15.9545 22.2857 17.81 22.2857 20.0909C22.2857 22.3718 20.4914 24.2273 18.2857 24.2273C16.6629 24.2273 15.2686 23.2227 14.64 21.7927C14.5728 21.6378 14.4636 21.5062 14.3257 21.414C14.1878 21.3217 14.0271 21.2727 13.8629 21.2727V21.2727Z" fill="#0E6016"/>
</svg>
