<svg width="23" height="26" viewBox="0 0 23 26" fill="none" xmlns="http://www.w3.org/2000/svg">
<path d="M18.1557 12.381V14.2381C22.0168 14.2381 24.3166 18.6333 22.1863 21.9267L20.867 20.5771C21.8595 18.5219 20.3949 16.0952 18.1557 16.0952V17.9524L15.4324 15.1667L18.1557 12.381ZM18.1557 26V24.1429C14.2946 24.1429 11.9949 19.7476 14.1251 16.4543L15.4445 17.8038C14.452 19.859 15.9165 22.2857 18.1557 22.2857V20.4286L20.8791 23.2143L18.1557 26ZM19.3661 2.47619H18.1557V0H15.735V2.47619H6.05191V0H3.63114V2.47619H2.42076C1.77874 2.47619 1.16301 2.73707 0.709025 3.20145C0.255044 3.66583 0 4.29565 0 4.95238V22.2857C0 22.9424 0.255044 23.5723 0.709025 24.0366C1.16301 24.501 1.77874 24.7619 2.42076 24.7619H13.3142C12.5436 24.0781 11.9246 23.2339 11.4986 22.2857H2.42076V8.66667H19.3661V11.8733C20.2255 12.0095 21.0485 12.3067 21.7869 12.7648V4.95238C21.7869 4.29565 21.5318 3.66583 21.0778 3.20145C20.6239 2.73707 20.0081 2.47619 19.3661 2.47619Z" fill="#0E6016"/>
</svg>
