<svg width="31" height="44" viewBox="0 0 31 44" fill="none" xmlns="http://www.w3.org/2000/svg">
<path fill-rule="evenodd" clip-rule="evenodd" d="M15.663 0.277039C17.0441 0.277039 18.1639 1.39646 18.1639 2.77794C18.1639 4.15903 17.0441 5.27884 15.663 5.27884C14.2819 5.27884 13.1621 4.15903 13.1621 2.77794C13.1621 1.39684 14.2819 0.277039 15.663 0.277039ZM15.663 1.29987C14.8468 1.29987 14.1849 1.96137 14.1849 2.77755C14.1849 3.59374 14.8464 4.25524 15.663 4.25524C16.4792 4.25524 17.1407 3.59374 17.1407 2.77755C17.1407 1.96137 16.4792 1.29987 15.663 1.29987Z" fill="#DEDEDE"/>
<path fill-rule="evenodd" clip-rule="evenodd" d="M15.6633 0C16.4303 0 17.1248 0.310929 17.6274 0.813495C18.13 1.31606 18.4413 2.01065 18.4413 2.77758C18.4413 3.54451 18.1304 4.2391 17.6274 4.74167C17.1248 5.24423 16.4303 5.55516 15.6633 5.55516C14.8964 5.55516 14.2018 5.24423 13.6992 4.74167C13.1967 4.2391 12.8857 3.54451 12.8857 2.77758C12.8857 2.01065 13.1967 1.31606 13.6992 0.813495C14.2018 0.310929 14.8964 0 15.6633 0ZM17.2357 1.20524C16.8332 0.803105 16.2775 0.554131 15.6633 0.554131C15.0492 0.554131 14.4931 0.803105 14.091 1.20524C13.6885 1.60775 13.4399 2.16342 13.4399 2.77758C13.4399 3.39174 13.6888 3.9478 14.091 4.34993C14.4931 4.75244 15.0492 5.00103 15.6633 5.00103C16.2775 5.00103 16.8332 4.75206 17.2357 4.34993C17.6382 3.94741 17.8868 3.39174 17.8868 2.77758C17.8868 2.16342 17.6378 1.60736 17.2357 1.20524ZM16.9043 1.53694C17.2218 1.85441 17.4185 2.2931 17.4185 2.77797C17.4185 3.26245 17.2218 3.70113 16.9043 4.01899C16.5869 4.33646 16.1478 4.5331 15.6633 4.5331C15.1788 4.5331 14.7402 4.33646 14.4223 4.01899C14.1048 3.70152 13.9082 3.26245 13.9082 2.77797C13.9082 2.29349 14.1044 1.8548 14.4223 1.53694C14.7398 1.21947 15.1788 1.02283 15.6633 1.02283C16.1478 1.02283 16.5865 1.21909 16.9043 1.53694ZM16.5126 1.92868C16.2952 1.71126 15.995 1.57696 15.6637 1.57696C15.332 1.57696 15.0318 1.71126 14.8144 1.92868C14.597 2.1461 14.4627 2.44626 14.4627 2.77758C14.4627 3.10929 14.597 3.40944 14.8144 3.62686C15.0318 3.8439 15.332 3.97858 15.6637 3.97858C15.9954 3.97858 16.2956 3.84428 16.5126 3.62686C16.73 3.40944 16.8643 3.10929 16.8643 2.77758C16.8643 2.44587 16.73 2.14572 16.5126 1.92868Z" fill="#0E6016"/>
<path d="M0.29389 4.92407H0.921521H1.34058H1.76234H2.1864H2.5843H28.7408H29.5574H30.1854V5.5517V5.85455V40.8141V42.2182V42.8343C20.2176 42.8343 10.2463 42.8343 0.277344 42.8343C0.277344 30.4907 0.293505 18.092 0.293505 5.72641V5.5517V4.92407H0.29389Z" fill="#0E6016"/>
<path fill-rule="evenodd" clip-rule="evenodd" d="M0.0165467 5.72643V4.9241C0.0165467 4.77094 0.140457 4.64703 0.293613 4.64703H30.1851C30.3383 4.64703 30.4622 4.77094 30.4622 4.9241V42.8344C30.4622 42.9875 30.3383 43.1114 30.1851 43.1114H0.277066C0.12391 43.1114 0 42.9875 0 42.8344C0 38.3351 0.00461738 31.3269 0.00923514 24.2967C0.0126985 18.9509 0.0161627 13.6224 0.0161627 5.72643H0.0165467ZM0.570677 5.72643C0.570677 10.2014 0.56606 17.2604 0.561442 24.2967C0.557979 29.5745 0.554516 34.8687 0.554516 42.5573H29.9084V5.20116H0.571063V5.72643H0.570677Z" fill="#0E6016"/>
<path d="M1.58648 6.21661H28.8928V41.5417C19.7854 41.5417 10.6777 41.5417 1.57031 41.5417C1.57147 29.7668 1.58609 17.9915 1.58648 6.21661Z" fill="#DDFDD8"/>
<path fill-rule="evenodd" clip-rule="evenodd" d="M28.8924 41.8188H1.56986V41.8176C1.41747 41.8176 1.29395 41.6941 1.29395 41.5417C1.29433 35.7911 1.29818 30.0404 1.30203 24.2898C1.30587 18.2736 1.31011 12.2574 1.31011 6.24127C1.30934 6.23319 1.30895 6.22511 1.30895 6.21664C1.30895 6.06348 1.43286 5.93958 1.58602 5.93958H28.8924C29.0455 5.93958 29.1694 6.06348 29.1694 6.21664V41.5417C29.1694 41.6949 29.0451 41.8188 28.8924 41.8188ZM1.84577 41.2647H28.6153V6.49371H1.86193C1.86154 12.4256 1.8577 18.3579 1.85385 24.2898C1.85 29.9481 1.84654 35.6064 1.84577 41.2647Z" fill="#0E6016"/>
<path d="M20.1299 38.9935V33.705C20.1299 33.3583 20.4112 33.077 20.7579 33.077H26.0464C26.3931 33.077 26.674 33.3579 26.674 33.705V38.9935C26.674 39.3402 26.3931 39.6211 26.0464 39.6211H20.7579C20.4112 39.6211 20.1299 39.3402 20.1299 38.9935Z" fill="#DEDEDE"/>
<path fill-rule="evenodd" clip-rule="evenodd" d="M19.8519 38.9936V33.7051C19.8519 33.4553 19.9532 33.2291 20.1171 33.0651C20.2806 32.9012 20.5069 32.8 20.757 32.8H26.0455C26.2945 32.8 26.5204 32.9016 26.6847 33.0655L26.6851 33.0651C26.849 33.2287 26.9502 33.4549 26.9502 33.7051V38.9936C26.9502 39.2425 26.8486 39.4684 26.6847 39.6327L26.6851 39.6331C26.5211 39.797 26.2953 39.8982 26.0451 39.8982H20.7566C20.5069 39.8982 20.2806 39.797 20.1167 39.6331C20.1105 39.6273 20.1052 39.6212 20.0998 39.6146C19.9458 39.4519 19.8516 39.2333 19.8516 38.9932L19.8519 38.9936ZM20.4061 33.7051V38.9936C20.4061 39.0855 20.4407 39.169 20.4977 39.231C20.5015 39.2344 20.5054 39.2379 20.5088 39.2418C20.5723 39.3052 20.6601 39.3445 20.757 39.3445H26.0455C26.1425 39.3445 26.2302 39.3052 26.2937 39.2418L26.2941 39.2421L26.2945 39.2418C26.3572 39.179 26.3961 39.0913 26.3961 38.9939V33.7054C26.3961 33.6085 26.3568 33.5207 26.2933 33.4572L26.2937 33.4569L26.2933 33.4565C26.2306 33.3938 26.1429 33.3549 26.0451 33.3549H20.7566C20.6597 33.3549 20.5719 33.3941 20.5084 33.4576C20.4449 33.5211 20.4057 33.6089 20.4057 33.7058L20.4061 33.7051Z" fill="#0E6016"/>
<path d="M5.01533 35.7214H14.7107C15.0574 35.7214 15.3383 36.0024 15.3383 36.3491C15.3383 36.6958 15.057 36.9767 14.7107 36.9767H5.01533C4.66861 36.9767 4.3877 36.6958 4.3877 36.3491C4.3877 36.0024 4.66861 35.7214 5.01533 35.7214Z" fill="#0E6016"/>
<path fill-rule="evenodd" clip-rule="evenodd" d="M5.01543 35.4444H14.7108C14.9605 35.4444 15.1868 35.5456 15.3504 35.7095C15.5143 35.8731 15.6155 36.0993 15.6155 36.3495C15.6155 36.5992 15.5143 36.8255 15.3504 36.9894C15.3446 36.9956 15.3384 37.001 15.3319 37.0064C15.1691 37.1603 14.9505 37.2546 14.7104 37.2546H5.01505C4.76607 37.2546 4.54019 37.153 4.37587 36.989L4.37549 36.9894C4.21156 36.8259 4.11035 36.5996 4.11035 36.3495C4.11035 36.0997 4.21156 35.8735 4.37549 35.7095C4.53903 35.546 4.7653 35.4444 5.01505 35.4444H5.01543ZM14.7108 35.9985H5.01543C4.91846 35.9985 4.83072 36.0378 4.76761 36.1013C4.70412 36.1648 4.66487 36.2525 4.66487 36.3495C4.66487 36.4465 4.70412 36.5342 4.76761 36.5977L4.76723 36.5981L4.76761 36.5985C4.83034 36.6612 4.91807 36.7 5.01543 36.7H14.7108C14.8032 36.7 14.8863 36.6654 14.9482 36.6085C14.9517 36.6046 14.9552 36.6008 14.959 36.5973C15.0225 36.5338 15.0617 36.4461 15.0617 36.3491C15.0617 36.2521 15.0225 36.1644 14.959 36.1009C14.8955 36.0374 14.8078 35.9981 14.7108 35.9981V35.9985Z" fill="#0E6016"/>
<path d="M5.01533 25.0036H14.7107C15.0574 25.0036 15.3383 25.2845 15.3383 25.6312C15.3383 25.9779 15.057 26.2592 14.7107 26.2592H5.01533C4.66861 26.2592 4.3877 25.9779 4.3877 25.6312C4.3877 25.2845 4.66861 25.0036 5.01533 25.0036Z" fill="#0E6016"/>
<path fill-rule="evenodd" clip-rule="evenodd" d="M5.01543 24.7266H14.7108C14.9594 24.7266 15.1853 24.8278 15.3496 24.9917L15.35 24.9921L15.3515 24.9936C15.5147 25.1579 15.6155 25.3834 15.6155 25.6313C15.6155 25.881 15.5143 26.1073 15.3504 26.2712C15.3446 26.2774 15.3384 26.2827 15.3319 26.2881C15.1691 26.4421 14.9505 26.5363 14.7104 26.5363H5.01505C4.76607 26.5363 4.54019 26.4347 4.37587 26.2708L4.37549 26.2712C4.21156 26.1077 4.11035 25.8814 4.11035 25.6313C4.11035 25.3827 4.21156 25.1568 4.37549 24.9925L4.37587 24.9921L4.37626 24.9917L4.37741 24.9905C4.54173 24.8274 4.76684 24.7266 5.01505 24.7266H5.01543ZM14.7108 25.2807H5.01543C4.91807 25.2807 4.83034 25.3196 4.76761 25.3823L4.76646 25.3834C4.70373 25.4462 4.66487 25.5339 4.66487 25.6316C4.66487 25.7286 4.70412 25.8164 4.76761 25.8798L4.76723 25.8802L4.76761 25.8806C4.83034 25.9433 4.91807 25.9822 5.01543 25.9822H14.7108C14.8032 25.9822 14.8863 25.9476 14.9482 25.8906C14.9517 25.8868 14.9552 25.8829 14.959 25.8795C15.0225 25.816 15.0617 25.7282 15.0617 25.6313C15.0617 25.5335 15.0229 25.4462 14.9602 25.3831L14.959 25.3819C14.8963 25.3192 14.8085 25.2803 14.7108 25.2803V25.2807Z" fill="#0E6016"/>
<path d="M20.1299 28.2757V22.9872C20.1299 22.6405 20.4112 22.3592 20.7579 22.3592H26.0464C26.3931 22.3592 26.674 22.6405 26.674 22.9872V28.2757C26.674 28.6224 26.3931 28.9033 26.0464 28.9033H20.7579C20.4112 28.9033 20.1299 28.6224 20.1299 28.2757Z" fill="#F3BB7D"/>
<path fill-rule="evenodd" clip-rule="evenodd" d="M19.8519 28.2757V22.9872C19.8519 22.7374 19.9532 22.5112 20.1171 22.3472C20.2806 22.1837 20.5069 22.0821 20.757 22.0821H26.0455C26.2945 22.0821 26.5204 22.1837 26.6847 22.3476L26.6851 22.3472C26.849 22.5112 26.9502 22.737 26.9502 22.9872V28.2757C26.9502 28.5254 26.849 28.7517 26.6851 28.9156C26.5211 29.0791 26.2953 29.1807 26.0451 29.1807H20.7566C20.5069 29.1807 20.2806 29.0795 20.1167 28.9156C20.1109 28.9098 20.1052 28.9037 20.1002 28.8975C19.9462 28.7351 19.8516 28.5162 19.8516 28.276L19.8519 28.2757ZM20.4061 22.9872V28.2757C20.4061 28.3676 20.4411 28.4511 20.4981 28.5135C20.5015 28.5166 20.5054 28.5204 20.5088 28.5239C20.5723 28.5874 20.6601 28.6266 20.757 28.6266H26.0455C26.1425 28.6266 26.2302 28.5874 26.2937 28.5239C26.3572 28.4604 26.3965 28.3726 26.3965 28.2757V22.9872C26.3965 22.8902 26.3572 22.8025 26.2937 22.739L26.2941 22.7386L26.2937 22.7382C26.231 22.6755 26.1433 22.6366 26.0455 22.6366H20.757C20.6601 22.6366 20.5723 22.6759 20.5088 22.7394C20.4453 22.8028 20.4061 22.8906 20.4061 22.9876V22.9872Z" fill="#0E6016"/>
<path d="M5.01533 14.2858H14.7107C15.0574 14.2858 15.3383 14.5671 15.3383 14.9135C15.3383 15.2602 15.057 15.5411 14.7107 15.5411H5.01533C4.66861 15.5411 4.3877 15.2602 4.3877 14.9135C4.3877 14.5667 4.66861 14.2858 5.01533 14.2858Z" fill="#0E6016"/>
<path fill-rule="evenodd" clip-rule="evenodd" d="M5.01602 14.0087H14.7114C14.96 14.0087 15.1859 14.1099 15.3502 14.2738L15.3506 14.2742L15.3521 14.2757C15.5153 14.44 15.6161 14.6652 15.6161 14.9134C15.6161 15.162 15.5149 15.3878 15.351 15.5522L15.3506 15.5525L15.3502 15.5529L15.349 15.5541C15.1851 15.7172 14.9596 15.8181 14.7114 15.8181H5.01602C4.76743 15.8181 4.54155 15.7169 4.37723 15.5529L4.37685 15.5525L4.37646 15.5522L4.37531 15.551C4.21215 15.3867 4.11133 15.1612 4.11133 14.9134C4.11133 14.6648 4.21253 14.4389 4.37646 14.2746L4.37685 14.2742L4.37723 14.2738L4.37839 14.2727C4.5427 14.1095 4.76782 14.0087 5.01602 14.0087ZM14.7114 14.5628H5.01602C4.91867 14.5628 4.83093 14.6017 4.7682 14.6644L4.76705 14.6655C4.70432 14.7283 4.66546 14.816 4.66546 14.9134C4.66546 15.0111 4.70432 15.0985 4.76705 15.1612L4.7682 15.1623C4.83093 15.2251 4.91867 15.2639 5.01602 15.2639H14.7114C14.8091 15.2639 14.8965 15.2251 14.9596 15.1623L14.9607 15.1612C15.0235 15.0985 15.0623 15.0107 15.0623 14.9134C15.0623 14.8156 15.0235 14.7283 14.9607 14.6655L14.9596 14.6644C14.8969 14.6017 14.8091 14.5628 14.7114 14.5628Z" fill="#0E6016"/>
<path d="M26.0464 18.1855H20.7579C20.4112 18.1855 20.1299 17.9042 20.1299 17.5579V12.2694C20.1299 11.9227 20.4108 11.6418 20.7579 11.6418H26.0464C26.3931 11.6418 26.674 11.9227 26.674 12.2694V17.5579C26.674 17.9046 26.3931 18.1855 26.0464 18.1855Z" fill="#F3BB7D"/>
<path fill-rule="evenodd" clip-rule="evenodd" d="M26.9498 12.2694V17.5579C26.9498 17.8076 26.8486 18.0339 26.6847 18.1978L26.6843 18.1974L26.6839 18.1978C26.5204 18.3614 26.2941 18.4629 26.0451 18.4629H20.7566C20.5169 18.4629 20.2979 18.3687 20.1352 18.2147C20.129 18.2094 20.1225 18.204 20.1167 18.1978C19.9528 18.0339 19.8516 17.8076 19.8516 17.5579V12.2694C19.8516 12.0289 19.9458 11.8099 20.0998 11.6479C20.1052 11.6417 20.1105 11.6356 20.1163 11.6298C20.2799 11.4659 20.5061 11.3647 20.7563 11.3647H26.0447C26.2945 11.3647 26.5208 11.4659 26.6847 11.6298C26.8482 11.7938 26.9498 12.02 26.9498 12.2698V12.2694ZM26.3957 17.5579V12.2694C26.3957 12.1724 26.3564 12.0847 26.2929 12.0212C26.2295 11.9577 26.1417 11.9184 26.0447 11.9184H20.7563C20.6593 11.9184 20.5715 11.9577 20.5081 12.0212C20.5046 12.0246 20.5011 12.0281 20.4973 12.0312C20.4403 12.0935 20.4053 12.177 20.4053 12.269V17.5575C20.4053 17.6545 20.4446 17.7422 20.5081 17.8057C20.5119 17.8095 20.5154 17.813 20.5188 17.8168C20.5808 17.8738 20.6639 17.9084 20.7563 17.9084H26.0447C26.1421 17.9084 26.2298 17.8692 26.2933 17.8061L26.2929 17.8057C26.3564 17.7422 26.3957 17.6545 26.3957 17.5575V17.5579Z" fill="#0E6016"/>
<path d="M22.5756 27.3941C22.4005 27.4953 22.1762 27.4353 22.0754 27.2602L22.0761 27.2598L21.2026 25.7467C21.1014 25.572 21.1611 25.3485 21.3358 25.2473C21.5105 25.146 21.734 25.2057 21.8352 25.3804L22.4706 26.481L25.025 23.9266C25.1681 23.7834 25.3998 23.7834 25.5429 23.9266C25.6857 24.0693 25.6857 24.3014 25.5429 24.4445L22.658 27.3295C22.6341 27.3541 22.6068 27.376 22.5756 27.3941Z" fill="#0E6016"/>
<path d="M22.5756 16.6762C22.4005 16.7774 22.1766 16.7174 22.0754 16.5423L22.0761 16.5419L21.2026 15.0288C21.1014 14.8541 21.161 14.6306 21.3358 14.5294C21.5105 14.4282 21.734 14.4878 21.8352 14.6625L22.4706 15.7631L25.025 13.2087C25.1681 13.0655 25.3998 13.0655 25.5429 13.2087C25.6861 13.3518 25.6861 13.5835 25.5429 13.7266L22.658 16.6116C22.6345 16.6362 22.6068 16.6581 22.5756 16.6762Z" fill="#0E6016"/>
<path d="M7.50293 3.1062H23.8209V8.08992H7.50293V3.1062Z" fill="#0E6016"/>
<path fill-rule="evenodd" clip-rule="evenodd" d="M23.8216 8.36701H7.50363C7.35047 8.36701 7.22656 8.2431 7.22656 8.08994V3.10623C7.22656 2.95307 7.35047 2.82916 7.50363 2.82916H23.8216C23.9748 2.82916 24.0987 2.95307 24.0987 3.10623V8.08994C24.0987 8.2431 23.9744 8.36701 23.8216 8.36701ZM7.78069 7.81288H23.5446V3.38329H7.78069V7.81288Z" fill="#0E6016"/>
<path d="M7.50293 6.21661H23.8209V8.08988H7.50293V6.21661Z" fill="#DEDEDE"/>
<path fill-rule="evenodd" clip-rule="evenodd" d="M23.8208 8.36701H7.5028C7.34811 8.36701 7.22266 8.24272 7.22266 8.08956V6.21629C7.22266 6.06314 7.34811 5.93884 7.5028 5.93884H23.8208C23.9755 5.93884 24.1009 6.06314 24.1009 6.21629V8.08956C24.1009 8.24272 23.9755 8.36701 23.8208 8.36701ZM7.78294 7.8125H23.5407V6.49374H7.78294V7.8125Z" fill="#0E6016"/>
</svg>
