<svg version="1.2" xmlns="http://www.w3.org/2000/svg" viewBox="0 0 50 35" width="50" height="35">
	<title>UK-svg</title>
	<style>
		.s0 { fill: #eea3a1 } 
		.s1 { fill: #aca7c8 } 
		.s2 { fill: #e86061 } 
		.s3 { fill: #635a9b } 
		.s4 { fill: #f80404 } 
		.s5 { fill: #1b0a81 } 
		.s6 { fill: #14027a } 
	</style>
	<g id="layer1">
		<g id="g5560">
			<path id="path5540" fill-rule="evenodd" class="s0" d="m1.1 29.5q-0.1-0.1-0.1-0.2c0 0 3.6-1.8 7.9-4l7.9-3.9h1.8c1.9 0 2.3 0 2.3 0.2c0 0.1-3.5 1.9-7.9 4l-7.9 3.9h-2c-1.1 0-2 0-2 0zm5.9-0.1c0-0.2 13.9-7 14-6.9c0.1 0 0.1 1.6 0.1 3.5l-0.1 3.5h-7c-6.2 0-7 0-7-0.1zm15.6 0c-0.1-0.1-0.1-1.5-0.2-4.7v-4.6h-10.8c-6-0.1-10.9-0.1-10.9-0.2c-0.1 0-0.1-1.1-0.1-2.4l0.1-2.4l21.7-0.1l0.1-9.5h5.1l0.1 9.5l21.6 0.1v4.9l-21.6 0.1l-0.1 9.4h-2.5c-1.9 0-2.4 0-2.5-0.1zm6.4 0.1c0-0.1 0-1.6 0-3.5c0-2.9 0-3.5 0.1-3.5c0.2-0.1 14 6.7 14 6.9c0 0.1-0.7 0.1-7 0.1c-3.8 0-7 0-7.1 0zm12.2-3.8c-4.3-2.2-7.8-4-7.9-4c-0.2-0.3 0.2-0.3 2.1-0.3h1.8l6.1 3l6 3v1c0 0.9 0 1.1-0.1 1.1c-0.1 0-3.7-1.7-8-3.8zm-40.6 0.8c0 0 0-1.2 0-2.6l0.1-2.5h5c4.4 0 5.1 0 5.1 0.2c0 0.1-1.4 0.8-5 2.6c-2.8 1.3-5 2.5-5.1 2.5q0-0.1-0.1-0.2zm43.6-2.4c-3.2-1.5-4.9-2.4-4.9-2.5c0-0.2 0.6-0.2 4.8-0.2c2.7 0 4.9 0 5 0l0.3 0.1l-0.1 2.5c0 2.1 0 2.5-0.1 2.5c-0.1 0-2.4-1-5-2.4zm-43.5-10.5c-0.1-0.1-0.1-5.1 0-5.2c0 0 2.3 1.1 5.1 2.5c3.6 1.7 5 2.5 5 2.6c0 0.1-0.7 0.1-5.1 0.2c-2.7 0-5 0-5-0.1zm6-2.9l-6-3l-0.1-1.1c0-1.3 0-1.3 0.7-1c0.2 0.2 3.8 1.9 7.9 4c4.1 2 7.5 3.7 7.6 3.8c0.1 0.2-0.3 0.3-2.1 0.3h-1.9c0 0-6.1-3-6.1-3zm22.6 2.8c0 0-0.1-0.1 0-0.1c0-0.1 3.6-1.9 8-4l8-4h2c1.8 0 2 0 2 0.2c0 0.1-2 1.1-8.1 4.1l-8 4h-1.9c-1.7 0-2 0-2-0.2zm10 0.1c0-0.1 0-0.2 0-0.2c0.3-0.2 9.9-4.9 10-4.8c0 0 0.1 1.2 0 2.5v2.5l-5 0.1c-3.5 0-4.9 0-5-0.1zm-25.5-4.4c-4-2-7-3.5-7-3.6c0-0.1 1.3-0.1 7.1-0.2c3.9 0 7.2 0 7.2 0.1c0 0 0 1.7 0 3.6c0 3.2 0 3.5-0.2 3.5c-0.1 0-3.3-1.5-7.1-3.4zm15.3 3.2c-0.1-0.1-0.1-1.3-0.1-3.5v-3.4h7.2c5.4 0 7.1 0 7.1 0.1c0 0.1-13.2 6.6-13.9 6.9c-0.2 0.1-0.3 0.1-0.3-0.1z" />
			<path id="path5538" fill-rule="evenodd" class="s1" d="m7 29.4c0-0.2 13.9-7 14-6.9c0.1 0 0.1 1.6 0.1 3.5l-0.1 3.5h-7c-6.2 0-7 0-7-0.1zm22 0.1c0-0.1 0-1.6 0-3.5c0-2.9 0-3.5 0.1-3.5c0.2-0.1 14 6.7 14 6.9c0 0.1-0.7 0.1-7 0.1c-3.8 0-7 0-7.1 0zm-27.7-0.2c0 0 3.5-1.8 7.8-3.9l7.7-3.8h1.9c1.1 0 1.9 0 1.9 0c0 0.1-3.5 1.9-7.8 4l-7.9 3.8h-1.8c-1.1 0-1.8 0-1.8-0.1zm21.4 0.1c0-0.1 0-2.1 0-4.7c0-3.4-0.1-4.6-0.2-4.7c-0.1 0-2.6-0.1-10.9-0.1c-9.7 0-10.8 0-10.8-0.1c-0.2-0.3-0.1-4.4 0-4.6c0.1 0 2.7-0.1 10.9-0.1c9.8 0 10.8 0 10.9-0.1c0-0.1 0.1-2.3 0.1-4.8v-4.7h2.3c1.3 0 2.4 0 2.4 0c0 0.1 0.1 2.2 0.1 4.8l0.1 4.8l21.6 0.1v4.7h-10.8c-6 0-10.8 0.1-10.8 0.1c-0.1 0.1-0.1 2.1-0.1 4.6c0 2.5 0 4.6-0.1 4.7c0 0.1-0.4 0.1-2.3 0.1c-1.3 0-2.3 0-2.4 0zm18.6-3.8c-4.2-2.1-7.7-3.9-7.7-3.9c-0.1-0.2 0.5-0.3 2.1-0.2h1.6l5.9 3l6 3v0.9c0.1 0.9 0.1 0.9-0.1 0.9c-0.1 0-3.6-1.7-7.8-3.7zm-40.7 0.9c0 0 0-1.2 0-2.6l0.1-2.5h5c4.4 0 5.1 0 5.1 0.2c0 0.1-1.4 0.8-5 2.6c-2.8 1.3-5 2.5-5.1 2.5q0-0.1-0.1-0.2zm43.6-2.4c-3.2-1.5-4.9-2.4-4.9-2.5c0-0.2 0.6-0.2 4.8-0.2c2.7 0 4.9 0 5 0l0.3 0.1l-0.1 2.5c0 2.1 0 2.5-0.1 2.5c-0.1 0-2.4-1-5-2.4zm-43.5-10.5c-0.1-0.1-0.1-5.1 0-5.2c0 0 2.3 1.1 5.1 2.5c3.6 1.7 5 2.5 5 2.6c0 0.1-0.7 0.1-5.1 0.2c-2.7 0-5 0-5-0.1zm38.6 0c0-0.1 0-0.2 0-0.2c0.3-0.2 9.9-4.9 10-4.8c0 0 0.1 1.2 0 2.5v2.5l-5 0.1c-3.5 0-4.9 0-5-0.1zm-32.4-3c-3.3-1.6-6.1-3-6.1-3.1c-0.1-0.2-0.1-1.8 0-1.8c0.1-0.1 15.3 7.4 15.6 7.6c0.3 0.2-0.1 0.3-1.8 0.3h-1.7zm22.8 2.9c-0.3-0.1-0.7 0.1 8.3-4.3l7.4-3.7h1.9c1.1 0 1.8 0 1.8 0.1c0 0.1-3.5 1.9-7.9 4l-7.9 3.9h-1.7c-1 0.1-1.8 0-1.9 0zm-15.9-4.3c-4-2-7-3.5-7-3.6c0-0.1 1.3-0.1 7.2-0.2c3.9 0 7.1 0 7.1 0.1c0.1 0 0.1 1.6 0.1 3.6c-0.1 3.2-0.1 3.5-0.2 3.5c-0.1 0-3.3-1.5-7.2-3.4zm15.3 3.2c-0.1-0.1-0.1-1.4-0.1-3.6l0.1-3.3h7.1c5.4 0 7.1 0 7.1 0.1c0 0.1-13.1 6.6-13.9 6.9c-0.1 0.1-0.2 0.1-0.3-0.1z" />
			<path id="path5536" fill-rule="evenodd" class="s2" d="m1.3 29.3c0 0 3.5-1.8 7.8-3.9l7.7-3.8h1.9c1.1 0 1.9 0 1.9 0c0 0.1-3.5 1.9-7.8 4l-7.9 3.8h-1.8c-1.1 0-1.8 0-1.8-0.1zm21.4 0.1c0-0.1 0-2.1 0-4.7c0-3.4-0.1-4.6-0.2-4.7c-0.1 0-2.6-0.1-10.9-0.1c-9.7 0-10.8 0-10.8-0.1c-0.2-0.3-0.1-4.4 0-4.6c0.1 0 2.7-0.1 10.9-0.1c9.8 0 10.8 0 10.9-0.1c0-0.1 0.1-2.3 0.1-4.8v-4.7h2.3c1.3 0 2.4 0 2.4 0c0 0.1 0.1 2.2 0.1 4.8l0.1 4.8l21.6 0.1v4.7h-10.8c-6 0-10.8 0.1-10.8 0.1c-0.1 0.1-0.1 2.1-0.1 4.6c0 2.5 0 4.6-0.1 4.7c0 0.1-0.4 0.1-2.3 0.1c-1.3 0-2.3 0-2.4 0zm-15.4-0.1c0-0.1 13.4-6.7 13.6-6.7c0.1 0 0.1 1 0.1 3.4v3.4h-6.9c-4.8 0-6.8 0-6.8-0.1zm21.8 0.1c-0.1-0.1 0-6.8 0.1-6.8c0.1-0.1 13.7 6.6 13.7 6.7c0 0.2-13.7 0.2-13.8 0.1zm12.2-3.8c-4.2-2.1-7.7-3.9-7.7-3.9c-0.1-0.2 0.5-0.3 2.1-0.2h1.6l5.9 3l6 3v0.9c0.1 0.9 0.1 0.9-0.1 0.9c-0.1 0-3.6-1.7-7.8-3.7zm-40.6-1.6c0-1.8 0-2.4 0.1-2.5c0.1 0 2.3 0 5 0.1h4.9l-0.7 0.4c-1.1 0.6-9.1 4.5-9.2 4.5c-0.1 0-0.1-1-0.1-2.5zm43.5 0c-2.5-1.2-4.6-2.3-4.6-2.4c0 0 9.2-0.1 9.5-0.1c0.2 0.1 0.2 0.3 0.2 2.5c0 2.2 0 2.4-0.2 2.4c-0.1 0-2.3-1.1-4.9-2.4zm-43.4-10.5c-0.1 0-0.2-4.8 0-4.9c0 0 2.3 1.1 5 2.4c3.5 1.7 4.8 2.4 4.7 2.5c-0.1 0.1-9.5 0.1-9.7 0zm6.1-2.9c-3.3-1.6-6.1-3-6.1-3.1c-0.1-0.2-0.1-1.8 0-1.8c0.1-0.1 15.3 7.4 15.6 7.6c0.3 0.2-0.1 0.3-1.8 0.3h-1.7zm22.8 2.9c-0.3-0.1-0.7 0.1 8.3-4.3l7.4-3.7h1.9c1.1 0 1.8 0 1.8 0.1c0 0.1-3.5 1.9-7.9 4l-7.9 3.9h-1.7c-1 0.1-1.8 0-1.9 0zm10 0c-0.1-0.1 0-0.1 0-0.2c0.3-0.2 9.3-4.6 9.5-4.6c0.1 0 0.1 0.3 0.1 2.4c0 2.1 0 2.4-0.1 2.4c-0.3 0.1-9.5 0.1-9.5 0zm-25.8-4.4c-3.7-1.9-6.8-3.4-6.8-3.5q0-0.1 7-0.1h7v3.5c0 2.8-0.1 3.5-0.2 3.5c0 0-3.2-1.5-7-3.4zm15.3-0.1v-3.5h7c4.3 0 6.9 0 6.9 0.1c0 0.1-13.6 6.8-13.8 6.8c-0.1 0-0.1-1.5-0.1-3.4z" />
			<path id="path5534" class="s3" d="m7.3 29.3c0-0.1 13.4-6.7 13.6-6.7c0.1 0 0.1 1 0.1 3.4v3.4h-6.9c-4.8 0-6.8 0-6.8-0.1zm21.8 0.1c-0.1-0.1 0-6.8 0.1-6.8c0.1-0.1 13.7 6.6 13.7 6.7c0 0.2-13.7 0.2-13.8 0.1zm-27.5-0.1c0 0 3.4-1.8 7.6-3.8l7.7-3.8h1.7c0.9 0 1.6 0 1.6 0c0 0.1-3.4 1.8-7.7 3.9l-7.7 3.7h-1.6c-0.9 0-1.6 0-1.6 0zm21.2 0c0-0.1-0.1-2.1-0.1-4.7c0-2.5 0-4.6 0-4.6c-0.1-0.1-2.4-0.2-10.9-0.2h-10.9v-2.2c0-1.7 0-2.2 0.1-2.3c0.1 0 5-0.1 10.9-0.1c5.9 0 10.7 0 10.7 0c0.1-0.1 0.1-2.2 0.1-4.8l0.1-4.7l2.2-0.1c1.7 0 2.2 0 2.3 0.1c0 0.1 0 2.2 0 4.7c0.1 2.8 0.1 4.7 0.2 4.7c0 0.1 4.1 0.1 10.8 0.1l10.8 0.1v2.2v2.3h-10.8c-6 0-10.9 0-10.9 0.1c0 0-0.1 2.1-0.1 4.7v4.7h-2.2c-1.2 0-2.2 0-2.3 0zm18.6-3.8l-7.5-3.8h1.6h1.7l6 2.9l5.9 3l0.1 0.7c0 0.4-0.1 0.8-0.1 0.9c0 0-3.5-1.7-7.7-3.7zm-40.7-1.5c0-1.8 0-2.4 0.1-2.5c0.1 0 2.3 0 5 0.1h4.9l-0.7 0.4c-1.1 0.6-9.1 4.5-9.2 4.5c-0.1 0-0.1-1-0.1-2.5zm43.5 0c-2.5-1.2-4.6-2.3-4.6-2.4c0 0 9.2-0.1 9.5-0.1c0.2 0.1 0.2 0.3 0.2 2.5c0 2.2 0 2.4-0.2 2.4c-0.1 0-2.3-1.1-4.9-2.4zm-43.4-10.5c-0.1 0-0.2-4.8 0-4.9c0 0 2.3 1.1 5 2.4c3.5 1.7 4.8 2.4 4.7 2.5c-0.1 0.1-9.5 0.1-9.7 0zm38.8 0c0 0 0-0.1 0.1-0.2c0.2-0.2 9.3-4.6 9.4-4.6c0.1 0 0.2 0.3 0.2 2.4c0 2.1-0.1 2.4-0.2 2.4c-0.2 0.1-9.4 0.1-9.5 0zm-32.6-3c-3.2-1.6-5.9-3-6-3.1c-0.2-0.1-0.2-0.3-0.2-0.8c0-0.4 0-0.7 0.1-0.7c0.1-0.1 15.2 7.3 15.2 7.4c0 0.1-0.7 0.1-1.6 0.1h-1.7zm22.9 2.8c0 0 3.6-1.8 7.8-3.9l7.8-3.8h1.6c0.8 0 1.5 0 1.6 0.1c0 0-3.5 1.8-7.7 3.9l-7.7 3.8h-1.7c-1 0-1.7 0-1.7-0.1zm-16-4.2c-3.8-1.9-6.9-3.5-6.9-3.5q0-0.1 7-0.1h7v3.5c0 2.8 0 3.5-0.1 3.5c-0.1 0-3.2-1.5-7-3.4zm15.3-0.1v-3.5h6.9c4.4 0 7 0 7 0.1c0 0.1-13.7 6.8-13.8 6.8c-0.1 0-0.1-1.5-0.1-3.4z" />
			<path id="path5532" class="s4" d="m1.6 29.3c0 0 3.4-1.8 7.6-3.8l7.7-3.8h1.7c0.9 0 1.6 0 1.6 0c0 0.1-3.4 1.8-7.7 3.9l-7.7 3.7h-1.6c-0.9 0-1.6 0-1.6 0zm6 0c0-0.1 13.1-6.6 13.2-6.5c0.1 0 0.1 1.5 0.1 3.3v3.2h-6.7c-3.6 0-6.6 0-6.6 0zm15.2 0c0-0.1-0.1-2.1-0.1-4.7c0-2.5 0-4.6 0-4.6c-0.1-0.1-2.4-0.2-10.9-0.2h-10.9v-2.2c0-1.7 0-2.2 0.1-2.3c0.1 0 5-0.1 10.9-0.1c5.9 0 10.7 0 10.7 0c0.1-0.1 0.1-2.2 0.1-4.8l0.1-4.7l2.2-0.1c1.7 0 2.2 0 2.3 0.1c0 0.1 0 2.2 0 4.7c0.1 2.8 0.1 4.7 0.2 4.7c0 0.1 4.1 0.1 10.8 0.1l10.8 0.1v2.2v2.3h-10.8c-6 0-10.9 0-10.9 0.1c0 0-0.1 2.1-0.1 4.7v4.7h-2.2c-1.2 0-2.2 0-2.3 0zm6.4 0c-0.1-0.1-0.1-6.5 0-6.5c0.1-0.1 13.4 6.4 13.4 6.5c0 0.1-13.3 0.1-13.4 0zm12.2-3.8l-7.5-3.8h1.6h1.7l6 2.9l5.9 3l0.1 0.7c0 0.4-0.1 0.8-0.1 0.9c0 0-3.5-1.7-7.7-3.7zm-40.5 0.8c-0.1 0-0.1-1.1-0.1-2.3v-2.3h4.7c2.6 0 4.7 0 4.7 0c0 0.1-9.3 4.7-9.3 4.6zm43.6-2.3c-2.5-1.2-4.6-2.3-4.6-2.3c-0.1 0 2 0 4.6 0h4.7v2.3c0 1.2-0.1 2.3-0.1 2.3c0 0-2.1-1.1-4.6-2.3zm-43.7-12.9c0-1.6 0-2.3 0.1-2.3c0.1 0 9.3 4.5 9.3 4.5c0 0.1-2.1 0.1-4.7 0.1h-4.7zm6.2-0.6c-3.2-1.6-5.9-3-6-3.1c-0.2-0.1-0.2-0.3-0.2-0.8c0-0.4 0-0.7 0.1-0.7c0.1-0.1 15.2 7.4 15.2 7.5c0 0-0.7 0-1.6 0h-1.7zm22.9 2.8c0 0 3.6-1.8 7.8-3.9l7.8-3.8h1.6c0.8 0 1.5 0 1.6 0.1c0 0-3.5 1.8-7.7 3.9l-7.7 3.8h-1.7c-1 0-1.7 0-1.7-0.1zm14.5-2.2c2.6-1.3 4.7-2.3 4.7-2.3c0.1 0 0.1 1 0.1 2.3v2.3h-4.7h-4.7zm-30.4-2.1c-3.7-1.8-6.7-3.3-6.7-3.4c0 0 3.1 0 6.8 0h6.8v3.4c0 2.6 0 3.3-0.1 3.3c-0.1 0-3.1-1.5-6.8-3.3zm15.3 0v-3.4h6.7c3.7 0 6.8 0 6.8 0c0 0.1-11.1 5.6-13.1 6.5l-0.4 0.2z" />
			<path id="path5530" class="s5" d="m7.6 29.3c0-0.1 13.1-6.6 13.2-6.5c0.1 0 0.1 1.5 0.1 3.3v3.2h-6.7c-3.6 0-6.6 0-6.6 0zm21.6 0c-0.1-0.1-0.1-6.5 0-6.5c0.1-0.1 13.4 6.4 13.4 6.5c0 0.1-13.3 0.1-13.4 0zm-28.3-3c-0.1 0-0.1-1.1-0.1-2.3v-2.3h4.7c2.6 0 4.7 0 4.7 0c0 0.1-9.3 4.7-9.3 4.6zm43.6-2.3c-2.5-1.2-4.6-2.3-4.6-2.3c-0.1 0 2 0 4.6 0h4.7v2.3c0 1.2-0.1 2.3-0.1 2.3c0 0-2.1-1.1-4.6-2.3zm-43.7-12.9c0-1.6 0-2.3 0.1-2.3c0.1 0 9.3 4.5 9.3 4.5c0 0.1-2.1 0.1-4.7 0.1h-4.7zm43.6 0c2.5-1.3 4.7-2.3 4.7-2.3c0 0 0.1 1 0.1 2.3v2.3h-4.7h-4.7zm-30.4-2.1c-3.7-1.8-6.7-3.3-6.7-3.3c0-0.1 3.1-0.1 6.8-0.1h6.8v3.4c0 2.6 0 3.3-0.1 3.3c-0.1 0-3.2-1.5-6.8-3.3zm15.2 0v-3.4h6.8c3.7 0 6.7 0 6.7 0.1c0 0-11 5.5-13 6.4l-0.5 0.2z" />
			<path id="path5528" class="s6" d="m14.2 26.1c3.6-1.8 6.5-3.2 6.5-3.2c0.1 0 0.1 1.4 0.1 3.2v3.2l-6.5-0.1h-6.5c0 0 6.4-3.1 6.4-3.1zm15.1 2.7c0-0.2 0.1-1.7 0.1-3.2v-2.8l4.5 2.3c3.4 1.6 4.6 2.3 4.5 2.3q-0.2 0.1 0 0.1c0.2-0.1 0.8 0.2 2.1 0.8l1.8 0.9h-6.5l-6.6 0.1c0 0 0.1-0.5 0.1-0.5zm-28.4-4.8v-2.2h4.5c2.4 0 4.4 0 4.4 0c0 0-0.8 0.5-1.9 1c-2.2 1-6.1 3-6.6 3.2c-0.1 0.1-0.3 0.2-0.3 0.2c-0.1 0-0.1-1-0.1-2.2zm43.7 0l-4.4-2.2h4.4h4.5v2.2c0 1.2 0 2.2-0.1 2.2c0 0-2-1-4.4-2.2zm0-10.7l-4.4-0.1l4.5-2.1l4.4-2.2v2.3c0 1.2 0 2.2-0.1 2.2c0 0-2-0.1-4.4-0.1zm-43.7-2.2c0-1.2 0-2.2 0-2.2c0.1 0 8.8 4.3 8.9 4.4c0 0-2 0-4.4 0h-4.5zm13.2-2.1l-6.6-3.3h6.7h6.6v3.3c0 1.8 0 3.2-0.1 3.2c0 0-3-1.4-6.6-3.2zm15.3-0.1v-3.2h6.5h6.6l-1.5 0.8c-0.8 0.4-1.6 0.8-1.7 0.8c-0.2 0.1-2.4 1.2-5.1 2.5c-2.6 1.3-4.8 2.4-4.8 2.4c0 0 0-1.5 0-3.3z" />
		</g>
	</g>
</svg>