<svg width="407" height="239" viewBox="0 0 407 239" fill="none" xmlns="http://www.w3.org/2000/svg">
<path d="M60.7034 194.09C60.7034 198.023 63.9206 201.24 67.8536 201.24H389.754C393.687 201.24 396.904 198.023 396.904 194.09V7.85829C396.904 3.92529 393.687 0.70813 389.754 0.70813H67.8536C63.9206 0.70813 60.7034 3.92529 60.7034 7.85829V194.09Z" fill="#104761"/>
<path d="M154.328 180.471C154.328 184.404 157.546 187.622 161.479 187.622H377.839C381.772 187.622 384.989 184.404 384.989 180.471V53.4807C384.989 49.5477 381.772 46.3306 377.839 46.3306H161.479C157.546 46.3306 154.328 49.5477 154.328 53.4807V180.471Z" fill="#0E6016"/>
<path d="M36.0389 89.68C36.0389 93.613 39.2561 96.8301 43.1891 96.8301H133.273C137.206 96.8301 140.423 93.613 140.423 89.68V52.9003C140.423 48.9673 137.206 45.7501 133.273 45.7501H43.1891C39.2561 45.7501 36.0389 48.9673 36.0389 52.9003V89.68Z" fill="#E3F6FF"/>
<path d="M77.8609 14.6497C74.7025 14.6497 72.1408 17.2097 72.1408 20.3698C72.1408 23.5282 74.7025 26.0899 77.8609 26.0899C81.0194 26.0899 83.5811 23.5299 83.5811 20.3698C83.5811 17.2113 81.0194 14.6497 77.8609 14.6497Z" fill="#F38000"/>
<path d="M95.7359 14.6497C92.5775 14.6497 90.0158 17.2097 90.0158 20.3698C90.0158 23.5282 92.5775 26.0899 95.7359 26.0899C98.8944 26.0899 101.456 23.5299 101.456 20.3698C101.456 17.2113 98.8944 14.6497 95.7359 14.6497Z" fill="#E3F6FF"/>
<path d="M113.611 14.6497C110.452 14.6497 107.891 17.2097 107.891 20.3698C107.891 23.5282 110.452 26.0899 113.611 26.0899C116.769 26.0899 119.331 23.5299 119.331 20.3698C119.331 17.2113 116.769 14.6497 113.611 14.6497Z" fill="#E3F6FF"/>
<path d="M200.12 26.8042H384.987V13.9355H200.12V26.8042Z" fill="#E3F6FF"/>
<path opacity="0.5" d="M280.195 37.5286H384.987V33.9543H280.195V37.5286V37.5286Z" fill="#D9DEE1"/>
<path d="M89.3042 91.3285H135.341V50.6582H89.3042V91.3285Z" fill="#1CAB04"/>
<path d="M46.0464 58.397H83.5811V51.9626H46.0464V58.397Z" fill="#F38000"/>
<path opacity="0.5" d="M52.1226 68.0485H83.5801V64.8313H52.1226V68.0485Z" fill="#145075"/>
<path opacity="0.5" d="M52.1226 74.2106H83.5801V70.9934H52.1226V74.2106Z" fill="#145075"/>
<path d="M42.3528 91.3284L48.6681 87.1835L54.9834 91.3284V79.0028H42.3528V91.3284Z" fill="#F38000"/>
<path d="M232.993 118.55C232.993 138.8 249.41 155.215 269.659 155.215C289.909 155.215 306.324 138.798 306.324 118.55C306.324 98.2992 289.907 81.884 269.659 81.884C249.408 81.884 232.993 98.3009 232.993 118.55Z" fill="#E3F6FF"/>
<path d="M250.882 113.676C246.527 116.231 246.527 120.412 250.882 122.967L277.244 138.431C281.598 140.986 285.162 138.947 285.162 133.897V102.746C285.162 97.6975 281.599 95.656 277.244 98.2111L250.882 113.676V113.676Z" fill="#F38000"/>
<path d="M-0.000575297 122.556C-0.000575297 126.215 -0.000575297 128.094 -0.000575297 128.191V137.629C3.39759 131.337 10.2575 128.191 20.5808 128.191H108.428C119.495 128.191 125.441 122.928 125.441 113.862C125.441 110.203 125.441 108.324 125.441 108.226H17.0131C6.4028 108.226 -0.000575297 115.719 -0.000575297 122.556Z" fill="#E3F6FF"/>
<path d="M108.857 117.981C108.857 121.033 111.331 123.505 114.382 123.505C117.433 123.505 119.906 121.032 119.906 117.981C119.906 114.93 117.433 112.456 114.382 112.456C111.329 112.456 108.857 114.93 108.857 117.981Z" fill="#F38000"/>
<path d="M69.6939 115.253H106.138V113.109H69.6939V115.253Z" fill="#1B6C9E"/>
<path opacity="0.5" d="M7.73224 122.413H106.139V119.292H7.73224V122.413Z" fill="#145075"/>
<path d="M-0.000575297 176.287C-0.000575297 179.947 -0.000575297 181.825 -0.000575297 181.923V191.361C3.39759 185.068 10.2575 181.923 20.5808 181.923H108.428C119.495 181.923 125.441 176.659 125.441 167.593C125.441 163.934 125.441 162.056 125.441 161.958H17.0131C6.4028 161.958 -0.000575297 169.449 -0.000575297 176.287Z" fill="#E3F6FF"/>
<path d="M108.857 171.712C108.857 174.765 111.331 177.237 114.382 177.237C117.433 177.237 119.906 174.763 119.906 171.712C119.906 168.661 117.433 166.188 114.382 166.188C111.329 166.188 108.857 168.661 108.857 171.712Z" fill="#F38000"/>
<path d="M69.6939 168.984H106.138V166.84H69.6939V168.984Z" fill="#1B6C9E"/>
<path opacity="0.5" d="M7.73224 176.144H106.139V173.023H7.73224V176.144Z" fill="#145075"/>
<path d="M125.383 134.368H26.6979C26.6979 134.466 26.6979 136.344 26.6979 140.003C26.6979 149.069 32.6447 154.333 43.7115 154.333H121.815C132.138 154.333 138.998 157.478 142.396 163.771V154.333C142.396 154.235 142.396 152.357 142.396 148.698C142.396 141.861 135.993 134.368 125.383 134.368Z" fill="#E3F6FF"/>
<path d="M123.617 144.121C123.617 147.173 126.091 149.645 129.142 149.645C132.192 149.645 134.666 147.172 134.666 144.121C134.666 141.07 132.192 138.596 129.142 138.596C126.089 138.596 123.617 141.07 123.617 144.121Z" fill="#F38000"/>
<path d="M84.4517 141.393H120.896V139.248H84.4517V141.393Z" fill="#1B6C9E"/>
<path opacity="0.5" d="M39.291 148.553H120.896V145.432H39.291V148.553Z" fill="#145075"/>
<path d="M379.033 224.25C379.033 231.923 385.253 238.144 392.927 238.144C400.601 238.144 406.821 231.923 406.821 224.25C406.821 216.574 400.601 210.354 392.927 210.354C385.253 210.354 379.033 216.574 379.033 224.25Z" fill="#E3F6FF"/>
<path d="M58.4908 224.25C58.4908 228.853 63.1984 232.62 68.9528 232.62H292.056C297.81 232.62 302.518 228.853 302.518 224.25C302.518 219.647 297.81 215.88 292.056 215.88H68.9528C63.1984 215.88 58.4908 219.647 58.4908 224.25Z" fill="#1B6C9E"/>
<path d="M315.916 223.051C314.794 223.71 314.794 224.788 315.916 225.447L322.712 229.433C323.834 230.091 324.754 229.566 324.754 228.264V220.232C324.754 218.931 323.836 218.406 322.712 219.063L315.916 223.05V223.051Z" fill="#1B6C9E"/>
<path d="M311.102 230.79C311.694 230.79 312.175 230.309 312.175 229.717V218.781C312.175 218.189 311.695 217.708 311.102 217.708C310.51 217.708 310.029 218.189 310.029 218.781V229.717C310.029 230.309 310.508 230.79 311.102 230.79Z" fill="#1B6C9E"/>
<path d="M338.555 219.064C337.434 218.407 336.514 218.932 336.514 220.234V228.266C336.514 229.567 337.432 230.092 338.555 229.435L345.352 225.448C346.475 224.789 346.475 223.712 345.352 223.053L338.555 219.066V219.064Z" fill="#1B6C9E"/>
<path d="M350.169 230.79C350.761 230.79 351.242 230.309 351.242 229.717V218.781C351.242 218.189 350.763 217.708 350.169 217.708C349.577 217.708 349.096 218.189 349.096 218.781V229.717C349.096 230.309 349.576 230.79 350.169 230.79Z" fill="#1B6C9E"/>
<path d="M372.068 220.926C372.068 219.746 371.103 218.782 369.924 218.782H363.276C362.096 218.782 361.132 219.748 361.132 220.926V227.573C361.132 228.753 362.097 229.717 363.276 229.717H369.924C371.105 229.717 372.068 228.752 372.068 227.573V220.926Z" fill="#1B6C9E"/>
<path d="M399.495 218.456C399.495 217.07 398.362 215.937 396.976 215.937C395.591 215.937 394.458 217.07 394.458 218.456V230.043C394.458 231.429 395.591 232.561 396.976 232.561C398.362 232.561 399.495 231.428 399.495 230.043V218.456Z" fill="#1B6C9E"/>
<path d="M391.397 218.456C391.397 217.07 390.264 215.937 388.878 215.937C387.494 215.937 386.361 217.07 386.361 218.456V230.043C386.361 231.429 387.494 232.561 388.878 232.561C390.264 232.561 391.397 231.428 391.397 230.043V218.456Z" fill="#1B6C9E"/>
<path d="M220.657 224.964H292.555V223.534H220.657V224.964Z" fill="#F38000"/>
<path d="M67.8548 224.964H220.658C221.052 224.964 221.372 224.644 221.372 224.25C221.372 223.855 221.052 223.534 220.658 223.534H67.8548C67.4602 223.534 67.1406 223.854 67.1406 224.25C67.1406 224.644 67.4602 224.964 67.8548 224.964Z" fill="#E3F6FF"/>
</svg>
