<svg width="362" height="211" viewBox="0 0 362 211" fill="none" xmlns="http://www.w3.org/2000/svg">
<path d="M307.366 171.731C307.366 175.223 304.509 178.08 301.016 178.08H15.1563C11.6636 178.08 8.80664 175.223 8.80664 171.731V6.34961C8.80664 2.85696 11.6636 0 15.1563 0H301.016C304.509 0 307.366 2.85696 307.366 6.34961V171.731Z" fill="#104761"/>
<path d="M224.224 159.637C224.224 163.129 221.367 165.986 217.874 165.986H25.7378C22.2451 165.986 19.3882 163.129 19.3882 159.637V46.8641C19.3882 43.3714 22.2451 40.5145 25.7378 40.5145H217.874C221.367 40.5145 224.224 43.3714 224.224 46.8641V159.637Z" fill="#0E6016"/>
<path d="M329.27 79.0104C329.27 82.503 326.413 85.36 322.92 85.36H242.922C239.43 85.36 236.573 82.503 236.573 79.0104V46.3486C236.573 42.8559 239.43 39.999 242.922 39.999H322.92C326.413 39.999 329.27 42.8559 329.27 46.3486V79.0104Z" fill="#E3F6FF"/>
<path d="M292.129 12.3807C294.934 12.3807 297.209 14.6541 297.209 17.4604C297.209 20.2652 294.934 22.5401 292.129 22.5401C289.324 22.5401 287.049 20.2666 287.049 17.4604C287.049 14.6555 289.324 12.3807 292.129 12.3807Z" fill="#F38000"/>
<path d="M276.255 12.3807C279.06 12.3807 281.335 14.6541 281.335 17.4604C281.335 20.2652 279.06 22.5401 276.255 22.5401C273.451 22.5401 271.176 20.2666 271.176 17.4604C271.176 14.6555 273.451 12.3807 276.255 12.3807Z" fill="#E3F6FF"/>
<path d="M260.383 12.3807C263.188 12.3807 265.463 14.6541 265.463 17.4604C265.463 20.2652 263.188 22.5401 260.383 22.5401C257.578 22.5401 255.303 20.2666 255.303 17.4604C255.303 14.6555 257.578 12.3807 260.383 12.3807Z" fill="#E3F6FF"/>
<path d="M183.559 23.1743H19.3901V11.7464H183.559V23.1743Z" fill="#E3F6FF"/>
<path opacity="0.5" d="M112.449 32.698H19.3901V29.5239H112.449V32.698V32.698Z" fill="#D9DEE1"/>
<path d="M281.968 80.4743H241.085V44.3575H281.968V80.4743Z" fill="#1CAB04"/>
<path d="M320.382 51.2299H287.049V45.516H320.382V51.2299Z" fill="#F38000"/>
<path opacity="0.5" d="M314.986 59.8008H287.05V56.9438H314.986V59.8008Z" fill="#145075"/>
<path opacity="0.5" d="M314.986 65.2729H287.05V62.416H314.986V65.2729Z" fill="#145075"/>
<path d="M323.662 80.4743L318.054 76.7934L312.446 80.4743V69.5287H323.662V80.4743Z" fill="#F38000"/>
<path d="M154.366 104.648C154.366 122.631 139.787 137.208 121.806 137.208C103.822 137.208 89.2451 122.629 89.2451 104.648C89.2451 86.6647 103.824 72.0873 121.806 72.0873C139.789 72.0873 154.366 86.6661 154.366 104.648Z" fill="#E3F6FF"/>
<path d="M138.481 100.32C142.348 102.589 142.348 106.301 138.481 108.57L115.07 122.304C111.204 124.573 108.039 122.761 108.039 118.277V90.6134C108.039 86.1303 111.203 84.3174 115.07 86.5864L138.481 100.32V100.32Z" fill="#F38000"/>
<path d="M361.273 108.206C361.273 111.455 361.273 113.123 361.273 113.21V121.591C358.255 116.003 352.163 113.21 342.996 113.21H264.984C255.156 113.21 249.875 108.536 249.875 100.485C249.875 97.2353 249.875 95.5672 249.875 95.4803H346.164C355.586 95.4803 361.273 102.134 361.273 108.206Z" fill="#E3F6FF"/>
<path d="M264.602 104.142C264.602 106.853 262.406 109.048 259.696 109.048C256.987 109.048 254.791 106.852 254.791 104.142C254.791 101.433 256.987 99.2365 259.696 99.2365C262.407 99.2365 264.602 101.433 264.602 104.142Z" fill="#F38000"/>
<path d="M299.381 101.72H267.018V99.8157H299.381V101.72Z" fill="#1B6C9E"/>
<path opacity="0.5" d="M354.406 108.078H267.017V105.307H354.406V108.078Z" fill="#145075"/>
<path d="M361.273 155.921C361.273 159.171 361.273 160.839 361.273 160.926V169.307C358.255 163.719 352.163 160.926 342.996 160.926H264.984C255.156 160.926 249.875 156.251 249.875 148.2C249.875 144.951 249.875 143.283 249.875 143.196H346.164C355.586 143.196 361.273 149.848 361.273 155.921Z" fill="#E3F6FF"/>
<path d="M264.602 151.858C264.602 154.569 262.406 156.764 259.696 156.764C256.987 156.764 254.791 154.567 254.791 151.858C254.791 149.149 256.987 146.952 259.696 146.952C262.407 146.952 264.602 149.149 264.602 151.858Z" fill="#F38000"/>
<path d="M299.381 149.435H267.018V147.531H299.381V149.435Z" fill="#1B6C9E"/>
<path opacity="0.5" d="M354.406 155.794H267.017V153.022H354.406V155.794Z" fill="#145075"/>
<path d="M249.929 118.695H337.565C337.565 118.782 337.565 120.45 337.565 123.7C337.565 131.751 332.284 136.425 322.456 136.425H253.097C243.929 136.425 237.838 139.218 234.82 144.806V136.425C234.82 136.338 234.82 134.67 234.82 131.421C234.82 125.349 240.506 118.695 249.929 118.695Z" fill="#E3F6FF"/>
<path d="M251.497 127.356C251.497 130.067 249.3 132.262 246.591 132.262C243.882 132.262 241.685 130.065 241.685 127.356C241.685 124.647 243.882 122.45 246.591 122.45C249.302 122.45 251.497 124.647 251.497 127.356Z" fill="#F38000"/>
<path d="M286.277 124.933H253.913V123.029H286.277V124.933Z" fill="#1B6C9E"/>
<path opacity="0.5" d="M326.381 131.292H253.913V128.52H326.381V131.292Z" fill="#145075"/>
<path d="M24.6774 198.513C24.6774 205.328 19.1531 210.852 12.3387 210.852C5.52423 210.852 0 205.328 0 198.513C0 191.698 5.52423 186.173 12.3387 186.173C19.1531 186.173 24.6774 191.698 24.6774 198.513Z" fill="#E3F6FF"/>
<path d="M309.332 198.514C309.332 202.601 305.151 205.946 300.041 205.946H101.917C96.8069 205.946 92.6265 202.601 92.6265 198.514C92.6265 194.426 96.8069 191.081 101.917 191.081H300.041C305.151 191.081 309.332 194.426 309.332 198.514Z" fill="#1B6C9E"/>
<path d="M80.7277 197.449C81.7239 198.034 81.7239 198.991 80.7277 199.576L74.6923 203.117C73.6961 203.7 72.8794 203.234 72.8794 202.079V194.946C72.8794 193.79 73.6946 193.324 74.6923 193.907L80.7277 197.448V197.449Z" fill="#1B6C9E"/>
<path d="M85.0031 204.322C84.4775 204.322 84.0503 203.894 84.0503 203.369V193.657C84.0503 193.131 84.476 192.704 85.0031 192.704C85.5287 192.704 85.9559 193.131 85.9559 193.657V203.369C85.9559 203.894 85.5302 204.322 85.0031 204.322Z" fill="#1B6C9E"/>
<path d="M60.6221 193.909C61.6183 193.325 62.435 193.792 62.435 194.947V202.08C62.435 203.236 61.6198 203.702 60.6221 203.118L54.5867 199.578C53.589 198.993 53.589 198.036 54.5867 197.451L60.6221 193.91V193.909Z" fill="#1B6C9E"/>
<path d="M50.3093 204.322C49.7836 204.322 49.3564 203.894 49.3564 203.369V193.657C49.3564 193.131 49.7822 192.704 50.3093 192.704C50.8349 192.704 51.2621 193.131 51.2621 193.657V203.369C51.2621 203.894 50.8363 204.322 50.3093 204.322Z" fill="#1B6C9E"/>
<path d="M30.8623 195.562C30.8623 194.514 31.7195 193.658 32.7665 193.658H38.6701C39.7185 193.658 40.5742 194.516 40.5742 195.562V201.465C40.5742 202.513 39.717 203.369 38.6701 203.369H32.7665C31.7181 203.369 30.8623 202.512 30.8623 201.465V195.562Z" fill="#1B6C9E"/>
<path d="M6.50586 193.369C6.50586 192.138 7.51224 191.131 8.74306 191.131C9.97244 191.131 10.9788 192.138 10.9788 193.369V203.658C10.9788 204.889 9.97244 205.894 8.74306 205.894C7.51224 205.894 6.50586 204.888 6.50586 203.658V193.369Z" fill="#1B6C9E"/>
<path d="M13.6973 193.369C13.6973 192.138 14.7037 191.131 15.9345 191.131C17.1639 191.131 18.1702 192.138 18.1702 193.369V203.658C18.1702 204.889 17.1639 205.894 15.9345 205.894C14.7037 205.894 13.6973 204.888 13.6973 203.658V193.369Z" fill="#1B6C9E"/>
<path d="M165.321 199.148H101.473V197.878H165.321V199.148Z" fill="#F38000"/>
<path d="M301.015 199.148H165.32C164.969 199.148 164.686 198.864 164.686 198.514C164.686 198.163 164.969 197.878 165.32 197.878H301.015C301.365 197.878 301.649 198.162 301.649 198.514C301.649 198.864 301.365 199.148 301.015 199.148Z" fill="#E3F6FF"/>
</svg>
