<svg width="15" height="18" viewBox="0 0 15 18" fill="none" xmlns="http://www.w3.org/2000/svg">
<path d="M13.9443 4.0899C14.4966 4.0899 14.9443 3.64219 14.9443 3.0899C14.9443 2.53762 14.4966 2.0899 13.9443 2.0899C13.3921 2.0899 12.9443 2.53762 12.9443 3.0899C12.9443 3.64219 13.3921 4.0899 13.9443 4.0899Z" fill="#111111"/>
<path d="M13.9443 10.4944C14.4966 10.4944 14.9443 10.0467 14.9443 9.49438C14.9443 8.9421 14.4966 8.49438 13.9443 8.49438C13.3921 8.49438 12.9443 8.9421 12.9443 9.49438C12.9443 10.0467 13.3921 10.4944 13.9443 10.4944Z" fill="#111111"/>
<path d="M4.7191 6.40448H0.404494C0.297216 6.40448 0.194331 6.4471 0.118474 6.52295C0.0426162 6.59881 0 6.7017 0 6.80897V11.1236C0 11.2309 0.0426162 11.3337 0.118474 11.4096C0.194331 11.4855 0.297216 11.5281 0.404494 11.5281H4.7191C4.82638 11.5281 4.92926 11.4855 5.00512 11.4096C5.08098 11.3337 5.12359 11.2309 5.12359 11.1236V6.80897C5.12359 6.7017 5.08098 6.59881 5.00512 6.52295C4.92926 6.4471 4.82638 6.40448 4.7191 6.40448ZM4.3146 10.7191H0.808988V7.21347H4.3146V10.7191ZM11.191 6.40448H6.8764C6.76912 6.40448 6.66624 6.4471 6.59038 6.52295C6.51452 6.59881 6.47191 6.7017 6.47191 6.80897V11.1236C6.47191 11.2309 6.51452 11.3337 6.59038 11.4096C6.66624 11.4855 6.76912 11.5281 6.8764 11.5281H11.191C11.2983 11.5281 11.4012 11.4855 11.477 11.4096C11.5529 11.3337 11.5955 11.2309 11.5955 11.1236V6.80897C11.5955 6.7017 11.5529 6.59881 11.477 6.52295C11.4012 6.4471 11.2983 6.40448 11.191 6.40448ZM10.7865 10.7191H7.2809V7.21347H10.7865V10.7191ZM4.7191 12.8764H0.404494C0.297216 12.8764 0.194331 12.919 0.118474 12.9949C0.0426162 13.0707 0 13.1736 0 13.2809V17.5955C0 17.7028 0.0426162 17.8056 0.118474 17.8815C0.194331 17.9574 0.297216 18 0.404494 18H4.7191C4.82638 18 4.92926 17.9574 5.00512 17.8815C5.08098 17.8056 5.12359 17.7028 5.12359 17.5955V13.2809C5.12359 13.1736 5.08098 13.0707 5.00512 12.9949C4.92926 12.919 4.82638 12.8764 4.7191 12.8764ZM4.3146 17.191H0.808988V13.6854H4.3146V17.191ZM11.191 12.8764H6.8764C6.76912 12.8764 6.66624 12.919 6.59038 12.9949C6.51452 13.0707 6.47191 13.1736 6.47191 13.2809V17.5955C6.47191 17.7028 6.51452 17.8056 6.59038 17.8815C6.66624 17.9574 6.76912 18 6.8764 18H11.191C11.2983 18 11.4012 17.9574 11.477 17.8815C11.5529 17.8056 11.5955 17.7028 11.5955 17.5955V13.2809C11.5955 13.1736 11.5529 13.0707 11.477 12.9949C11.4012 12.919 11.2983 12.8764 11.191 12.8764ZM10.7865 17.191H7.2809V13.6854H10.7865V17.191Z" fill="#111111"/>
<path d="M11.1918 0H6.87715C6.76987 0 6.66699 0.0426159 6.59113 0.118473C6.51527 0.194331 6.47266 0.297216 6.47266 0.404494V4.7191C6.47266 4.82638 6.51527 4.92926 6.59113 5.00512C6.66699 5.08098 6.76987 5.12359 6.87715 5.12359H11.1918C11.299 5.12359 11.4019 5.08098 11.4778 5.00512C11.5536 4.92926 11.5962 4.82638 11.5962 4.7191V0.404494C11.5962 0.297216 11.5536 0.194331 11.4778 0.118473C11.4019 0.0426159 11.299 0 11.1918 0ZM10.7873 4.3146H7.28164V0.808988H10.7873V4.3146Z" fill="#111111"/>
</svg>
