<svg width="15" height="18" viewBox="0 0 15 18" fill="none" xmlns="http://www.w3.org/2000/svg">
<path d="M13.1924 3.84821C13.7447 3.84821 14.1924 3.40049 14.1924 2.84821C14.1924 2.29592 13.7447 1.84821 13.1924 1.84821C12.6401 1.84821 12.1924 2.29592 12.1924 2.84821C12.1924 3.40049 12.6401 3.84821 13.1924 3.84821Z" fill="#111111"/>
<path d="M13.1924 10.2911C13.7447 10.2911 14.1924 9.84336 14.1924 9.29108C14.1924 8.73879 13.7447 8.29108 13.1924 8.29108C12.6401 8.29108 12.1924 8.73879 12.1924 9.29108C12.1924 9.84336 12.6401 10.2911 13.1924 10.2911Z" fill="#111111"/>
<path d="M1 10.2911C1.55228 10.2911 2 9.84336 2 9.29108C2 8.73879 1.55228 8.29108 1 8.29108C0.447715 8.29108 0 8.73879 0 9.29108C0 9.84336 0.447715 10.2911 1 10.2911Z" fill="#111111"/>
<path d="M1 16.7341C1.55228 16.7341 2 16.2864 2 15.7341C2 15.1818 1.55228 14.7341 1 14.7341C0.447715 14.7341 0 15.1818 0 15.7341C0 16.2864 0.447715 16.7341 1 16.7341Z" fill="#111111"/>
<path d="M9.5698 0H5.19705C5.08833 0 4.98406 0.0431904 4.90718 0.12007C4.8303 0.19695 4.78711 0.301221 4.78711 0.409945V4.78269C4.78711 4.89142 4.8303 4.99569 4.90718 5.07257C4.98406 5.14945 5.08833 5.19264 5.19705 5.19264H9.5698C9.67853 5.19264 9.7828 5.14945 9.85968 5.07257C9.93656 4.99569 9.97975 4.89142 9.97975 4.78269V0.409945C9.97975 0.301221 9.93656 0.19695 9.85968 0.12007C9.7828 0.0431904 9.67853 0 9.5698 0ZM9.15986 4.37275H5.607V0.81989H9.15986V4.37275Z" fill="#111111"/>
<path d="M9.5698 6.24823H5.19705C5.08833 6.24823 4.98406 6.29142 4.90718 6.3683C4.8303 6.44518 4.78711 6.54945 4.78711 6.65818V11.0309C4.78711 11.1396 4.8303 11.2439 4.90718 11.3208C4.98406 11.3977 5.08833 11.4409 5.19705 11.4409H9.5698C9.67853 11.4409 9.7828 11.3977 9.85968 11.3208C9.93656 11.2439 9.97975 11.1396 9.97975 11.0309V6.65818C9.97975 6.54945 9.93656 6.44518 9.85968 6.3683C9.7828 6.29142 9.67853 6.24823 9.5698 6.24823ZM9.15986 10.621H5.607V7.06812H9.15986V10.621ZM9.5698 12.8074H5.19705C5.08833 12.8074 4.98406 12.8505 4.90718 12.9274C4.8303 13.0043 4.78711 13.1086 4.78711 13.2173V17.59C4.78711 17.6988 4.8303 17.803 4.90718 17.8799C4.98406 17.9568 5.08833 18 5.19705 18H9.5698C9.67853 18 9.7828 17.9568 9.85968 17.8799C9.93656 17.803 9.97975 17.6988 9.97975 17.59V13.2173C9.97975 13.1086 9.93656 13.0043 9.85968 12.9274C9.7828 12.8505 9.67853 12.8074 9.5698 12.8074ZM9.15986 17.1801H5.607V13.6272H9.15986V17.1801Z" fill="#111111"/>
</svg>
