<svg width="562" height="421" viewBox="0 0 562 421" fill="none" xmlns="http://www.w3.org/2000/svg">
<path d="M53.8804 171.169C53.0186 243.423 72.8739 292.832 113.44 319.411" stroke="#263050" stroke-width="2.8"/>
<path opacity="0.6" d="M80.6773 137.724C76.1906 140.795 73.5642 145.931 73.5642 151.375V152.401C73.5642 159.87 67.5111 165.916 60.0491 165.916H43.8256C36.3568 165.916 30.3106 159.863 30.3106 152.401V151.375C30.3106 145.952 27.7184 140.808 23.2385 137.758C9.785 128.579 0.955078 113.135 0.955078 95.626C0.955078 67.4059 23.9703 44.5069 52.1905 44.6437C80.2328 44.7805 102.92 67.5563 102.92 95.626C102.92 113.122 94.1034 128.545 80.6773 137.731V137.724Z" fill="#E0A52E"/>
<path d="M59.2693 180.594H45.3781C39.1882 180.594 34.1748 175.574 34.1748 169.391V160.513H70.4794V169.391C70.4794 175.581 65.4591 180.594 59.2761 180.594H59.2693Z" fill="#263E5F"/>
<g style="mix-blend-mode:multiply">
<path d="M70.3703 165.657H34.2642C33.7785 165.657 33.3887 165.267 33.3887 164.781V163.701C33.3887 163.215 33.7785 162.825 34.2642 162.825H70.3703C70.8559 162.825 71.2458 163.215 71.2458 163.701V164.781C71.2458 165.267 70.8559 165.657 70.3703 165.657Z" fill="#263E5F"/>
</g>
<g style="mix-blend-mode:multiply">
<path d="M70.3703 171.327H34.2642C33.7785 171.327 33.3887 170.937 33.3887 170.451V169.371C33.3887 168.885 33.7785 168.495 34.2642 168.495H70.3703C70.8559 168.495 71.2458 168.885 71.2458 169.371V170.451C71.2458 170.937 70.8559 171.327 70.3703 171.327Z" fill="#263E5F"/>
</g>
<path d="M47.1497 160.506C46.2195 111.07 39.5783 87.6374 27.2192 90.2091C8.67706 94.0734 74.727 135.398 70.4796 97.931C67.2855 69.7792 48.5997 121.104 56.8346 160.5" stroke="#E0A52E" stroke-width="3.4"/>
<path opacity="0.6" d="M22.8012 95.1336L7.26172 89.3063C15.0315 63.4116 28.6286 51.1072 48.0462 52.4067C29.9213 66.6467 21.5017 80.8936 22.7944 95.1336H22.8012Z" fill="url(#paint0_linear_700_5644)"/>
<path d="M342.409 285.424L375.65 328.993C379.589 334.157 375.889 341.591 369.398 341.564L240.848 341.051C234.399 341.023 230.753 333.65 234.638 328.507L268.118 284.241L342.409 285.424V285.424Z" fill="url(#paint1_linear_700_5644)"/>
<path d="M461.377 289.46L149.52 288.215C133.467 288.153 120.513 275.09 120.574 259.037L121.32 71.6873C121.381 55.6348 134.445 42.6806 150.498 42.7422L462.356 43.987C478.408 44.0485 491.362 57.1121 491.301 73.1646L490.555 260.515C490.494 276.567 477.43 289.521 461.377 289.46V289.46Z" fill="url(#paint2_linear_700_5644)"/>
<path d="M477.143 277.75L133.844 276.382L134.726 54.4514L478.026 55.8193L477.143 277.75Z" fill="url(#paint3_linear_700_5644)"/>
<path d="M240.909 118.963L214.228 105.242L180.434 118.963V54.9235H240.909V118.963Z" fill="url(#paint4_linear_700_5644)"/>
<path d="M465.714 72.72H323.834C323.225 72.72 322.732 72.2276 322.732 71.6189V70.2578C322.732 69.6491 323.225 69.1566 323.834 69.1566H465.714C466.323 69.1566 466.815 69.6491 466.815 70.2578V71.6189C466.815 72.2276 466.323 72.72 465.714 72.72Z" fill="#A7D3D8"/>
<path d="M408.795 85.168H323.834C323.225 85.168 322.732 84.6756 322.732 84.0668V82.7058C322.732 82.0971 323.225 81.6046 323.834 81.6046H408.795C409.404 81.6046 409.896 82.0971 409.896 82.7058V84.0668C409.896 84.6756 409.404 85.168 408.795 85.168Z" fill="#A7D3D8"/>
<path d="M465.714 118.962H323.834C323.225 118.962 322.732 118.47 322.732 117.861V116.5C322.732 115.891 323.225 115.399 323.834 115.399H465.714C466.323 115.399 466.815 115.891 466.815 116.5V117.861C466.815 118.47 466.323 118.962 465.714 118.962Z" fill="#A7D3D8"/>
<path d="M465.714 147.429H323.834C323.225 147.429 322.732 146.936 322.732 146.328V144.967C322.732 144.358 323.225 143.865 323.834 143.865H465.714C466.323 143.865 466.815 144.358 466.815 144.967V146.328C466.815 146.936 466.323 147.429 465.714 147.429Z" fill="#A7D3D8"/>
<path d="M465.714 161.655H323.834C323.225 161.655 322.732 161.163 322.732 160.554V159.193C322.732 158.584 323.225 158.092 323.834 158.092H465.714C466.323 158.092 466.815 158.584 466.815 159.193V160.554C466.815 161.163 466.323 161.655 465.714 161.655Z" fill="#A7D3D8"/>
<path d="M465.714 175.888H323.834C323.225 175.888 322.732 175.396 322.732 174.787V173.426C322.732 172.817 323.225 172.325 323.834 172.325H465.714C466.323 172.325 466.815 172.817 466.815 173.426V174.787C466.815 175.396 466.323 175.888 465.714 175.888Z" fill="#A7D3D8"/>
<path d="M465.714 190.115H323.834C323.225 190.115 322.732 189.622 322.732 189.014V187.653C322.732 187.044 323.225 186.551 323.834 186.551H465.714C466.323 186.551 466.815 187.044 466.815 187.653V189.014C466.815 189.622 466.323 190.115 465.714 190.115Z" fill="#A7D3D8"/>
<path d="M465.714 204.348H323.834C323.225 204.348 322.732 203.855 322.732 203.247V201.886C322.732 201.277 323.225 200.784 323.834 200.784H465.714C466.323 200.784 466.815 201.277 466.815 201.886V203.247C466.815 203.855 466.323 204.348 465.714 204.348Z" fill="#A7D3D8"/>
<path d="M465.714 218.574H323.834C323.225 218.574 322.732 218.082 322.732 217.473V216.112C322.732 215.503 323.225 215.011 323.834 215.011H465.714C466.323 215.011 466.815 215.503 466.815 216.112V217.473C466.815 218.082 466.323 218.574 465.714 218.574Z" fill="#A7D3D8"/>
<path d="M465.714 232.807H323.834C323.225 232.807 322.732 232.315 322.732 231.706V230.345C322.732 229.736 323.225 229.244 323.834 229.244H465.714C466.323 229.244 466.815 229.736 466.815 230.345V231.706C466.815 232.315 466.323 232.807 465.714 232.807Z" fill="#A7D3D8"/>
<path d="M465.714 247.034H323.834C323.225 247.034 322.732 246.541 322.732 245.933V244.572C322.732 243.963 323.225 243.47 323.834 243.47H465.714C466.323 243.47 466.815 243.963 466.815 244.572V245.933C466.815 246.541 466.323 247.034 465.714 247.034Z" fill="#A7D3D8"/>
<path d="M465.714 261.267H323.834C323.225 261.267 322.732 260.774 322.732 260.166V258.805C322.732 258.196 323.225 257.703 323.834 257.703H465.714C466.323 257.703 466.815 258.196 466.815 258.805V260.166C466.815 260.774 466.323 261.267 465.714 261.267Z" fill="#A7D3D8"/>
<path d="M408.795 131.417H323.834C323.225 131.417 322.732 130.925 322.732 130.316V128.955C322.732 128.346 323.225 127.854 323.834 127.854H408.795C409.404 127.854 409.896 128.346 409.896 128.955V130.316C409.896 130.925 409.404 131.417 408.795 131.417Z" fill="#A7D3D8"/>
<path d="M287.959 132.806H145.833C145.292 132.806 144.854 132.368 144.854 131.828V130.617C144.854 130.077 145.292 129.639 145.833 129.639H287.959C288.5 129.639 288.937 130.077 288.937 130.617V131.828C288.937 132.368 288.5 132.806 287.959 132.806Z" fill="#A7D3D8"/>
<path d="M287.959 158.14H145.833C145.292 158.14 144.854 157.702 144.854 157.162V155.951C144.854 155.411 145.292 154.973 145.833 154.973H287.959C288.5 154.973 288.937 155.411 288.937 155.951V157.162C288.937 157.702 288.5 158.14 287.959 158.14Z" fill="#A7D3D8"/>
<path d="M287.959 170.807H145.833C145.292 170.807 144.854 170.369 144.854 169.829V168.618C144.854 168.078 145.292 167.64 145.833 167.64H287.959C288.5 167.64 288.937 168.078 288.937 168.618V169.829C288.937 170.369 288.5 170.807 287.959 170.807Z" fill="#A7D3D8"/>
<path d="M287.959 183.48H145.833C145.292 183.48 144.854 183.043 144.854 182.502V181.292C144.854 180.751 145.292 180.314 145.833 180.314H287.959C288.5 180.314 288.937 180.751 288.937 181.292V182.502C288.937 183.043 288.5 183.48 287.959 183.48Z" fill="#A7D3D8"/>
<path d="M287.959 196.147H145.833C145.292 196.147 144.854 195.71 144.854 195.169V193.959C144.854 193.418 145.292 192.981 145.833 192.981H287.959C288.5 192.981 288.937 193.418 288.937 193.959V195.169C288.937 195.71 288.5 196.147 287.959 196.147Z" fill="#A7D3D8"/>
<path d="M287.959 208.814H145.833C145.292 208.814 144.854 208.377 144.854 207.836V206.626C144.854 206.085 145.292 205.648 145.833 205.648H287.959C288.5 205.648 288.937 206.085 288.937 206.626V207.836C288.937 208.377 288.5 208.814 287.959 208.814Z" fill="#A7D3D8"/>
<path d="M287.959 221.481H145.833C145.292 221.481 144.854 221.044 144.854 220.503V219.293C144.854 218.752 145.292 218.315 145.833 218.315H287.959C288.5 218.315 288.937 218.752 288.937 219.293V220.503C288.937 221.044 288.5 221.481 287.959 221.481Z" fill="#A7D3D8"/>
<path d="M287.959 234.148H145.833C145.292 234.148 144.854 233.71 144.854 233.17V231.96C144.854 231.419 145.292 230.981 145.833 230.981H287.959C288.5 230.981 288.937 231.419 288.937 231.96V233.17C288.937 233.71 288.5 234.148 287.959 234.148Z" fill="#A7D3D8"/>
<path d="M287.959 246.822H145.833C145.292 246.822 144.854 246.384 144.854 245.844V244.633C144.854 244.093 145.292 243.655 145.833 243.655H287.959C288.5 243.655 288.937 244.093 288.937 244.633V245.844C288.937 246.384 288.5 246.822 287.959 246.822Z" fill="#A7D3D8"/>
<path d="M287.959 259.489H145.833C145.292 259.489 144.854 259.051 144.854 258.511V257.3C144.854 256.76 145.292 256.322 145.833 256.322H287.959C288.5 256.322 288.937 256.76 288.937 257.3V258.511C288.937 259.051 288.5 259.489 287.959 259.489Z" fill="#A7D3D8"/>
<path d="M231.04 143.893H145.833C145.292 143.893 144.854 143.455 144.854 142.915V141.704C144.854 141.164 145.292 140.726 145.833 140.726H231.04C231.58 140.726 232.018 141.164 232.018 141.704V142.915C232.018 143.455 231.58 143.893 231.04 143.893Z" fill="#A7D3D8"/>
<path d="M189.353 277.955C182.575 226.371 166.208 201.94 140.251 204.649C101.321 208.711 157.419 261.978 189.353 277.955Z" fill="url(#paint5_linear_700_5644)"/>
<path d="M189.353 277.955C176.803 252.95 161.755 233.95 144.212 220.948" stroke="white" stroke-width="2.2" stroke-linecap="round" stroke-linejoin="round"/>
<path d="M188.075 279.152C237.778 207.946 240.302 171.785 195.66 170.683C139.219 169.288 194.073 257.006 188.075 279.152Z" fill="url(#paint6_linear_700_5644)"/>
<path d="M187.562 279.467C201.295 253.114 204.886 223.471 198.327 190.539" stroke="white" stroke-width="2.2" stroke-linecap="round" stroke-linejoin="round"/>
<path d="M186.959 276.335C213.565 238.252 232.996 228.15 245.253 246.028C257.509 263.907 238.078 274.009 186.959 276.335V276.335Z" fill="url(#paint7_linear_700_5644)"/>
<path d="M187.841 276.164C199.776 266.068 214.317 259.304 231.457 255.857" stroke="white" stroke-width="2.2" stroke-linecap="round" stroke-linejoin="round"/>
<path d="M203.573 378.703H75.426C66.0968 378.703 58.5391 371.138 58.5391 361.816V340.873C58.5391 331.544 66.1036 323.986 75.426 323.986H203.573C212.902 323.986 220.459 331.551 220.459 340.873V361.816C220.459 371.145 212.895 378.703 203.573 378.703Z" fill="url(#paint8_linear_700_5644)"/>
<path d="M239.152 378.703H159.177C149.848 378.703 142.29 371.138 142.29 361.816V340.873C142.29 331.544 149.855 323.986 159.177 323.986H239.152C240.548 323.986 241.683 325.115 241.683 326.517V376.179C241.683 377.574 240.554 378.71 239.152 378.71V378.703Z" fill="#CE992B"/>
<path d="M176.747 373.122C161.406 373.122 148.917 363.355 148.917 351.345C148.917 339.334 161.399 329.567 176.747 329.567H234.255C238.351 329.567 241.682 332.173 241.682 335.381V367.308C241.682 370.516 238.351 373.122 234.255 373.122H176.747V373.122Z" fill="white"/>
<path d="M245.457 337.385H153.027C152.644 337.385 152.336 337.077 152.336 336.694V335.839C152.336 335.456 152.644 335.148 153.027 335.148H245.457C245.84 335.148 246.148 335.456 246.148 335.839V336.694C246.148 337.077 245.84 337.385 245.457 337.385Z" fill="#D0D0D0"/>
<path d="M242.105 346.317H149.675C149.292 346.317 148.984 346.01 148.984 345.627V344.772C148.984 344.389 149.292 344.081 149.675 344.081H242.105C242.488 344.081 242.796 344.389 242.796 344.772V345.627C242.796 346.01 242.488 346.317 242.105 346.317Z" fill="#D0D0D0"/>
<path d="M242.105 357.486H149.675C149.292 357.486 148.984 357.179 148.984 356.796V355.941C148.984 355.558 149.292 355.25 149.675 355.25H242.105C242.488 355.25 242.796 355.558 242.796 355.941V356.796C242.796 357.179 242.488 357.486 242.105 357.486Z" fill="#D0D0D0"/>
<path d="M242.105 367.534H149.675C149.292 367.534 148.984 367.226 148.984 366.843V365.988C148.984 365.605 149.292 365.297 149.675 365.297H242.105C242.488 365.297 242.796 365.605 242.796 365.988V366.843C242.796 367.226 242.488 367.534 242.105 367.534Z" fill="#D0D0D0"/>
<path d="M93.1549 378.703H86.4521V323.979H93.1549V378.703Z" fill="white"/>
<path d="M104.325 378.703H99.8584V323.979H104.325V378.703Z" fill="white"/>
<path d="M115.493 378.703H111.026V323.979H115.493V378.703Z" fill="white"/>
<path d="M241.75 324.184H74.0022C64.673 324.184 57.1152 316.62 57.1152 307.298V286.355C57.1152 277.026 64.6798 269.468 74.0022 269.468H241.75C243.624 269.468 245.149 270.986 245.149 272.867V320.792C245.149 322.666 243.631 324.191 241.75 324.191V324.184Z" fill="#263E5F"/>
<path d="M63.8252 304.726V288.926C63.8252 281.889 69.5294 276.184 76.5674 276.184H245.143V317.475H76.5674C69.5294 317.475 63.8252 311.771 63.8252 304.733V304.726Z" fill="white"/>
<path d="M255.894 286.581H57.1152V283.893H255.894V286.581Z" fill="#D0D0D0"/>
<path d="M257.905 298.666H59.126V295.978H257.905V298.666Z" fill="#D0D0D0"/>
<path d="M258.575 310.752H59.7959V308.064H258.575V310.752Z" fill="#D0D0D0"/>
<path d="M106.259 192.132C104.091 180.259 107.333 175.314 115.999 177.304C125.225 179.425 120.137 202.898 118.297 219.546C117.633 225.564 113.831 231.104 108.12 229.087C92.2106 223.451 92.3337 224.108 78.1895 213.793L79.3317 209.546L106.259 218.697V192.139V192.132Z" fill="#C58575"/>
<path d="M79.837 192.16L91.0881 196.606C91.6353 196.824 91.9909 197.351 91.9909 197.939V226.412C91.9909 227.459 90.8966 228.157 89.9527 227.705L78.7016 222.404C78.2023 222.165 77.8809 221.666 77.8809 221.112V193.494C77.8809 192.481 78.8999 191.79 79.837 192.16Z" fill="#263050"/>
<path d="M77.1974 209.977C77.5667 209.444 78.2849 209.259 78.8663 209.546C79.9674 210.086 81.5747 211.215 81.4926 213.144C81.4106 215.086 79.8375 215.927 78.7978 216.283C78.237 216.475 77.6214 216.249 77.3 215.75C76.5544 214.614 75.5422 212.35 77.1974 209.97V209.977Z" fill="#C58575"/>
<path d="M104.124 149.262C97.4824 158.482 117.762 167.216 114.055 174.322C111.114 179.958 105.875 185.71 107.359 191.332C109.383 198.993 111.893 206.591 110.649 214.607C108.645 227.555 94.6986 214.457 93.5496 207.549C92.3321 200.251 97.4892 193.521 98.946 186.271C99.8762 181.627 99.2265 176.675 97.1199 172.428C93.6454 165.403 89.6578 160.711 91.867 152.449C93.6453 145.774 99.1854 140.706 104.616 136.444C109.835 132.354 114.999 134.988 119.526 132.799C114.561 135.2 110.765 140.042 104.117 149.269L104.124 149.262Z" fill="url(#paint9_linear_700_5644)"/>
<path d="M115.109 236.822C123.877 254.797 116.518 264.728 93.0377 266.609C69.5506 268.49 54.6198 269.953 48.2453 271C59.0245 293.023 65.7067 316.059 68.2853 340.107L62.4101 343.732L28.26 265.644C25.9072 259.092 29.5322 251.739 35.6331 250.672L115.109 236.815V236.822Z" fill="url(#paint10_linear_700_5644)"/>
<path d="M68.2856 340.114L70.7479 344.532C71.7601 346.351 71.2403 348.636 69.5441 349.84L58.3272 357.773C57.2055 358.567 55.7623 357.343 56.3642 356.105L62.4172 343.739L68.2925 340.114H68.2856Z" fill="#313545"/>
<path d="M135.313 242.403C144.082 260.378 136.722 270.309 113.242 272.19C89.7547 274.071 74.8238 275.534 68.4493 276.581C79.2285 298.604 85.9108 321.647 88.4893 345.688L82.6141 349.313L48.4641 271.225C46.1113 264.673 49.7362 257.321 55.8371 256.254L135.313 242.397V242.403Z" fill="url(#paint11_linear_700_5644)"/>
<path d="M88.1059 344.97L90.5682 349.388C91.5805 351.208 91.0607 353.492 89.3644 354.696L78.1475 362.63C77.0258 363.423 75.5827 362.199 76.1845 360.961L82.2376 348.595L88.1128 344.97H88.1059Z" fill="#313545"/>
<path d="M110.752 212.802C98.1737 210.312 107.517 194.301 107.263 184.37C107.01 174.438 113.022 177.031 125.812 177.831C138.609 178.631 146.831 224.258 141.701 243.546C136.311 263.811 106.354 246.596 97.3666 240.885C96.3817 240.263 96.4911 238.785 97.5649 238.334C109.35 233.341 116.764 213.992 110.752 212.802Z" fill="url(#paint12_linear_700_5644)"/>
<path d="M123.837 199.533C121.668 187.659 124.91 182.714 133.576 184.705C142.803 186.825 137.714 210.298 135.874 226.946C135.211 232.965 131.34 238.683 125.697 236.487C109.515 230.188 106.013 229.511 93.291 222.582L94.8094 217.747L123.837 226.091V199.533V199.533Z" fill="#DCA08F"/>
<path d="M94.1116 223.02C87.3267 222.281 84.3105 220.852 85.0628 218.725C85.8152 216.598 88.127 216.324 91.9914 217.904C91.9914 216.659 91.9914 215.702 91.9914 215.031C91.9914 214.361 92.9284 215.264 94.8093 217.74L98.188 218.711L96.0062 224.032L94.1048 223.013L94.1116 223.02Z" fill="#DCA08F"/>
<path d="M127.926 169.336V179.028C125.997 184.014 121.893 186.278 115.614 185.813L113.351 183.008L114.335 171.005L127.933 169.343L127.926 169.336Z" fill="#C58575"/>
<path d="M130.943 155.862C130.943 164.637 123.83 176.518 115.054 176.518C106.279 176.518 99.166 164.637 99.166 155.862C99.166 147.087 106.279 139.974 115.054 139.974C123.83 139.974 130.943 147.087 130.943 155.862Z" fill="#DCA08F"/>
<path d="M102.811 141.369C103.269 140.152 104.111 139.105 105.075 138.23C110.068 133.674 120.567 131.301 126.982 133.681C136.311 137.135 143.199 148.845 139.854 158.406C138.637 161.888 136.927 165.376 137.173 169.056C137.378 172.195 138.986 175.047 140.552 177.769C146.981 188.945 158.649 201.482 153.13 215.312C150.798 221.166 144.286 226.864 138.281 228.628C128.904 231.385 126.743 222.671 124.814 215.496C123.945 212.248 122.427 208.869 119.459 207.303C117.824 206.441 115.881 206.208 114.356 205.162C106.162 199.553 113.214 183.344 117.598 177.591C124.363 168.72 117.598 161.224 117.598 161.224C116.285 159.774 112.564 158.974 110.82 157.586C107.585 155.007 104.562 151.102 103.064 147.21C102.9 146.786 102.763 146.348 102.654 145.904C102.284 144.399 102.264 142.805 102.811 141.362V141.369Z" fill="url(#paint13_linear_700_5644)"/>
<path d="M494.81 149.515C497.792 149.515 500.206 151.929 500.206 154.911V319.923C468.587 344.518 422.905 363.259 363.175 376.138V207.487C388.94 175.868 428.178 156.539 480.877 149.515H494.803H494.81Z" fill="#E3B54D"/>
<path d="M524.493 167.086C529.513 167.086 533.583 171.155 533.583 176.176V337.494C501.964 362.089 456.282 380.83 396.552 393.709V225.058C422.316 193.439 461.555 174.11 514.254 167.086H524.486H524.493Z" fill="url(#paint14_linear_700_5644)"/>
<path d="M363.175 206.68C413.049 165.116 458.772 148.489 500.336 156.806L528.132 167.093C477.738 168.549 433.835 187.981 396.422 225.386L363.168 206.68H363.175Z" fill="url(#paint15_linear_700_5644)"/>
<path d="M396.552 393.715L363.175 377.902C363.175 321.1 363.175 264.297 363.175 207.494C366.389 207.248 370.767 207.337 375.643 208.759C387.996 212.364 394.562 221.891 396.552 225.065V393.715Z" fill="url(#paint16_linear_700_5644)"/>
<path d="M518.386 220.517V251.637C518.386 256.753 516.368 261.684 512.709 265.254C504.31 273.441 485.508 286.902 449.292 292.305C437.685 294.042 427.221 285.11 427.221 273.373V245.468C427.221 240.037 429.512 234.859 433.554 231.234C444.06 221.816 466.979 204.656 497.265 201.455C508.557 200.265 518.386 209.163 518.386 220.517V220.517Z" fill="url(#paint17_linear_700_5644)"/>
<path d="M85.6644 68.6713L56.5072 80.4559C53.8945 81.5092 50.974 81.4955 48.375 80.4148L20.2916 68.7123C16.2973 67.0503 13.6982 63.1517 13.6982 58.8223V33.6321C13.6982 27.7158 18.4928 22.9213 24.409 22.9213H81.6495C87.5658 22.9213 92.3604 27.7158 92.3604 33.6321V58.7402C92.3604 63.1038 89.7135 67.0366 85.6644 68.6713V68.6713Z" fill="url(#paint18_linear_700_5644)"/>
<path d="M54.25 0.323171L101.375 17.6479C105.786 19.2688 106.06 25.4108 101.806 27.4148L54.6809 49.6092C53.2515 50.2795 51.5963 50.2795 50.1668 49.6092L3.04203 27.4148C-1.21219 25.4108 -0.945443 19.2688 3.47293 17.6479L50.5977 0.323171C51.781 -0.107724 53.0736 -0.107724 54.2569 0.323171H54.25Z" fill="url(#paint19_linear_700_5644)"/>
<path d="M8.10301 61.4211H2.69287V18.1538H8.10301V61.4211Z" fill="#28315B"/>
<path d="M321.007 357.199C322.368 356.248 324.133 356.105 325.624 356.823L368.809 377.67L415.988 387.109L349.939 399.687L324.441 378.443C322.833 377.109 320.515 377.007 318.839 378.244C303.217 389.797 284.757 397.99 263.445 402.833L260.299 399.687L321.007 357.192V357.199Z" fill="url(#paint20_linear_700_5644)"/>
<path d="M263.445 402.84L261.557 406.294C260.846 407.6 259.252 408.134 257.898 407.532L242.981 400.856C242.379 400.589 242.571 399.693 243.227 399.693H260.299L263.445 402.84V402.84Z" fill="#1B202E"/>
<path d="M264.882 418.092L261.722 420.438C260.532 421.327 258.856 421.142 257.878 420.028L247.126 407.716C246.695 407.224 247.242 406.492 247.837 406.766L263.336 413.913L264.875 418.085L264.882 418.092Z" fill="#1B202E"/>
<path d="M261.872 413.845C290.181 404.406 312.718 398.12 329.495 394.974C346.273 391.828 365.663 389.208 387.679 387.109H415.989L412.842 402.833C412.842 411.218 403.93 414.891 386.106 413.845C368.282 412.798 349.939 411.745 331.061 410.698C302.663 417.723 280.599 420.185 264.875 418.085L261.865 413.845H261.872Z" fill="url(#paint21_linear_700_5644)"/>
<path d="M357.544 347.131C352.893 343.191 351.511 340.148 353.406 338.014C355.3 335.873 358.447 337.645 362.845 343.328L357.544 347.138V347.131Z" fill="#DCA08F"/>
<path d="M364.301 343.321L375.409 355.66L372.044 364.257L356.292 347.836L364.301 343.328V343.321Z" fill="url(#paint22_linear_700_5644)"/>
<path d="M403.411 305.334C409.703 307.844 413.896 313.296 415.989 321.681C418.089 330.066 418.089 351.878 415.989 387.108C396.072 390.255 380.341 387.108 368.81 377.67L371.956 316.339C371.956 309 376.675 305.854 386.107 306.901C390.3 315.286 396.065 314.766 403.404 305.328L403.411 305.334Z" fill="url(#paint23_linear_700_5644)"/>
<path d="M356.874 330.648L389.711 331.995C390.798 332.043 391.736 332.823 392.03 333.938L396.475 350.524C396.947 352.281 395.668 354.012 393.958 353.937L362.23 352.582C361.204 352.541 360.308 351.837 359.959 350.804L354.398 334.218C353.796 332.433 355.082 330.566 356.861 330.641L356.874 330.648Z" fill="url(#paint24_linear_700_5644)"/>
<path d="M397.926 348.882L395.012 353.943C387.481 348.342 385.546 345.291 389.205 344.792C391.236 344.511 392.953 345.004 394.321 345.729C394.007 344.34 393.678 342.412 394.273 342.302C394.896 342.186 395.689 343.882 396.647 347.398L396.619 347.391C397.194 347.931 397.625 348.43 397.932 348.882H397.926Z" fill="#DCA08F"/>
<path d="M427.513 367.383C426.268 367.889 424.866 367.793 423.525 367.636C417.985 366.993 412.486 365.502 407.438 363.101C405.079 361.98 393.985 356.467 393.677 353.458C393.67 353.376 393.691 353.293 393.732 353.218L396.645 347.391C396.741 347.193 396.974 347.11 397.179 347.193L417.499 355.899C417.882 356.063 418.245 355.633 418.005 355.291C413.888 349.422 409.449 342.077 405.51 333.253C404.258 330.449 403.17 327.734 402.206 325.107C401.043 321.941 401.235 318.35 403.075 315.525C404.593 313.193 406.994 311.463 410.708 311.038C410.803 311.025 410.899 311.045 410.981 311.093C414.093 312.865 417.11 316.1 418.847 321.886C421.48 330.668 424.462 339.348 426.959 348.171C428.019 351.905 433.012 365.16 427.519 367.383H427.513Z" fill="url(#paint25_linear_700_5644)"/>
<path d="M403.548 297.667V307.68C401.954 311.812 398.657 314.137 393.671 314.657C392.057 314.828 390.422 314.424 389.054 313.535C387.03 312.222 385.806 309.972 385.806 307.557V299.842L403.548 297.667V297.667Z" fill="#DA9482"/>
<path d="M375.102 275.459C374.035 282.757 375 288.776 377.982 293.516C380.252 284.624 379.295 278.605 375.102 275.459Z" fill="#3E2A78"/>
<path d="M408.466 283.749C408.466 292.811 401.12 305.081 392.058 305.081C382.995 305.081 375.649 292.811 375.649 283.749C375.649 274.686 382.995 267.34 392.058 267.34C401.12 267.34 408.466 274.686 408.466 283.749Z" fill="#DCA08F"/>
<path d="M401.838 284.891C402.885 280.698 401.838 277.025 398.692 273.886C398.692 278.079 396.072 280.178 390.826 280.178C385.587 280.178 385.587 278.079 390.826 273.886C386.634 278.079 381.573 279.652 375.643 278.605C369.713 277.559 371.108 274.413 379.815 269.167C374.576 271.266 371.949 270.74 371.949 267.594C371.949 262.874 384.527 259.728 397.112 259.728C405.497 259.728 409.69 266.02 409.69 278.598C409.69 289.61 400.251 291.176 401.825 284.891H401.838Z" fill="url(#paint26_linear_700_5644)"/>
<path d="M405.08 282.825C404.929 280.828 406.044 278.858 407.953 278.243C409.218 277.832 410.565 278.044 411.27 280.172C412.528 283.954 411.769 288.755 408.978 289.692C407.727 290.116 406.373 289.35 405.99 288.085C405.654 286.956 405.251 285.205 405.073 282.825H405.08Z" fill="#DCA08F"/>
<path fill-rule="evenodd" clip-rule="evenodd" d="M387.009 287.675C387.009 290.39 384.807 292.592 382.092 292.592C379.376 292.592 377.174 290.39 377.174 287.675C377.174 284.959 379.376 282.757 382.092 282.757C384.807 282.757 387.009 284.959 387.009 287.675ZM386.421 287.675C386.421 285.287 384.485 283.345 382.092 283.345C379.705 283.345 377.762 285.281 377.762 287.675C377.762 290.062 379.698 292.004 382.092 292.004C384.479 292.004 386.421 290.068 386.421 287.675Z" fill="#271C47"/>
<path opacity="0.6" d="M386.421 287.674C386.421 290.061 384.485 292.004 382.091 292.004C379.704 292.004 377.762 290.068 377.762 287.674C377.762 285.287 379.697 283.345 382.091 283.345C384.478 283.345 386.421 285.281 386.421 287.674Z" fill="#A0C0BA"/>
<path opacity="0.6" d="M386.421 287.674C386.421 290.062 384.485 292.004 382.091 292.004C379.786 292.004 377.912 290.191 377.789 287.914C378.453 289.453 379.978 290.533 381.763 290.533C384.15 290.533 386.092 288.598 386.092 286.204C386.092 286.122 386.072 286.047 386.065 285.965C386.291 286.491 386.414 287.066 386.414 287.668L386.421 287.674Z" fill="#A0C0BA"/>
<path fill-rule="evenodd" clip-rule="evenodd" d="M400.182 286.758C400.182 289.473 397.98 291.669 395.271 291.669C392.556 291.669 390.354 289.466 390.354 286.758C390.354 284.043 392.556 281.84 395.271 281.84C397.986 281.84 400.182 284.043 400.182 286.758ZM399.594 286.758C399.594 284.371 397.658 282.428 395.264 282.428C392.877 282.428 390.935 284.364 390.935 286.758C390.935 289.145 392.87 291.087 395.264 291.087C397.651 291.087 399.594 289.152 399.594 286.758Z" fill="#271C47"/>
<path opacity="0.6" d="M399.594 286.758C399.594 289.145 397.658 291.087 395.264 291.087C392.877 291.087 390.935 289.152 390.935 286.758C390.935 284.371 392.87 282.428 395.264 282.428C397.651 282.428 399.594 284.364 399.594 286.758Z" fill="#A0C0BA"/>
<path opacity="0.6" d="M399.593 286.758C399.593 289.145 397.658 291.087 395.264 291.087C392.959 291.087 391.085 289.275 390.962 286.997C391.625 288.536 393.151 289.617 394.936 289.617C397.323 289.617 399.265 287.681 399.265 285.287C399.265 285.205 399.245 285.13 399.238 285.048C399.464 285.574 399.587 286.149 399.587 286.751L399.593 286.758Z" fill="#A0C0BA"/>
<path d="M386.422 285.971L390.485 285.643V287.681L386.839 288.071L386.429 285.971H386.422Z" fill="#271C47"/>
<path d="M398.904 283.454L401.066 282.9C401.353 282.825 401.64 283.017 401.695 283.304C401.9 284.501 401.141 285.65 399.958 285.93L399.787 285.971L398.904 283.454V283.454Z" fill="#271C47"/>
<path d="M377.68 288.967L377.509 289.001C376.319 289.241 375.15 288.502 374.842 287.332C374.767 287.045 374.952 286.758 375.246 286.703L377.448 286.313L377.687 288.974L377.68 288.967Z" fill="#271C47"/>
<path d="M526.55 342.323C514.39 304.562 521.236 273.852 547.083 250.187" stroke="white" stroke-width="1.5"/>
<path d="M523.486 327.98C517.385 317.666 513.159 314.281 510.819 317.824C508.473 321.367 512.7 324.752 523.486 327.98Z" fill="url(#paint27_linear_700_5644)"/>
<path d="M522.966 328.015C534.826 326.264 539.552 323.631 537.158 320.122C534.764 316.613 530.031 319.24 522.966 328.015Z" fill="url(#paint28_linear_700_5644)"/>
<path d="M522.665 315.697C516.564 305.382 512.337 301.997 509.998 305.54C507.652 309.083 511.879 312.468 522.665 315.697Z" fill="url(#paint29_linear_700_5644)"/>
<path d="M522.146 315.731C534.005 313.98 538.732 311.347 536.338 307.838C533.944 304.329 529.211 306.956 522.146 315.731Z" fill="url(#paint30_linear_700_5644)"/>
<path d="M523.342 301.388C518.786 290.301 515.093 286.348 512.261 289.515C509.43 292.688 513.123 296.642 523.342 301.388Z" fill="url(#paint31_linear_700_5644)"/>
<path d="M522.821 301.347C534.804 301.32 539.866 299.398 537.998 295.575C536.131 291.758 531.07 293.68 522.821 301.347Z" fill="url(#paint32_linear_700_5644)"/>
<path d="M524.724 289.44C520.169 278.353 516.476 274.399 513.644 277.566C510.813 280.74 514.506 284.693 524.724 289.44Z" fill="url(#paint33_linear_700_5644)"/>
<path d="M524.204 289.398C536.187 289.371 541.248 287.449 539.381 283.626C537.514 279.809 532.453 281.731 524.204 289.398Z" fill="url(#paint34_linear_700_5644)"/>
<path d="M528.781 276.766C526.503 265.002 523.658 260.392 520.258 262.943C516.859 265.494 519.698 270.104 528.781 276.766Z" fill="url(#paint35_linear_700_5644)"/>
<path d="M528.274 276.629C540.032 278.961 545.366 278.079 544.293 273.968C543.219 269.858 537.877 270.747 528.274 276.629Z" fill="url(#paint36_linear_700_5644)"/>
<path d="M534.559 265.494C532.281 253.73 529.436 249.12 526.037 251.671C522.637 254.222 525.476 258.832 534.559 265.494Z" fill="url(#paint37_linear_700_5644)"/>
<path d="M534.054 265.35C545.811 267.683 551.146 266.8 550.072 262.69C548.998 258.579 543.656 259.468 534.054 265.35Z" fill="url(#paint38_linear_700_5644)"/>
<path d="M541.899 255.809C539.621 244.045 536.776 239.435 533.377 241.986C529.977 244.538 532.816 249.147 541.899 255.809Z" fill="url(#paint39_linear_700_5644)"/>
<path d="M541.393 255.665C553.15 257.998 558.485 257.115 557.411 253.005C556.337 248.894 550.995 249.783 541.393 255.665Z" fill="url(#paint40_linear_700_5644)"/>
<path d="M542.753 253.969C553.929 249.633 557.957 246.022 554.845 243.129C551.733 240.235 547.705 243.847 542.753 253.969Z" fill="url(#paint41_linear_700_5644)"/>
<path d="M506.864 345.196C501.242 302.4 487.658 282.121 466.127 284.371C433.824 287.743 480.367 331.941 506.864 345.196Z" fill="url(#paint42_linear_700_5644)"/>
<path d="M506.864 345.196C496.454 324.451 483.965 308.686 469.41 297.893" stroke="white" stroke-width="1.8" stroke-linecap="round" stroke-linejoin="round"/>
<path d="M502.959 336.639C545.412 328.822 564.96 314.219 561.608 292.825C556.581 260.74 514.839 309.493 502.959 336.639Z" fill="url(#paint43_linear_700_5644)"/>
<path d="M502.959 336.639C523.143 325.176 538.244 311.894 548.271 296.806" stroke="white" stroke-width="1.8" stroke-linecap="round" stroke-linejoin="round"/>
<path d="M505.804 346.187C547.04 287.1 549.14 257.102 512.097 256.192C465.266 255.036 510.784 327.809 505.804 346.187Z" fill="url(#paint44_linear_700_5644)"/>
<path d="M505.38 346.454C516.775 324.588 519.757 299.993 514.312 272.669" stroke="white" stroke-width="1.8" stroke-linecap="round" stroke-linejoin="round"/>
<path d="M516.304 357.363C508.042 312.844 484.521 285.712 445.733 275.958" stroke="white" stroke-width="1.7"/>
<path d="M511.605 341.297C512.139 327.625 514.546 321.941 518.821 324.225C523.096 326.517 520.695 332.207 511.605 341.297Z" fill="url(#paint45_linear_700_5644)"/>
<path d="M512.146 341.051C499.288 345.722 493.112 345.647 493.611 340.818C494.11 335.996 500.293 336.072 512.146 341.051Z" fill="url(#paint46_linear_700_5644)"/>
<path d="M505.765 328.514C506.298 314.842 508.706 309.158 512.98 311.442C517.255 313.734 514.854 319.424 505.765 328.514Z" fill="url(#paint47_linear_700_5644)"/>
<path d="M506.312 328.268C493.454 332.939 487.278 332.864 487.777 328.035C488.276 323.213 494.459 323.288 506.312 328.268Z" fill="url(#paint48_linear_700_5644)"/>
<path d="M497.331 314.513C495.895 300.909 497.461 294.931 502.023 296.58C506.585 298.228 505.019 304.206 497.331 314.513Z" fill="url(#paint49_linear_700_5644)"/>
<path d="M497.831 314.192C485.78 320.662 479.651 321.469 479.46 316.627C479.261 311.777 485.39 310.97 497.831 314.192Z" fill="url(#paint50_linear_700_5644)"/>
<path d="M489.467 303.255C488.03 289.651 489.597 283.674 494.159 285.322C498.721 286.97 497.154 292.948 489.467 303.255Z" fill="url(#paint51_linear_700_5644)"/>
<path d="M489.965 302.934C477.913 309.404 471.785 310.211 471.594 305.369C471.395 300.519 477.523 299.712 489.965 302.934Z" fill="url(#paint52_linear_700_5644)"/>
<path d="M478.523 292.729C474.433 279.672 474.789 273.51 479.583 274.228C484.378 274.946 484.029 281.116 478.523 292.729Z" fill="url(#paint53_linear_700_5644)"/>
<path d="M478.953 292.312C468.413 301.032 462.565 303.036 461.423 298.324C460.274 293.611 466.122 291.607 478.953 292.312Z" fill="url(#paint54_linear_700_5644)"/>
<path d="M466.601 284.542C462.511 271.485 462.867 265.323 467.661 266.041C472.456 266.759 472.107 272.929 466.601 284.542Z" fill="url(#paint55_linear_700_5644)"/>
<path d="M467.032 284.125C456.492 292.845 450.644 294.849 449.502 290.137C448.353 285.424 454.201 283.42 467.032 284.125Z" fill="url(#paint56_linear_700_5644)"/>
<path d="M453.982 278.79C449.892 265.733 450.248 259.571 455.042 260.289C459.837 261.007 459.488 267.176 453.982 278.79Z" fill="url(#paint57_linear_700_5644)"/>
<path d="M454.413 278.38C443.873 287.1 438.025 289.104 436.883 284.392C435.734 279.679 441.582 277.675 454.413 278.38Z" fill="url(#paint58_linear_700_5644)"/>
<path d="M452.128 277.408C438.559 279.112 432.547 277.668 434.106 273.079C435.666 268.483 441.671 269.933 452.128 277.408Z" fill="url(#paint59_linear_700_5644)"/>
<path d="M539.757 348.957C543.594 353.629 545.817 359.162 545.817 365.085C545.817 381.856 528.068 395.453 506.174 395.453C484.281 395.453 466.532 381.856 466.532 365.085C466.532 359.278 468.666 353.862 472.353 349.245C475.82 344.915 477.496 339.416 477.496 333.876V332.378C477.496 330.409 479.09 328.815 481.06 328.815H531.289C533.259 328.815 534.853 330.409 534.853 332.378V335.627C534.853 340.511 536.658 345.175 539.757 348.951V348.957Z" fill="url(#paint60_linear_700_5644)"/>
<defs>
<linearGradient id="paint0_linear_700_5644" x1="-8.12736" y1="77.3644" x2="23.9503" y2="39.8834" gradientUnits="userSpaceOnUse">
<stop offset="0.1" stop-color="white" stop-opacity="0"/>
<stop offset="1" stop-color="white"/>
</linearGradient>
<linearGradient id="paint1_linear_700_5644" x1="229.071" y1="346.297" x2="229.071" y2="270.241" gradientUnits="userSpaceOnUse">
<stop stop-color="#263C79"/>
<stop offset="1" stop-color="#242C54"/>
</linearGradient>
<linearGradient id="paint2_linear_700_5644" x1="120.663" y1="38.6521" x2="491.232" y2="38.6521" gradientUnits="userSpaceOnUse">
<stop stop-color="#263C79"/>
<stop offset="1" stop-color="#242C54"/>
</linearGradient>
<linearGradient id="paint3_linear_700_5644" x1="121.006" y1="55.8877" x2="512.367" y2="-112.503" gradientUnits="userSpaceOnUse">
<stop stop-color="white"/>
<stop offset="1" stop-color="#D1E9E5"/>
</linearGradient>
<linearGradient id="paint4_linear_700_5644" x1="180.44" y1="50.8265" x2="240.902" y2="50.8265" gradientUnits="userSpaceOnUse">
<stop stop-color="#F0D3AF"/>
<stop offset="0.9" stop-color="#F79938"/>
</linearGradient>
<linearGradient id="paint5_linear_700_5644" x1="160.401" y1="187.618" x2="213.271" y2="219.764" gradientUnits="userSpaceOnUse">
<stop stop-color="#2A8982"/>
<stop offset="1" stop-color="#2B9D95"/>
</linearGradient>
<linearGradient id="paint6_linear_700_5644" x1="199.592" y1="141.861" x2="225.241" y2="157.524" gradientUnits="userSpaceOnUse">
<stop stop-color="#F0D3AF"/>
<stop offset="0.9" stop-color="#F79938"/>
</linearGradient>
<linearGradient id="paint7_linear_700_5644" x1="217.853" y1="232.144" x2="246.716" y2="249.722" gradientUnits="userSpaceOnUse">
<stop stop-color="#263C79"/>
<stop offset="1" stop-color="#242C54"/>
</linearGradient>
<linearGradient id="paint8_linear_700_5644" x1="58.5596" y1="319.896" x2="220.453" y2="319.896" gradientUnits="userSpaceOnUse">
<stop stop-color="#F0D3AF"/>
<stop offset="0.9" stop-color="#F79938"/>
</linearGradient>
<linearGradient id="paint9_linear_700_5644" x1="92.6878" y1="129.003" x2="119.499" y2="129.003" gradientUnits="userSpaceOnUse">
<stop stop-color="#20315A"/>
<stop offset="0.9" stop-color="#1B5B9D"/>
</linearGradient>
<linearGradient id="paint10_linear_700_5644" x1="29.0123" y1="232.691" x2="109.104" y2="232.691" gradientUnits="userSpaceOnUse">
<stop stop-color="#354C80"/>
<stop offset="0.9" stop-color="#2E375E"/>
</linearGradient>
<linearGradient id="paint11_linear_700_5644" x1="49.1891" y1="238.3" x2="129.281" y2="238.3" gradientUnits="userSpaceOnUse">
<stop stop-color="#354C80"/>
<stop offset="0.9" stop-color="#2E375E"/>
</linearGradient>
<linearGradient id="paint12_linear_700_5644" x1="96.9973" y1="173.392" x2="139.95" y2="173.392" gradientUnits="userSpaceOnUse">
<stop stop-color="#A4E3E3"/>
<stop offset="0.9" stop-color="#4CC9BC"/>
</linearGradient>
<linearGradient id="paint13_linear_700_5644" x1="102.469" y1="128.798" x2="150.757" y2="128.798" gradientUnits="userSpaceOnUse">
<stop stop-color="#20315A"/>
<stop offset="0.9" stop-color="#1B5B9D"/>
</linearGradient>
<linearGradient id="paint14_linear_700_5644" x1="396.572" y1="162.996" x2="533.569" y2="162.996" gradientUnits="userSpaceOnUse">
<stop stop-color="#F0D3AF"/>
<stop offset="0.9" stop-color="#F79938"/>
</linearGradient>
<linearGradient id="paint15_linear_700_5644" x1="363.195" y1="151.163" x2="528.166" y2="151.163" gradientUnits="userSpaceOnUse">
<stop stop-color="white"/>
<stop offset="1" stop-color="#D1E9E5"/>
</linearGradient>
<linearGradient id="paint16_linear_700_5644" x1="363.195" y1="203.281" x2="396.572" y2="203.281" gradientUnits="userSpaceOnUse">
<stop stop-color="#F0D3AF"/>
<stop offset="0.9" stop-color="#F79938"/>
</linearGradient>
<linearGradient id="paint17_linear_700_5644" x1="427.214" y1="197.331" x2="518.386" y2="197.331" gradientUnits="userSpaceOnUse">
<stop stop-color="white"/>
<stop offset="1" stop-color="#D1E9E5"/>
</linearGradient>
<linearGradient id="paint18_linear_700_5644" x1="9.58765" y1="71.6191" x2="9.58765" y2="9.51567" gradientUnits="userSpaceOnUse">
<stop stop-color="#263C79"/>
<stop offset="1" stop-color="#242C54"/>
</linearGradient>
<linearGradient id="paint19_linear_700_5644" x1="108.83" y1="0.760904" x2="108.83" y2="28.3928" gradientUnits="userSpaceOnUse">
<stop stop-color="#263C79"/>
<stop offset="1" stop-color="#242C54"/>
</linearGradient>
<linearGradient id="paint20_linear_700_5644" x1="255.744" y1="395.131" x2="251.845" y2="356.009" gradientUnits="userSpaceOnUse">
<stop stop-color="#2A8982"/>
<stop offset="1" stop-color="#2B9D95"/>
</linearGradient>
<linearGradient id="paint21_linear_700_5644" x1="261.899" y1="383.299" x2="415.995" y2="383.299" gradientUnits="userSpaceOnUse">
<stop stop-color="#2A8982"/>
<stop offset="1" stop-color="#2B9D95"/>
</linearGradient>
<linearGradient id="paint22_linear_700_5644" x1="356.285" y1="339.252" x2="375.436" y2="339.252" gradientUnits="userSpaceOnUse">
<stop stop-color="#263C79"/>
<stop offset="1" stop-color="#242C54"/>
</linearGradient>
<linearGradient id="paint23_linear_700_5644" x1="368.803" y1="301.429" x2="415.859" y2="301.429" gradientUnits="userSpaceOnUse">
<stop stop-color="#263C79"/>
<stop offset="1" stop-color="#242C54"/>
</linearGradient>
<linearGradient id="paint24_linear_700_5644" x1="354.713" y1="326.599" x2="396.229" y2="326.599" gradientUnits="userSpaceOnUse">
<stop stop-color="white"/>
<stop offset="1" stop-color="#D1E9E5"/>
</linearGradient>
<linearGradient id="paint25_linear_700_5644" x1="393.698" y1="306.969" x2="427.28" y2="306.969" gradientUnits="userSpaceOnUse">
<stop stop-color="#263C79"/>
<stop offset="1" stop-color="#242C54"/>
</linearGradient>
<linearGradient id="paint26_linear_700_5644" x1="376.532" y1="255.946" x2="409.704" y2="255.946" gradientUnits="userSpaceOnUse">
<stop stop-color="#20315A"/>
<stop offset="0.9" stop-color="#1B5B9D"/>
</linearGradient>
<linearGradient id="paint27_linear_700_5644" x1="510.177" y1="315.04" x2="518.042" y2="312.509" gradientUnits="userSpaceOnUse">
<stop stop-color="#263C79"/>
<stop offset="1" stop-color="#242C54"/>
</linearGradient>
<linearGradient id="paint28_linear_700_5644" x1="541.501" y1="322.085" x2="540.954" y2="329.198" gradientUnits="userSpaceOnUse">
<stop stop-color="#263C79"/>
<stop offset="1" stop-color="#242C54"/>
</linearGradient>
<linearGradient id="paint29_linear_700_5644" x1="509.355" y1="302.797" x2="517.221" y2="300.266" gradientUnits="userSpaceOnUse">
<stop stop-color="#263C79"/>
<stop offset="1" stop-color="#242C54"/>
</linearGradient>
<linearGradient id="paint30_linear_700_5644" x1="540.681" y1="309.774" x2="540.134" y2="316.887" gradientUnits="userSpaceOnUse">
<stop stop-color="#263C79"/>
<stop offset="1" stop-color="#242C54"/>
</linearGradient>
<linearGradient id="paint31_linear_700_5644" x1="512.774" y1="286.109" x2="520.503" y2="284.809" gradientUnits="userSpaceOnUse">
<stop stop-color="#263C79"/>
<stop offset="1" stop-color="#242C54"/>
</linearGradient>
<linearGradient id="paint32_linear_700_5644" x1="542.8" y1="298.009" x2="541.295" y2="304.507" gradientUnits="userSpaceOnUse">
<stop stop-color="#263C79"/>
<stop offset="1" stop-color="#242C54"/>
</linearGradient>
<linearGradient id="paint33_linear_700_5644" x1="514.144" y1="274.139" x2="521.872" y2="272.84" gradientUnits="userSpaceOnUse">
<stop stop-color="#263C79"/>
<stop offset="1" stop-color="#242C54"/>
</linearGradient>
<linearGradient id="paint34_linear_700_5644" x1="544.169" y1="286.04" x2="542.664" y2="292.538" gradientUnits="userSpaceOnUse">
<stop stop-color="#263C79"/>
<stop offset="1" stop-color="#242C54"/>
</linearGradient>
<linearGradient id="paint35_linear_700_5644" x1="522.009" y1="258.75" x2="529.259" y2="258.955" gradientUnits="userSpaceOnUse">
<stop stop-color="#263C79"/>
<stop offset="1" stop-color="#242C54"/>
</linearGradient>
<linearGradient id="paint36_linear_700_5644" x1="549.299" y1="275.849" x2="547.179" y2="280.705" gradientUnits="userSpaceOnUse">
<stop stop-color="#263C79"/>
<stop offset="1" stop-color="#242C54"/>
</linearGradient>
<linearGradient id="paint37_linear_700_5644" x1="527.753" y1="247.465" x2="535.072" y2="247.67" gradientUnits="userSpaceOnUse">
<stop stop-color="#263C79"/>
<stop offset="1" stop-color="#242C54"/>
</linearGradient>
<linearGradient id="paint38_linear_700_5644" x1="555.113" y1="264.564" x2="552.993" y2="269.42" gradientUnits="userSpaceOnUse">
<stop stop-color="#263C79"/>
<stop offset="1" stop-color="#242C54"/>
</linearGradient>
<linearGradient id="paint39_linear_700_5644" x1="535.073" y1="237.821" x2="542.391" y2="238.026" gradientUnits="userSpaceOnUse">
<stop stop-color="#263C79"/>
<stop offset="1" stop-color="#242C54"/>
</linearGradient>
<linearGradient id="paint40_linear_700_5644" x1="562.431" y1="254.92" x2="560.311" y2="259.708" gradientUnits="userSpaceOnUse">
<stop stop-color="#263C79"/>
<stop offset="1" stop-color="#242C54"/>
</linearGradient>
<linearGradient id="paint41_linear_700_5644" x1="558.327" y1="243.771" x2="559.489" y2="251.5" gradientUnits="userSpaceOnUse">
<stop stop-color="#263C79"/>
<stop offset="1" stop-color="#242C54"/>
</linearGradient>
<linearGradient id="paint42_linear_700_5644" x1="483.089" y1="269.625" x2="526.931" y2="296.368" gradientUnits="userSpaceOnUse">
<stop stop-color="#2A8982"/>
<stop offset="1" stop-color="#2B9D95"/>
</linearGradient>
<linearGradient id="paint43_linear_700_5644" x1="575.766" y1="309.5" x2="551.075" y2="355.188" gradientUnits="userSpaceOnUse">
<stop stop-color="#2A8982"/>
<stop offset="1" stop-color="#2B9D95"/>
</linearGradient>
<linearGradient id="paint44_linear_700_5644" x1="515.578" y1="231.734" x2="536.849" y2="244.66" gradientUnits="userSpaceOnUse">
<stop stop-color="#F0D3AF"/>
<stop offset="0.9" stop-color="#F79938"/>
</linearGradient>
<linearGradient id="paint45_linear_700_5644" x1="516.263" y1="319.417" x2="508.603" y2="320.785" gradientUnits="userSpaceOnUse">
<stop stop-color="#263C79"/>
<stop offset="1" stop-color="#242C54"/>
</linearGradient>
<linearGradient id="paint46_linear_700_5644" x1="488.085" y1="342.672" x2="491.162" y2="347.528" gradientUnits="userSpaceOnUse">
<stop stop-color="#263C79"/>
<stop offset="1" stop-color="#242C54"/>
</linearGradient>
<linearGradient id="paint47_linear_700_5644" x1="510.45" y1="306.627" x2="502.789" y2="307.995" gradientUnits="userSpaceOnUse">
<stop stop-color="#263C79"/>
<stop offset="1" stop-color="#242C54"/>
</linearGradient>
<linearGradient id="paint48_linear_700_5644" x1="482.271" y1="329.882" x2="485.349" y2="334.738" gradientUnits="userSpaceOnUse">
<stop stop-color="#263C79"/>
<stop offset="1" stop-color="#242C54"/>
</linearGradient>
<linearGradient id="paint49_linear_700_5644" x1="499.779" y1="291.443" x2="493.624" y2="293.564" gradientUnits="userSpaceOnUse">
<stop stop-color="#263C79"/>
<stop offset="1" stop-color="#242C54"/>
</linearGradient>
<linearGradient id="paint50_linear_700_5644" x1="474.268" y1="318.46" x2="478.167" y2="322.905" gradientUnits="userSpaceOnUse">
<stop stop-color="#263C79"/>
<stop offset="1" stop-color="#242C54"/>
</linearGradient>
<linearGradient id="paint51_linear_700_5644" x1="491.915" y1="280.226" x2="485.76" y2="282.278" gradientUnits="userSpaceOnUse">
<stop stop-color="#263C79"/>
<stop offset="1" stop-color="#242C54"/>
</linearGradient>
<linearGradient id="paint52_linear_700_5644" x1="466.402" y1="307.174" x2="470.301" y2="311.62" gradientUnits="userSpaceOnUse">
<stop stop-color="#263C79"/>
<stop offset="1" stop-color="#242C54"/>
</linearGradient>
<linearGradient id="paint53_linear_700_5644" x1="477.689" y1="268.804" x2="472.696" y2="271.677" gradientUnits="userSpaceOnUse">
<stop stop-color="#263C79"/>
<stop offset="1" stop-color="#242C54"/>
</linearGradient>
<linearGradient id="paint54_linear_700_5644" x1="458.536" y1="300.198" x2="464.008" y2="304.507" gradientUnits="userSpaceOnUse">
<stop stop-color="#263C79"/>
<stop offset="1" stop-color="#242C54"/>
</linearGradient>
<linearGradient id="paint55_linear_700_5644" x1="465.719" y1="260.597" x2="460.794" y2="263.469" gradientUnits="userSpaceOnUse">
<stop stop-color="#263C79"/>
<stop offset="1" stop-color="#242C54"/>
</linearGradient>
<linearGradient id="paint56_linear_700_5644" x1="446.568" y1="291.99" x2="452.108" y2="296.299" gradientUnits="userSpaceOnUse">
<stop stop-color="#263C79"/>
<stop offset="1" stop-color="#242C54"/>
</linearGradient>
<linearGradient id="paint57_linear_700_5644" x1="453.134" y1="254.852" x2="448.141" y2="257.724" gradientUnits="userSpaceOnUse">
<stop stop-color="#263C79"/>
<stop offset="1" stop-color="#242C54"/>
</linearGradient>
<linearGradient id="paint58_linear_700_5644" x1="433.983" y1="286.245" x2="439.523" y2="290.554" gradientUnits="userSpaceOnUse">
<stop stop-color="#263C79"/>
<stop offset="1" stop-color="#242C54"/>
</linearGradient>
<linearGradient id="paint59_linear_700_5644" x1="428.99" y1="275.302" x2="431.11" y2="281.252" gradientUnits="userSpaceOnUse">
<stop stop-color="#263C79"/>
<stop offset="1" stop-color="#242C54"/>
</linearGradient>
<linearGradient id="paint60_linear_700_5644" x1="549.914" y1="323.316" x2="549.914" y2="399.714" gradientUnits="userSpaceOnUse">
<stop stop-color="#254E98"/>
<stop offset="1" stop-color="#242C54"/>
</linearGradient>
</defs>
</svg>
