<svg width="496" height="373" viewBox="0 0 496 373" fill="none" xmlns="http://www.w3.org/2000/svg">
<path d="M448.284 151.799C449.044 215.547 431.526 259.14 395.736 282.59" stroke="#263050" stroke-width="2.8"/>
<path opacity="0.6" d="M424.642 122.291C428.601 125 430.918 129.532 430.918 134.336V135.241C430.918 141.83 436.258 147.165 442.842 147.165H457.156C463.745 147.165 469.08 141.824 469.08 135.241V134.336C469.08 129.55 471.367 125.012 475.319 122.321C487.189 114.223 494.979 100.597 494.979 85.1489C494.979 60.2508 474.674 40.0475 449.775 40.1682C425.034 40.2889 405.018 60.3836 405.018 85.1489C405.018 100.585 412.796 114.193 424.642 122.297V122.291Z" fill="#E0A52E"/>
<path d="M443.53 160.115H455.786C461.247 160.115 465.67 155.685 465.67 150.23V142.398H433.639V150.23C433.639 155.692 438.068 160.115 443.524 160.115H443.53Z" fill="#263E5F"/>
<g style="mix-blend-mode:multiply">
<path d="M433.736 146.936H465.592C466.02 146.936 466.364 146.592 466.364 146.163V145.21C466.364 144.781 466.02 144.437 465.592 144.437H433.736C433.308 144.437 432.964 144.781 432.964 145.21V146.163C432.964 146.592 433.308 146.936 433.736 146.936Z" fill="#263E5F"/>
</g>
<g style="mix-blend-mode:multiply">
<path d="M433.736 151.938H465.592C466.02 151.938 466.364 151.594 466.364 151.166V150.212C466.364 149.784 466.02 149.44 465.592 149.44H433.736C433.308 149.44 432.964 149.784 432.964 150.212V151.166C432.964 151.594 433.308 151.938 433.736 151.938Z" fill="#263E5F"/>
</g>
<path d="M454.222 142.392C455.043 98.7747 460.902 78.1007 471.806 80.3696C488.166 83.7791 429.891 120.239 433.639 87.1826C436.457 62.3448 452.943 107.627 445.677 142.386" stroke="#E0A52E" stroke-width="3.4"/>
<path opacity="0.6" d="M475.705 84.7145L489.415 79.5731C482.56 56.7267 470.563 45.8708 453.432 47.0173C469.423 59.581 476.851 72.1508 475.711 84.7145H475.705Z" fill="url(#paint0_linear_796_2898)"/>
<path d="M193.719 252.604L164.392 291.044C160.916 295.6 164.18 302.159 169.907 302.135L283.324 301.682C289.015 301.658 292.231 295.153 288.804 290.615L259.265 251.56L193.719 252.604V252.604Z" fill="url(#paint1_linear_796_2898)"/>
<path d="M88.7562 256.165L363.902 255.066C378.065 255.012 389.495 243.486 389.44 229.324L388.783 64.0282C388.728 49.8654 377.202 38.4361 363.04 38.4904L87.8932 39.5887C73.7304 39.643 62.3012 51.1688 62.3555 65.3316L63.0132 230.627C63.0675 244.79 74.5933 256.219 88.7562 256.165V256.165Z" fill="url(#paint2_linear_796_2898)"/>
<path d="M74.8467 245.834L377.733 244.627L376.955 48.8213L74.0683 50.0282L74.8467 245.834Z" fill="url(#paint3_linear_796_2898)"/>
<path d="M283.271 105.738L306.812 93.6332L336.628 105.738V49.2379H283.271V105.738Z" fill="url(#paint4_linear_796_2898)"/>
<path d="M84.9301 64.9394H210.109C210.646 64.9394 211.08 64.5049 211.08 63.9679V62.767C211.08 62.2299 210.646 61.7955 210.109 61.7955H84.9301C84.3931 61.7955 83.9585 62.2299 83.9585 62.767V63.9679C83.9585 64.5049 84.3931 64.9394 84.9301 64.9394Z" fill="#A7D3D8"/>
<path d="M135.149 75.9221H210.109C210.646 75.9221 211.08 75.4876 211.08 74.9506V73.7497C211.08 73.2126 210.646 72.7782 210.109 72.7782H135.149C134.612 72.7782 134.177 73.2126 134.177 73.7497V74.9506C134.177 75.4876 134.612 75.9221 135.149 75.9221Z" fill="#A7D3D8"/>
<path d="M84.9301 105.738H210.109C210.646 105.738 211.08 105.304 211.08 104.767V103.566C211.08 103.029 210.646 102.594 210.109 102.594H84.9301C84.3931 102.594 83.9585 103.029 83.9585 103.566V104.767C83.9585 105.304 84.3931 105.738 84.9301 105.738Z" fill="#A7D3D8"/>
<path d="M84.9301 130.853H210.109C210.646 130.853 211.08 130.419 211.08 129.882V128.681C211.08 128.144 210.646 127.71 210.109 127.71H84.9301C84.3931 127.71 83.9585 128.144 83.9585 128.681V129.882C83.9585 130.419 84.3931 130.853 84.9301 130.853Z" fill="#A7D3D8"/>
<path d="M84.9301 143.405H210.109C210.646 143.405 211.08 142.971 211.08 142.434V141.233C211.08 140.696 210.646 140.261 210.109 140.261H84.9301C84.3931 140.261 83.9585 140.696 83.9585 141.233V142.434C83.9585 142.971 84.3931 143.405 84.9301 143.405Z" fill="#A7D3D8"/>
<path d="M84.9301 155.963H210.109C210.646 155.963 211.08 155.528 211.08 154.991V153.79C211.08 153.253 210.646 152.819 210.109 152.819H84.9301C84.3931 152.819 83.9585 153.253 83.9585 153.79V154.991C83.9585 155.528 84.3931 155.963 84.9301 155.963Z" fill="#A7D3D8"/>
<path d="M84.9301 168.515H210.109C210.646 168.515 211.08 168.08 211.08 167.543V166.342C211.08 165.805 210.646 165.371 210.109 165.371H84.9301C84.3931 165.371 83.9585 165.805 83.9585 166.342V167.543C83.9585 168.08 84.3931 168.515 84.9301 168.515Z" fill="#A7D3D8"/>
<path d="M84.9301 181.072H210.109C210.646 181.072 211.08 180.638 211.08 180.101V178.9C211.08 178.363 210.646 177.928 210.109 177.928H84.9301C84.3931 177.928 83.9585 178.363 83.9585 178.9V180.101C83.9585 180.638 84.3931 181.072 84.9301 181.072Z" fill="#A7D3D8"/>
<path d="M84.9301 193.624H210.109C210.646 193.624 211.08 193.189 211.08 192.652V191.451C211.08 190.914 210.646 190.48 210.109 190.48H84.9301C84.3931 190.48 83.9585 190.914 83.9585 191.451V192.652C83.9585 193.189 84.3931 193.624 84.9301 193.624Z" fill="#A7D3D8"/>
<path d="M84.9301 206.182H210.109C210.646 206.182 211.08 205.747 211.08 205.21V204.009C211.08 203.472 210.646 203.038 210.109 203.038H84.9301C84.3931 203.038 83.9585 203.472 83.9585 204.009V205.21C83.9585 205.747 84.3931 206.182 84.9301 206.182Z" fill="#A7D3D8"/>
<path d="M84.9301 218.733H210.109C210.646 218.733 211.08 218.299 211.08 217.761V216.561C211.08 216.024 210.646 215.589 210.109 215.589H84.9301C84.3931 215.589 83.9585 216.024 83.9585 216.561V217.761C83.9585 218.299 84.3931 218.733 84.9301 218.733Z" fill="#A7D3D8"/>
<path d="M84.9301 231.291H210.109C210.646 231.291 211.08 230.856 211.08 230.319V229.118C211.08 228.581 210.646 228.147 210.109 228.147H84.9301C84.3931 228.147 83.9585 228.581 83.9585 229.118V230.319C83.9585 230.856 84.3931 231.291 84.9301 231.291Z" fill="#A7D3D8"/>
<path d="M135.149 116.727H210.109C210.646 116.727 211.08 116.292 211.08 115.755V114.554C211.08 114.017 210.646 113.583 210.109 113.583H135.149C134.612 113.583 134.177 114.017 134.177 114.554V115.755C134.177 116.292 134.612 116.727 135.149 116.727Z" fill="#A7D3D8"/>
<path d="M241.761 117.952H367.157C367.633 117.952 368.02 117.566 368.02 117.089V116.021C368.02 115.544 367.633 115.158 367.157 115.158H241.761C241.284 115.158 240.898 115.544 240.898 116.021V117.089C240.898 117.566 241.284 117.952 241.761 117.952Z" fill="#A7D3D8"/>
<path d="M241.761 140.304H367.157C367.633 140.304 368.02 139.917 368.02 139.441V138.373C368.02 137.896 367.633 137.51 367.157 137.51H241.761C241.284 137.51 240.898 137.896 240.898 138.373V139.441C240.898 139.917 241.284 140.304 241.761 140.304Z" fill="#A7D3D8"/>
<path d="M241.761 151.479H367.157C367.633 151.479 368.02 151.093 368.02 150.617V149.548C368.02 149.072 367.633 148.685 367.157 148.685H241.761C241.284 148.685 240.898 149.072 240.898 149.548V150.617C240.898 151.093 241.284 151.479 241.761 151.479Z" fill="#A7D3D8"/>
<path d="M241.761 162.661H367.157C367.633 162.661 368.02 162.275 368.02 161.798V160.73C368.02 160.253 367.633 159.867 367.157 159.867H241.761C241.284 159.867 240.898 160.253 240.898 160.73V161.798C240.898 162.275 241.284 162.661 241.761 162.661Z" fill="#A7D3D8"/>
<path d="M241.761 173.837H367.157C367.633 173.837 368.02 173.451 368.02 172.974V171.906C368.02 171.429 367.633 171.043 367.157 171.043H241.761C241.284 171.043 240.898 171.429 240.898 171.906V172.974C240.898 173.451 241.284 173.837 241.761 173.837Z" fill="#A7D3D8"/>
<path d="M241.761 185.013H367.157C367.633 185.013 368.02 184.627 368.02 184.15V183.082C368.02 182.605 367.633 182.219 367.157 182.219H241.761C241.284 182.219 240.898 182.605 240.898 183.082V184.15C240.898 184.627 241.284 185.013 241.761 185.013Z" fill="#A7D3D8"/>
<path d="M241.761 196.189H367.157C367.633 196.189 368.02 195.802 368.02 195.326V194.258C368.02 193.781 367.633 193.395 367.157 193.395H241.761C241.284 193.395 240.898 193.781 240.898 194.258V195.326C240.898 195.802 241.284 196.189 241.761 196.189Z" fill="#A7D3D8"/>
<path d="M241.761 207.364H367.157C367.633 207.364 368.02 206.978 368.02 206.502V205.433C368.02 204.957 367.633 204.57 367.157 204.57H241.761C241.284 204.57 240.898 204.957 240.898 205.433V206.502C240.898 206.978 241.284 207.364 241.761 207.364Z" fill="#A7D3D8"/>
<path d="M241.761 218.546H367.157C367.633 218.546 368.02 218.16 368.02 217.683V216.615C368.02 216.138 367.633 215.752 367.157 215.752H241.761C241.284 215.752 240.898 216.138 240.898 216.615V217.683C240.898 218.16 241.284 218.546 241.761 218.546Z" fill="#A7D3D8"/>
<path d="M241.761 229.722H367.157C367.633 229.722 368.02 229.336 368.02 228.859V227.791C368.02 227.314 367.633 226.928 367.157 226.928H241.761C241.284 226.928 240.898 227.314 240.898 227.791V228.859C240.898 229.336 241.284 229.722 241.761 229.722Z" fill="#A7D3D8"/>
<path d="M291.98 127.734H367.157C367.633 127.734 368.02 127.348 368.02 126.871V125.803C368.02 125.326 367.633 124.94 367.157 124.94H291.98C291.503 124.94 291.117 125.326 291.117 125.803V126.871C291.117 127.348 291.503 127.734 291.98 127.734Z" fill="#A7D3D8"/>
<path d="M328.759 246.015C334.74 200.503 349.18 178.948 372.081 181.338C406.429 184.922 356.934 231.918 328.759 246.015Z" fill="url(#paint5_linear_796_2898)"/>
<path d="M328.76 246.015C339.833 223.953 353.109 207.189 368.587 195.718" stroke="white" stroke-width="2.2" stroke-linecap="round" stroke-linejoin="round"/>
<path d="M329.887 247.071C286.035 184.246 283.808 152.342 323.195 151.371C372.991 150.14 324.595 227.531 329.887 247.071Z" fill="url(#paint6_linear_796_2898)"/>
<path d="M330.34 247.348C318.223 224.098 315.055 197.945 320.842 168.889" stroke="white" stroke-width="2.2" stroke-linecap="round" stroke-linejoin="round"/>
<path d="M330.871 244.585C307.397 210.985 290.253 202.072 279.44 217.846C268.626 233.62 285.77 242.533 330.871 244.585V244.585Z" fill="url(#paint7_linear_796_2898)"/>
<path d="M330.093 244.434C319.563 235.527 306.733 229.559 291.611 226.518" stroke="white" stroke-width="2.2" stroke-linecap="round" stroke-linejoin="round"/>
<path d="M316.213 334.902H429.274C437.505 334.902 444.173 328.228 444.173 320.003V301.526C444.173 293.295 437.499 286.627 429.274 286.627H316.213C307.982 286.627 301.314 293.301 301.314 301.526V320.003C301.314 328.234 307.988 334.902 316.213 334.902Z" fill="url(#paint8_linear_796_2898)"/>
<path d="M284.822 334.902H355.382C363.613 334.902 370.281 328.228 370.281 320.003V301.526C370.281 293.295 363.607 286.627 355.382 286.627H284.822C283.59 286.627 282.589 287.622 282.589 288.86V332.676C282.589 333.907 283.584 334.908 284.822 334.908V334.902Z" fill="#CE992B"/>
<path d="M339.88 329.978C353.416 329.978 364.435 321.361 364.435 310.765C364.435 300.168 353.422 291.551 339.88 291.551H289.143C285.528 291.551 282.589 293.85 282.589 296.68V324.849C282.589 327.679 285.528 329.978 289.143 329.978H339.88V329.978Z" fill="white"/>
<path d="M279.26 298.448H360.809C361.147 298.448 361.419 298.177 361.419 297.839V297.084C361.419 296.746 361.147 296.475 360.809 296.475H279.26C278.922 296.475 278.651 296.746 278.651 297.084V297.839C278.651 298.177 278.922 298.448 279.26 298.448Z" fill="#D0D0D0"/>
<path d="M282.217 306.329H363.766C364.104 306.329 364.376 306.058 364.376 305.72V304.965C364.376 304.627 364.104 304.356 363.766 304.356H282.217C281.879 304.356 281.608 304.627 281.608 304.965V305.72C281.608 306.058 281.879 306.329 282.217 306.329Z" fill="#D0D0D0"/>
<path d="M282.217 316.183H363.766C364.104 316.183 364.376 315.912 364.376 315.574V314.82C364.376 314.482 364.104 314.21 363.766 314.21H282.217C281.879 314.21 281.608 314.482 281.608 314.82V315.574C281.608 315.912 281.879 316.183 282.217 316.183Z" fill="#D0D0D0"/>
<path d="M282.217 325.048H363.766C364.104 325.048 364.376 324.776 364.376 324.438V323.684C364.376 323.346 364.104 323.075 363.766 323.075H282.217C281.879 323.075 281.608 323.346 281.608 323.684V324.438C281.608 324.776 281.879 325.048 282.217 325.048Z" fill="#D0D0D0"/>
<path d="M413.632 334.902H419.546V286.621H413.632V334.902Z" fill="white"/>
<path d="M403.777 334.902H407.718V286.621H403.777V334.902Z" fill="white"/>
<path d="M393.924 334.902H397.864V286.621H393.924V334.902Z" fill="white"/>
<path d="M282.53 286.802H430.531C438.762 286.802 445.43 280.128 445.43 271.903V253.425C445.43 245.194 438.756 238.526 430.531 238.526H282.53C280.877 238.526 279.531 239.866 279.531 241.525V283.809C279.531 285.462 280.871 286.808 282.53 286.808V286.802Z" fill="#263E5F"/>
<path d="M439.51 269.634V255.694C439.51 249.485 434.477 244.452 428.268 244.452H279.537V280.882H428.268C434.477 280.882 439.51 275.849 439.51 269.64V269.634Z" fill="white"/>
<path d="M270.051 253.624H445.43V251.253H270.051V253.624Z" fill="#D0D0D0"/>
<path d="M268.276 264.287H443.655V261.916H268.276V264.287Z" fill="#D0D0D0"/>
<path d="M267.686 274.95H443.064V272.579H267.686V274.95Z" fill="#D0D0D0"/>
<path d="M402.072 170.295C403.984 159.819 401.124 155.456 393.479 157.212C385.338 159.083 389.828 179.793 391.451 194.481C392.036 199.791 395.391 204.679 400.43 202.899C414.466 197.926 414.358 198.506 426.837 189.406L425.829 185.658L402.072 193.732V170.301V170.295Z" fill="#C58575"/>
<path d="M425.384 170.319L415.457 174.241C414.974 174.434 414.66 174.899 414.66 175.418V200.539C414.66 201.463 415.626 202.078 416.459 201.68L426.385 197.003C426.826 196.792 427.109 196.351 427.109 195.863V171.496C427.109 170.602 426.21 169.993 425.384 170.319Z" fill="#263050"/>
<path d="M427.712 186.039C427.387 185.568 426.753 185.405 426.24 185.659C425.269 186.135 423.85 187.131 423.923 188.833C423.995 190.546 425.383 191.289 426.3 191.602C426.795 191.771 427.338 191.572 427.622 191.132C428.28 190.13 429.173 188.133 427.712 186.033V186.039Z" fill="#C58575"/>
<path d="M403.956 132.471C409.815 140.605 391.923 148.311 395.194 154.581C397.788 159.553 402.411 164.628 401.101 169.589C399.315 176.347 397.1 183.052 398.199 190.124C399.967 201.547 412.271 189.991 413.285 183.896C414.359 177.458 409.809 171.52 408.524 165.123C407.703 161.026 408.276 156.657 410.135 152.91C413.2 146.712 416.718 142.573 414.769 135.283C413.2 129.393 408.312 124.922 403.521 121.162C398.917 117.554 394.361 119.877 390.366 117.946C394.747 120.064 398.096 124.336 403.962 132.477L403.956 132.471Z" fill="url(#paint9_linear_796_2898)"/>
<path d="M394.264 209.724C386.528 225.582 393.021 234.344 413.737 236.004C434.46 237.663 447.633 238.955 453.257 239.878C443.747 259.309 437.851 279.633 435.576 300.85L440.76 304.048L470.89 235.153C472.966 229.372 469.767 222.885 464.385 221.943L394.264 209.718V209.724Z" fill="url(#paint10_linear_796_2898)"/>
<path d="M435.576 300.856L433.403 304.754C432.51 306.359 432.969 308.375 434.465 309.437L444.362 316.437C445.352 317.137 446.625 316.057 446.094 314.964L440.753 304.054L435.57 300.856H435.576Z" fill="#313545"/>
<path d="M376.438 214.648C368.702 230.506 375.195 239.268 395.911 240.928C416.634 242.587 429.807 243.879 435.431 244.802C425.921 264.233 420.025 284.563 417.75 305.774L422.934 308.972L453.064 240.077C455.139 234.296 451.941 227.809 446.558 226.868L376.438 214.642V214.648Z" fill="url(#paint11_linear_796_2898)"/>
<path d="M418.089 305.14L415.916 309.038C415.023 310.644 415.482 312.659 416.978 313.721L426.875 320.721C427.864 321.421 429.138 320.341 428.607 319.249L423.266 308.339L418.082 305.14H418.089Z" fill="#313545"/>
<path d="M398.108 188.531C409.205 186.334 400.962 172.208 401.185 163.446C401.409 154.684 396.104 156.971 384.82 157.677C373.53 158.383 366.276 198.639 370.802 215.656C375.557 233.536 401.988 218.347 409.917 213.308C410.786 212.759 410.69 211.456 409.742 211.057C399.345 206.652 392.804 189.581 398.108 188.531Z" fill="url(#paint12_linear_796_2898)"/>
<path d="M386.563 176.824C388.476 166.348 385.615 161.985 377.97 163.741C369.829 165.612 374.319 186.322 375.942 201.01C376.528 206.32 379.943 211.365 384.922 209.428C399.199 203.87 402.289 203.273 413.513 197.16L412.173 192.894L386.563 200.256V176.824V176.824Z" fill="#DCA08F"/>
<path d="M412.789 197.546C418.775 196.894 421.436 195.633 420.773 193.757C420.109 191.88 418.069 191.638 414.66 193.032C414.66 191.934 414.66 191.089 414.66 190.498C414.66 189.907 413.833 190.703 412.174 192.888L409.193 193.744L411.118 198.439L412.795 197.54L412.789 197.546Z" fill="#DCA08F"/>
<path d="M382.955 150.182V158.733C384.657 163.132 388.277 165.129 393.817 164.719L395.814 162.245L394.945 151.654L382.949 150.188L382.955 150.182Z" fill="#C58575"/>
<path d="M380.293 138.294C380.293 146.036 386.569 156.518 394.311 156.518C402.053 156.518 408.329 146.036 408.329 138.294C408.329 130.552 402.053 124.276 394.311 124.276C386.569 124.276 380.293 130.552 380.293 138.294Z" fill="#DCA08F"/>
<path d="M405.113 125.507C404.709 124.433 403.966 123.51 403.116 122.737C398.71 118.718 389.448 116.624 383.787 118.724C375.556 121.772 369.48 132.103 372.43 140.539C373.505 143.61 375.013 146.688 374.796 149.935C374.615 152.704 373.197 155.221 371.815 157.622C366.143 167.483 355.848 178.544 360.718 190.745C362.775 195.911 368.52 200.938 373.818 202.494C382.092 204.926 383.998 197.238 385.7 190.908C386.467 188.042 387.806 185.061 390.425 183.679C391.867 182.919 393.581 182.714 394.927 181.79C402.156 176.842 395.935 162.54 392.067 157.465C386.098 149.639 392.067 143.025 392.067 143.025C393.225 141.746 396.508 141.04 398.047 139.815C400.901 137.54 403.568 134.094 404.89 130.661C405.035 130.286 405.155 129.9 405.252 129.508C405.578 128.18 405.596 126.774 405.113 125.501V125.507Z" fill="url(#paint13_linear_796_2898)"/>
<path d="M59.2596 132.694C56.6286 132.694 54.4984 134.824 54.4984 137.455V283.042C82.3957 304.742 122.7 321.276 175.398 332.639V183.842C152.667 155.945 118.047 138.891 71.5518 132.694H59.2657H59.2596Z" fill="#E3B54D"/>
<path d="M33.0699 148.197C28.6407 148.197 25.0501 151.787 25.0501 156.216V298.545C52.9473 320.245 93.2514 336.779 145.95 348.142V199.345C123.218 171.447 88.5988 154.394 42.1035 148.197H33.076H33.0699Z" fill="url(#paint14_linear_796_2898)"/>
<path d="M175.398 183.13C131.395 146.459 91.0549 131.789 54.3836 139.127L29.8597 148.203C74.3214 149.488 113.056 166.632 146.065 199.634L175.404 183.13H175.398Z" fill="url(#paint15_linear_796_2898)"/>
<path d="M145.95 348.148L175.398 334.196C175.398 284.08 175.398 233.964 175.398 183.848C172.562 183.631 168.7 183.709 164.398 184.964C153.499 188.145 147.706 196.551 145.95 199.351V348.148Z" fill="url(#paint16_linear_796_2898)"/>
<path d="M38.4586 195.338V222.794C38.4586 227.308 40.2387 231.659 43.4671 234.809C50.8774 242.032 67.4661 253.908 99.4185 258.675C109.659 260.208 118.892 252.327 118.892 241.972V217.351C118.892 212.56 116.87 207.992 113.304 204.794C104.035 196.484 83.8135 181.344 57.093 178.52C47.1301 177.47 38.4586 185.32 38.4586 195.338V195.338Z" fill="url(#paint17_linear_796_2898)"/>
<path d="M420.241 61.3672L445.966 71.7646C448.271 72.6939 450.848 72.6818 453.141 71.7284L477.918 61.4034C481.442 59.9371 483.735 56.4975 483.735 52.6777V30.4528C483.735 25.233 479.505 21.0029 474.285 21.0029H423.783C418.563 21.0029 414.333 25.233 414.333 30.4528V52.6052C414.333 56.4552 416.669 59.925 420.241 61.3672V61.3672Z" fill="url(#paint18_linear_796_2898)"/>
<path d="M447.958 1.065L406.38 16.3503C402.488 17.7804 402.247 23.1993 406 24.9674L447.577 44.5492C448.839 45.1406 450.299 45.1406 451.56 44.5492L493.137 24.9674C496.891 23.1993 496.655 17.7804 492.757 16.3503L451.18 1.065C450.136 0.684834 448.995 0.684834 447.951 1.065H447.958Z" fill="url(#paint19_linear_796_2898)"/>
<path d="M488.672 54.9706H493.445V16.7967H488.672V54.9706Z" fill="#28315B"/>
<path d="M212.603 315.93C211.402 315.091 209.846 314.964 208.53 315.598L170.429 333.991L128.803 342.319L187.078 353.416L209.574 334.673C210.992 333.496 213.038 333.406 214.516 334.498C228.299 344.69 244.586 351.919 263.389 356.192L266.165 353.416L212.603 315.924V315.93Z" fill="url(#paint20_linear_796_2898)"/>
<path d="M263.389 356.198L265.055 359.245C265.683 360.398 267.089 360.868 268.283 360.337L281.444 354.448C281.976 354.212 281.807 353.422 281.227 353.422H266.165L263.389 356.198V356.198Z" fill="#1B202E"/>
<path d="M262.122 369.655L264.91 371.724C265.96 372.509 267.439 372.346 268.302 371.362L277.788 360.5C278.168 360.066 277.685 359.42 277.16 359.662L263.486 365.968L262.128 369.649L262.122 369.655Z" fill="#1B202E"/>
<path d="M264.777 365.907C239.801 357.58 219.917 352.034 205.115 349.258C190.312 346.482 173.205 344.171 153.78 342.319H128.803L131.579 356.192C131.579 363.59 139.442 366.83 155.168 365.907C170.893 364.984 187.078 364.055 203.733 363.131C228.788 369.329 248.255 371.501 262.128 369.649L264.783 365.907H264.777Z" fill="url(#paint21_linear_796_2898)"/>
<path d="M180.367 307.047C184.471 303.571 185.69 300.886 184.018 299.003C182.347 297.114 179.571 298.677 175.69 303.692L180.367 307.053V307.047Z" fill="#DCA08F"/>
<path d="M174.405 303.686L164.605 314.572L167.574 322.157L181.472 307.669L174.405 303.692V303.686Z" fill="url(#paint22_linear_796_2898)"/>
<path d="M139.9 270.171C134.348 272.385 130.649 277.195 128.802 284.593C126.95 291.991 126.95 311.235 128.802 342.318C146.374 345.094 160.254 342.318 170.428 333.991L167.652 279.88C167.652 273.405 163.488 270.629 155.167 271.553C151.468 278.951 146.381 278.492 139.906 270.165L139.9 270.171Z" fill="url(#paint23_linear_796_2898)"/>
<path d="M180.958 292.504L151.987 293.693C151.028 293.735 150.201 294.423 149.941 295.407L146.019 310.04C145.603 311.591 146.731 313.118 148.24 313.051L176.233 311.857C177.139 311.82 177.929 311.199 178.237 310.288L183.143 295.654C183.674 294.079 182.539 292.432 180.97 292.498L180.958 292.504Z" fill="url(#paint24_linear_796_2898)"/>
<path d="M144.739 308.592L147.31 313.057C153.954 308.115 155.661 305.424 152.433 304.983C150.641 304.736 149.126 305.17 147.919 305.81C148.197 304.585 148.486 302.883 147.961 302.787C147.412 302.684 146.712 304.181 145.868 307.282L145.892 307.276C145.385 307.753 145.005 308.194 144.733 308.592H144.739Z" fill="#DCA08F"/>
<path d="M118.636 324.915C119.734 325.362 120.971 325.277 122.154 325.138C127.042 324.571 131.893 323.256 136.347 321.138C138.429 320.148 148.217 315.284 148.488 312.629C148.494 312.557 148.476 312.484 148.44 312.418L145.869 307.276C145.785 307.101 145.58 307.029 145.398 307.101L127.47 314.783C127.132 314.928 126.812 314.548 127.024 314.246C130.656 309.069 134.573 302.588 138.049 294.803C139.153 292.329 140.112 289.933 140.963 287.616C141.989 284.822 141.82 281.654 140.197 279.162C138.857 277.104 136.739 275.578 133.462 275.203C133.378 275.191 133.293 275.209 133.221 275.252C130.475 276.815 127.814 279.669 126.281 284.774C123.958 292.522 121.327 300.18 119.125 307.964C118.189 311.259 113.784 322.954 118.63 324.915H118.636Z" fill="url(#paint25_linear_796_2898)"/>
<path d="M139.78 263.406V272.241C141.186 275.885 144.095 277.937 148.494 278.396C149.918 278.547 151.36 278.191 152.567 277.406C154.353 276.247 155.434 274.262 155.434 272.132V265.325L139.78 263.406V263.406Z" fill="#DA9482"/>
<path d="M164.877 243.812C165.818 250.251 164.967 255.561 162.336 259.743C160.333 251.898 161.178 246.588 164.877 243.812Z" fill="#3E2A78"/>
<path d="M135.441 251.126C135.441 259.122 141.922 269.947 149.918 269.947C157.914 269.947 164.395 259.122 164.395 251.126C164.395 243.13 157.914 236.649 149.918 236.649C141.922 236.649 135.441 243.13 135.441 251.126Z" fill="#DCA08F"/>
<path d="M141.289 252.134C140.365 248.435 141.289 245.194 144.065 242.424C144.065 246.124 146.376 247.976 151.004 247.976C155.627 247.976 155.627 246.124 151.004 242.424C154.703 246.124 159.169 247.511 164.401 246.588C169.632 245.665 168.401 242.889 160.72 238.261C165.342 240.113 167.659 239.649 167.659 236.873C167.659 232.709 156.562 229.933 145.458 229.933C138.06 229.933 134.361 235.485 134.361 246.582C134.361 256.298 142.689 257.679 141.301 252.134H141.289Z" fill="url(#paint26_linear_796_2898)"/>
<path d="M138.428 250.311C138.561 248.549 137.578 246.811 135.894 246.268C134.778 245.906 133.589 246.093 132.967 247.97C131.857 251.307 132.527 255.543 134.989 256.37C136.093 256.744 137.288 256.068 137.626 254.952C137.922 253.956 138.278 252.411 138.435 250.311H138.428Z" fill="#DCA08F"/>
<path fill-rule="evenodd" clip-rule="evenodd" d="M154.371 254.59C154.371 256.985 156.314 258.928 158.71 258.928C161.106 258.928 163.049 256.985 163.049 254.59C163.049 252.194 161.106 250.251 158.71 250.251C156.314 250.251 154.371 252.194 154.371 254.59ZM154.89 254.59C154.89 252.484 156.598 250.77 158.71 250.77C160.816 250.77 162.53 252.478 162.53 254.59C162.53 256.696 160.822 258.409 158.71 258.409C156.604 258.409 154.89 256.702 154.89 254.59Z" fill="#271C47"/>
<path opacity="0.6" d="M154.891 254.59C154.891 256.696 156.598 258.409 158.71 258.409C160.816 258.409 162.53 256.702 162.53 254.59C162.53 252.484 160.822 250.77 158.71 250.77C156.604 250.77 154.891 252.478 154.891 254.59Z" fill="#A0C0BA"/>
<path opacity="0.6" d="M154.89 254.59C154.89 256.696 156.598 258.41 158.71 258.41C160.744 258.41 162.397 256.81 162.506 254.801C161.921 256.159 160.575 257.112 159 257.112C156.894 257.112 155.18 255.404 155.18 253.292C155.18 253.22 155.198 253.154 155.204 253.081C155.005 253.546 154.896 254.053 154.896 254.584L154.89 254.59Z" fill="#A0C0BA"/>
<path fill-rule="evenodd" clip-rule="evenodd" d="M142.749 253.781C142.749 256.177 144.693 258.114 147.082 258.114C149.478 258.114 151.421 256.171 151.421 253.781C151.421 251.385 149.478 249.442 147.082 249.442C144.686 249.442 142.749 251.385 142.749 253.781ZM143.268 253.781C143.268 251.675 144.976 249.961 147.088 249.961C149.194 249.961 150.908 251.669 150.908 253.781C150.908 255.887 149.2 257.601 147.088 257.601C144.982 257.601 143.268 255.893 143.268 253.781Z" fill="#271C47"/>
<path opacity="0.6" d="M143.269 253.781C143.269 255.887 144.976 257.601 147.088 257.601C149.194 257.601 150.908 255.893 150.908 253.781C150.908 251.675 149.2 249.961 147.088 249.961C144.982 249.961 143.269 251.669 143.269 253.781Z" fill="#A0C0BA"/>
<path opacity="0.6" d="M143.268 253.781C143.268 255.887 144.976 257.601 147.088 257.601C149.122 257.601 150.775 256.002 150.884 253.992C150.298 255.35 148.953 256.303 147.378 256.303C145.272 256.303 143.558 254.596 143.558 252.484C143.558 252.411 143.576 252.345 143.582 252.272C143.383 252.737 143.274 253.244 143.274 253.775L143.268 253.781Z" fill="#A0C0BA"/>
<path d="M154.89 253.087L151.305 252.797V254.596L154.522 254.94L154.884 253.087H154.89Z" fill="#271C47"/>
<path d="M143.877 250.866L141.97 250.378C141.717 250.311 141.463 250.48 141.415 250.734C141.234 251.79 141.904 252.803 142.948 253.051L143.098 253.087L143.877 250.866V250.866Z" fill="#271C47"/>
<path d="M162.602 255.73L162.753 255.76C163.803 255.971 164.835 255.32 165.106 254.288C165.173 254.034 165.01 253.781 164.75 253.733L162.807 253.389L162.596 255.736L162.602 255.73Z" fill="#271C47"/>
<path d="M31.2557 302.805C41.9849 269.489 35.9444 242.394 13.1403 221.515" stroke="white" stroke-width="1.5"/>
<path d="M33.9585 290.151C39.3413 281.051 43.0706 278.064 45.1343 281.19C47.2042 284.316 43.4749 287.303 33.9585 290.151Z" fill="url(#paint27_linear_796_2898)"/>
<path d="M34.418 290.181C23.9543 288.636 19.7845 286.313 21.8965 283.217C24.0086 280.122 28.1844 282.439 34.418 290.181Z" fill="url(#paint28_linear_796_2898)"/>
<path d="M34.6832 279.313C40.0659 270.213 43.7952 267.226 45.859 270.352C47.9288 273.478 44.1995 276.465 34.6832 279.313Z" fill="url(#paint29_linear_796_2898)"/>
<path d="M35.1416 279.343C24.6779 277.798 20.5081 275.475 22.6201 272.379C24.7322 269.284 28.908 271.601 35.1416 279.343Z" fill="url(#paint30_linear_796_2898)"/>
<path d="M34.0859 266.689C38.1049 256.907 41.3634 253.419 43.8617 256.213C46.3599 259.013 43.1014 262.501 34.0859 266.689Z" fill="url(#paint31_linear_796_2898)"/>
<path d="M34.5449 266.653C23.9726 266.629 19.5071 264.933 21.1545 261.56C22.8019 258.192 27.2674 259.888 34.5449 266.653Z" fill="url(#paint32_linear_796_2898)"/>
<path d="M32.8662 256.147C36.8851 246.365 40.1437 242.877 42.642 245.671C45.1402 248.471 41.8817 251.959 32.8662 256.147Z" fill="url(#paint33_linear_796_2898)"/>
<path d="M33.3252 256.111C22.7529 256.086 18.2873 254.391 19.9347 251.018C21.5821 247.65 26.0477 249.346 33.3252 256.111Z" fill="url(#paint34_linear_796_2898)"/>
<path d="M29.2876 244.965C31.2971 234.586 33.8075 230.518 36.8066 232.769C39.8057 235.02 37.3013 239.087 29.2876 244.965Z" fill="url(#paint35_linear_796_2898)"/>
<path d="M29.7344 244.844C19.3612 246.902 14.6544 246.123 15.6018 242.497C16.5492 238.87 21.262 239.655 29.7344 244.844Z" fill="url(#paint36_linear_796_2898)"/>
<path d="M24.19 235.02C26.1995 224.641 28.7098 220.574 31.7089 222.825C34.708 225.075 32.2037 229.143 24.19 235.02Z" fill="url(#paint37_linear_796_2898)"/>
<path d="M24.6348 234.893C14.2616 236.951 9.55467 236.173 10.5021 232.546C11.4495 228.919 16.1624 229.704 24.6348 234.893Z" fill="url(#paint38_linear_796_2898)"/>
<path d="M17.7134 226.475C19.7229 216.096 22.2332 212.029 25.2323 214.28C28.2315 216.531 25.7272 220.598 17.7134 226.475Z" fill="url(#paint39_linear_796_2898)"/>
<path d="M18.1602 226.349C7.78695 228.406 3.08006 227.628 4.02747 224.001C4.97488 220.375 9.6878 221.159 18.1602 226.349Z" fill="url(#paint40_linear_796_2898)"/>
<path d="M16.96 224.852C7.09969 221.026 3.54537 217.84 6.29104 215.288C9.03671 212.735 12.591 215.921 16.96 224.852Z" fill="url(#paint41_linear_796_2898)"/>
<path d="M48.6243 305.339C53.5846 267.582 65.569 249.69 84.5654 251.675C113.066 254.65 72.0017 293.645 48.6243 305.339Z" fill="url(#paint42_linear_796_2898)"/>
<path d="M48.6243 305.339C57.8088 287.037 68.8277 273.128 81.6689 263.605" stroke="white" stroke-width="1.8" stroke-linecap="round" stroke-linejoin="round"/>
<path d="M52.0693 297.79C14.6136 290.893 -2.63286 278.009 0.324015 259.134C4.75933 230.826 41.5875 273.84 52.0693 297.79Z" fill="url(#paint43_linear_796_2898)"/>
<path d="M52.0693 297.79C34.2617 287.677 20.9377 275.958 12.0912 262.646" stroke="white" stroke-width="1.8" stroke-linecap="round" stroke-linejoin="round"/>
<path d="M49.5592 306.214C13.1776 254.083 11.3251 227.616 44.0076 226.813C85.3254 225.793 45.1662 290 49.5592 306.214Z" fill="url(#paint44_linear_796_2898)"/>
<path d="M49.9336 306.45C39.8802 287.157 37.2492 265.458 42.0526 241.35" stroke="white" stroke-width="1.8" stroke-linecap="round" stroke-linejoin="round"/>
<path d="M40.2962 316.075C47.5858 276.797 68.3383 252.858 102.56 244.253" stroke="white" stroke-width="1.7"/>
<path d="M44.4414 301.9C43.9707 289.837 41.8466 284.822 38.0751 286.838C34.3036 288.859 36.4216 293.88 44.4414 301.9Z" fill="url(#paint45_linear_796_2898)"/>
<path d="M43.9647 301.683C55.3095 305.804 60.7586 305.738 60.3181 301.477C59.8775 297.223 54.4224 297.289 43.9647 301.683Z" fill="url(#paint46_linear_796_2898)"/>
<path d="M49.5947 290.621C49.124 278.559 46.9999 273.544 43.2284 275.559C39.4568 277.581 41.575 282.602 49.5947 290.621Z" fill="url(#paint47_linear_796_2898)"/>
<path d="M49.1112 290.404C60.4559 294.526 65.9051 294.459 65.4645 290.199C65.024 285.945 59.5688 286.011 49.1112 290.404Z" fill="url(#paint48_linear_796_2898)"/>
<path d="M57.0355 278.269C58.3027 266.266 56.9209 260.992 52.8959 262.447C48.8709 263.901 50.2528 269.175 57.0355 278.269Z" fill="url(#paint49_linear_796_2898)"/>
<path d="M56.595 277.985C67.2277 283.694 72.6345 284.406 72.8035 280.134C72.9785 275.855 67.5717 275.143 56.595 277.985Z" fill="url(#paint50_linear_796_2898)"/>
<path d="M63.974 268.336C65.2412 256.334 63.8593 251.06 59.8344 252.514C55.8094 253.968 57.1913 259.242 63.974 268.336Z" fill="url(#paint51_linear_796_2898)"/>
<path d="M63.5345 268.053C74.1671 273.761 79.574 274.473 79.743 270.201C79.918 265.922 74.5111 265.21 63.5345 268.053Z" fill="url(#paint52_linear_796_2898)"/>
<path d="M73.6296 259.049C77.2382 247.53 76.9244 242.092 72.6943 242.726C68.4641 243.36 68.7719 248.803 73.6296 259.049Z" fill="url(#paint53_linear_796_2898)"/>
<path d="M73.2507 258.681C82.5497 266.375 87.7092 268.143 88.7169 263.985C89.7307 259.828 84.5713 258.06 73.2507 258.681Z" fill="url(#paint54_linear_796_2898)"/>
<path d="M84.1482 251.826C87.7568 240.306 87.4429 234.869 83.2128 235.503C78.9827 236.136 79.2904 241.58 84.1482 251.826Z" fill="url(#paint55_linear_796_2898)"/>
<path d="M83.7682 251.458C93.0673 259.152 98.2268 260.92 99.2345 256.762C100.248 252.604 95.0888 250.836 83.7682 251.458Z" fill="url(#paint56_linear_796_2898)"/>
<path d="M95.2819 246.751C98.8905 235.231 98.5768 229.794 94.3466 230.428C90.1165 231.062 90.4242 236.505 95.2819 246.751Z" fill="url(#paint57_linear_796_2898)"/>
<path d="M94.902 246.389C104.201 254.083 109.361 255.851 110.368 251.693C111.382 247.536 106.223 245.767 94.902 246.389Z" fill="url(#paint58_linear_796_2898)"/>
<path d="M96.917 245.532C108.889 247.035 114.194 245.761 112.818 241.712C111.442 237.657 106.144 238.936 96.917 245.532Z" fill="url(#paint59_linear_796_2898)"/>
<path d="M19.6043 308.658C16.219 312.78 14.2577 317.662 14.2577 322.888C14.2577 337.684 29.9172 349.681 49.2334 349.681C68.5496 349.681 84.209 337.684 84.209 322.888C84.209 317.764 82.3262 312.985 79.0737 308.912C76.0142 305.092 74.5358 300.24 74.5358 295.352V294.031C74.5358 292.293 73.1298 290.887 71.3918 290.887H27.0749C25.337 290.887 23.931 292.293 23.931 294.031V296.897C23.931 301.206 22.3379 305.321 19.6043 308.652V308.658Z" fill="url(#paint60_linear_796_2898)"/>
<defs>
<linearGradient id="paint0_linear_796_2898" x1="502.993" y1="69.037" x2="474.691" y2="35.9683" gradientUnits="userSpaceOnUse">
<stop offset="0.1" stop-color="white" stop-opacity="0"/>
<stop offset="1" stop-color="white"/>
</linearGradient>
<linearGradient id="paint1_linear_796_2898" x1="293.716" y1="306.311" x2="293.716" y2="239.208" gradientUnits="userSpaceOnUse">
<stop stop-color="#263C79"/>
<stop offset="1" stop-color="#242C54"/>
</linearGradient>
<linearGradient id="paint2_linear_796_2898" x1="389.362" y1="34.8818" x2="62.4159" y2="34.8818" gradientUnits="userSpaceOnUse">
<stop stop-color="#263C79"/>
<stop offset="1" stop-color="#242C54"/>
</linearGradient>
<linearGradient id="paint3_linear_796_2898" x1="389.06" y1="50.0886" x2="43.7694" y2="-98.4793" gradientUnits="userSpaceOnUse">
<stop stop-color="white"/>
<stop offset="1" stop-color="#D1E9E5"/>
</linearGradient>
<linearGradient id="paint4_linear_796_2898" x1="336.622" y1="45.6232" x2="283.277" y2="45.6232" gradientUnits="userSpaceOnUse">
<stop stop-color="#F0D3AF"/>
<stop offset="0.9" stop-color="#F79938"/>
</linearGradient>
<linearGradient id="paint5_linear_796_2898" x1="354.303" y1="166.312" x2="307.657" y2="194.674" gradientUnits="userSpaceOnUse">
<stop stop-color="#2A8982"/>
<stop offset="1" stop-color="#2B9D95"/>
</linearGradient>
<linearGradient id="paint6_linear_796_2898" x1="319.725" y1="125.942" x2="297.096" y2="139.76" gradientUnits="userSpaceOnUse">
<stop stop-color="#F0D3AF"/>
<stop offset="0.9" stop-color="#F79938"/>
</linearGradient>
<linearGradient id="paint7_linear_796_2898" x1="303.614" y1="205.596" x2="278.148" y2="221.105" gradientUnits="userSpaceOnUse">
<stop stop-color="#263C79"/>
<stop offset="1" stop-color="#242C54"/>
</linearGradient>
<linearGradient id="paint8_linear_796_2898" x1="444.155" y1="283.018" x2="301.32" y2="283.018" gradientUnits="userSpaceOnUse">
<stop stop-color="#F0D3AF"/>
<stop offset="0.9" stop-color="#F79938"/>
</linearGradient>
<linearGradient id="paint9_linear_796_2898" x1="414.045" y1="114.597" x2="390.39" y2="114.597" gradientUnits="userSpaceOnUse">
<stop stop-color="#20315A"/>
<stop offset="0.9" stop-color="#1B5B9D"/>
</linearGradient>
<linearGradient id="paint10_linear_796_2898" x1="470.226" y1="206.079" x2="399.563" y2="206.079" gradientUnits="userSpaceOnUse">
<stop stop-color="#354C80"/>
<stop offset="0.9" stop-color="#2E375E"/>
</linearGradient>
<linearGradient id="paint11_linear_796_2898" x1="452.424" y1="211.027" x2="381.761" y2="211.027" gradientUnits="userSpaceOnUse">
<stop stop-color="#354C80"/>
<stop offset="0.9" stop-color="#2E375E"/>
</linearGradient>
<linearGradient id="paint12_linear_796_2898" x1="410.243" y1="153.76" x2="372.347" y2="153.76" gradientUnits="userSpaceOnUse">
<stop stop-color="#A4E3E3"/>
<stop offset="0.9" stop-color="#4CC9BC"/>
</linearGradient>
<linearGradient id="paint13_linear_796_2898" x1="405.415" y1="114.416" x2="362.812" y2="114.416" gradientUnits="userSpaceOnUse">
<stop stop-color="#20315A"/>
<stop offset="0.9" stop-color="#1B5B9D"/>
</linearGradient>
<linearGradient id="paint14_linear_796_2898" x1="145.932" y1="144.588" x2="25.0622" y2="144.588" gradientUnits="userSpaceOnUse">
<stop stop-color="#F0D3AF"/>
<stop offset="0.9" stop-color="#F79938"/>
</linearGradient>
<linearGradient id="paint15_linear_796_2898" x1="175.38" y1="134.148" x2="29.8295" y2="134.148" gradientUnits="userSpaceOnUse">
<stop stop-color="white"/>
<stop offset="1" stop-color="#D1E9E5"/>
</linearGradient>
<linearGradient id="paint16_linear_796_2898" x1="175.38" y1="180.131" x2="145.932" y2="180.131" gradientUnits="userSpaceOnUse">
<stop stop-color="#F0D3AF"/>
<stop offset="0.9" stop-color="#F79938"/>
</linearGradient>
<linearGradient id="paint17_linear_796_2898" x1="118.898" y1="174.881" x2="38.4586" y2="174.881" gradientUnits="userSpaceOnUse">
<stop stop-color="white"/>
<stop offset="1" stop-color="#D1E9E5"/>
</linearGradient>
<linearGradient id="paint18_linear_796_2898" x1="487.362" y1="63.9681" x2="487.362" y2="9.17537" gradientUnits="userSpaceOnUse">
<stop stop-color="#263C79"/>
<stop offset="1" stop-color="#242C54"/>
</linearGradient>
<linearGradient id="paint19_linear_796_2898" x1="399.803" y1="1.45121" x2="399.803" y2="25.8303" gradientUnits="userSpaceOnUse">
<stop stop-color="#263C79"/>
<stop offset="1" stop-color="#242C54"/>
</linearGradient>
<linearGradient id="paint20_linear_796_2898" x1="270.184" y1="349.397" x2="273.624" y2="314.88" gradientUnits="userSpaceOnUse">
<stop stop-color="#2A8982"/>
<stop offset="1" stop-color="#2B9D95"/>
</linearGradient>
<linearGradient id="paint21_linear_796_2898" x1="264.753" y1="338.957" x2="128.797" y2="338.957" gradientUnits="userSpaceOnUse">
<stop stop-color="#2A8982"/>
<stop offset="1" stop-color="#2B9D95"/>
</linearGradient>
<linearGradient id="paint22_linear_796_2898" x1="181.478" y1="300.095" x2="164.581" y2="300.095" gradientUnits="userSpaceOnUse">
<stop stop-color="#263C79"/>
<stop offset="1" stop-color="#242C54"/>
</linearGradient>
<linearGradient id="paint23_linear_796_2898" x1="170.434" y1="266.725" x2="128.917" y2="266.725" gradientUnits="userSpaceOnUse">
<stop stop-color="#263C79"/>
<stop offset="1" stop-color="#242C54"/>
</linearGradient>
<linearGradient id="paint24_linear_796_2898" x1="182.865" y1="288.932" x2="146.236" y2="288.932" gradientUnits="userSpaceOnUse">
<stop stop-color="white"/>
<stop offset="1" stop-color="#D1E9E5"/>
</linearGradient>
<linearGradient id="paint25_linear_796_2898" x1="148.47" y1="271.613" x2="118.841" y2="271.613" gradientUnits="userSpaceOnUse">
<stop stop-color="#263C79"/>
<stop offset="1" stop-color="#242C54"/>
</linearGradient>
<linearGradient id="paint26_linear_796_2898" x1="163.616" y1="226.596" x2="134.349" y2="226.596" gradientUnits="userSpaceOnUse">
<stop stop-color="#20315A"/>
<stop offset="0.9" stop-color="#1B5B9D"/>
</linearGradient>
<linearGradient id="paint27_linear_796_2898" x1="45.7016" y1="278.734" x2="38.762" y2="276.501" gradientUnits="userSpaceOnUse">
<stop stop-color="#263C79"/>
<stop offset="1" stop-color="#242C54"/>
</linearGradient>
<linearGradient id="paint28_linear_796_2898" x1="18.0646" y1="284.949" x2="18.5474" y2="291.225" gradientUnits="userSpaceOnUse">
<stop stop-color="#263C79"/>
<stop offset="1" stop-color="#242C54"/>
</linearGradient>
<linearGradient id="paint29_linear_796_2898" x1="46.4262" y1="267.932" x2="39.4866" y2="265.699" gradientUnits="userSpaceOnUse">
<stop stop-color="#263C79"/>
<stop offset="1" stop-color="#242C54"/>
</linearGradient>
<linearGradient id="paint30_linear_796_2898" x1="18.7883" y1="274.087" x2="19.271" y2="280.363" gradientUnits="userSpaceOnUse">
<stop stop-color="#263C79"/>
<stop offset="1" stop-color="#242C54"/>
</linearGradient>
<linearGradient id="paint31_linear_796_2898" x1="43.4091" y1="253.208" x2="36.5902" y2="252.061" gradientUnits="userSpaceOnUse">
<stop stop-color="#263C79"/>
<stop offset="1" stop-color="#242C54"/>
</linearGradient>
<linearGradient id="paint32_linear_796_2898" x1="16.9183" y1="263.708" x2="18.2459" y2="269.441" gradientUnits="userSpaceOnUse">
<stop stop-color="#263C79"/>
<stop offset="1" stop-color="#242C54"/>
</linearGradient>
<linearGradient id="paint33_linear_796_2898" x1="42.2015" y1="242.648" x2="35.3826" y2="241.501" gradientUnits="userSpaceOnUse">
<stop stop-color="#263C79"/>
<stop offset="1" stop-color="#242C54"/>
</linearGradient>
<linearGradient id="paint34_linear_796_2898" x1="15.7106" y1="253.148" x2="17.0382" y2="258.88" gradientUnits="userSpaceOnUse">
<stop stop-color="#263C79"/>
<stop offset="1" stop-color="#242C54"/>
</linearGradient>
<linearGradient id="paint35_linear_796_2898" x1="35.2617" y1="229.07" x2="28.8652" y2="229.251" gradientUnits="userSpaceOnUse">
<stop stop-color="#263C79"/>
<stop offset="1" stop-color="#242C54"/>
</linearGradient>
<linearGradient id="paint36_linear_796_2898" x1="11.1846" y1="244.156" x2="13.0552" y2="248.441" gradientUnits="userSpaceOnUse">
<stop stop-color="#263C79"/>
<stop offset="1" stop-color="#242C54"/>
</linearGradient>
<linearGradient id="paint37_linear_796_2898" x1="30.1943" y1="219.113" x2="23.7374" y2="219.294" gradientUnits="userSpaceOnUse">
<stop stop-color="#263C79"/>
<stop offset="1" stop-color="#242C54"/>
</linearGradient>
<linearGradient id="paint38_linear_796_2898" x1="6.05469" y1="234.199" x2="7.92536" y2="238.484" gradientUnits="userSpaceOnUse">
<stop stop-color="#263C79"/>
<stop offset="1" stop-color="#242C54"/>
</linearGradient>
<linearGradient id="paint39_linear_796_2898" x1="23.7358" y1="210.605" x2="17.279" y2="210.786" gradientUnits="userSpaceOnUse">
<stop stop-color="#263C79"/>
<stop offset="1" stop-color="#242C54"/>
</linearGradient>
<linearGradient id="paint40_linear_796_2898" x1="-0.401816" y1="225.691" x2="1.46886" y2="229.915" gradientUnits="userSpaceOnUse">
<stop stop-color="#263C79"/>
<stop offset="1" stop-color="#242C54"/>
</linearGradient>
<linearGradient id="paint41_linear_796_2898" x1="3.21951" y1="215.855" x2="2.19366" y2="222.674" gradientUnits="userSpaceOnUse">
<stop stop-color="#263C79"/>
<stop offset="1" stop-color="#242C54"/>
</linearGradient>
<linearGradient id="paint42_linear_796_2898" x1="69.6" y1="238.665" x2="30.9193" y2="262.26" gradientUnits="userSpaceOnUse">
<stop stop-color="#2A8982"/>
<stop offset="1" stop-color="#2B9D95"/>
</linearGradient>
<linearGradient id="paint43_linear_796_2898" x1="-12.1673" y1="273.846" x2="9.61707" y2="314.156" gradientUnits="userSpaceOnUse">
<stop stop-color="#2A8982"/>
<stop offset="1" stop-color="#2B9D95"/>
</linearGradient>
<linearGradient id="paint44_linear_796_2898" x1="40.936" y1="205.234" x2="22.1689" y2="216.639" gradientUnits="userSpaceOnUse">
<stop stop-color="#F0D3AF"/>
<stop offset="0.9" stop-color="#F79938"/>
</linearGradient>
<linearGradient id="paint45_linear_796_2898" x1="40.332" y1="282.596" x2="47.0905" y2="283.802" gradientUnits="userSpaceOnUse">
<stop stop-color="#263C79"/>
<stop offset="1" stop-color="#242C54"/>
</linearGradient>
<linearGradient id="paint46_linear_796_2898" x1="65.1939" y1="303.113" x2="62.4784" y2="307.397" gradientUnits="userSpaceOnUse">
<stop stop-color="#263C79"/>
<stop offset="1" stop-color="#242C54"/>
</linearGradient>
<linearGradient id="paint47_linear_796_2898" x1="45.4611" y1="271.311" x2="52.2197" y2="272.518" gradientUnits="userSpaceOnUse">
<stop stop-color="#263C79"/>
<stop offset="1" stop-color="#242C54"/>
</linearGradient>
<linearGradient id="paint48_linear_796_2898" x1="70.3223" y1="291.828" x2="67.6068" y2="296.113" gradientUnits="userSpaceOnUse">
<stop stop-color="#263C79"/>
<stop offset="1" stop-color="#242C54"/>
</linearGradient>
<linearGradient id="paint49_linear_796_2898" x1="54.8752" y1="257.915" x2="60.3062" y2="259.785" gradientUnits="userSpaceOnUse">
<stop stop-color="#263C79"/>
<stop offset="1" stop-color="#242C54"/>
</linearGradient>
<linearGradient id="paint50_linear_796_2898" x1="77.3836" y1="281.751" x2="73.944" y2="285.673" gradientUnits="userSpaceOnUse">
<stop stop-color="#263C79"/>
<stop offset="1" stop-color="#242C54"/>
</linearGradient>
<linearGradient id="paint51_linear_796_2898" x1="61.8137" y1="248.018" x2="67.2447" y2="249.829" gradientUnits="userSpaceOnUse">
<stop stop-color="#263C79"/>
<stop offset="1" stop-color="#242C54"/>
</linearGradient>
<linearGradient id="paint52_linear_796_2898" x1="84.3231" y1="271.794" x2="80.8835" y2="275.716" gradientUnits="userSpaceOnUse">
<stop stop-color="#263C79"/>
<stop offset="1" stop-color="#242C54"/>
</linearGradient>
<linearGradient id="paint53_linear_796_2898" x1="74.3658" y1="237.941" x2="78.7709" y2="240.475" gradientUnits="userSpaceOnUse">
<stop stop-color="#263C79"/>
<stop offset="1" stop-color="#242C54"/>
</linearGradient>
<linearGradient id="paint54_linear_796_2898" x1="91.2635" y1="265.639" x2="86.4359" y2="269.441" gradientUnits="userSpaceOnUse">
<stop stop-color="#263C79"/>
<stop offset="1" stop-color="#242C54"/>
</linearGradient>
<linearGradient id="paint55_linear_796_2898" x1="84.9266" y1="230.699" x2="89.2714" y2="233.234" gradientUnits="userSpaceOnUse">
<stop stop-color="#263C79"/>
<stop offset="1" stop-color="#242C54"/>
</linearGradient>
<linearGradient id="paint56_linear_796_2898" x1="101.823" y1="258.397" x2="96.9354" y2="262.199" gradientUnits="userSpaceOnUse">
<stop stop-color="#263C79"/>
<stop offset="1" stop-color="#242C54"/>
</linearGradient>
<linearGradient id="paint57_linear_796_2898" x1="96.0302" y1="225.631" x2="100.435" y2="228.165" gradientUnits="userSpaceOnUse">
<stop stop-color="#263C79"/>
<stop offset="1" stop-color="#242C54"/>
</linearGradient>
<linearGradient id="paint58_linear_796_2898" x1="112.927" y1="253.329" x2="108.039" y2="257.13" gradientUnits="userSpaceOnUse">
<stop stop-color="#263C79"/>
<stop offset="1" stop-color="#242C54"/>
</linearGradient>
<linearGradient id="paint59_linear_796_2898" x1="117.331" y1="243.673" x2="115.461" y2="248.923" gradientUnits="userSpaceOnUse">
<stop stop-color="#263C79"/>
<stop offset="1" stop-color="#242C54"/>
</linearGradient>
<linearGradient id="paint60_linear_796_2898" x1="10.6431" y1="286.035" x2="10.6431" y2="353.44" gradientUnits="userSpaceOnUse">
<stop stop-color="#254E98"/>
<stop offset="1" stop-color="#242C54"/>
</linearGradient>
</defs>
</svg>
