<svg width="15" height="15" viewBox="0 0 15 15" fill="none" xmlns="http://www.w3.org/2000/svg">
<path d="M3.99387 9.90101C4.03176 9.88815 4.06677 9.86787 4.09685 9.84135C4.12693 9.81483 4.1515 9.7826 4.16913 9.7465C4.18676 9.71041 4.1971 9.67118 4.19956 9.63108C4.20202 9.59098 4.19655 9.5508 4.18346 9.51287C4.17037 9.47494 4.14992 9.44002 4.1233 9.41011C4.09668 9.38019 4.06441 9.3559 4.02836 9.33861C3.99231 9.32133 3.9532 9.31141 3.91328 9.30942C3.87335 9.30743 3.83342 9.31341 3.79578 9.32702C3.19712 9.53658 2.72418 9.84238 2.35964 10.3253C2.0007 10.8011 1.76572 11.425 1.5955 12.2397L1.14446 14.3984L1.73651 14.5222L2.18755 12.3634C2.34898 11.5908 2.5596 11.0658 2.84162 10.6919C3.11852 10.3248 3.4814 10.0805 3.99378 9.90141L3.99387 9.90101Z" fill="black"/>
<path d="M10.092 5.33332C10.6331 5.33332 11.0718 4.89467 11.0718 4.35358C11.0718 3.81248 10.6331 3.37384 10.092 3.37384C9.55095 3.37384 9.1123 3.81248 9.1123 4.35358C9.1123 4.89467 9.55095 5.33332 10.092 5.33332Z" fill="#111111"/>
<path d="M9.08228 11.5763C9.62337 11.5763 10.062 11.1377 10.062 10.5966C10.062 10.0555 9.62337 9.61682 9.08228 9.61682C8.54118 9.61682 8.10254 10.0555 8.10254 10.5966C8.10254 11.1377 8.54118 11.5763 9.08228 11.5763Z" fill="#111111"/>
<path d="M3.17603 5.33332C3.71712 5.33332 4.15577 4.89467 4.15577 4.35358C4.15577 3.81248 3.71712 3.37384 3.17603 3.37384C2.63493 3.37384 2.19629 3.81248 2.19629 4.35358C2.19629 4.89467 2.63493 5.33332 3.17603 5.33332Z" fill="#111111"/>
<path d="M6.77472 10H6.0664C6.04879 10 6.0319 10.035 6.01945 10.0972C6.007 10.1595 6 10.244 6 10.332V13.8736C6 13.9616 6.007 14.0461 6.01945 14.1084C6.0319 14.1706 6.04879 14.2056 6.0664 14.2056H6.77472C6.79233 14.2056 6.80922 14.1706 6.82167 14.1084C6.83413 14.0461 6.84112 13.9616 6.84112 13.8736V10.332C6.84112 10.244 6.83413 10.1595 6.82167 10.0972C6.80922 10.035 6.79233 10 6.77472 10Z" fill="#111111"/>
<path d="M6.77472 0L6.0664 0C6.04879 0 6.0319 0.0349807 6.01945 0.0972468C6.007 0.159513 6 0.243964 6 0.332022V3.87359C6 3.96164 6.007 4.04609 6.01945 4.10836C6.0319 4.17063 6.04879 4.20561 6.0664 4.20561H6.77472C6.79233 4.20561 6.80922 4.17063 6.82167 4.10836C6.83413 4.04609 6.84112 3.96164 6.84112 3.87359V0.332022C6.84112 0.243964 6.83413 0.159513 6.82167 0.0972468C6.80922 0.0349807 6.79233 0 6.77472 0Z" fill="#111111"/>
<path d="M10 7.06641V7.77472C10 7.79233 10.035 7.80922 10.0972 7.82168C10.1595 7.83413 10.244 7.84113 10.332 7.84113H13.8736C13.9616 7.84113 14.0461 7.83413 14.1084 7.82168C14.1706 7.80922 14.2056 7.79233 14.2056 7.77472V7.06641C14.2056 7.0488 14.1706 7.03191 14.1084 7.01945C14.0461 7.007 13.9616 7 13.8736 7H10.332C10.244 7 10.1595 7.007 10.0972 7.01945C10.035 7.03191 10 7.0488 10 7.06641Z" fill="#111111"/>
<path d="M0 7.06641L0 7.77472C0 7.79233 0.0349807 7.80922 0.0972468 7.82168C0.159513 7.83413 0.243964 7.84113 0.332022 7.84113H3.87359C3.96164 7.84113 4.04609 7.83413 4.10836 7.82168C4.17063 7.80922 4.20561 7.79233 4.20561 7.77472V7.06641C4.20561 7.0488 4.17063 7.03191 4.10836 7.01945C4.04609 7.007 3.96164 7 3.87359 7H0.332022C0.243964 7 0.159513 7.007 0.0972468 7.01945C0.0349807 7.03191 0 7.0488 0 7.06641Z" fill="#111111"/>
<path d="M7.84211 6H6.15789C6.11602 6 6.07586 6.01664 6.04625 6.04625C6.01663 6.07586 6 6.11602 6 6.15789V7.84211C6 7.88398 6.01663 7.92414 6.04625 7.95375C6.07586 7.98336 6.11602 8 6.15789 8H7.84211C7.88398 8 7.92414 7.98336 7.95375 7.95375C7.98336 7.92414 8 7.88398 8 7.84211V6.15789C8 6.11602 7.98336 6.07586 7.95375 6.04625C7.92414 6.01664 7.88398 6 7.84211 6ZM7.68421 7.68421H6.31579V6.31579H7.68421V7.68421Z" fill="#111111"/>
</svg>
